%TF.GenerationSoftware,KiCad,Pcbnew,9.0.7*%
%TF.CreationDate,2026-03-06T14:26:26+05:30*%
%TF.ProjectId,usb to uart,75736220-746f-4207-9561-72742e6b6963,rev?*%
%TF.SameCoordinates,Original*%
%TF.FileFunction,Legend,Top*%
%TF.FilePolarity,Positive*%
%FSLAX46Y46*%
G04 Gerber Fmt 4.6, Leading zero omitted, Abs format (unit mm)*
G04 Created by KiCad (PCBNEW 9.0.7) date 2026-03-06 14:26:26*
%MOMM*%
%LPD*%
G01*
G04 APERTURE LIST*
%ADD10C,0.100000*%
%ADD11C,0.125000*%
%ADD12C,0.150000*%
%ADD13C,0.120000*%
G04 APERTURE END LIST*
D10*
X143713408Y-87633609D02*
X143880074Y-88133609D01*
X143880074Y-88133609D02*
X144046741Y-87633609D01*
X144499121Y-88085990D02*
X144475312Y-88109800D01*
X144475312Y-88109800D02*
X144403883Y-88133609D01*
X144403883Y-88133609D02*
X144356264Y-88133609D01*
X144356264Y-88133609D02*
X144284836Y-88109800D01*
X144284836Y-88109800D02*
X144237217Y-88062180D01*
X144237217Y-88062180D02*
X144213407Y-88014561D01*
X144213407Y-88014561D02*
X144189598Y-87919323D01*
X144189598Y-87919323D02*
X144189598Y-87847895D01*
X144189598Y-87847895D02*
X144213407Y-87752657D01*
X144213407Y-87752657D02*
X144237217Y-87705038D01*
X144237217Y-87705038D02*
X144284836Y-87657419D01*
X144284836Y-87657419D02*
X144356264Y-87633609D01*
X144356264Y-87633609D02*
X144403883Y-87633609D01*
X144403883Y-87633609D02*
X144475312Y-87657419D01*
X144475312Y-87657419D02*
X144499121Y-87681228D01*
X144999121Y-88085990D02*
X144975312Y-88109800D01*
X144975312Y-88109800D02*
X144903883Y-88133609D01*
X144903883Y-88133609D02*
X144856264Y-88133609D01*
X144856264Y-88133609D02*
X144784836Y-88109800D01*
X144784836Y-88109800D02*
X144737217Y-88062180D01*
X144737217Y-88062180D02*
X144713407Y-88014561D01*
X144713407Y-88014561D02*
X144689598Y-87919323D01*
X144689598Y-87919323D02*
X144689598Y-87847895D01*
X144689598Y-87847895D02*
X144713407Y-87752657D01*
X144713407Y-87752657D02*
X144737217Y-87705038D01*
X144737217Y-87705038D02*
X144784836Y-87657419D01*
X144784836Y-87657419D02*
X144856264Y-87633609D01*
X144856264Y-87633609D02*
X144903883Y-87633609D01*
X144903883Y-87633609D02*
X144975312Y-87657419D01*
X144975312Y-87657419D02*
X144999121Y-87681228D01*
X143870550Y-85533609D02*
X143703884Y-85295514D01*
X143584836Y-85533609D02*
X143584836Y-85033609D01*
X143584836Y-85033609D02*
X143775312Y-85033609D01*
X143775312Y-85033609D02*
X143822931Y-85057419D01*
X143822931Y-85057419D02*
X143846741Y-85081228D01*
X143846741Y-85081228D02*
X143870550Y-85128847D01*
X143870550Y-85128847D02*
X143870550Y-85200276D01*
X143870550Y-85200276D02*
X143846741Y-85247895D01*
X143846741Y-85247895D02*
X143822931Y-85271704D01*
X143822931Y-85271704D02*
X143775312Y-85295514D01*
X143775312Y-85295514D02*
X143584836Y-85295514D01*
X144037217Y-85033609D02*
X144370550Y-85533609D01*
X144370550Y-85033609D02*
X144037217Y-85533609D01*
X143513408Y-82633609D02*
X143799122Y-82633609D01*
X143656265Y-83133609D02*
X143656265Y-82633609D01*
X143918169Y-82633609D02*
X144251502Y-83133609D01*
X144251502Y-82633609D02*
X143918169Y-83133609D01*
X144046741Y-80257419D02*
X143999122Y-80233609D01*
X143999122Y-80233609D02*
X143927693Y-80233609D01*
X143927693Y-80233609D02*
X143856265Y-80257419D01*
X143856265Y-80257419D02*
X143808646Y-80305038D01*
X143808646Y-80305038D02*
X143784836Y-80352657D01*
X143784836Y-80352657D02*
X143761027Y-80447895D01*
X143761027Y-80447895D02*
X143761027Y-80519323D01*
X143761027Y-80519323D02*
X143784836Y-80614561D01*
X143784836Y-80614561D02*
X143808646Y-80662180D01*
X143808646Y-80662180D02*
X143856265Y-80709800D01*
X143856265Y-80709800D02*
X143927693Y-80733609D01*
X143927693Y-80733609D02*
X143975312Y-80733609D01*
X143975312Y-80733609D02*
X144046741Y-80709800D01*
X144046741Y-80709800D02*
X144070550Y-80685990D01*
X144070550Y-80685990D02*
X144070550Y-80519323D01*
X144070550Y-80519323D02*
X143975312Y-80519323D01*
X144284836Y-80733609D02*
X144284836Y-80233609D01*
X144284836Y-80233609D02*
X144570550Y-80733609D01*
X144570550Y-80733609D02*
X144570550Y-80233609D01*
X144808646Y-80733609D02*
X144808646Y-80233609D01*
X144808646Y-80233609D02*
X144927694Y-80233609D01*
X144927694Y-80233609D02*
X144999122Y-80257419D01*
X144999122Y-80257419D02*
X145046741Y-80305038D01*
X145046741Y-80305038D02*
X145070551Y-80352657D01*
X145070551Y-80352657D02*
X145094360Y-80447895D01*
X145094360Y-80447895D02*
X145094360Y-80519323D01*
X145094360Y-80519323D02*
X145070551Y-80614561D01*
X145070551Y-80614561D02*
X145046741Y-80662180D01*
X145046741Y-80662180D02*
X144999122Y-80709800D01*
X144999122Y-80709800D02*
X144927694Y-80733609D01*
X144927694Y-80733609D02*
X144808646Y-80733609D01*
D11*
X141230952Y-85424809D02*
X141230952Y-84924809D01*
X141230952Y-84924809D02*
X141350000Y-84924809D01*
X141350000Y-84924809D02*
X141421428Y-84948619D01*
X141421428Y-84948619D02*
X141469047Y-84996238D01*
X141469047Y-84996238D02*
X141492857Y-85043857D01*
X141492857Y-85043857D02*
X141516666Y-85139095D01*
X141516666Y-85139095D02*
X141516666Y-85210523D01*
X141516666Y-85210523D02*
X141492857Y-85305761D01*
X141492857Y-85305761D02*
X141469047Y-85353380D01*
X141469047Y-85353380D02*
X141421428Y-85401000D01*
X141421428Y-85401000D02*
X141350000Y-85424809D01*
X141350000Y-85424809D02*
X141230952Y-85424809D01*
X141945238Y-85091476D02*
X141945238Y-85424809D01*
X141826190Y-84901000D02*
X141707143Y-85258142D01*
X141707143Y-85258142D02*
X142016666Y-85258142D01*
X141430952Y-87824809D02*
X141430952Y-87324809D01*
X141430952Y-87324809D02*
X141550000Y-87324809D01*
X141550000Y-87324809D02*
X141621428Y-87348619D01*
X141621428Y-87348619D02*
X141669047Y-87396238D01*
X141669047Y-87396238D02*
X141692857Y-87443857D01*
X141692857Y-87443857D02*
X141716666Y-87539095D01*
X141716666Y-87539095D02*
X141716666Y-87610523D01*
X141716666Y-87610523D02*
X141692857Y-87705761D01*
X141692857Y-87705761D02*
X141669047Y-87753380D01*
X141669047Y-87753380D02*
X141621428Y-87801000D01*
X141621428Y-87801000D02*
X141550000Y-87824809D01*
X141550000Y-87824809D02*
X141430952Y-87824809D01*
X142169047Y-87324809D02*
X141930952Y-87324809D01*
X141930952Y-87324809D02*
X141907143Y-87562904D01*
X141907143Y-87562904D02*
X141930952Y-87539095D01*
X141930952Y-87539095D02*
X141978571Y-87515285D01*
X141978571Y-87515285D02*
X142097619Y-87515285D01*
X142097619Y-87515285D02*
X142145238Y-87539095D01*
X142145238Y-87539095D02*
X142169047Y-87562904D01*
X142169047Y-87562904D02*
X142192857Y-87610523D01*
X142192857Y-87610523D02*
X142192857Y-87729571D01*
X142192857Y-87729571D02*
X142169047Y-87777190D01*
X142169047Y-87777190D02*
X142145238Y-87801000D01*
X142145238Y-87801000D02*
X142097619Y-87824809D01*
X142097619Y-87824809D02*
X141978571Y-87824809D01*
X141978571Y-87824809D02*
X141930952Y-87801000D01*
X141930952Y-87801000D02*
X141907143Y-87777190D01*
X141343452Y-90424809D02*
X141343452Y-89924809D01*
X141343452Y-89924809D02*
X141462500Y-89924809D01*
X141462500Y-89924809D02*
X141533928Y-89948619D01*
X141533928Y-89948619D02*
X141581547Y-89996238D01*
X141581547Y-89996238D02*
X141605357Y-90043857D01*
X141605357Y-90043857D02*
X141629166Y-90139095D01*
X141629166Y-90139095D02*
X141629166Y-90210523D01*
X141629166Y-90210523D02*
X141605357Y-90305761D01*
X141605357Y-90305761D02*
X141581547Y-90353380D01*
X141581547Y-90353380D02*
X141533928Y-90401000D01*
X141533928Y-90401000D02*
X141462500Y-90424809D01*
X141462500Y-90424809D02*
X141343452Y-90424809D01*
X141795833Y-89924809D02*
X142105357Y-89924809D01*
X142105357Y-89924809D02*
X141938690Y-90115285D01*
X141938690Y-90115285D02*
X142010119Y-90115285D01*
X142010119Y-90115285D02*
X142057738Y-90139095D01*
X142057738Y-90139095D02*
X142081547Y-90162904D01*
X142081547Y-90162904D02*
X142105357Y-90210523D01*
X142105357Y-90210523D02*
X142105357Y-90329571D01*
X142105357Y-90329571D02*
X142081547Y-90377190D01*
X142081547Y-90377190D02*
X142057738Y-90401000D01*
X142057738Y-90401000D02*
X142010119Y-90424809D01*
X142010119Y-90424809D02*
X141867262Y-90424809D01*
X141867262Y-90424809D02*
X141819643Y-90401000D01*
X141819643Y-90401000D02*
X141795833Y-90377190D01*
X138030952Y-90624809D02*
X138030952Y-90124809D01*
X138030952Y-90124809D02*
X138150000Y-90124809D01*
X138150000Y-90124809D02*
X138221428Y-90148619D01*
X138221428Y-90148619D02*
X138269047Y-90196238D01*
X138269047Y-90196238D02*
X138292857Y-90243857D01*
X138292857Y-90243857D02*
X138316666Y-90339095D01*
X138316666Y-90339095D02*
X138316666Y-90410523D01*
X138316666Y-90410523D02*
X138292857Y-90505761D01*
X138292857Y-90505761D02*
X138269047Y-90553380D01*
X138269047Y-90553380D02*
X138221428Y-90601000D01*
X138221428Y-90601000D02*
X138150000Y-90624809D01*
X138150000Y-90624809D02*
X138030952Y-90624809D01*
X138507143Y-90172428D02*
X138530952Y-90148619D01*
X138530952Y-90148619D02*
X138578571Y-90124809D01*
X138578571Y-90124809D02*
X138697619Y-90124809D01*
X138697619Y-90124809D02*
X138745238Y-90148619D01*
X138745238Y-90148619D02*
X138769047Y-90172428D01*
X138769047Y-90172428D02*
X138792857Y-90220047D01*
X138792857Y-90220047D02*
X138792857Y-90267666D01*
X138792857Y-90267666D02*
X138769047Y-90339095D01*
X138769047Y-90339095D02*
X138483333Y-90624809D01*
X138483333Y-90624809D02*
X138792857Y-90624809D01*
X118033334Y-82762904D02*
X117866667Y-82762904D01*
X117866667Y-83024809D02*
X117866667Y-82524809D01*
X117866667Y-82524809D02*
X118104762Y-82524809D01*
X118557143Y-83024809D02*
X118271429Y-83024809D01*
X118414286Y-83024809D02*
X118414286Y-82524809D01*
X118414286Y-82524809D02*
X118366667Y-82596238D01*
X118366667Y-82596238D02*
X118319048Y-82643857D01*
X118319048Y-82643857D02*
X118271429Y-82667666D01*
X125921666Y-85624809D02*
X125755000Y-85386714D01*
X125635952Y-85624809D02*
X125635952Y-85124809D01*
X125635952Y-85124809D02*
X125826428Y-85124809D01*
X125826428Y-85124809D02*
X125874047Y-85148619D01*
X125874047Y-85148619D02*
X125897857Y-85172428D01*
X125897857Y-85172428D02*
X125921666Y-85220047D01*
X125921666Y-85220047D02*
X125921666Y-85291476D01*
X125921666Y-85291476D02*
X125897857Y-85339095D01*
X125897857Y-85339095D02*
X125874047Y-85362904D01*
X125874047Y-85362904D02*
X125826428Y-85386714D01*
X125826428Y-85386714D02*
X125635952Y-85386714D01*
X126088333Y-85124809D02*
X126397857Y-85124809D01*
X126397857Y-85124809D02*
X126231190Y-85315285D01*
X126231190Y-85315285D02*
X126302619Y-85315285D01*
X126302619Y-85315285D02*
X126350238Y-85339095D01*
X126350238Y-85339095D02*
X126374047Y-85362904D01*
X126374047Y-85362904D02*
X126397857Y-85410523D01*
X126397857Y-85410523D02*
X126397857Y-85529571D01*
X126397857Y-85529571D02*
X126374047Y-85577190D01*
X126374047Y-85577190D02*
X126350238Y-85601000D01*
X126350238Y-85601000D02*
X126302619Y-85624809D01*
X126302619Y-85624809D02*
X126159762Y-85624809D01*
X126159762Y-85624809D02*
X126112143Y-85601000D01*
X126112143Y-85601000D02*
X126088333Y-85577190D01*
X125921666Y-88224809D02*
X125755000Y-87986714D01*
X125635952Y-88224809D02*
X125635952Y-87724809D01*
X125635952Y-87724809D02*
X125826428Y-87724809D01*
X125826428Y-87724809D02*
X125874047Y-87748619D01*
X125874047Y-87748619D02*
X125897857Y-87772428D01*
X125897857Y-87772428D02*
X125921666Y-87820047D01*
X125921666Y-87820047D02*
X125921666Y-87891476D01*
X125921666Y-87891476D02*
X125897857Y-87939095D01*
X125897857Y-87939095D02*
X125874047Y-87962904D01*
X125874047Y-87962904D02*
X125826428Y-87986714D01*
X125826428Y-87986714D02*
X125635952Y-87986714D01*
X126350238Y-87891476D02*
X126350238Y-88224809D01*
X126231190Y-87701000D02*
X126112143Y-88058142D01*
X126112143Y-88058142D02*
X126421666Y-88058142D01*
X121971666Y-80577190D02*
X121947857Y-80601000D01*
X121947857Y-80601000D02*
X121876428Y-80624809D01*
X121876428Y-80624809D02*
X121828809Y-80624809D01*
X121828809Y-80624809D02*
X121757381Y-80601000D01*
X121757381Y-80601000D02*
X121709762Y-80553380D01*
X121709762Y-80553380D02*
X121685952Y-80505761D01*
X121685952Y-80505761D02*
X121662143Y-80410523D01*
X121662143Y-80410523D02*
X121662143Y-80339095D01*
X121662143Y-80339095D02*
X121685952Y-80243857D01*
X121685952Y-80243857D02*
X121709762Y-80196238D01*
X121709762Y-80196238D02*
X121757381Y-80148619D01*
X121757381Y-80148619D02*
X121828809Y-80124809D01*
X121828809Y-80124809D02*
X121876428Y-80124809D01*
X121876428Y-80124809D02*
X121947857Y-80148619D01*
X121947857Y-80148619D02*
X121971666Y-80172428D01*
X122447857Y-80624809D02*
X122162143Y-80624809D01*
X122305000Y-80624809D02*
X122305000Y-80124809D01*
X122305000Y-80124809D02*
X122257381Y-80196238D01*
X122257381Y-80196238D02*
X122209762Y-80243857D01*
X122209762Y-80243857D02*
X122162143Y-80267666D01*
D12*
X135618095Y-79154819D02*
X135618095Y-79964342D01*
X135618095Y-79964342D02*
X135665714Y-80059580D01*
X135665714Y-80059580D02*
X135713333Y-80107200D01*
X135713333Y-80107200D02*
X135808571Y-80154819D01*
X135808571Y-80154819D02*
X135999047Y-80154819D01*
X135999047Y-80154819D02*
X136094285Y-80107200D01*
X136094285Y-80107200D02*
X136141904Y-80059580D01*
X136141904Y-80059580D02*
X136189523Y-79964342D01*
X136189523Y-79964342D02*
X136189523Y-79154819D01*
X137189523Y-80154819D02*
X136618095Y-80154819D01*
X136903809Y-80154819D02*
X136903809Y-79154819D01*
X136903809Y-79154819D02*
X136808571Y-79297676D01*
X136808571Y-79297676D02*
X136713333Y-79392914D01*
X136713333Y-79392914D02*
X136618095Y-79440533D01*
D11*
X125916666Y-83224809D02*
X125750000Y-82986714D01*
X125630952Y-83224809D02*
X125630952Y-82724809D01*
X125630952Y-82724809D02*
X125821428Y-82724809D01*
X125821428Y-82724809D02*
X125869047Y-82748619D01*
X125869047Y-82748619D02*
X125892857Y-82772428D01*
X125892857Y-82772428D02*
X125916666Y-82820047D01*
X125916666Y-82820047D02*
X125916666Y-82891476D01*
X125916666Y-82891476D02*
X125892857Y-82939095D01*
X125892857Y-82939095D02*
X125869047Y-82962904D01*
X125869047Y-82962904D02*
X125821428Y-82986714D01*
X125821428Y-82986714D02*
X125630952Y-82986714D01*
X126107143Y-82772428D02*
X126130952Y-82748619D01*
X126130952Y-82748619D02*
X126178571Y-82724809D01*
X126178571Y-82724809D02*
X126297619Y-82724809D01*
X126297619Y-82724809D02*
X126345238Y-82748619D01*
X126345238Y-82748619D02*
X126369047Y-82772428D01*
X126369047Y-82772428D02*
X126392857Y-82820047D01*
X126392857Y-82820047D02*
X126392857Y-82867666D01*
X126392857Y-82867666D02*
X126369047Y-82939095D01*
X126369047Y-82939095D02*
X126083333Y-83224809D01*
X126083333Y-83224809D02*
X126392857Y-83224809D01*
X121916666Y-85577190D02*
X121892857Y-85601000D01*
X121892857Y-85601000D02*
X121821428Y-85624809D01*
X121821428Y-85624809D02*
X121773809Y-85624809D01*
X121773809Y-85624809D02*
X121702381Y-85601000D01*
X121702381Y-85601000D02*
X121654762Y-85553380D01*
X121654762Y-85553380D02*
X121630952Y-85505761D01*
X121630952Y-85505761D02*
X121607143Y-85410523D01*
X121607143Y-85410523D02*
X121607143Y-85339095D01*
X121607143Y-85339095D02*
X121630952Y-85243857D01*
X121630952Y-85243857D02*
X121654762Y-85196238D01*
X121654762Y-85196238D02*
X121702381Y-85148619D01*
X121702381Y-85148619D02*
X121773809Y-85124809D01*
X121773809Y-85124809D02*
X121821428Y-85124809D01*
X121821428Y-85124809D02*
X121892857Y-85148619D01*
X121892857Y-85148619D02*
X121916666Y-85172428D01*
X122345238Y-85291476D02*
X122345238Y-85624809D01*
X122226190Y-85101000D02*
X122107143Y-85458142D01*
X122107143Y-85458142D02*
X122416666Y-85458142D01*
X121911666Y-83177190D02*
X121887857Y-83201000D01*
X121887857Y-83201000D02*
X121816428Y-83224809D01*
X121816428Y-83224809D02*
X121768809Y-83224809D01*
X121768809Y-83224809D02*
X121697381Y-83201000D01*
X121697381Y-83201000D02*
X121649762Y-83153380D01*
X121649762Y-83153380D02*
X121625952Y-83105761D01*
X121625952Y-83105761D02*
X121602143Y-83010523D01*
X121602143Y-83010523D02*
X121602143Y-82939095D01*
X121602143Y-82939095D02*
X121625952Y-82843857D01*
X121625952Y-82843857D02*
X121649762Y-82796238D01*
X121649762Y-82796238D02*
X121697381Y-82748619D01*
X121697381Y-82748619D02*
X121768809Y-82724809D01*
X121768809Y-82724809D02*
X121816428Y-82724809D01*
X121816428Y-82724809D02*
X121887857Y-82748619D01*
X121887857Y-82748619D02*
X121911666Y-82772428D01*
X122078333Y-82724809D02*
X122387857Y-82724809D01*
X122387857Y-82724809D02*
X122221190Y-82915285D01*
X122221190Y-82915285D02*
X122292619Y-82915285D01*
X122292619Y-82915285D02*
X122340238Y-82939095D01*
X122340238Y-82939095D02*
X122364047Y-82962904D01*
X122364047Y-82962904D02*
X122387857Y-83010523D01*
X122387857Y-83010523D02*
X122387857Y-83129571D01*
X122387857Y-83129571D02*
X122364047Y-83177190D01*
X122364047Y-83177190D02*
X122340238Y-83201000D01*
X122340238Y-83201000D02*
X122292619Y-83224809D01*
X122292619Y-83224809D02*
X122149762Y-83224809D01*
X122149762Y-83224809D02*
X122102143Y-83201000D01*
X122102143Y-83201000D02*
X122078333Y-83177190D01*
X117430952Y-87024809D02*
X117430952Y-86524809D01*
X117430952Y-86524809D02*
X117550000Y-86524809D01*
X117550000Y-86524809D02*
X117621428Y-86548619D01*
X117621428Y-86548619D02*
X117669047Y-86596238D01*
X117669047Y-86596238D02*
X117692857Y-86643857D01*
X117692857Y-86643857D02*
X117716666Y-86739095D01*
X117716666Y-86739095D02*
X117716666Y-86810523D01*
X117716666Y-86810523D02*
X117692857Y-86905761D01*
X117692857Y-86905761D02*
X117669047Y-86953380D01*
X117669047Y-86953380D02*
X117621428Y-87001000D01*
X117621428Y-87001000D02*
X117550000Y-87024809D01*
X117550000Y-87024809D02*
X117430952Y-87024809D01*
X118192857Y-87024809D02*
X117907143Y-87024809D01*
X118050000Y-87024809D02*
X118050000Y-86524809D01*
X118050000Y-86524809D02*
X118002381Y-86596238D01*
X118002381Y-86596238D02*
X117954762Y-86643857D01*
X117954762Y-86643857D02*
X117907143Y-86667666D01*
D12*
X109054819Y-85133333D02*
X109769104Y-85133333D01*
X109769104Y-85133333D02*
X109911961Y-85180952D01*
X109911961Y-85180952D02*
X110007200Y-85276190D01*
X110007200Y-85276190D02*
X110054819Y-85419047D01*
X110054819Y-85419047D02*
X110054819Y-85514285D01*
X110054819Y-84133333D02*
X110054819Y-84704761D01*
X110054819Y-84419047D02*
X109054819Y-84419047D01*
X109054819Y-84419047D02*
X109197676Y-84514285D01*
X109197676Y-84514285D02*
X109292914Y-84609523D01*
X109292914Y-84609523D02*
X109340533Y-84704761D01*
D11*
X129931666Y-83224809D02*
X129765000Y-82986714D01*
X129645952Y-83224809D02*
X129645952Y-82724809D01*
X129645952Y-82724809D02*
X129836428Y-82724809D01*
X129836428Y-82724809D02*
X129884047Y-82748619D01*
X129884047Y-82748619D02*
X129907857Y-82772428D01*
X129907857Y-82772428D02*
X129931666Y-82820047D01*
X129931666Y-82820047D02*
X129931666Y-82891476D01*
X129931666Y-82891476D02*
X129907857Y-82939095D01*
X129907857Y-82939095D02*
X129884047Y-82962904D01*
X129884047Y-82962904D02*
X129836428Y-82986714D01*
X129836428Y-82986714D02*
X129645952Y-82986714D01*
X130098333Y-82724809D02*
X130431666Y-82724809D01*
X130431666Y-82724809D02*
X130217381Y-83224809D01*
X129931666Y-80624809D02*
X129765000Y-80386714D01*
X129645952Y-80624809D02*
X129645952Y-80124809D01*
X129645952Y-80124809D02*
X129836428Y-80124809D01*
X129836428Y-80124809D02*
X129884047Y-80148619D01*
X129884047Y-80148619D02*
X129907857Y-80172428D01*
X129907857Y-80172428D02*
X129931666Y-80220047D01*
X129931666Y-80220047D02*
X129931666Y-80291476D01*
X129931666Y-80291476D02*
X129907857Y-80339095D01*
X129907857Y-80339095D02*
X129884047Y-80362904D01*
X129884047Y-80362904D02*
X129836428Y-80386714D01*
X129836428Y-80386714D02*
X129645952Y-80386714D01*
X130360238Y-80124809D02*
X130265000Y-80124809D01*
X130265000Y-80124809D02*
X130217381Y-80148619D01*
X130217381Y-80148619D02*
X130193571Y-80172428D01*
X130193571Y-80172428D02*
X130145952Y-80243857D01*
X130145952Y-80243857D02*
X130122143Y-80339095D01*
X130122143Y-80339095D02*
X130122143Y-80529571D01*
X130122143Y-80529571D02*
X130145952Y-80577190D01*
X130145952Y-80577190D02*
X130169762Y-80601000D01*
X130169762Y-80601000D02*
X130217381Y-80624809D01*
X130217381Y-80624809D02*
X130312619Y-80624809D01*
X130312619Y-80624809D02*
X130360238Y-80601000D01*
X130360238Y-80601000D02*
X130384047Y-80577190D01*
X130384047Y-80577190D02*
X130407857Y-80529571D01*
X130407857Y-80529571D02*
X130407857Y-80410523D01*
X130407857Y-80410523D02*
X130384047Y-80362904D01*
X130384047Y-80362904D02*
X130360238Y-80339095D01*
X130360238Y-80339095D02*
X130312619Y-80315285D01*
X130312619Y-80315285D02*
X130217381Y-80315285D01*
X130217381Y-80315285D02*
X130169762Y-80339095D01*
X130169762Y-80339095D02*
X130145952Y-80362904D01*
X130145952Y-80362904D02*
X130122143Y-80410523D01*
X129516666Y-88177190D02*
X129492857Y-88201000D01*
X129492857Y-88201000D02*
X129421428Y-88224809D01*
X129421428Y-88224809D02*
X129373809Y-88224809D01*
X129373809Y-88224809D02*
X129302381Y-88201000D01*
X129302381Y-88201000D02*
X129254762Y-88153380D01*
X129254762Y-88153380D02*
X129230952Y-88105761D01*
X129230952Y-88105761D02*
X129207143Y-88010523D01*
X129207143Y-88010523D02*
X129207143Y-87939095D01*
X129207143Y-87939095D02*
X129230952Y-87843857D01*
X129230952Y-87843857D02*
X129254762Y-87796238D01*
X129254762Y-87796238D02*
X129302381Y-87748619D01*
X129302381Y-87748619D02*
X129373809Y-87724809D01*
X129373809Y-87724809D02*
X129421428Y-87724809D01*
X129421428Y-87724809D02*
X129492857Y-87748619D01*
X129492857Y-87748619D02*
X129516666Y-87772428D01*
X129945238Y-87724809D02*
X129850000Y-87724809D01*
X129850000Y-87724809D02*
X129802381Y-87748619D01*
X129802381Y-87748619D02*
X129778571Y-87772428D01*
X129778571Y-87772428D02*
X129730952Y-87843857D01*
X129730952Y-87843857D02*
X129707143Y-87939095D01*
X129707143Y-87939095D02*
X129707143Y-88129571D01*
X129707143Y-88129571D02*
X129730952Y-88177190D01*
X129730952Y-88177190D02*
X129754762Y-88201000D01*
X129754762Y-88201000D02*
X129802381Y-88224809D01*
X129802381Y-88224809D02*
X129897619Y-88224809D01*
X129897619Y-88224809D02*
X129945238Y-88201000D01*
X129945238Y-88201000D02*
X129969047Y-88177190D01*
X129969047Y-88177190D02*
X129992857Y-88129571D01*
X129992857Y-88129571D02*
X129992857Y-88010523D01*
X129992857Y-88010523D02*
X129969047Y-87962904D01*
X129969047Y-87962904D02*
X129945238Y-87939095D01*
X129945238Y-87939095D02*
X129897619Y-87915285D01*
X129897619Y-87915285D02*
X129802381Y-87915285D01*
X129802381Y-87915285D02*
X129754762Y-87939095D01*
X129754762Y-87939095D02*
X129730952Y-87962904D01*
X129730952Y-87962904D02*
X129707143Y-88010523D01*
X129693571Y-85624809D02*
X129526905Y-85386714D01*
X129407857Y-85624809D02*
X129407857Y-85124809D01*
X129407857Y-85124809D02*
X129598333Y-85124809D01*
X129598333Y-85124809D02*
X129645952Y-85148619D01*
X129645952Y-85148619D02*
X129669762Y-85172428D01*
X129669762Y-85172428D02*
X129693571Y-85220047D01*
X129693571Y-85220047D02*
X129693571Y-85291476D01*
X129693571Y-85291476D02*
X129669762Y-85339095D01*
X129669762Y-85339095D02*
X129645952Y-85362904D01*
X129645952Y-85362904D02*
X129598333Y-85386714D01*
X129598333Y-85386714D02*
X129407857Y-85386714D01*
X130169762Y-85624809D02*
X129884048Y-85624809D01*
X130026905Y-85624809D02*
X130026905Y-85124809D01*
X130026905Y-85124809D02*
X129979286Y-85196238D01*
X129979286Y-85196238D02*
X129931667Y-85243857D01*
X129931667Y-85243857D02*
X129884048Y-85267666D01*
X130479285Y-85124809D02*
X130526904Y-85124809D01*
X130526904Y-85124809D02*
X130574523Y-85148619D01*
X130574523Y-85148619D02*
X130598333Y-85172428D01*
X130598333Y-85172428D02*
X130622142Y-85220047D01*
X130622142Y-85220047D02*
X130645952Y-85315285D01*
X130645952Y-85315285D02*
X130645952Y-85434333D01*
X130645952Y-85434333D02*
X130622142Y-85529571D01*
X130622142Y-85529571D02*
X130598333Y-85577190D01*
X130598333Y-85577190D02*
X130574523Y-85601000D01*
X130574523Y-85601000D02*
X130526904Y-85624809D01*
X130526904Y-85624809D02*
X130479285Y-85624809D01*
X130479285Y-85624809D02*
X130431666Y-85601000D01*
X130431666Y-85601000D02*
X130407857Y-85577190D01*
X130407857Y-85577190D02*
X130384047Y-85529571D01*
X130384047Y-85529571D02*
X130360238Y-85434333D01*
X130360238Y-85434333D02*
X130360238Y-85315285D01*
X130360238Y-85315285D02*
X130384047Y-85220047D01*
X130384047Y-85220047D02*
X130407857Y-85172428D01*
X130407857Y-85172428D02*
X130431666Y-85148619D01*
X130431666Y-85148619D02*
X130479285Y-85124809D01*
X125921666Y-80624809D02*
X125755000Y-80386714D01*
X125635952Y-80624809D02*
X125635952Y-80124809D01*
X125635952Y-80124809D02*
X125826428Y-80124809D01*
X125826428Y-80124809D02*
X125874047Y-80148619D01*
X125874047Y-80148619D02*
X125897857Y-80172428D01*
X125897857Y-80172428D02*
X125921666Y-80220047D01*
X125921666Y-80220047D02*
X125921666Y-80291476D01*
X125921666Y-80291476D02*
X125897857Y-80339095D01*
X125897857Y-80339095D02*
X125874047Y-80362904D01*
X125874047Y-80362904D02*
X125826428Y-80386714D01*
X125826428Y-80386714D02*
X125635952Y-80386714D01*
X126397857Y-80624809D02*
X126112143Y-80624809D01*
X126255000Y-80624809D02*
X126255000Y-80124809D01*
X126255000Y-80124809D02*
X126207381Y-80196238D01*
X126207381Y-80196238D02*
X126159762Y-80243857D01*
X126159762Y-80243857D02*
X126112143Y-80267666D01*
X121916666Y-88177190D02*
X121892857Y-88201000D01*
X121892857Y-88201000D02*
X121821428Y-88224809D01*
X121821428Y-88224809D02*
X121773809Y-88224809D01*
X121773809Y-88224809D02*
X121702381Y-88201000D01*
X121702381Y-88201000D02*
X121654762Y-88153380D01*
X121654762Y-88153380D02*
X121630952Y-88105761D01*
X121630952Y-88105761D02*
X121607143Y-88010523D01*
X121607143Y-88010523D02*
X121607143Y-87939095D01*
X121607143Y-87939095D02*
X121630952Y-87843857D01*
X121630952Y-87843857D02*
X121654762Y-87796238D01*
X121654762Y-87796238D02*
X121702381Y-87748619D01*
X121702381Y-87748619D02*
X121773809Y-87724809D01*
X121773809Y-87724809D02*
X121821428Y-87724809D01*
X121821428Y-87724809D02*
X121892857Y-87748619D01*
X121892857Y-87748619D02*
X121916666Y-87772428D01*
X122369047Y-87724809D02*
X122130952Y-87724809D01*
X122130952Y-87724809D02*
X122107143Y-87962904D01*
X122107143Y-87962904D02*
X122130952Y-87939095D01*
X122130952Y-87939095D02*
X122178571Y-87915285D01*
X122178571Y-87915285D02*
X122297619Y-87915285D01*
X122297619Y-87915285D02*
X122345238Y-87939095D01*
X122345238Y-87939095D02*
X122369047Y-87962904D01*
X122369047Y-87962904D02*
X122392857Y-88010523D01*
X122392857Y-88010523D02*
X122392857Y-88129571D01*
X122392857Y-88129571D02*
X122369047Y-88177190D01*
X122369047Y-88177190D02*
X122345238Y-88201000D01*
X122345238Y-88201000D02*
X122297619Y-88224809D01*
X122297619Y-88224809D02*
X122178571Y-88224809D01*
X122178571Y-88224809D02*
X122130952Y-88201000D01*
X122130952Y-88201000D02*
X122107143Y-88177190D01*
D12*
X143066666Y-78454819D02*
X143066666Y-79169104D01*
X143066666Y-79169104D02*
X143019047Y-79311961D01*
X143019047Y-79311961D02*
X142923809Y-79407200D01*
X142923809Y-79407200D02*
X142780952Y-79454819D01*
X142780952Y-79454819D02*
X142685714Y-79454819D01*
X143495238Y-78550057D02*
X143542857Y-78502438D01*
X143542857Y-78502438D02*
X143638095Y-78454819D01*
X143638095Y-78454819D02*
X143876190Y-78454819D01*
X143876190Y-78454819D02*
X143971428Y-78502438D01*
X143971428Y-78502438D02*
X144019047Y-78550057D01*
X144019047Y-78550057D02*
X144066666Y-78645295D01*
X144066666Y-78645295D02*
X144066666Y-78740533D01*
X144066666Y-78740533D02*
X144019047Y-78883390D01*
X144019047Y-78883390D02*
X143447619Y-79454819D01*
X143447619Y-79454819D02*
X144066666Y-79454819D01*
D13*
%TO.C,F1*%
X119710000Y-81613748D02*
X119710000Y-84386252D01*
X116290000Y-81613748D02*
X116290000Y-84386252D01*
%TO.C,R3*%
X125767742Y-85997500D02*
X126242258Y-85997500D01*
X125767742Y-87042500D02*
X126242258Y-87042500D01*
%TO.C,R4*%
X125767742Y-88507500D02*
X126242258Y-88507500D01*
X125767742Y-89552500D02*
X126242258Y-89552500D01*
%TO.C,C1*%
X121914420Y-80990000D02*
X122195580Y-80990000D01*
X121914420Y-82010000D02*
X122195580Y-82010000D01*
%TO.C,U1*%
X133770000Y-80890000D02*
X134495000Y-80890000D01*
X133770000Y-81615000D02*
X133770000Y-80890000D01*
X133770000Y-86110000D02*
X133770000Y-85385000D01*
X134495000Y-86110000D02*
X133770000Y-86110000D01*
X138265000Y-80890000D02*
X138990000Y-80890000D01*
X138990000Y-80890000D02*
X138990000Y-81615000D01*
X138990000Y-85385000D02*
X138990000Y-86110000D01*
X138990000Y-86110000D02*
X138265000Y-86110000D01*
X133270000Y-82000000D02*
X132940000Y-82240000D01*
X132940000Y-81760000D01*
X133270000Y-82000000D01*
G36*
X133270000Y-82000000D02*
G01*
X132940000Y-82240000D01*
X132940000Y-81760000D01*
X133270000Y-82000000D01*
G37*
%TO.C,R5*%
X133437742Y-88477500D02*
X133912258Y-88477500D01*
X133437742Y-89522500D02*
X133912258Y-89522500D01*
%TO.C,R2*%
X125767742Y-83487500D02*
X126242258Y-83487500D01*
X125767742Y-84532500D02*
X126242258Y-84532500D01*
%TO.C,C4*%
X121854420Y-86010000D02*
X122135580Y-86010000D01*
X121854420Y-87030000D02*
X122135580Y-87030000D01*
%TO.C,C3*%
X121854420Y-83500000D02*
X122135580Y-83500000D01*
X121854420Y-84520000D02*
X122135580Y-84520000D01*
%TO.C,D1*%
X116952500Y-87390000D02*
X118772500Y-87390000D01*
X116952500Y-87440000D02*
X116952500Y-87390000D01*
X116952500Y-90510000D02*
X116952500Y-90460000D01*
X118772500Y-87390000D02*
X118772500Y-87440000D01*
X118772500Y-90460000D02*
X118772500Y-90510000D01*
X118772500Y-90510000D02*
X116952500Y-90510000D01*
X116412500Y-87440000D02*
X116172500Y-87110000D01*
X116652500Y-87110000D01*
X116412500Y-87440000D01*
G36*
X116412500Y-87440000D02*
G01*
X116172500Y-87110000D01*
X116652500Y-87110000D01*
X116412500Y-87440000D01*
G37*
%TO.C,J1*%
X106555000Y-80550000D02*
X106555000Y-89950000D01*
X108455000Y-80550000D02*
X106555000Y-80550000D01*
X108455000Y-89950000D02*
X106555000Y-89950000D01*
X112355000Y-80550000D02*
X110355000Y-80550000D01*
X112355000Y-89950000D02*
X110355000Y-89950000D01*
%TO.C,R7*%
X129777742Y-83487500D02*
X130252258Y-83487500D01*
X129777742Y-84532500D02*
X130252258Y-84532500D01*
%TO.C,R6*%
X129777742Y-80977500D02*
X130252258Y-80977500D01*
X129777742Y-82022500D02*
X130252258Y-82022500D01*
%TO.C,C6*%
X129504420Y-88490000D02*
X129785580Y-88490000D01*
X129504420Y-89510000D02*
X129785580Y-89510000D01*
%TO.C,R10*%
X129777742Y-85997500D02*
X130252258Y-85997500D01*
X129777742Y-87042500D02*
X130252258Y-87042500D01*
%TO.C,R1*%
X125767742Y-80977500D02*
X126242258Y-80977500D01*
X125767742Y-82022500D02*
X126242258Y-82022500D01*
%TO.C,C5*%
X121854420Y-88520000D02*
X122135580Y-88520000D01*
X121854420Y-89540000D02*
X122135580Y-89540000D01*
%TO.C,J2*%
X144845000Y-79150000D02*
X146115000Y-79150000D01*
X144845000Y-80420000D02*
X144845000Y-79150000D01*
X147192358Y-82530000D02*
X147505000Y-82530000D01*
X147192358Y-83390000D02*
X147505000Y-83390000D01*
X147192358Y-85070000D02*
X147505000Y-85070000D01*
X147192358Y-85930000D02*
X147505000Y-85930000D01*
X147192358Y-87610000D02*
X147505000Y-87610000D01*
X147192358Y-88470000D02*
X147505000Y-88470000D01*
X147192358Y-90150000D02*
X147505000Y-90150000D01*
X147192358Y-91010000D02*
X147505000Y-91010000D01*
X147275000Y-79990000D02*
X147505000Y-79990000D01*
X147275000Y-80850000D02*
X147505000Y-80850000D01*
X147505000Y-81690000D02*
X150265000Y-81690000D01*
X147505000Y-84230000D02*
X150265000Y-84230000D01*
X147505000Y-86770000D02*
X150265000Y-86770000D01*
X147505000Y-89310000D02*
X150265000Y-89310000D01*
X150265000Y-82530000D02*
X156265000Y-82530000D01*
X150265000Y-85070000D02*
X156265000Y-85070000D01*
X150265000Y-87610000D02*
X156265000Y-87610000D01*
X150265000Y-90150000D02*
X156265000Y-90150000D01*
X156265000Y-82530000D02*
X156265000Y-83390000D01*
X156265000Y-83390000D02*
X150265000Y-83390000D01*
X156265000Y-85070000D02*
X156265000Y-85930000D01*
X156265000Y-85930000D02*
X150265000Y-85930000D01*
X156265000Y-87610000D02*
X156265000Y-88470000D01*
X156265000Y-88470000D02*
X150265000Y-88470000D01*
X156265000Y-90150000D02*
X156265000Y-91010000D01*
X156265000Y-91010000D02*
X150265000Y-91010000D01*
X147505000Y-79040000D02*
X150265000Y-79040000D01*
X150265000Y-91960000D01*
X147505000Y-91960000D01*
X147505000Y-79040000D01*
X150265000Y-79990000D02*
X156265000Y-79990000D01*
X156265000Y-80850000D01*
X150265000Y-80850000D01*
X150265000Y-79990000D01*
G36*
X150265000Y-79990000D02*
G01*
X156265000Y-79990000D01*
X156265000Y-80850000D01*
X150265000Y-80850000D01*
X150265000Y-79990000D01*
G37*
%TD*%
M02*
