%TF.GenerationSoftware,KiCad,Pcbnew,9.0.7*%
%TF.CreationDate,2026-03-06T14:26:26+05:30*%
%TF.ProjectId,usb to uart,75736220-746f-4207-9561-72742e6b6963,rev?*%
%TF.SameCoordinates,Original*%
%TF.FileFunction,Copper,L2,Bot*%
%TF.FilePolarity,Positive*%
%FSLAX46Y46*%
G04 Gerber Fmt 4.6, Leading zero omitted, Abs format (unit mm)*
G04 Created by KiCad (PCBNEW 9.0.7) date 2026-03-06 14:26:26*
%MOMM*%
%LPD*%
G01*
G04 APERTURE LIST*
%TA.AperFunction,HeatsinkPad*%
%ADD10O,2.100000X1.000000*%
%TD*%
%TA.AperFunction,HeatsinkPad*%
%ADD11O,1.600000X1.000000*%
%TD*%
%TA.AperFunction,ComponentPad*%
%ADD12R,1.700000X1.700000*%
%TD*%
%TA.AperFunction,ComponentPad*%
%ADD13C,1.700000*%
%TD*%
%TA.AperFunction,ViaPad*%
%ADD14C,0.600000*%
%TD*%
%TA.AperFunction,Conductor*%
%ADD15C,0.200000*%
%TD*%
%TA.AperFunction,Conductor*%
%ADD16C,0.300000*%
%TD*%
%TA.AperFunction,Conductor*%
%ADD17C,0.500000*%
%TD*%
G04 APERTURE END LIST*
D10*
%TO.P,J1,S1,SHIELD*%
%TO.N,GND*%
X113585000Y-80930000D03*
D11*
X109405000Y-80930000D03*
D10*
X113585000Y-89570000D03*
D11*
X109405000Y-89570000D03*
%TD*%
D12*
%TO.P,J2,1,Pin_1*%
%TO.N,GND*%
X146115000Y-80420000D03*
D13*
%TO.P,J2,2,Pin_2*%
%TO.N,/UART_TX*%
X146115000Y-82960000D03*
%TO.P,J2,3,Pin_3*%
%TO.N,/UART_RX*%
X146115000Y-85500000D03*
%TO.P,J2,4,Pin_4*%
%TO.N,/VBUS*%
X146115000Y-88040000D03*
%TO.P,J2,5,Pin_5*%
%TO.N,unconnected-(J2-Pin_5-Pad5)*%
X146115000Y-90580000D03*
%TD*%
D14*
%TO.N,GND*%
X112000000Y-85400000D03*
X139800000Y-84800000D03*
X133800000Y-86600000D03*
%TO.N,Net-(U1-VDD)*%
X133000000Y-91000000D03*
X133000000Y-86098000D03*
%TO.N,/VBUS*%
X127500000Y-85500000D03*
X123000000Y-85000000D03*
%TO.N,Net-(J1-CC1)*%
X120051000Y-80051000D03*
X123680000Y-80000000D03*
%TO.N,Net-(D1-I{slash}O2-Pad3)*%
X120500000Y-90500000D03*
X125000000Y-90500000D03*
%TO.N,/UART_RX*%
X143500000Y-80500000D03*
X138000000Y-79500000D03*
%TO.N,GND*%
X135000000Y-82500000D03*
X136000000Y-82500000D03*
X136000000Y-83500000D03*
X136380000Y-83500000D03*
X136380000Y-83500000D03*
X136380000Y-83500000D03*
X137500000Y-83000000D03*
X136380000Y-83500000D03*
X137000000Y-84500000D03*
X137000000Y-82500000D03*
X135500000Y-84500000D03*
X137000000Y-83500000D03*
X136380000Y-83500000D03*
X136380000Y-83500000D03*
X136000000Y-82500000D03*
X137500000Y-84000000D03*
X136380000Y-83500000D03*
X135500000Y-83000000D03*
X136380000Y-83500000D03*
X136500000Y-84000000D03*
X135500000Y-82500000D03*
X136380000Y-83500000D03*
X135500000Y-84000000D03*
X136380000Y-83500000D03*
X136000000Y-84000000D03*
X135500000Y-82500000D03*
X136380000Y-83500000D03*
X136380000Y-83500000D03*
X137000000Y-82500000D03*
X135000000Y-84000000D03*
X136380000Y-83500000D03*
X135000000Y-84500000D03*
X136380000Y-83500000D03*
X137500000Y-84500000D03*
X136380000Y-83500000D03*
X136380000Y-83500000D03*
X136380000Y-83500000D03*
X136380000Y-83500000D03*
X136380000Y-83500000D03*
X137500000Y-83500000D03*
X137000000Y-83000000D03*
X136380000Y-83500000D03*
X137000000Y-84000000D03*
X136380000Y-83500000D03*
X135500000Y-83000000D03*
X136380000Y-83500000D03*
X136380000Y-83500000D03*
X135500000Y-83500000D03*
X136000000Y-83000000D03*
X136500000Y-83000000D03*
X136380000Y-83500000D03*
X136380000Y-83500000D03*
X136380000Y-83500000D03*
X136380000Y-83500000D03*
X136000000Y-83500000D03*
X136000000Y-84000000D03*
X136500000Y-84500000D03*
X136000000Y-84500000D03*
X136380000Y-83500000D03*
X136380000Y-83500000D03*
X136380000Y-83500000D03*
X137500000Y-84000000D03*
X136380000Y-83500000D03*
X135000000Y-83500000D03*
X136500000Y-84500000D03*
X136500000Y-82500000D03*
X136500000Y-83000000D03*
X136380000Y-83500000D03*
X136380000Y-83500000D03*
X137500000Y-83000000D03*
X135000000Y-82500000D03*
X137500000Y-82500000D03*
X136000000Y-82500000D03*
X136380000Y-83500000D03*
X136380000Y-83500000D03*
X136380000Y-83500000D03*
X135000000Y-83000000D03*
X137000000Y-83500000D03*
X136380000Y-83500000D03*
X136380000Y-83500000D03*
X136380000Y-83500000D03*
X136380000Y-83500000D03*
X135500000Y-84500000D03*
X136380000Y-83500000D03*
%TO.N,Net-(U1-~{RST})*%
X135500000Y-87000000D03*
X128884620Y-90165380D03*
%TO.N,Net-(D4-K)*%
X140500000Y-83000000D03*
X132000000Y-81500000D03*
%TO.N,Net-(D5-K)*%
X139500000Y-86500000D03*
X132000000Y-82500000D03*
%TO.N,Net-(J1-CC2)*%
X116000000Y-87000000D03*
X123748657Y-83455136D03*
%TO.N,/UART_TX*%
X132500000Y-80500000D03*
%TO.N,/USB_DP*%
X132458605Y-85500000D03*
X127800500Y-86300500D03*
%TO.N,/USB_DM*%
X131800000Y-90300000D03*
X131808605Y-86460076D03*
%TD*%
D15*
%TO.N,Net-(U1-VDD)*%
X133000000Y-86098000D02*
X133000000Y-91000000D01*
D16*
%TO.N,/USB_DP*%
X129101000Y-85000000D02*
X127800500Y-86300500D01*
X131000000Y-85000000D02*
X129101000Y-85000000D01*
X131500000Y-85500000D02*
X131000000Y-85000000D01*
X132458605Y-85500000D02*
X131500000Y-85500000D01*
%TO.N,/USB_DM*%
X131800000Y-90300000D02*
X131800000Y-86468681D01*
X131800000Y-86468681D02*
X131808605Y-86460076D01*
%TO.N,Net-(U1-~{RST})*%
X135151000Y-91849000D02*
X135500000Y-91500000D01*
X130568240Y-91849000D02*
X135151000Y-91849000D01*
X128884620Y-90165380D02*
X130568240Y-91849000D01*
X135500000Y-91500000D02*
X135500000Y-87000000D01*
D17*
%TO.N,/VBUS*%
X127000000Y-85000000D02*
X127500000Y-85500000D01*
X123000000Y-85000000D02*
X127000000Y-85000000D01*
D16*
%TO.N,Net-(J1-CC2)*%
X123544864Y-83455136D02*
X123748657Y-83455136D01*
X120000000Y-87000000D02*
X123544864Y-83455136D01*
X116000000Y-87000000D02*
X120000000Y-87000000D01*
X123748657Y-83455136D02*
X124030331Y-83736810D01*
%TO.N,Net-(D1-I{slash}O2-Pad3)*%
X125000000Y-90500000D02*
X120500000Y-90500000D01*
%TO.N,Net-(J1-CC1)*%
X123629000Y-80051000D02*
X123680000Y-80000000D01*
X120051000Y-80051000D02*
X123629000Y-80051000D01*
%TO.N,/UART_RX*%
X142500000Y-79500000D02*
X143500000Y-80500000D01*
X138000000Y-79500000D02*
X142500000Y-79500000D01*
%TO.N,/UART_TX*%
X141500000Y-80500000D02*
X143960000Y-82960000D01*
X132500000Y-80500000D02*
X141500000Y-80500000D01*
X143960000Y-82960000D02*
X146115000Y-82960000D01*
%TO.N,Net-(D4-K)*%
X139000000Y-81500000D02*
X140500000Y-83000000D01*
X132000000Y-81500000D02*
X139000000Y-81500000D01*
%TO.N,Net-(D5-K)*%
X136000000Y-86500000D02*
X139500000Y-86500000D01*
X132000000Y-82500000D02*
X136000000Y-86500000D01*
%TD*%
%TA.AperFunction,Conductor*%
%TO.N,GND*%
G36*
X137764849Y-78520185D02*
G01*
X137810604Y-78572989D01*
X137820548Y-78642147D01*
X137791523Y-78705703D01*
X137745262Y-78739061D01*
X137620827Y-78790602D01*
X137620814Y-78790609D01*
X137489711Y-78878210D01*
X137489707Y-78878213D01*
X137378213Y-78989707D01*
X137378210Y-78989711D01*
X137290609Y-79120814D01*
X137290602Y-79120827D01*
X137230264Y-79266498D01*
X137230261Y-79266510D01*
X137199500Y-79421153D01*
X137199500Y-79421158D01*
X137199500Y-79578842D01*
X137199500Y-79578844D01*
X137199499Y-79578844D01*
X137223860Y-79701308D01*
X137217633Y-79770900D01*
X137174770Y-79826077D01*
X137108880Y-79849322D01*
X137102243Y-79849500D01*
X133004935Y-79849500D01*
X132937896Y-79829815D01*
X132936090Y-79828633D01*
X132879179Y-79790606D01*
X132879172Y-79790602D01*
X132733501Y-79730264D01*
X132733489Y-79730261D01*
X132578845Y-79699500D01*
X132578842Y-79699500D01*
X132421158Y-79699500D01*
X132421155Y-79699500D01*
X132266510Y-79730261D01*
X132266498Y-79730264D01*
X132120827Y-79790602D01*
X132120814Y-79790609D01*
X131989711Y-79878210D01*
X131989707Y-79878213D01*
X131878213Y-79989707D01*
X131878210Y-79989711D01*
X131790609Y-80120814D01*
X131790602Y-80120827D01*
X131730264Y-80266498D01*
X131730261Y-80266510D01*
X131699500Y-80421153D01*
X131699500Y-80578846D01*
X131712573Y-80644568D01*
X131706346Y-80714159D01*
X131663483Y-80769337D01*
X131638411Y-80783319D01*
X131620826Y-80790603D01*
X131620814Y-80790609D01*
X131489711Y-80878210D01*
X131489707Y-80878213D01*
X131378213Y-80989707D01*
X131378210Y-80989711D01*
X131290609Y-81120814D01*
X131290602Y-81120827D01*
X131230264Y-81266498D01*
X131230261Y-81266510D01*
X131199500Y-81421153D01*
X131199500Y-81578846D01*
X131230261Y-81733489D01*
X131230264Y-81733501D01*
X131290602Y-81879172D01*
X131290609Y-81879185D01*
X131325304Y-81931109D01*
X131346182Y-81997786D01*
X131327698Y-82065167D01*
X131325304Y-82068891D01*
X131290609Y-82120814D01*
X131290602Y-82120827D01*
X131230264Y-82266498D01*
X131230261Y-82266510D01*
X131199500Y-82421153D01*
X131199500Y-82578846D01*
X131230261Y-82733489D01*
X131230264Y-82733501D01*
X131290602Y-82879172D01*
X131290609Y-82879185D01*
X131378210Y-83010288D01*
X131378213Y-83010292D01*
X131489707Y-83121786D01*
X131489711Y-83121789D01*
X131620814Y-83209390D01*
X131620827Y-83209397D01*
X131708230Y-83245599D01*
X131766503Y-83269737D01*
X131833580Y-83283079D01*
X131895490Y-83315463D01*
X131897069Y-83317015D01*
X134886306Y-86306252D01*
X134919791Y-86367575D01*
X134914807Y-86437267D01*
X134886310Y-86481611D01*
X134878210Y-86489710D01*
X134878210Y-86489711D01*
X134790609Y-86620814D01*
X134790602Y-86620827D01*
X134730264Y-86766498D01*
X134730261Y-86766510D01*
X134699500Y-86921153D01*
X134699500Y-87078846D01*
X134730261Y-87233489D01*
X134730264Y-87233501D01*
X134790602Y-87379172D01*
X134790606Y-87379179D01*
X134828602Y-87436044D01*
X134849480Y-87502721D01*
X134849500Y-87504935D01*
X134849500Y-91074500D01*
X134829815Y-91141539D01*
X134777011Y-91187294D01*
X134725500Y-91198500D01*
X133924500Y-91198500D01*
X133857461Y-91178815D01*
X133811706Y-91126011D01*
X133800500Y-91074500D01*
X133800500Y-90921155D01*
X133800499Y-90921153D01*
X133791274Y-90874777D01*
X133769737Y-90766503D01*
X133736511Y-90686287D01*
X133709397Y-90620827D01*
X133709390Y-90620814D01*
X133621398Y-90489125D01*
X133600520Y-90422447D01*
X133600500Y-90420234D01*
X133600500Y-86677765D01*
X133620185Y-86610726D01*
X133621398Y-86608874D01*
X133641464Y-86578844D01*
X133709394Y-86477179D01*
X133769737Y-86331497D01*
X133800500Y-86176842D01*
X133800500Y-86019158D01*
X133800500Y-86019155D01*
X133800499Y-86019153D01*
X133772464Y-85878213D01*
X133769737Y-85864503D01*
X133755369Y-85829815D01*
X133709397Y-85718827D01*
X133709390Y-85718814D01*
X133621789Y-85587711D01*
X133621786Y-85587707D01*
X133510292Y-85476213D01*
X133510288Y-85476210D01*
X133379185Y-85388609D01*
X133379175Y-85388604D01*
X133302500Y-85356844D01*
X133248097Y-85313003D01*
X133230745Y-85272142D01*
X133230111Y-85272335D01*
X133228340Y-85266498D01*
X133168002Y-85120827D01*
X133167995Y-85120814D01*
X133080394Y-84989711D01*
X133080391Y-84989707D01*
X132968897Y-84878213D01*
X132968893Y-84878210D01*
X132837790Y-84790609D01*
X132837777Y-84790602D01*
X132692106Y-84730264D01*
X132692094Y-84730261D01*
X132537450Y-84699500D01*
X132537447Y-84699500D01*
X132379763Y-84699500D01*
X132379760Y-84699500D01*
X132225115Y-84730261D01*
X132225103Y-84730264D01*
X132079432Y-84790602D01*
X132079425Y-84790606D01*
X132050533Y-84809911D01*
X132022560Y-84828602D01*
X132004513Y-84834253D01*
X131988605Y-84844477D01*
X131957645Y-84848928D01*
X131955884Y-84849480D01*
X131953670Y-84849500D01*
X131820808Y-84849500D01*
X131753769Y-84829815D01*
X131733127Y-84813181D01*
X131414674Y-84494727D01*
X131414673Y-84494726D01*
X131377503Y-84469890D01*
X131308127Y-84423535D01*
X131308122Y-84423533D01*
X131189744Y-84374499D01*
X131189738Y-84374497D01*
X131064071Y-84349500D01*
X131064069Y-84349500D01*
X129036931Y-84349500D01*
X129036929Y-84349500D01*
X128911261Y-84374497D01*
X128911255Y-84374499D01*
X128808534Y-84417048D01*
X128808533Y-84417048D01*
X128792876Y-84423533D01*
X128686326Y-84494726D01*
X128686325Y-84494727D01*
X128244247Y-84936806D01*
X128182924Y-84970291D01*
X128113232Y-84965307D01*
X128068885Y-84936806D01*
X128010292Y-84878213D01*
X128010288Y-84878210D01*
X127879185Y-84790609D01*
X127879175Y-84790604D01*
X127855523Y-84780807D01*
X127815295Y-84753927D01*
X127478421Y-84417052D01*
X127478414Y-84417046D01*
X127404729Y-84367812D01*
X127404729Y-84367813D01*
X127355491Y-84334913D01*
X127218917Y-84278343D01*
X127218907Y-84278340D01*
X127073920Y-84249500D01*
X127073918Y-84249500D01*
X124702100Y-84249500D01*
X124635061Y-84229815D01*
X124589306Y-84177011D01*
X124579362Y-84107853D01*
X124598997Y-84056611D01*
X124606790Y-84044946D01*
X124606790Y-84044945D01*
X124606796Y-84044937D01*
X124655832Y-83926553D01*
X124680830Y-83800879D01*
X124680830Y-83672741D01*
X124655832Y-83547066D01*
X124631314Y-83487874D01*
X124606797Y-83428684D01*
X124553266Y-83348570D01*
X124534751Y-83303870D01*
X124520753Y-83233501D01*
X124518394Y-83221639D01*
X124477034Y-83121786D01*
X124458054Y-83075963D01*
X124458047Y-83075950D01*
X124370446Y-82944847D01*
X124370443Y-82944843D01*
X124258949Y-82833349D01*
X124258945Y-82833346D01*
X124127842Y-82745745D01*
X124127829Y-82745738D01*
X123982158Y-82685400D01*
X123982146Y-82685397D01*
X123827502Y-82654636D01*
X123827499Y-82654636D01*
X123669815Y-82654636D01*
X123669812Y-82654636D01*
X123515167Y-82685397D01*
X123515155Y-82685400D01*
X123369484Y-82745738D01*
X123369471Y-82745745D01*
X123238369Y-82833345D01*
X123126867Y-82944848D01*
X123126864Y-82944851D01*
X123116856Y-82959829D01*
X123101439Y-82978613D01*
X119766873Y-86313181D01*
X119705550Y-86346666D01*
X119679192Y-86349500D01*
X116504935Y-86349500D01*
X116437896Y-86329815D01*
X116436090Y-86328633D01*
X116379179Y-86290606D01*
X116379172Y-86290602D01*
X116233501Y-86230264D01*
X116233489Y-86230261D01*
X116078845Y-86199500D01*
X116078842Y-86199500D01*
X115921158Y-86199500D01*
X115921155Y-86199500D01*
X115766510Y-86230261D01*
X115766498Y-86230264D01*
X115620827Y-86290602D01*
X115620814Y-86290609D01*
X115489711Y-86378210D01*
X115489707Y-86378213D01*
X115378213Y-86489707D01*
X115378210Y-86489711D01*
X115290609Y-86620814D01*
X115290602Y-86620827D01*
X115230264Y-86766498D01*
X115230261Y-86766510D01*
X115199500Y-86921153D01*
X115199500Y-87078846D01*
X115230261Y-87233489D01*
X115230264Y-87233501D01*
X115290602Y-87379172D01*
X115290609Y-87379185D01*
X115378210Y-87510288D01*
X115378213Y-87510292D01*
X115489707Y-87621786D01*
X115489711Y-87621789D01*
X115620814Y-87709390D01*
X115620827Y-87709397D01*
X115766498Y-87769735D01*
X115766503Y-87769737D01*
X115921153Y-87800499D01*
X115921156Y-87800500D01*
X115921158Y-87800500D01*
X116078844Y-87800500D01*
X116078845Y-87800499D01*
X116233497Y-87769737D01*
X116379179Y-87709394D01*
X116436044Y-87671397D01*
X116502721Y-87650520D01*
X116504935Y-87650500D01*
X120064071Y-87650500D01*
X120148615Y-87633682D01*
X120189744Y-87625501D01*
X120308127Y-87576465D01*
X120414669Y-87505277D01*
X122306254Y-85613691D01*
X122367575Y-85580208D01*
X122437266Y-85585192D01*
X122481614Y-85613693D01*
X122489707Y-85621786D01*
X122489711Y-85621789D01*
X122620814Y-85709390D01*
X122620827Y-85709397D01*
X122766498Y-85769735D01*
X122766503Y-85769737D01*
X122921153Y-85800499D01*
X122921156Y-85800500D01*
X122921158Y-85800500D01*
X123078844Y-85800500D01*
X123078845Y-85800499D01*
X123155152Y-85785320D01*
X123233488Y-85769739D01*
X123233489Y-85769738D01*
X123233497Y-85769737D01*
X123257155Y-85759937D01*
X123304604Y-85750500D01*
X126637770Y-85750500D01*
X126667210Y-85759144D01*
X126697197Y-85765668D01*
X126702212Y-85769422D01*
X126704809Y-85770185D01*
X126725451Y-85786819D01*
X126753927Y-85815295D01*
X126780807Y-85855523D01*
X126790604Y-85879175D01*
X126790609Y-85879185D01*
X126878210Y-86010288D01*
X126878213Y-86010292D01*
X126967995Y-86100074D01*
X127001480Y-86161397D01*
X127001932Y-86211944D01*
X127000000Y-86221657D01*
X127000000Y-86379346D01*
X127030761Y-86533989D01*
X127030764Y-86534001D01*
X127091102Y-86679672D01*
X127091109Y-86679685D01*
X127178710Y-86810788D01*
X127178713Y-86810792D01*
X127290207Y-86922286D01*
X127290211Y-86922289D01*
X127421314Y-87009890D01*
X127421327Y-87009897D01*
X127566998Y-87070235D01*
X127567003Y-87070237D01*
X127721653Y-87100999D01*
X127721656Y-87101000D01*
X127721658Y-87101000D01*
X127879344Y-87101000D01*
X127879345Y-87100999D01*
X128033997Y-87070237D01*
X128178718Y-87010292D01*
X128179672Y-87009897D01*
X128179672Y-87009896D01*
X128179679Y-87009894D01*
X128310789Y-86922289D01*
X128422289Y-86810789D01*
X128509894Y-86679679D01*
X128570237Y-86533997D01*
X128583579Y-86466916D01*
X128615963Y-86405009D01*
X128617457Y-86403487D01*
X129334127Y-85686819D01*
X129395450Y-85653334D01*
X129421808Y-85650500D01*
X130679192Y-85650500D01*
X130746231Y-85670185D01*
X130766873Y-85686819D01*
X131058707Y-85978654D01*
X131092192Y-86039977D01*
X131087208Y-86109669D01*
X131085587Y-86113787D01*
X131038869Y-86226574D01*
X131038866Y-86226586D01*
X131008105Y-86381229D01*
X131008105Y-86538922D01*
X131038866Y-86693565D01*
X131038869Y-86693577D01*
X131099208Y-86839250D01*
X131099209Y-86839251D01*
X131099211Y-86839255D01*
X131100676Y-86841447D01*
X131128602Y-86883241D01*
X131149480Y-86949918D01*
X131149500Y-86952132D01*
X131149500Y-89795064D01*
X131129815Y-89862103D01*
X131128603Y-89863954D01*
X131090608Y-89920817D01*
X131090602Y-89920828D01*
X131030264Y-90066498D01*
X131030261Y-90066510D01*
X130999500Y-90221153D01*
X130999500Y-90378846D01*
X131030261Y-90533489D01*
X131030264Y-90533501D01*
X131090602Y-90679172D01*
X131090609Y-90679185D01*
X131178210Y-90810288D01*
X131178213Y-90810292D01*
X131289707Y-90921786D01*
X131289711Y-90921789D01*
X131363955Y-90971398D01*
X131408760Y-91025010D01*
X131417467Y-91094335D01*
X131387312Y-91157363D01*
X131327869Y-91194082D01*
X131295064Y-91198500D01*
X130889048Y-91198500D01*
X130822009Y-91178815D01*
X130801367Y-91162181D01*
X129701635Y-90062449D01*
X129668150Y-90001126D01*
X129667713Y-89999032D01*
X129654357Y-89931883D01*
X129613266Y-89832679D01*
X129594017Y-89786207D01*
X129594010Y-89786194D01*
X129506409Y-89655091D01*
X129506406Y-89655087D01*
X129394912Y-89543593D01*
X129394908Y-89543590D01*
X129263805Y-89455989D01*
X129263792Y-89455982D01*
X129118121Y-89395644D01*
X129118109Y-89395641D01*
X128963465Y-89364880D01*
X128963462Y-89364880D01*
X128805778Y-89364880D01*
X128805775Y-89364880D01*
X128651130Y-89395641D01*
X128651118Y-89395644D01*
X128505447Y-89455982D01*
X128505434Y-89455989D01*
X128374331Y-89543590D01*
X128374327Y-89543593D01*
X128262833Y-89655087D01*
X128262830Y-89655091D01*
X128175229Y-89786194D01*
X128175222Y-89786207D01*
X128114884Y-89931878D01*
X128114881Y-89931890D01*
X128084120Y-90086533D01*
X128084120Y-90244226D01*
X128114881Y-90398869D01*
X128114884Y-90398881D01*
X128175222Y-90544552D01*
X128175229Y-90544565D01*
X128262830Y-90675668D01*
X128262833Y-90675672D01*
X128374327Y-90787166D01*
X128374331Y-90787169D01*
X128505434Y-90874770D01*
X128505447Y-90874777D01*
X128557262Y-90896239D01*
X128651123Y-90935117D01*
X128718200Y-90948459D01*
X128780110Y-90980843D01*
X128781689Y-90982395D01*
X129587113Y-91787819D01*
X129620598Y-91849142D01*
X129615614Y-91918834D01*
X129573742Y-91974767D01*
X129508278Y-91999184D01*
X129499432Y-91999500D01*
X108624500Y-91999500D01*
X108557461Y-91979815D01*
X108511706Y-91927011D01*
X108500500Y-91875500D01*
X108500500Y-90587579D01*
X108520185Y-90520540D01*
X108572989Y-90474785D01*
X108642147Y-90464841D01*
X108671953Y-90473018D01*
X108813310Y-90531570D01*
X108813318Y-90531572D01*
X109006504Y-90569999D01*
X109006508Y-90570000D01*
X109155000Y-90570000D01*
X109155000Y-89870000D01*
X109655000Y-89870000D01*
X109655000Y-90570000D01*
X109803492Y-90570000D01*
X109803495Y-90569999D01*
X109996681Y-90531572D01*
X109996693Y-90531569D01*
X110178671Y-90456192D01*
X110178684Y-90456185D01*
X110342462Y-90346751D01*
X110342466Y-90346748D01*
X110481748Y-90207466D01*
X110481751Y-90207462D01*
X110591185Y-90043684D01*
X110591192Y-90043671D01*
X110666569Y-89861692D01*
X110666569Y-89861690D01*
X110674862Y-89820000D01*
X109871988Y-89820000D01*
X109889205Y-89810060D01*
X109945060Y-89754205D01*
X109984556Y-89685796D01*
X110005000Y-89609496D01*
X110005000Y-89530504D01*
X109984556Y-89454204D01*
X109945060Y-89385795D01*
X109889205Y-89329940D01*
X109871988Y-89320000D01*
X110674862Y-89320000D01*
X112065138Y-89320000D01*
X112868012Y-89320000D01*
X112850795Y-89329940D01*
X112794940Y-89385795D01*
X112755444Y-89454204D01*
X112735000Y-89530504D01*
X112735000Y-89609496D01*
X112755444Y-89685796D01*
X112794940Y-89754205D01*
X112850795Y-89810060D01*
X112868012Y-89820000D01*
X112065138Y-89820000D01*
X112073430Y-89861690D01*
X112073430Y-89861692D01*
X112148807Y-90043671D01*
X112148814Y-90043684D01*
X112258248Y-90207462D01*
X112258251Y-90207466D01*
X112397533Y-90346748D01*
X112397537Y-90346751D01*
X112561315Y-90456185D01*
X112561328Y-90456192D01*
X112743306Y-90531569D01*
X112743318Y-90531572D01*
X112936504Y-90569999D01*
X112936508Y-90570000D01*
X113335000Y-90570000D01*
X113335000Y-89870000D01*
X113835000Y-89870000D01*
X113835000Y-90570000D01*
X114233492Y-90570000D01*
X114233495Y-90569999D01*
X114426681Y-90531572D01*
X114426693Y-90531569D01*
X114608671Y-90456192D01*
X114608684Y-90456185D01*
X114661113Y-90421153D01*
X119699500Y-90421153D01*
X119699500Y-90578846D01*
X119730261Y-90733489D01*
X119730264Y-90733501D01*
X119790602Y-90879172D01*
X119790609Y-90879185D01*
X119878210Y-91010288D01*
X119878213Y-91010292D01*
X119989707Y-91121786D01*
X119989711Y-91121789D01*
X120120814Y-91209390D01*
X120120827Y-91209397D01*
X120266498Y-91269735D01*
X120266503Y-91269737D01*
X120421153Y-91300499D01*
X120421156Y-91300500D01*
X120421158Y-91300500D01*
X120578844Y-91300500D01*
X120578845Y-91300499D01*
X120733497Y-91269737D01*
X120879179Y-91209394D01*
X120936044Y-91171397D01*
X121002721Y-91150520D01*
X121004935Y-91150500D01*
X124495065Y-91150500D01*
X124562104Y-91170185D01*
X124563909Y-91171366D01*
X124620821Y-91209394D01*
X124620823Y-91209395D01*
X124620827Y-91209397D01*
X124766498Y-91269735D01*
X124766503Y-91269737D01*
X124921153Y-91300499D01*
X124921156Y-91300500D01*
X124921158Y-91300500D01*
X125078844Y-91300500D01*
X125078845Y-91300499D01*
X125233497Y-91269737D01*
X125379179Y-91209394D01*
X125510289Y-91121789D01*
X125621789Y-91010289D01*
X125709394Y-90879179D01*
X125769737Y-90733497D01*
X125800500Y-90578842D01*
X125800500Y-90421158D01*
X125800500Y-90421155D01*
X125800499Y-90421153D01*
X125796066Y-90398869D01*
X125769737Y-90266503D01*
X125750953Y-90221153D01*
X125709397Y-90120827D01*
X125709390Y-90120814D01*
X125621789Y-89989711D01*
X125621786Y-89989707D01*
X125510292Y-89878213D01*
X125510288Y-89878210D01*
X125379185Y-89790609D01*
X125379172Y-89790602D01*
X125233501Y-89730264D01*
X125233489Y-89730261D01*
X125078845Y-89699500D01*
X125078842Y-89699500D01*
X124921158Y-89699500D01*
X124921155Y-89699500D01*
X124766510Y-89730261D01*
X124766498Y-89730264D01*
X124620827Y-89790602D01*
X124620820Y-89790606D01*
X124591928Y-89809911D01*
X124563955Y-89828602D01*
X124497279Y-89849480D01*
X124495065Y-89849500D01*
X121004935Y-89849500D01*
X120937896Y-89829815D01*
X120936090Y-89828633D01*
X120879179Y-89790606D01*
X120879172Y-89790602D01*
X120733501Y-89730264D01*
X120733489Y-89730261D01*
X120578845Y-89699500D01*
X120578842Y-89699500D01*
X120421158Y-89699500D01*
X120421155Y-89699500D01*
X120266510Y-89730261D01*
X120266498Y-89730264D01*
X120120827Y-89790602D01*
X120120814Y-89790609D01*
X119989711Y-89878210D01*
X119989707Y-89878213D01*
X119878213Y-89989707D01*
X119878210Y-89989711D01*
X119790609Y-90120814D01*
X119790602Y-90120827D01*
X119730264Y-90266498D01*
X119730261Y-90266510D01*
X119699500Y-90421153D01*
X114661113Y-90421153D01*
X114772462Y-90346751D01*
X114772466Y-90346748D01*
X114791830Y-90327385D01*
X114911748Y-90207466D01*
X114911751Y-90207462D01*
X115021185Y-90043684D01*
X115021192Y-90043671D01*
X115096569Y-89861692D01*
X115096569Y-89861690D01*
X115104862Y-89820000D01*
X114301988Y-89820000D01*
X114319205Y-89810060D01*
X114375060Y-89754205D01*
X114414556Y-89685796D01*
X114435000Y-89609496D01*
X114435000Y-89530504D01*
X114414556Y-89454204D01*
X114375060Y-89385795D01*
X114319205Y-89329940D01*
X114301988Y-89320000D01*
X115104862Y-89320000D01*
X115096569Y-89278309D01*
X115096569Y-89278307D01*
X115021192Y-89096328D01*
X115021185Y-89096315D01*
X114911751Y-88932537D01*
X114911748Y-88932533D01*
X114772466Y-88793251D01*
X114772462Y-88793248D01*
X114608684Y-88683814D01*
X114608671Y-88683807D01*
X114426693Y-88608430D01*
X114426681Y-88608427D01*
X114233495Y-88570000D01*
X113835000Y-88570000D01*
X113835000Y-89270000D01*
X113335000Y-89270000D01*
X113335000Y-88714463D01*
X113354685Y-88647424D01*
X113397000Y-88607076D01*
X113408365Y-88600515D01*
X113515515Y-88493365D01*
X113516372Y-88491879D01*
X113536721Y-88456637D01*
X113591279Y-88362138D01*
X113591281Y-88362135D01*
X113630500Y-88215766D01*
X113630500Y-88064234D01*
X113591281Y-87917865D01*
X113515515Y-87786635D01*
X113408365Y-87679485D01*
X113342750Y-87641602D01*
X113277136Y-87603719D01*
X113203950Y-87584109D01*
X113130766Y-87564500D01*
X112979234Y-87564500D01*
X112832863Y-87603719D01*
X112701635Y-87679485D01*
X112701632Y-87679487D01*
X112594487Y-87786632D01*
X112594485Y-87786635D01*
X112518719Y-87917863D01*
X112479500Y-88064234D01*
X112479500Y-88215765D01*
X112518719Y-88362136D01*
X112556602Y-88427750D01*
X112594485Y-88493365D01*
X112594487Y-88493367D01*
X112599432Y-88499811D01*
X112596612Y-88501974D01*
X112622302Y-88549020D01*
X112617318Y-88618712D01*
X112575446Y-88674645D01*
X112566379Y-88680416D01*
X112566387Y-88680427D01*
X112397536Y-88793248D01*
X112258251Y-88932533D01*
X112258248Y-88932537D01*
X112148814Y-89096315D01*
X112148807Y-89096328D01*
X112073430Y-89278307D01*
X112073430Y-89278309D01*
X112065138Y-89320000D01*
X110674862Y-89320000D01*
X110666569Y-89278309D01*
X110666569Y-89278307D01*
X110591192Y-89096328D01*
X110591185Y-89096315D01*
X110481751Y-88932537D01*
X110481748Y-88932533D01*
X110342466Y-88793251D01*
X110342462Y-88793248D01*
X110178684Y-88683814D01*
X110178671Y-88683807D01*
X109996693Y-88608430D01*
X109996681Y-88608427D01*
X109803495Y-88570000D01*
X109655000Y-88570000D01*
X109655000Y-89270000D01*
X109155000Y-89270000D01*
X109155000Y-88570000D01*
X109006504Y-88570000D01*
X108813318Y-88608427D01*
X108813306Y-88608430D01*
X108671952Y-88666981D01*
X108602483Y-88674450D01*
X108540004Y-88643175D01*
X108504352Y-88583086D01*
X108500500Y-88552420D01*
X108500500Y-81947579D01*
X108520185Y-81880540D01*
X108572989Y-81834785D01*
X108642147Y-81824841D01*
X108671953Y-81833018D01*
X108813310Y-81891570D01*
X108813318Y-81891572D01*
X109006504Y-81929999D01*
X109006508Y-81930000D01*
X109155000Y-81930000D01*
X109155000Y-81230000D01*
X109655000Y-81230000D01*
X109655000Y-81930000D01*
X109803492Y-81930000D01*
X109803495Y-81929999D01*
X109996681Y-81891572D01*
X109996693Y-81891569D01*
X110178671Y-81816192D01*
X110178684Y-81816185D01*
X110342462Y-81706751D01*
X110342466Y-81706748D01*
X110481748Y-81567466D01*
X110481751Y-81567462D01*
X110591185Y-81403684D01*
X110591192Y-81403671D01*
X110666569Y-81221692D01*
X110666569Y-81221690D01*
X110674862Y-81180000D01*
X109871988Y-81180000D01*
X109889205Y-81170060D01*
X109945060Y-81114205D01*
X109984556Y-81045796D01*
X110005000Y-80969496D01*
X110005000Y-80890504D01*
X109984556Y-80814204D01*
X109945060Y-80745795D01*
X109889205Y-80689940D01*
X109871988Y-80680000D01*
X110674862Y-80680000D01*
X112065138Y-80680000D01*
X112868012Y-80680000D01*
X112850795Y-80689940D01*
X112794940Y-80745795D01*
X112755444Y-80814204D01*
X112735000Y-80890504D01*
X112735000Y-80969496D01*
X112755444Y-81045796D01*
X112794940Y-81114205D01*
X112850795Y-81170060D01*
X112868012Y-81180000D01*
X112065138Y-81180000D01*
X112073430Y-81221690D01*
X112073430Y-81221692D01*
X112148807Y-81403671D01*
X112148814Y-81403684D01*
X112258248Y-81567462D01*
X112258251Y-81567466D01*
X112397533Y-81706748D01*
X112397537Y-81706751D01*
X112566387Y-81819574D01*
X112565430Y-81821005D01*
X112609425Y-81864211D01*
X112624895Y-81932346D01*
X112601072Y-81998029D01*
X112599309Y-82000094D01*
X112599432Y-82000189D01*
X112594485Y-82006635D01*
X112518719Y-82137863D01*
X112479500Y-82284234D01*
X112479500Y-82435765D01*
X112518719Y-82582136D01*
X112541050Y-82620814D01*
X112594485Y-82713365D01*
X112701635Y-82820515D01*
X112832865Y-82896281D01*
X112979234Y-82935500D01*
X112979236Y-82935500D01*
X113130764Y-82935500D01*
X113130766Y-82935500D01*
X113277135Y-82896281D01*
X113408365Y-82820515D01*
X113515515Y-82713365D01*
X113591281Y-82582135D01*
X113630500Y-82435766D01*
X113630500Y-82284234D01*
X113591281Y-82137865D01*
X113515515Y-82006635D01*
X113408365Y-81899485D01*
X113396998Y-81892922D01*
X113348783Y-81842354D01*
X113335000Y-81785536D01*
X113335000Y-81230000D01*
X113835000Y-81230000D01*
X113835000Y-81930000D01*
X114233492Y-81930000D01*
X114233495Y-81929999D01*
X114426681Y-81891572D01*
X114426693Y-81891569D01*
X114608671Y-81816192D01*
X114608684Y-81816185D01*
X114772462Y-81706751D01*
X114772466Y-81706748D01*
X114911748Y-81567466D01*
X114911751Y-81567462D01*
X115021185Y-81403684D01*
X115021192Y-81403671D01*
X115096569Y-81221692D01*
X115096569Y-81221690D01*
X115104862Y-81180000D01*
X114301988Y-81180000D01*
X114319205Y-81170060D01*
X114375060Y-81114205D01*
X114414556Y-81045796D01*
X114435000Y-80969496D01*
X114435000Y-80890504D01*
X114414556Y-80814204D01*
X114375060Y-80745795D01*
X114319205Y-80689940D01*
X114301988Y-80680000D01*
X115104862Y-80680000D01*
X115096569Y-80638309D01*
X115096569Y-80638307D01*
X115021192Y-80456328D01*
X115021185Y-80456315D01*
X114911751Y-80292537D01*
X114911748Y-80292533D01*
X114772466Y-80153251D01*
X114772462Y-80153248D01*
X114646628Y-80069168D01*
X114608684Y-80043814D01*
X114608671Y-80043807D01*
X114435681Y-79972153D01*
X119250500Y-79972153D01*
X119250500Y-80129846D01*
X119281261Y-80284489D01*
X119281264Y-80284501D01*
X119341602Y-80430172D01*
X119341609Y-80430185D01*
X119429210Y-80561288D01*
X119429213Y-80561292D01*
X119540707Y-80672786D01*
X119540711Y-80672789D01*
X119671814Y-80760390D01*
X119671827Y-80760397D01*
X119768646Y-80800500D01*
X119817503Y-80820737D01*
X119972153Y-80851499D01*
X119972156Y-80851500D01*
X119972158Y-80851500D01*
X120129844Y-80851500D01*
X120129845Y-80851499D01*
X120284497Y-80820737D01*
X120430179Y-80760394D01*
X120487044Y-80722397D01*
X120553721Y-80701520D01*
X120555935Y-80701500D01*
X123257098Y-80701500D01*
X123304550Y-80710939D01*
X123383279Y-80743549D01*
X123446503Y-80769737D01*
X123601153Y-80800499D01*
X123601156Y-80800500D01*
X123601158Y-80800500D01*
X123758844Y-80800500D01*
X123758845Y-80800499D01*
X123913497Y-80769737D01*
X124059179Y-80709394D01*
X124190289Y-80621789D01*
X124301789Y-80510289D01*
X124389394Y-80379179D01*
X124449737Y-80233497D01*
X124480500Y-80078842D01*
X124480500Y-79921158D01*
X124480500Y-79921155D01*
X124480499Y-79921153D01*
X124466211Y-79849322D01*
X124449737Y-79766503D01*
X124436066Y-79733497D01*
X124389397Y-79620827D01*
X124389390Y-79620814D01*
X124301789Y-79489711D01*
X124301786Y-79489707D01*
X124190292Y-79378213D01*
X124190288Y-79378210D01*
X124059185Y-79290609D01*
X124059172Y-79290602D01*
X123913501Y-79230264D01*
X123913489Y-79230261D01*
X123758845Y-79199500D01*
X123758842Y-79199500D01*
X123601158Y-79199500D01*
X123601155Y-79199500D01*
X123446510Y-79230261D01*
X123446498Y-79230264D01*
X123300827Y-79290602D01*
X123300814Y-79290609D01*
X123167629Y-79379602D01*
X123100952Y-79400480D01*
X123098738Y-79400500D01*
X120555935Y-79400500D01*
X120488896Y-79380815D01*
X120487090Y-79379633D01*
X120430179Y-79341606D01*
X120430172Y-79341602D01*
X120284501Y-79281264D01*
X120284489Y-79281261D01*
X120129845Y-79250500D01*
X120129842Y-79250500D01*
X119972158Y-79250500D01*
X119972155Y-79250500D01*
X119817510Y-79281261D01*
X119817498Y-79281264D01*
X119671827Y-79341602D01*
X119671814Y-79341609D01*
X119540711Y-79429210D01*
X119540707Y-79429213D01*
X119429213Y-79540707D01*
X119429210Y-79540711D01*
X119341609Y-79671814D01*
X119341602Y-79671827D01*
X119281264Y-79817498D01*
X119281261Y-79817510D01*
X119250500Y-79972153D01*
X114435681Y-79972153D01*
X114426693Y-79968430D01*
X114426681Y-79968427D01*
X114233495Y-79930000D01*
X113835000Y-79930000D01*
X113835000Y-80630000D01*
X113335000Y-80630000D01*
X113335000Y-79930000D01*
X112936504Y-79930000D01*
X112743318Y-79968427D01*
X112743306Y-79968430D01*
X112561328Y-80043807D01*
X112561315Y-80043814D01*
X112397537Y-80153248D01*
X112397533Y-80153251D01*
X112258251Y-80292533D01*
X112258248Y-80292537D01*
X112148814Y-80456315D01*
X112148807Y-80456328D01*
X112073430Y-80638307D01*
X112073430Y-80638309D01*
X112065138Y-80680000D01*
X110674862Y-80680000D01*
X110666569Y-80638309D01*
X110666569Y-80638307D01*
X110591192Y-80456328D01*
X110591185Y-80456315D01*
X110481751Y-80292537D01*
X110481748Y-80292533D01*
X110342466Y-80153251D01*
X110342462Y-80153248D01*
X110178684Y-80043814D01*
X110178671Y-80043807D01*
X109996693Y-79968430D01*
X109996681Y-79968427D01*
X109803495Y-79930000D01*
X109655000Y-79930000D01*
X109655000Y-80630000D01*
X109155000Y-80630000D01*
X109155000Y-79930000D01*
X109006504Y-79930000D01*
X108813318Y-79968427D01*
X108813306Y-79968430D01*
X108671952Y-80026981D01*
X108602483Y-80034450D01*
X108540004Y-80003175D01*
X108504352Y-79943086D01*
X108500500Y-79912420D01*
X108500500Y-78624500D01*
X108520185Y-78557461D01*
X108572989Y-78511706D01*
X108624500Y-78500500D01*
X137697810Y-78500500D01*
X137764849Y-78520185D01*
G37*
%TD.AperFunction*%
%TA.AperFunction,Conductor*%
G36*
X141246231Y-81170185D02*
G01*
X141266873Y-81186819D01*
X143545324Y-83465271D01*
X143545327Y-83465274D01*
X143648146Y-83533975D01*
X143648147Y-83533975D01*
X143648151Y-83533978D01*
X143651873Y-83536465D01*
X143770256Y-83585501D01*
X143770260Y-83585501D01*
X143770261Y-83585502D01*
X143895928Y-83610500D01*
X143895931Y-83610500D01*
X144855382Y-83610500D01*
X144922421Y-83630185D01*
X144956099Y-83664591D01*
X144957085Y-83663875D01*
X145084890Y-83839786D01*
X145235213Y-83990109D01*
X145407182Y-84115050D01*
X145415946Y-84119516D01*
X145466742Y-84167491D01*
X145483536Y-84235312D01*
X145460998Y-84301447D01*
X145415946Y-84340484D01*
X145407182Y-84344949D01*
X145235213Y-84469890D01*
X145084890Y-84620213D01*
X144959951Y-84792179D01*
X144863444Y-84981585D01*
X144797753Y-85183760D01*
X144764500Y-85393713D01*
X144764500Y-85606286D01*
X144797603Y-85815295D01*
X144797754Y-85816243D01*
X144860803Y-86010288D01*
X144863444Y-86018414D01*
X144959951Y-86207820D01*
X145084890Y-86379786D01*
X145235213Y-86530109D01*
X145407182Y-86655050D01*
X145415946Y-86659516D01*
X145466742Y-86707491D01*
X145483536Y-86775312D01*
X145460998Y-86841447D01*
X145415946Y-86880484D01*
X145407182Y-86884949D01*
X145235213Y-87009890D01*
X145084890Y-87160213D01*
X144959951Y-87332179D01*
X144863444Y-87521585D01*
X144797753Y-87723760D01*
X144787795Y-87786635D01*
X144764500Y-87933713D01*
X144764500Y-88146287D01*
X144797754Y-88356243D01*
X144860391Y-88549020D01*
X144863444Y-88558414D01*
X144959951Y-88747820D01*
X145084890Y-88919786D01*
X145235213Y-89070109D01*
X145407182Y-89195050D01*
X145415946Y-89199516D01*
X145466742Y-89247491D01*
X145483536Y-89315312D01*
X145460998Y-89381447D01*
X145415946Y-89420484D01*
X145407182Y-89424949D01*
X145235213Y-89549890D01*
X145084890Y-89700213D01*
X144959951Y-89872179D01*
X144863444Y-90061585D01*
X144797753Y-90263760D01*
X144764500Y-90473713D01*
X144764500Y-90686286D01*
X144794353Y-90874774D01*
X144797754Y-90896243D01*
X144862118Y-91094335D01*
X144863444Y-91098414D01*
X144959951Y-91287820D01*
X145084890Y-91459786D01*
X145235213Y-91610109D01*
X145407179Y-91735048D01*
X145407181Y-91735049D01*
X145407184Y-91735051D01*
X145465992Y-91765015D01*
X145516788Y-91812990D01*
X145533583Y-91880810D01*
X145511046Y-91946945D01*
X145456331Y-91990397D01*
X145409697Y-91999500D01*
X136180582Y-91999500D01*
X136113543Y-91979815D01*
X136067788Y-91927011D01*
X136057844Y-91857853D01*
X136066991Y-91825771D01*
X136071389Y-91815722D01*
X136076466Y-91808126D01*
X136106734Y-91735051D01*
X136125501Y-91689744D01*
X136141343Y-91610104D01*
X136150500Y-91564071D01*
X136150500Y-87504935D01*
X136170185Y-87437896D01*
X136171366Y-87436090D01*
X136209394Y-87379179D01*
X136269737Y-87233497D01*
X136269737Y-87233496D01*
X136272068Y-87227869D01*
X136274522Y-87228885D01*
X136306510Y-87180070D01*
X136370321Y-87151610D01*
X136386878Y-87150500D01*
X138995065Y-87150500D01*
X139062104Y-87170185D01*
X139063909Y-87171366D01*
X139120821Y-87209394D01*
X139120823Y-87209395D01*
X139120827Y-87209397D01*
X139266498Y-87269735D01*
X139266503Y-87269737D01*
X139421153Y-87300499D01*
X139421156Y-87300500D01*
X139421158Y-87300500D01*
X139578844Y-87300500D01*
X139578845Y-87300499D01*
X139733497Y-87269737D01*
X139879179Y-87209394D01*
X140010289Y-87121789D01*
X140121789Y-87010289D01*
X140209394Y-86879179D01*
X140269737Y-86733497D01*
X140300500Y-86578842D01*
X140300500Y-86421158D01*
X140300500Y-86421155D01*
X140300499Y-86421153D01*
X140295085Y-86393934D01*
X140269737Y-86266503D01*
X140269735Y-86266498D01*
X140209397Y-86120827D01*
X140209390Y-86120814D01*
X140121789Y-85989711D01*
X140121786Y-85989707D01*
X140010292Y-85878213D01*
X140010288Y-85878210D01*
X139879185Y-85790609D01*
X139879172Y-85790602D01*
X139733501Y-85730264D01*
X139733489Y-85730261D01*
X139578845Y-85699500D01*
X139578842Y-85699500D01*
X139421158Y-85699500D01*
X139421155Y-85699500D01*
X139266510Y-85730261D01*
X139266498Y-85730264D01*
X139120827Y-85790602D01*
X139120820Y-85790606D01*
X139091928Y-85809911D01*
X139063955Y-85828602D01*
X138997279Y-85849480D01*
X138995065Y-85849500D01*
X136320808Y-85849500D01*
X136253769Y-85829815D01*
X136233127Y-85813181D01*
X132817015Y-82397069D01*
X132807952Y-82380472D01*
X132794819Y-82366861D01*
X132784414Y-82337365D01*
X132783530Y-82335746D01*
X132783089Y-82333630D01*
X132776139Y-82298688D01*
X132782368Y-82229098D01*
X132825232Y-82173921D01*
X132891122Y-82150678D01*
X132897757Y-82150500D01*
X138679192Y-82150500D01*
X138746231Y-82170185D01*
X138766873Y-82186819D01*
X139682984Y-83102930D01*
X139716469Y-83164253D01*
X139716920Y-83166420D01*
X139730261Y-83233489D01*
X139730264Y-83233501D01*
X139790602Y-83379172D01*
X139790609Y-83379185D01*
X139878210Y-83510288D01*
X139878213Y-83510292D01*
X139989707Y-83621786D01*
X139989711Y-83621789D01*
X140120814Y-83709390D01*
X140120827Y-83709397D01*
X140266498Y-83769735D01*
X140266503Y-83769737D01*
X140421153Y-83800499D01*
X140421156Y-83800500D01*
X140421158Y-83800500D01*
X140578844Y-83800500D01*
X140578845Y-83800499D01*
X140733497Y-83769737D01*
X140879179Y-83709394D01*
X141010289Y-83621789D01*
X141121789Y-83510289D01*
X141209394Y-83379179D01*
X141269737Y-83233497D01*
X141300500Y-83078842D01*
X141300500Y-82921158D01*
X141300500Y-82921155D01*
X141300499Y-82921153D01*
X141292148Y-82879172D01*
X141269737Y-82766503D01*
X141247727Y-82713365D01*
X141209397Y-82620827D01*
X141209390Y-82620814D01*
X141121789Y-82489711D01*
X141121786Y-82489707D01*
X141010292Y-82378213D01*
X141010288Y-82378210D01*
X140879185Y-82290609D01*
X140879172Y-82290602D01*
X140733501Y-82230264D01*
X140733489Y-82230261D01*
X140666420Y-82216920D01*
X140604509Y-82184535D01*
X140602930Y-82182984D01*
X139782127Y-81362181D01*
X139748642Y-81300858D01*
X139753626Y-81231166D01*
X139795498Y-81175233D01*
X139860962Y-81150816D01*
X139869808Y-81150500D01*
X141179192Y-81150500D01*
X141246231Y-81170185D01*
G37*
%TD.AperFunction*%
%TA.AperFunction,Conductor*%
G36*
X146942539Y-78520185D02*
G01*
X146988294Y-78572989D01*
X146999500Y-78624500D01*
X146999500Y-78946000D01*
X146979815Y-79013039D01*
X146927011Y-79058794D01*
X146875500Y-79070000D01*
X146365000Y-79070000D01*
X146365000Y-79986988D01*
X146307993Y-79954075D01*
X146180826Y-79920000D01*
X146049174Y-79920000D01*
X145922007Y-79954075D01*
X145865000Y-79986988D01*
X145865000Y-79070000D01*
X145217155Y-79070000D01*
X145157627Y-79076401D01*
X145157620Y-79076403D01*
X145022913Y-79126645D01*
X145022906Y-79126649D01*
X144907812Y-79212809D01*
X144907809Y-79212812D01*
X144821649Y-79327906D01*
X144821645Y-79327913D01*
X144771403Y-79462620D01*
X144771401Y-79462627D01*
X144765000Y-79522155D01*
X144765000Y-80170000D01*
X145681988Y-80170000D01*
X145649075Y-80227007D01*
X145615000Y-80354174D01*
X145615000Y-80485826D01*
X145649075Y-80612993D01*
X145681988Y-80670000D01*
X144765000Y-80670000D01*
X144765000Y-81317844D01*
X144771401Y-81377372D01*
X144771403Y-81377379D01*
X144821645Y-81512086D01*
X144821649Y-81512093D01*
X144907809Y-81627187D01*
X144907812Y-81627190D01*
X145022906Y-81713350D01*
X145022913Y-81713354D01*
X145154470Y-81762422D01*
X145210404Y-81804293D01*
X145234821Y-81869758D01*
X145219969Y-81938031D01*
X145198819Y-81966285D01*
X145084889Y-82080215D01*
X144957085Y-82256125D01*
X144955740Y-82255148D01*
X144909295Y-82297166D01*
X144855382Y-82309500D01*
X144280808Y-82309500D01*
X144213769Y-82289815D01*
X144193127Y-82273181D01*
X143432127Y-81512181D01*
X143398642Y-81450858D01*
X143403626Y-81381166D01*
X143445498Y-81325233D01*
X143510962Y-81300816D01*
X143519808Y-81300500D01*
X143578844Y-81300500D01*
X143578845Y-81300499D01*
X143733497Y-81269737D01*
X143879179Y-81209394D01*
X144010289Y-81121789D01*
X144121789Y-81010289D01*
X144209394Y-80879179D01*
X144269737Y-80733497D01*
X144300500Y-80578842D01*
X144300500Y-80421158D01*
X144300500Y-80421155D01*
X144300499Y-80421153D01*
X144275604Y-80296000D01*
X144269737Y-80266503D01*
X144256062Y-80233489D01*
X144209397Y-80120827D01*
X144209390Y-80120814D01*
X144121789Y-79989711D01*
X144121786Y-79989707D01*
X144010292Y-79878213D01*
X144010288Y-79878210D01*
X143879185Y-79790609D01*
X143879172Y-79790602D01*
X143733501Y-79730264D01*
X143733489Y-79730261D01*
X143666420Y-79716920D01*
X143649663Y-79708155D01*
X143631184Y-79704135D01*
X143606145Y-79685390D01*
X143604509Y-79684535D01*
X143602930Y-79682984D01*
X143526478Y-79606532D01*
X142914674Y-78994727D01*
X142914673Y-78994726D01*
X142914669Y-78994723D01*
X142808127Y-78923535D01*
X142689744Y-78874499D01*
X142689738Y-78874497D01*
X142564071Y-78849500D01*
X142564069Y-78849500D01*
X138504935Y-78849500D01*
X138492427Y-78846556D01*
X138483153Y-78847572D01*
X138464050Y-78839879D01*
X138449644Y-78836490D01*
X138442590Y-78832976D01*
X138379179Y-78790606D01*
X138250761Y-78737414D01*
X138246899Y-78735490D01*
X138224321Y-78714550D01*
X138200334Y-78695221D01*
X138198929Y-78691000D01*
X138195670Y-78687978D01*
X138187996Y-78658153D01*
X138178269Y-78628926D01*
X138179368Y-78624617D01*
X138178261Y-78620312D01*
X138187930Y-78591071D01*
X138195548Y-78561227D01*
X138198802Y-78558197D01*
X138200198Y-78553976D01*
X138224143Y-78534603D01*
X138246685Y-78513616D01*
X138251487Y-78512481D01*
X138254517Y-78510030D01*
X138268196Y-78508532D01*
X138302190Y-78500500D01*
X146875500Y-78500500D01*
X146942539Y-78520185D01*
G37*
%TD.AperFunction*%
%TD*%
M02*
