%TF.GenerationSoftware,KiCad,Pcbnew,9.0.7*%
%TF.CreationDate,2026-03-06T14:26:26+05:30*%
%TF.ProjectId,usb to uart,75736220-746f-4207-9561-72742e6b6963,rev?*%
%TF.SameCoordinates,Original*%
%TF.FileFunction,Copper,L1,Top*%
%TF.FilePolarity,Positive*%
%FSLAX46Y46*%
G04 Gerber Fmt 4.6, Leading zero omitted, Abs format (unit mm)*
G04 Created by KiCad (PCBNEW 9.0.7) date 2026-03-06 14:26:26*
%MOMM*%
%LPD*%
G01*
G04 APERTURE LIST*
G04 Aperture macros list*
%AMRoundRect*
0 Rectangle with rounded corners*
0 $1 Rounding radius*
0 $2 $3 $4 $5 $6 $7 $8 $9 X,Y pos of 4 corners*
0 Add a 4 corners polygon primitive as box body*
4,1,4,$2,$3,$4,$5,$6,$7,$8,$9,$2,$3,0*
0 Add four circle primitives for the rounded corners*
1,1,$1+$1,$2,$3*
1,1,$1+$1,$4,$5*
1,1,$1+$1,$6,$7*
1,1,$1+$1,$8,$9*
0 Add four rect primitives between the rounded corners*
20,1,$1+$1,$2,$3,$4,$5,0*
20,1,$1+$1,$4,$5,$6,$7,0*
20,1,$1+$1,$6,$7,$8,$9,0*
20,1,$1+$1,$8,$9,$2,$3,0*%
G04 Aperture macros list end*
%TA.AperFunction,SMDPad,CuDef*%
%ADD10RoundRect,0.218750X-0.218750X-0.256250X0.218750X-0.256250X0.218750X0.256250X-0.218750X0.256250X0*%
%TD*%
%TA.AperFunction,SMDPad,CuDef*%
%ADD11RoundRect,0.112500X-0.187500X-0.112500X0.187500X-0.112500X0.187500X0.112500X-0.187500X0.112500X0*%
%TD*%
%TA.AperFunction,SMDPad,CuDef*%
%ADD12RoundRect,0.250000X-1.450000X0.312500X-1.450000X-0.312500X1.450000X-0.312500X1.450000X0.312500X0*%
%TD*%
%TA.AperFunction,SMDPad,CuDef*%
%ADD13RoundRect,0.200000X-0.200000X-0.275000X0.200000X-0.275000X0.200000X0.275000X-0.200000X0.275000X0*%
%TD*%
%TA.AperFunction,SMDPad,CuDef*%
%ADD14RoundRect,0.225000X-0.225000X-0.250000X0.225000X-0.250000X0.225000X0.250000X-0.225000X0.250000X0*%
%TD*%
%TA.AperFunction,SMDPad,CuDef*%
%ADD15RoundRect,0.062500X-0.337500X-0.062500X0.337500X-0.062500X0.337500X0.062500X-0.337500X0.062500X0*%
%TD*%
%TA.AperFunction,SMDPad,CuDef*%
%ADD16RoundRect,0.062500X-0.062500X-0.337500X0.062500X-0.337500X0.062500X0.337500X-0.062500X0.337500X0*%
%TD*%
%TA.AperFunction,HeatsinkPad*%
%ADD17R,3.350000X3.350000*%
%TD*%
%TA.AperFunction,SMDPad,CuDef*%
%ADD18RoundRect,0.150000X-0.512500X-0.150000X0.512500X-0.150000X0.512500X0.150000X-0.512500X0.150000X0*%
%TD*%
%TA.AperFunction,SMDPad,CuDef*%
%ADD19R,1.450000X0.600000*%
%TD*%
%TA.AperFunction,SMDPad,CuDef*%
%ADD20R,1.450000X0.300000*%
%TD*%
%TA.AperFunction,HeatsinkPad*%
%ADD21O,2.100000X1.000000*%
%TD*%
%TA.AperFunction,HeatsinkPad*%
%ADD22O,1.600000X1.000000*%
%TD*%
%TA.AperFunction,ComponentPad*%
%ADD23R,1.700000X1.700000*%
%TD*%
%TA.AperFunction,ComponentPad*%
%ADD24C,1.700000*%
%TD*%
%TA.AperFunction,ViaPad*%
%ADD25C,0.600000*%
%TD*%
%TA.AperFunction,Conductor*%
%ADD26C,0.500000*%
%TD*%
%TA.AperFunction,Conductor*%
%ADD27C,0.200000*%
%TD*%
%TA.AperFunction,Conductor*%
%ADD28C,0.300000*%
%TD*%
G04 APERTURE END LIST*
D10*
%TO.P,D4,1,K*%
%TO.N,Net-(D4-K)*%
X140925000Y-84000000D03*
%TO.P,D4,2,A*%
%TO.N,GND*%
X142500000Y-84000000D03*
%TD*%
%TO.P,D5,1,K*%
%TO.N,Net-(D5-K)*%
X140925000Y-86500000D03*
%TO.P,D5,2,A*%
%TO.N,GND*%
X142500000Y-86500000D03*
%TD*%
%TO.P,D3,1,K*%
%TO.N,Net-(D3-K)*%
X140925000Y-89000000D03*
%TO.P,D3,2,A*%
%TO.N,GND*%
X142500000Y-89000000D03*
%TD*%
D11*
%TO.P,D2,1,A1*%
%TO.N,GND*%
X137230000Y-89000000D03*
%TO.P,D2,2,A2*%
%TO.N,/VBUS*%
X139330000Y-89000000D03*
%TD*%
D12*
%TO.P,F1,2*%
%TO.N,/VBUS*%
X118000000Y-85137500D03*
%TO.P,F1,1*%
%TO.N,Net-(F1-Pad1)*%
X118000000Y-80862500D03*
%TD*%
D13*
%TO.P,R3,1*%
%TO.N,GND*%
X125180000Y-86520000D03*
%TO.P,R3,2*%
%TO.N,/USB_DP*%
X126830000Y-86520000D03*
%TD*%
%TO.P,R4,1*%
%TO.N,Net-(D1-I{slash}O2-Pad3)*%
X125180000Y-89030000D03*
%TO.P,R4,2*%
%TO.N,/USB_DM*%
X126830000Y-89030000D03*
%TD*%
D14*
%TO.P,C1,1*%
%TO.N,/VBUS*%
X121280000Y-81500000D03*
%TO.P,C1,2*%
%TO.N,GND*%
X122830000Y-81500000D03*
%TD*%
D15*
%TO.P,U1,1,~{DCD}*%
%TO.N,unconnected-(U1-~{DCD}-Pad1)*%
X133930000Y-82000000D03*
%TO.P,U1,2,~{RI}/CLK*%
%TO.N,unconnected-(U1-~{RI}{slash}CLK-Pad2)*%
X133930000Y-82500000D03*
%TO.P,U1,3,GND*%
%TO.N,GND*%
X133930000Y-83000000D03*
%TO.P,U1,4,D+*%
%TO.N,/USB_DM*%
X133930000Y-83500000D03*
%TO.P,U1,5,D-*%
%TO.N,/USB_DP*%
X133930000Y-84000000D03*
%TO.P,U1,6,VDD*%
%TO.N,Net-(U1-VDD)*%
X133930000Y-84500000D03*
%TO.P,U1,7,VREGIN*%
%TO.N,/VBUS*%
X133930000Y-85000000D03*
D16*
%TO.P,U1,8,VBUS*%
X134880000Y-85950000D03*
%TO.P,U1,9,~{RST}*%
%TO.N,Net-(U1-~{RST})*%
X135380000Y-85950000D03*
%TO.P,U1,10,NC*%
%TO.N,unconnected-(U1-NC-Pad10)*%
X135880000Y-85950000D03*
%TO.P,U1,11,~{SUSPEND}*%
%TO.N,unconnected-(U1-~{SUSPEND}-Pad11)*%
X136380000Y-85950000D03*
%TO.P,U1,12,SUSPEND*%
%TO.N,unconnected-(U1-SUSPEND-Pad12)*%
X136880000Y-85950000D03*
%TO.P,U1,13,CHREN*%
%TO.N,unconnected-(U1-CHREN-Pad13)*%
X137380000Y-85950000D03*
%TO.P,U1,14,CHR1*%
%TO.N,unconnected-(U1-CHR1-Pad14)*%
X137880000Y-85950000D03*
D15*
%TO.P,U1,15,CHR0*%
%TO.N,unconnected-(U1-CHR0-Pad15)*%
X138830000Y-85000000D03*
%TO.P,U1,16,~{WAKEUP}/GPIO.3*%
%TO.N,unconnected-(U1-~{WAKEUP}{slash}GPIO.3-Pad16)*%
X138830000Y-84500000D03*
%TO.P,U1,17,RS485/GPIO.2*%
%TO.N,unconnected-(U1-RS485{slash}GPIO.2-Pad17)*%
X138830000Y-84000000D03*
%TO.P,U1,18,~{RXT}/GPIO.1*%
%TO.N,unconnected-(U1-~{RXT}{slash}GPIO.1-Pad18)*%
X138830000Y-83500000D03*
%TO.P,U1,19,~{TXT}/GPIO.0*%
%TO.N,unconnected-(U1-~{TXT}{slash}GPIO.0-Pad19)*%
X138830000Y-83000000D03*
%TO.P,U1,20,GPIO.6*%
%TO.N,unconnected-(U1-GPIO.6-Pad20)*%
X138830000Y-82500000D03*
%TO.P,U1,21,GPIO.5*%
%TO.N,unconnected-(U1-GPIO.5-Pad21)*%
X138830000Y-82000000D03*
D16*
%TO.P,U1,22,GPIO.4*%
%TO.N,unconnected-(U1-GPIO.4-Pad22)*%
X137880000Y-81050000D03*
%TO.P,U1,23,~{CTS}*%
%TO.N,unconnected-(U1-~{CTS}-Pad23)*%
X137380000Y-81050000D03*
%TO.P,U1,24,~{RTS}*%
%TO.N,unconnected-(U1-~{RTS}-Pad24)*%
X136880000Y-81050000D03*
%TO.P,U1,25,RXD*%
%TO.N,/UART_RX*%
X136380000Y-81050000D03*
%TO.P,U1,26,TXD*%
%TO.N,/UART_TX*%
X135880000Y-81050000D03*
%TO.P,U1,27,~{DSR}*%
%TO.N,unconnected-(U1-~{DSR}-Pad27)*%
X135380000Y-81050000D03*
%TO.P,U1,28,~{DTR}*%
%TO.N,unconnected-(U1-~{DTR}-Pad28)*%
X134880000Y-81050000D03*
D17*
%TO.P,U1,29,GND*%
%TO.N,GND*%
X136380000Y-83500000D03*
%TD*%
D13*
%TO.P,R5,1*%
%TO.N,/VBUS*%
X132850000Y-89000000D03*
%TO.P,R5,2*%
%TO.N,Net-(D3-K)*%
X134500000Y-89000000D03*
%TD*%
%TO.P,R2,1*%
%TO.N,Net-(J1-CC2)*%
X125180000Y-84010000D03*
%TO.P,R2,2*%
%TO.N,GND*%
X126830000Y-84010000D03*
%TD*%
D14*
%TO.P,C4,1*%
%TO.N,GND*%
X121220000Y-86520000D03*
%TO.P,C4,2*%
%TO.N,Net-(U1-VDD)*%
X122770000Y-86520000D03*
%TD*%
%TO.P,C3,1*%
%TO.N,GND*%
X121220000Y-84010000D03*
%TO.P,C3,2*%
%TO.N,/VBUS*%
X122770000Y-84010000D03*
%TD*%
D18*
%TO.P,D1,1,I/O1*%
%TO.N,GND*%
X116725000Y-88000000D03*
%TO.P,D1,2,GND*%
X116725000Y-88950000D03*
%TO.P,D1,3,I/O2*%
%TO.N,Net-(D1-I{slash}O2-Pad3)*%
X116725000Y-89900000D03*
%TO.P,D1,4,I/O2*%
X119000000Y-89900000D03*
%TO.P,D1,5,VBUS*%
%TO.N,unconnected-(D1-VBUS-Pad5)*%
X119000000Y-88950000D03*
%TO.P,D1,6,I/O1*%
%TO.N,unconnected-(D1-I{slash}O1-Pad6)*%
X119000000Y-88000000D03*
%TD*%
D19*
%TO.P,J1,A1,GND*%
%TO.N,GND*%
X114500000Y-82000000D03*
%TO.P,J1,A4,VBUS*%
%TO.N,Net-(F1-Pad1)*%
X114500000Y-82800000D03*
D20*
%TO.P,J1,A5,CC1*%
%TO.N,Net-(J1-CC1)*%
X114500000Y-84000000D03*
%TO.P,J1,A6,D+*%
%TO.N,GND*%
X114500000Y-85000000D03*
%TO.P,J1,A7,D-*%
%TO.N,Net-(D1-I{slash}O2-Pad3)*%
X114500000Y-85500000D03*
%TO.P,J1,A8,SBU1*%
%TO.N,unconnected-(J1-SBU1-PadA8)*%
X114500000Y-86500000D03*
D19*
%TO.P,J1,A9,VBUS*%
%TO.N,Net-(F1-Pad1)*%
X114500000Y-87700000D03*
%TO.P,J1,A12,GND*%
%TO.N,GND*%
X114500000Y-88500000D03*
%TO.P,J1,B1,GND*%
X114500000Y-88500000D03*
%TO.P,J1,B4,VBUS*%
%TO.N,Net-(F1-Pad1)*%
X114500000Y-87700000D03*
D20*
%TO.P,J1,B5,CC2*%
%TO.N,Net-(J1-CC2)*%
X114500000Y-87000000D03*
%TO.P,J1,B6,D+*%
%TO.N,GND*%
X114500000Y-86000000D03*
%TO.P,J1,B7,D-*%
%TO.N,Net-(D1-I{slash}O2-Pad3)*%
X114500000Y-84500000D03*
%TO.P,J1,B8,SBU2*%
%TO.N,unconnected-(J1-SBU2-PadB8)*%
X114500000Y-83500000D03*
D19*
%TO.P,J1,B9,VBUS*%
%TO.N,Net-(F1-Pad1)*%
X114500000Y-82800000D03*
%TO.P,J1,B12,GND*%
%TO.N,GND*%
X114500000Y-82000000D03*
D21*
%TO.P,J1,S1,SHIELD*%
X113585000Y-80930000D03*
D22*
X109405000Y-80930000D03*
D21*
X113585000Y-89570000D03*
D22*
X109405000Y-89570000D03*
%TD*%
D13*
%TO.P,R7,1*%
%TO.N,/UART_RX*%
X129190000Y-84010000D03*
%TO.P,R7,2*%
%TO.N,Net-(D5-K)*%
X130840000Y-84010000D03*
%TD*%
%TO.P,R6,1*%
%TO.N,/UART_TX*%
X129190000Y-81500000D03*
%TO.P,R6,2*%
%TO.N,Net-(D4-K)*%
X130840000Y-81500000D03*
%TD*%
D14*
%TO.P,C6,1*%
%TO.N,Net-(U1-~{RST})*%
X128870000Y-89000000D03*
%TO.P,C6,2*%
%TO.N,GND*%
X130420000Y-89000000D03*
%TD*%
D13*
%TO.P,R10,1*%
%TO.N,Net-(U1-~{RST})*%
X129190000Y-86520000D03*
%TO.P,R10,2*%
%TO.N,/VBUS*%
X130840000Y-86520000D03*
%TD*%
%TO.P,R1,1*%
%TO.N,Net-(J1-CC1)*%
X125180000Y-81500000D03*
%TO.P,R1,2*%
%TO.N,GND*%
X126830000Y-81500000D03*
%TD*%
D14*
%TO.P,C5,1*%
%TO.N,GND*%
X121220000Y-89030000D03*
%TO.P,C5,2*%
%TO.N,Net-(U1-VDD)*%
X122770000Y-89030000D03*
%TD*%
D23*
%TO.P,J2,1,Pin_1*%
%TO.N,GND*%
X146115000Y-80420000D03*
D24*
%TO.P,J2,2,Pin_2*%
%TO.N,/UART_TX*%
X146115000Y-82960000D03*
%TO.P,J2,3,Pin_3*%
%TO.N,/UART_RX*%
X146115000Y-85500000D03*
%TO.P,J2,4,Pin_4*%
%TO.N,/VBUS*%
X146115000Y-88040000D03*
%TO.P,J2,5,Pin_5*%
%TO.N,unconnected-(J2-Pin_5-Pad5)*%
X146115000Y-90580000D03*
%TD*%
D25*
%TO.N,GND*%
X112000000Y-85400000D03*
X139800000Y-84800000D03*
X133800000Y-86600000D03*
%TO.N,Net-(U1-VDD)*%
X133000000Y-91000000D03*
X133000000Y-86098000D03*
%TO.N,/VBUS*%
X127500000Y-85500000D03*
X123000000Y-85000000D03*
%TO.N,Net-(J1-CC1)*%
X120051000Y-80051000D03*
X123680000Y-80000000D03*
%TO.N,Net-(D1-I{slash}O2-Pad3)*%
X120500000Y-90500000D03*
X125000000Y-90500000D03*
%TO.N,/UART_RX*%
X143500000Y-80500000D03*
X138000000Y-79500000D03*
%TO.N,GND*%
X135000000Y-82500000D03*
X136000000Y-82500000D03*
X136000000Y-83500000D03*
X136380000Y-83500000D03*
X136380000Y-83500000D03*
X136380000Y-83500000D03*
X137500000Y-83000000D03*
X136380000Y-83500000D03*
X137000000Y-84500000D03*
X137000000Y-82500000D03*
X135500000Y-84500000D03*
X137000000Y-83500000D03*
X136380000Y-83500000D03*
X136380000Y-83500000D03*
X136000000Y-82500000D03*
X137500000Y-84000000D03*
X136380000Y-83500000D03*
X135500000Y-83000000D03*
X136380000Y-83500000D03*
X136500000Y-84000000D03*
X135500000Y-82500000D03*
X136380000Y-83500000D03*
X135500000Y-84000000D03*
X136380000Y-83500000D03*
X136000000Y-84000000D03*
X135500000Y-82500000D03*
X136380000Y-83500000D03*
X136380000Y-83500000D03*
X137000000Y-82500000D03*
X135000000Y-84000000D03*
X136380000Y-83500000D03*
X135000000Y-84500000D03*
X136380000Y-83500000D03*
X137500000Y-84500000D03*
X136380000Y-83500000D03*
X136380000Y-83500000D03*
X136380000Y-83500000D03*
X136380000Y-83500000D03*
X136380000Y-83500000D03*
X137500000Y-83500000D03*
X137000000Y-83000000D03*
X136380000Y-83500000D03*
X137000000Y-84000000D03*
X136380000Y-83500000D03*
X135500000Y-83000000D03*
X136380000Y-83500000D03*
X136380000Y-83500000D03*
X135500000Y-83500000D03*
X136000000Y-83000000D03*
X136500000Y-83000000D03*
X136380000Y-83500000D03*
X136380000Y-83500000D03*
X136380000Y-83500000D03*
X136380000Y-83500000D03*
X136000000Y-83500000D03*
X136000000Y-84000000D03*
X136500000Y-84500000D03*
X136000000Y-84500000D03*
X136380000Y-83500000D03*
X136380000Y-83500000D03*
X136380000Y-83500000D03*
X137500000Y-84000000D03*
X136380000Y-83500000D03*
X135000000Y-83500000D03*
X136500000Y-84500000D03*
X136500000Y-82500000D03*
X136500000Y-83000000D03*
X136380000Y-83500000D03*
X136380000Y-83500000D03*
X137500000Y-83000000D03*
X135000000Y-82500000D03*
X137500000Y-82500000D03*
X136000000Y-82500000D03*
X136380000Y-83500000D03*
X136380000Y-83500000D03*
X136380000Y-83500000D03*
X135000000Y-83000000D03*
X137000000Y-83500000D03*
X136380000Y-83500000D03*
X136380000Y-83500000D03*
X136380000Y-83500000D03*
X136380000Y-83500000D03*
X135500000Y-84500000D03*
X136380000Y-83500000D03*
%TO.N,Net-(U1-~{RST})*%
X135500000Y-87000000D03*
X128884620Y-90165380D03*
%TO.N,Net-(D4-K)*%
X140500000Y-83000000D03*
X132000000Y-81500000D03*
%TO.N,Net-(D5-K)*%
X139500000Y-86500000D03*
X132000000Y-82500000D03*
%TO.N,Net-(J1-CC2)*%
X116000000Y-87000000D03*
X123748657Y-83455136D03*
%TO.N,/UART_TX*%
X132500000Y-80500000D03*
%TO.N,/USB_DP*%
X132458605Y-85500000D03*
X127800500Y-86300500D03*
%TO.N,/USB_DM*%
X131800000Y-90300000D03*
X131808605Y-86460076D03*
%TD*%
D26*
%TO.N,/VBUS*%
X121760000Y-83000000D02*
X121500000Y-83000000D01*
X122770000Y-84010000D02*
X121760000Y-83000000D01*
X138330000Y-88000000D02*
X138728567Y-88398567D01*
X138728567Y-88398567D02*
X139024543Y-88694543D01*
X139024543Y-88694543D02*
X139330000Y-89000000D01*
X146115000Y-88040000D02*
X139902992Y-88040000D01*
X139902992Y-88040000D02*
X139380681Y-88040000D01*
X138370000Y-88040000D02*
X138330000Y-88000000D01*
X139380681Y-88040000D02*
X138370000Y-88040000D01*
X133850000Y-88000000D02*
X132850000Y-89000000D01*
X138330000Y-88000000D02*
X133850000Y-88000000D01*
D27*
X133330000Y-87330000D02*
X134170000Y-87330000D01*
X134880000Y-86620000D02*
X134880000Y-85950000D01*
X134170000Y-87330000D02*
X134880000Y-86620000D01*
X132830000Y-87830000D02*
X133330000Y-87330000D01*
%TO.N,Net-(U1-VDD)*%
X133059605Y-86038395D02*
X133000000Y-86098000D01*
X133059605Y-84954597D02*
X133059605Y-86038395D01*
X133514202Y-84500000D02*
X133059605Y-84954597D01*
X133930000Y-84500000D02*
X133514202Y-84500000D01*
X133000000Y-86098000D02*
X133000000Y-86200000D01*
D28*
%TO.N,/USB_DP*%
X132400000Y-84571745D02*
X132971745Y-84000000D01*
X132400000Y-85441395D02*
X132400000Y-84571745D01*
X132971745Y-84000000D02*
X133930000Y-84000000D01*
X132458605Y-85500000D02*
X132400000Y-85441395D01*
%TO.N,/USB_DM*%
X132500000Y-83500000D02*
X133930000Y-83500000D01*
X131808605Y-84191395D02*
X132500000Y-83500000D01*
X131808605Y-86460076D02*
X131808605Y-84191395D01*
X131800000Y-90700000D02*
X131500000Y-91000000D01*
X128800000Y-91000000D02*
X126830000Y-89030000D01*
X131800000Y-90300000D02*
X131800000Y-90700000D01*
X131500000Y-91000000D02*
X128800000Y-91000000D01*
%TO.N,Net-(U1-~{RST})*%
X128870000Y-90150760D02*
X128870000Y-89000000D01*
X128884620Y-90165380D02*
X128870000Y-90150760D01*
D27*
%TO.N,Net-(U1-VDD)*%
X132800000Y-91000000D02*
X133000000Y-91000000D01*
X122770000Y-90770000D02*
X123451000Y-91451000D01*
X123451000Y-91451000D02*
X132349000Y-91451000D01*
X132349000Y-91451000D02*
X132800000Y-91000000D01*
X122770000Y-89030000D02*
X122770000Y-90770000D01*
%TO.N,GND*%
X112600000Y-85400000D02*
X113200000Y-86000000D01*
X113000000Y-85000000D02*
X112600000Y-85400000D01*
X114500000Y-85000000D02*
X113000000Y-85000000D01*
X113200000Y-86000000D02*
X114500000Y-86000000D01*
%TO.N,Net-(D1-I{slash}O2-Pad3)*%
X115743130Y-84766130D02*
X115743130Y-85500000D01*
X115477000Y-84500000D02*
X115743130Y-84766130D01*
X114500000Y-84500000D02*
X115477000Y-84500000D01*
D28*
%TO.N,GND*%
X135000000Y-83000000D02*
X133930000Y-83000000D01*
D26*
%TO.N,/VBUS*%
X127500000Y-85500000D02*
X129820000Y-85500000D01*
D28*
%TO.N,Net-(J1-CC2)*%
X124483521Y-84190000D02*
X125000000Y-84190000D01*
X123748657Y-83455136D02*
X124483521Y-84190000D01*
%TO.N,Net-(D1-I{slash}O2-Pad3)*%
X125000000Y-89210000D02*
X125180000Y-89030000D01*
X125000000Y-90500000D02*
X125000000Y-89210000D01*
X119000000Y-90000000D02*
X119000000Y-89900000D01*
X119500000Y-90500000D02*
X119000000Y-90000000D01*
X120500000Y-90500000D02*
X119500000Y-90500000D01*
%TO.N,Net-(J1-CC1)*%
X120102000Y-80000000D02*
X120051000Y-80051000D01*
%TO.N,GND*%
X115430000Y-89570000D02*
X113585000Y-89570000D01*
X116050000Y-88950000D02*
X115430000Y-89570000D01*
X116725000Y-88950000D02*
X116050000Y-88950000D01*
%TO.N,/UART_RX*%
X144000000Y-85000000D02*
X144500000Y-85500000D01*
X143500000Y-80500000D02*
X144000000Y-81000000D01*
X144000000Y-81000000D02*
X144000000Y-85000000D01*
X144500000Y-85500000D02*
X146115000Y-85500000D01*
X136380000Y-79620000D02*
X136500000Y-79500000D01*
X136380000Y-81050000D02*
X136380000Y-79620000D01*
X136500000Y-79500000D02*
X138000000Y-79500000D01*
X128000000Y-81000000D02*
X129500000Y-79500000D01*
X128000000Y-83000000D02*
X128000000Y-81000000D01*
X129010000Y-84010000D02*
X128000000Y-83000000D01*
X129190000Y-84010000D02*
X129010000Y-84010000D01*
X129500000Y-79500000D02*
X136500000Y-79500000D01*
%TO.N,/UART_TX*%
X135880000Y-80380000D02*
X135880000Y-81050000D01*
X135500000Y-80000000D02*
X135880000Y-80380000D01*
X133000000Y-80000000D02*
X135500000Y-80000000D01*
X132500000Y-80500000D02*
X133000000Y-80000000D01*
X129500000Y-80500000D02*
X132500000Y-80500000D01*
X129190000Y-80810000D02*
X129500000Y-80500000D01*
X129190000Y-81500000D02*
X129190000Y-80810000D01*
D27*
%TO.N,/VBUS*%
X134880000Y-85950000D02*
X133930000Y-85000000D01*
D26*
X122770000Y-84770000D02*
X123000000Y-85000000D01*
X119000000Y-83000000D02*
X121500000Y-83000000D01*
X129820000Y-85500000D02*
X130840000Y-86520000D01*
X122770000Y-84010000D02*
X122770000Y-84770000D01*
X121500000Y-83000000D02*
X121280000Y-82780000D01*
X123000000Y-83780000D02*
X122770000Y-84010000D01*
D27*
X132830000Y-87830000D02*
X132830000Y-89000000D01*
D26*
X118000000Y-84000000D02*
X119000000Y-83000000D01*
D27*
X130840000Y-86510000D02*
X130830000Y-86500000D01*
X131020000Y-86520000D02*
X132330000Y-87830000D01*
X130840000Y-86520000D02*
X131020000Y-86520000D01*
D26*
X121280000Y-82780000D02*
X121280000Y-81500000D01*
D27*
X132330000Y-87830000D02*
X132830000Y-87830000D01*
X130840000Y-86520000D02*
X130840000Y-86510000D01*
D26*
X118000000Y-85137500D02*
X118000000Y-84000000D01*
D28*
%TO.N,Net-(U1-VDD)*%
X122770000Y-86520000D02*
X122770000Y-89030000D01*
%TO.N,Net-(U1-~{RST})*%
X128870000Y-86840000D02*
X129190000Y-86520000D01*
X135380000Y-85950000D02*
X135380000Y-86880000D01*
X128870000Y-89000000D02*
X128870000Y-86840000D01*
X135380000Y-86880000D02*
X135500000Y-87000000D01*
%TO.N,Net-(D1-I{slash}O2-Pad3)*%
X117986500Y-87743370D02*
X117986500Y-89548999D01*
X117986500Y-89548999D02*
X118337501Y-89900000D01*
X114500000Y-85500000D02*
X115743130Y-85500000D01*
X117635499Y-89900000D02*
X117986500Y-89548999D01*
X115743130Y-85500000D02*
X117986500Y-87743370D01*
X116725000Y-89900000D02*
X117635499Y-89900000D01*
X118337501Y-89900000D02*
X119000000Y-89900000D01*
%TO.N,Net-(D3-K)*%
X140925000Y-90075000D02*
X140000000Y-91000000D01*
X140000000Y-91000000D02*
X135000000Y-91000000D01*
X134500000Y-90500000D02*
X134500000Y-89000000D01*
X135000000Y-91000000D02*
X134500000Y-90500000D01*
X140925000Y-89000000D02*
X140925000Y-90075000D01*
%TO.N,Net-(D4-K)*%
X140925000Y-84000000D02*
X140925000Y-83425000D01*
X140925000Y-83425000D02*
X140500000Y-83000000D01*
X130840000Y-81500000D02*
X132000000Y-81500000D01*
%TO.N,Net-(D5-K)*%
X140925000Y-86500000D02*
X139500000Y-86500000D01*
%TO.N,Net-(F1-Pad1)*%
X114500000Y-82800000D02*
X116062500Y-82800000D01*
X113700000Y-82800000D02*
X114500000Y-82800000D01*
X113355719Y-87414000D02*
X112914000Y-87414000D01*
X112855718Y-83086000D02*
X113414000Y-83086000D01*
X112914000Y-87414000D02*
X111220859Y-85720859D01*
X113414000Y-83086000D02*
X113700000Y-82800000D01*
X114500000Y-87700000D02*
X113641719Y-87700000D01*
X111220859Y-84720859D02*
X112855718Y-83086000D01*
X116062500Y-82800000D02*
X118000000Y-80862500D01*
X111220859Y-85720859D02*
X111220859Y-84720859D01*
X113641719Y-87700000D02*
X113355719Y-87414000D01*
%TO.N,Net-(J1-CC1)*%
X117000000Y-84000000D02*
X119224000Y-81776000D01*
X123680000Y-80000000D02*
X125180000Y-81500000D01*
X120051000Y-81449000D02*
X120051000Y-80051000D01*
X114500000Y-84000000D02*
X117000000Y-84000000D01*
X119724000Y-81776000D02*
X120051000Y-81449000D01*
X119224000Y-81776000D02*
X119724000Y-81776000D01*
%TO.N,Net-(J1-CC2)*%
X114500000Y-87000000D02*
X116000000Y-87000000D01*
%TO.N,/USB_DP*%
X126830000Y-86520000D02*
X127581000Y-86520000D01*
X127581000Y-86520000D02*
X127800500Y-86300500D01*
%TO.N,Net-(D5-K)*%
X130840000Y-83660000D02*
X132000000Y-82500000D01*
X130840000Y-84010000D02*
X130840000Y-83660000D01*
%TD*%
%TA.AperFunction,Conductor*%
%TO.N,GND*%
G36*
X137704469Y-78502455D02*
G01*
X137711302Y-78501236D01*
X137737563Y-78512173D01*
X137764849Y-78520185D01*
X137769392Y-78525428D01*
X137775802Y-78528098D01*
X137791982Y-78551498D01*
X137810604Y-78572989D01*
X137811591Y-78579858D01*
X137815539Y-78585567D01*
X137816499Y-78613991D01*
X137820548Y-78642147D01*
X137817664Y-78648460D01*
X137817899Y-78655397D01*
X137803339Y-78679828D01*
X137791523Y-78705703D01*
X137785204Y-78710258D01*
X137782131Y-78715417D01*
X137753101Y-78735490D01*
X137749238Y-78737414D01*
X137620821Y-78790606D01*
X137557409Y-78832976D01*
X137550356Y-78836490D01*
X137503716Y-78847464D01*
X137497279Y-78849480D01*
X137496296Y-78849210D01*
X137495065Y-78849500D01*
X129435929Y-78849500D01*
X129310261Y-78874497D01*
X129310255Y-78874499D01*
X129191870Y-78923535D01*
X129085331Y-78994722D01*
X129085324Y-78994728D01*
X127499448Y-80580604D01*
X127438125Y-80614089D01*
X127368433Y-80609105D01*
X127347619Y-80599041D01*
X127319398Y-80581981D01*
X127319396Y-80581980D01*
X127157105Y-80531409D01*
X127157106Y-80531409D01*
X127086572Y-80525000D01*
X127080000Y-80525000D01*
X127080000Y-82474999D01*
X127086581Y-82474999D01*
X127157102Y-82468591D01*
X127157104Y-82468591D01*
X127188608Y-82458774D01*
X127258468Y-82457622D01*
X127317861Y-82494422D01*
X127347930Y-82557490D01*
X127349500Y-82577159D01*
X127349500Y-82932841D01*
X127329815Y-82999880D01*
X127277011Y-83045635D01*
X127207853Y-83055579D01*
X127188610Y-83051227D01*
X127157101Y-83041408D01*
X127086572Y-83035000D01*
X127080000Y-83035000D01*
X127080000Y-83760000D01*
X127757133Y-83760000D01*
X127758651Y-83759171D01*
X127770264Y-83760000D01*
X127781361Y-83760000D01*
X127781361Y-83760792D01*
X127828344Y-83764146D01*
X127872707Y-83792653D01*
X128253181Y-84173127D01*
X128286666Y-84234450D01*
X128289500Y-84260808D01*
X128289500Y-84341616D01*
X128289803Y-84344949D01*
X128295913Y-84412192D01*
X128295913Y-84412194D01*
X128295914Y-84412196D01*
X128346522Y-84574606D01*
X128346523Y-84574607D01*
X128348754Y-84581767D01*
X128347563Y-84582138D01*
X128356088Y-84643818D01*
X128326716Y-84707214D01*
X128267732Y-84744666D01*
X128233448Y-84749500D01*
X127804604Y-84749500D01*
X127796424Y-84747872D01*
X127791347Y-84748789D01*
X127757149Y-84740060D01*
X127741467Y-84733564D01*
X127687065Y-84689722D01*
X127665001Y-84623428D01*
X127673103Y-84582282D01*
X127670787Y-84581561D01*
X127723590Y-84412106D01*
X127730000Y-84341572D01*
X127730000Y-84260000D01*
X126954000Y-84260000D01*
X126886961Y-84240315D01*
X126841206Y-84187511D01*
X126830000Y-84136000D01*
X126830000Y-84010000D01*
X126704000Y-84010000D01*
X126636961Y-83990315D01*
X126591206Y-83937511D01*
X126580000Y-83886000D01*
X126580000Y-83035000D01*
X126579999Y-83034999D01*
X126573436Y-83035000D01*
X126573417Y-83035001D01*
X126502897Y-83041408D01*
X126502892Y-83041409D01*
X126340603Y-83091981D01*
X126195122Y-83179927D01*
X126195121Y-83179928D01*
X126093035Y-83282015D01*
X126031712Y-83315500D01*
X125962020Y-83310516D01*
X125917673Y-83282015D01*
X125815188Y-83179530D01*
X125814215Y-83178942D01*
X125669606Y-83091522D01*
X125507196Y-83040914D01*
X125507194Y-83040913D01*
X125507192Y-83040913D01*
X125457778Y-83036423D01*
X125436616Y-83034500D01*
X124923384Y-83034500D01*
X124904145Y-83036248D01*
X124852807Y-83040913D01*
X124851215Y-83041409D01*
X124701999Y-83087906D01*
X124690391Y-83091523D01*
X124632959Y-83126242D01*
X124565405Y-83144078D01*
X124498931Y-83122560D01*
X124461568Y-83080933D01*
X124461436Y-83081022D01*
X124460816Y-83080094D01*
X124459447Y-83078569D01*
X124458049Y-83075953D01*
X124370446Y-82944847D01*
X124370443Y-82944843D01*
X124258949Y-82833349D01*
X124258945Y-82833346D01*
X124127842Y-82745745D01*
X124127829Y-82745738D01*
X123982158Y-82685400D01*
X123982146Y-82685397D01*
X123827502Y-82654636D01*
X123827499Y-82654636D01*
X123669815Y-82654636D01*
X123669812Y-82654636D01*
X123515167Y-82685397D01*
X123515155Y-82685400D01*
X123369484Y-82745738D01*
X123369471Y-82745745D01*
X123238368Y-82833346D01*
X123238364Y-82833349D01*
X123126871Y-82944842D01*
X123126868Y-82944847D01*
X123107127Y-82974391D01*
X123101966Y-82978704D01*
X123099291Y-82984876D01*
X123075498Y-83000824D01*
X123053518Y-83019195D01*
X123045473Y-83020951D01*
X123041254Y-83023780D01*
X123011761Y-83028311D01*
X123006423Y-83029477D01*
X123005234Y-83029500D01*
X122926083Y-83029500D01*
X122917559Y-83031195D01*
X122906558Y-83031408D01*
X122883036Y-83024992D01*
X122858756Y-83022819D01*
X122847129Y-83015199D01*
X122839151Y-83013023D01*
X122832435Y-83005568D01*
X122816480Y-82995112D01*
X122508047Y-82686679D01*
X122474562Y-82625356D01*
X122479546Y-82555664D01*
X122521418Y-82499731D01*
X122575404Y-82479594D01*
X122580000Y-82474999D01*
X123080000Y-82474999D01*
X123103308Y-82474999D01*
X123103322Y-82474998D01*
X123202607Y-82464855D01*
X123363481Y-82411547D01*
X123363492Y-82411542D01*
X123507728Y-82322575D01*
X123507732Y-82322572D01*
X123627572Y-82202732D01*
X123627575Y-82202728D01*
X123716542Y-82058492D01*
X123716547Y-82058481D01*
X123769855Y-81897606D01*
X123779999Y-81798322D01*
X123780000Y-81798309D01*
X123780000Y-81750000D01*
X123080000Y-81750000D01*
X123080000Y-82474999D01*
X122580000Y-82474999D01*
X122580000Y-80524999D01*
X122556693Y-80525000D01*
X122556674Y-80525001D01*
X122457392Y-80535144D01*
X122296518Y-80588452D01*
X122296507Y-80588457D01*
X122152271Y-80677424D01*
X122152265Y-80677428D01*
X122143031Y-80686663D01*
X122081707Y-80720146D01*
X122012015Y-80715159D01*
X121967672Y-80686660D01*
X121958044Y-80677032D01*
X121958040Y-80677029D01*
X121813705Y-80588001D01*
X121813699Y-80587998D01*
X121813697Y-80587997D01*
X121813694Y-80587996D01*
X121652709Y-80534651D01*
X121553346Y-80524500D01*
X121006662Y-80524500D01*
X121006644Y-80524501D01*
X120915376Y-80533825D01*
X120846683Y-80521055D01*
X120795799Y-80473174D01*
X120778879Y-80405384D01*
X120788214Y-80363014D01*
X120791876Y-80354174D01*
X120820737Y-80284497D01*
X120851500Y-80129842D01*
X120851500Y-79972158D01*
X120851500Y-79972155D01*
X120844956Y-79939258D01*
X120844956Y-79939257D01*
X120841355Y-79921153D01*
X122879500Y-79921153D01*
X122879500Y-80078846D01*
X122910261Y-80233489D01*
X122910264Y-80233501D01*
X122970602Y-80379172D01*
X122970609Y-80379184D01*
X123003609Y-80428571D01*
X123054553Y-80504815D01*
X123059102Y-80511622D01*
X123079980Y-80578299D01*
X123080000Y-80580513D01*
X123080000Y-81250000D01*
X123779997Y-81250000D01*
X123807344Y-81222653D01*
X123868667Y-81189168D01*
X123938359Y-81194152D01*
X123982707Y-81222653D01*
X124243181Y-81483127D01*
X124276666Y-81544450D01*
X124279500Y-81570808D01*
X124279500Y-81831616D01*
X124279788Y-81834785D01*
X124285913Y-81902192D01*
X124285913Y-81902194D01*
X124285914Y-81902196D01*
X124336522Y-82064606D01*
X124420022Y-82202732D01*
X124424530Y-82210188D01*
X124544811Y-82330469D01*
X124544813Y-82330470D01*
X124544815Y-82330472D01*
X124690394Y-82418478D01*
X124852804Y-82469086D01*
X124923384Y-82475500D01*
X124923387Y-82475500D01*
X125436613Y-82475500D01*
X125436616Y-82475500D01*
X125507196Y-82469086D01*
X125669606Y-82418478D01*
X125815185Y-82330472D01*
X125917673Y-82227983D01*
X125978994Y-82194499D01*
X126048685Y-82199483D01*
X126093034Y-82227984D01*
X126195122Y-82330072D01*
X126340604Y-82418019D01*
X126340603Y-82418019D01*
X126502894Y-82468590D01*
X126502893Y-82468590D01*
X126573408Y-82474998D01*
X126573426Y-82474999D01*
X126579999Y-82474998D01*
X126580000Y-82474998D01*
X126580000Y-80525000D01*
X126579999Y-80524999D01*
X126573436Y-80525000D01*
X126573417Y-80525001D01*
X126502897Y-80531408D01*
X126502892Y-80531409D01*
X126340603Y-80581981D01*
X126195122Y-80669927D01*
X126195121Y-80669928D01*
X126093035Y-80772015D01*
X126031712Y-80805500D01*
X125962020Y-80800516D01*
X125917673Y-80772015D01*
X125815188Y-80669530D01*
X125726030Y-80615632D01*
X125669606Y-80581522D01*
X125507196Y-80530914D01*
X125507194Y-80530913D01*
X125507192Y-80530913D01*
X125457778Y-80526423D01*
X125436616Y-80524500D01*
X125436613Y-80524500D01*
X125175808Y-80524500D01*
X125108769Y-80504815D01*
X125088127Y-80488181D01*
X124497015Y-79897069D01*
X124463530Y-79835746D01*
X124463093Y-79833652D01*
X124449737Y-79766503D01*
X124410516Y-79671814D01*
X124389397Y-79620827D01*
X124389390Y-79620814D01*
X124301789Y-79489711D01*
X124301786Y-79489707D01*
X124190292Y-79378213D01*
X124190288Y-79378210D01*
X124059185Y-79290609D01*
X124059172Y-79290602D01*
X123913501Y-79230264D01*
X123913489Y-79230261D01*
X123758845Y-79199500D01*
X123758842Y-79199500D01*
X123601158Y-79199500D01*
X123601155Y-79199500D01*
X123446510Y-79230261D01*
X123446498Y-79230264D01*
X123300827Y-79290602D01*
X123300814Y-79290609D01*
X123169711Y-79378210D01*
X123169707Y-79378213D01*
X123058213Y-79489707D01*
X123058210Y-79489711D01*
X122970609Y-79620814D01*
X122970602Y-79620827D01*
X122910264Y-79766498D01*
X122910261Y-79766510D01*
X122879500Y-79921153D01*
X120841355Y-79921153D01*
X120824366Y-79835746D01*
X120820737Y-79817503D01*
X120817629Y-79810000D01*
X120760397Y-79671827D01*
X120760390Y-79671814D01*
X120672789Y-79540711D01*
X120672786Y-79540707D01*
X120561292Y-79429213D01*
X120561288Y-79429210D01*
X120430185Y-79341609D01*
X120430172Y-79341602D01*
X120284501Y-79281264D01*
X120284489Y-79281261D01*
X120129845Y-79250500D01*
X120129842Y-79250500D01*
X119972158Y-79250500D01*
X119972155Y-79250500D01*
X119817510Y-79281261D01*
X119817498Y-79281264D01*
X119671827Y-79341602D01*
X119671814Y-79341609D01*
X119540711Y-79429210D01*
X119540707Y-79429213D01*
X119429213Y-79540707D01*
X119429210Y-79540711D01*
X119341609Y-79671814D01*
X119341604Y-79671824D01*
X119320426Y-79722953D01*
X119276585Y-79777356D01*
X119210290Y-79799421D01*
X119205865Y-79799500D01*
X116499998Y-79799500D01*
X116499981Y-79799501D01*
X116397203Y-79810000D01*
X116397200Y-79810001D01*
X116230668Y-79865185D01*
X116230663Y-79865187D01*
X116081342Y-79957289D01*
X115957289Y-80081342D01*
X115865187Y-80230663D01*
X115865185Y-80230668D01*
X115857303Y-80254454D01*
X115810001Y-80397203D01*
X115810001Y-80397204D01*
X115810000Y-80397204D01*
X115799500Y-80499983D01*
X115799500Y-81225001D01*
X115799502Y-81225024D01*
X115802315Y-81252564D01*
X115789544Y-81321256D01*
X115741663Y-81372140D01*
X115673873Y-81389059D01*
X115607697Y-81366642D01*
X115589019Y-81348522D01*
X115588460Y-81349082D01*
X115582187Y-81342809D01*
X115467093Y-81256649D01*
X115467086Y-81256645D01*
X115332379Y-81206403D01*
X115332372Y-81206401D01*
X115272844Y-81200000D01*
X115179924Y-81200000D01*
X115112885Y-81180315D01*
X115112531Y-81180000D01*
X114301988Y-81180000D01*
X114319205Y-81170060D01*
X114375060Y-81114205D01*
X114414556Y-81045796D01*
X114435000Y-80969496D01*
X114435000Y-80890504D01*
X114414556Y-80814204D01*
X114375060Y-80745795D01*
X114319205Y-80689940D01*
X114301988Y-80680000D01*
X115104862Y-80680000D01*
X115096569Y-80638309D01*
X115096569Y-80638307D01*
X115021192Y-80456328D01*
X115021185Y-80456315D01*
X114911751Y-80292537D01*
X114911748Y-80292533D01*
X114772466Y-80153251D01*
X114772462Y-80153248D01*
X114608684Y-80043814D01*
X114608671Y-80043807D01*
X114426693Y-79968430D01*
X114426681Y-79968427D01*
X114233495Y-79930000D01*
X113835000Y-79930000D01*
X113835000Y-80630000D01*
X113335000Y-80630000D01*
X113335000Y-79930000D01*
X112936504Y-79930000D01*
X112743318Y-79968427D01*
X112743306Y-79968430D01*
X112561328Y-80043807D01*
X112561315Y-80043814D01*
X112397537Y-80153248D01*
X112397533Y-80153251D01*
X112258251Y-80292533D01*
X112258248Y-80292537D01*
X112148814Y-80456315D01*
X112148807Y-80456328D01*
X112073430Y-80638307D01*
X112073430Y-80638309D01*
X112065138Y-80680000D01*
X112868012Y-80680000D01*
X112850795Y-80689940D01*
X112794940Y-80745795D01*
X112755444Y-80814204D01*
X112735000Y-80890504D01*
X112735000Y-80969496D01*
X112755444Y-81045796D01*
X112794940Y-81114205D01*
X112850795Y-81170060D01*
X112868012Y-81180000D01*
X112065138Y-81180000D01*
X112073430Y-81221690D01*
X112073430Y-81221692D01*
X112148807Y-81403671D01*
X112148814Y-81403684D01*
X112258248Y-81567462D01*
X112258251Y-81567466D01*
X112397533Y-81706748D01*
X112397537Y-81706751D01*
X112566387Y-81819574D01*
X112565430Y-81821005D01*
X112609425Y-81864211D01*
X112624895Y-81932346D01*
X112601072Y-81998029D01*
X112599309Y-82000094D01*
X112599432Y-82000189D01*
X112594485Y-82006635D01*
X112518719Y-82137863D01*
X112479500Y-82284234D01*
X112479500Y-82435768D01*
X112483716Y-82451503D01*
X112482051Y-82521353D01*
X112445012Y-82576071D01*
X112445356Y-82576415D01*
X112443575Y-82578195D01*
X112442886Y-82579214D01*
X112442609Y-82579442D01*
X112441046Y-82580724D01*
X110715583Y-84306187D01*
X110660256Y-84388992D01*
X110644394Y-84412730D01*
X110595358Y-84531114D01*
X110595356Y-84531120D01*
X110570359Y-84656787D01*
X110570359Y-85784930D01*
X110592154Y-85894495D01*
X110592154Y-85894496D01*
X110595356Y-85910595D01*
X110595360Y-85910608D01*
X110644391Y-86028982D01*
X110644394Y-86028986D01*
X110708882Y-86125501D01*
X110715585Y-86135532D01*
X112463700Y-87883647D01*
X112497185Y-87944970D01*
X112495794Y-88003420D01*
X112479500Y-88064232D01*
X112479500Y-88064234D01*
X112479500Y-88215766D01*
X112480500Y-88219499D01*
X112518719Y-88362136D01*
X112556602Y-88427750D01*
X112594485Y-88493365D01*
X112594488Y-88493368D01*
X112599432Y-88499811D01*
X112596612Y-88501974D01*
X112622302Y-88549020D01*
X112617318Y-88618712D01*
X112575446Y-88674645D01*
X112566379Y-88680416D01*
X112566387Y-88680427D01*
X112397536Y-88793248D01*
X112258251Y-88932533D01*
X112258248Y-88932537D01*
X112148814Y-89096315D01*
X112148807Y-89096328D01*
X112073430Y-89278307D01*
X112073430Y-89278309D01*
X112065138Y-89320000D01*
X112868012Y-89320000D01*
X112850795Y-89329940D01*
X112794940Y-89385795D01*
X112755444Y-89454204D01*
X112735000Y-89530504D01*
X112735000Y-89609496D01*
X112755444Y-89685796D01*
X112794940Y-89754205D01*
X112850795Y-89810060D01*
X112868012Y-89820000D01*
X112065138Y-89820000D01*
X112073430Y-89861690D01*
X112073430Y-89861692D01*
X112148807Y-90043671D01*
X112148814Y-90043684D01*
X112258248Y-90207462D01*
X112258251Y-90207466D01*
X112397533Y-90346748D01*
X112397537Y-90346751D01*
X112561315Y-90456185D01*
X112561328Y-90456192D01*
X112743306Y-90531569D01*
X112743318Y-90531572D01*
X112936504Y-90569999D01*
X112936508Y-90570000D01*
X113335000Y-90570000D01*
X113335000Y-89870000D01*
X113835000Y-89870000D01*
X113835000Y-90570000D01*
X114233492Y-90570000D01*
X114233495Y-90569999D01*
X114426681Y-90531572D01*
X114426693Y-90531569D01*
X114608671Y-90456192D01*
X114608684Y-90456185D01*
X114772462Y-90346751D01*
X114772466Y-90346748D01*
X114911748Y-90207466D01*
X114911751Y-90207462D01*
X115021185Y-90043684D01*
X115021192Y-90043671D01*
X115096569Y-89861692D01*
X115096569Y-89861690D01*
X115104862Y-89820000D01*
X114301988Y-89820000D01*
X114319205Y-89810060D01*
X114375060Y-89754205D01*
X114414556Y-89685796D01*
X114435000Y-89609496D01*
X114435000Y-89530504D01*
X114414556Y-89454204D01*
X114375060Y-89385795D01*
X114319205Y-89329940D01*
X114250796Y-89290444D01*
X114250000Y-89290230D01*
X114250000Y-88750000D01*
X113558242Y-88750000D01*
X113491203Y-88730315D01*
X113445448Y-88677511D01*
X113435504Y-88608353D01*
X113464529Y-88544797D01*
X113470545Y-88538334D01*
X113499930Y-88508949D01*
X113561249Y-88475466D01*
X113630941Y-88480449D01*
X113630942Y-88480450D01*
X113661296Y-88491771D01*
X113667517Y-88494091D01*
X113727127Y-88500500D01*
X114626001Y-88500499D01*
X114693039Y-88520183D01*
X114738794Y-88572987D01*
X114750000Y-88624499D01*
X114750000Y-89320000D01*
X115121265Y-89320000D01*
X115141818Y-89306000D01*
X115179924Y-89300000D01*
X115272828Y-89300000D01*
X115272844Y-89299999D01*
X115332372Y-89293598D01*
X115332383Y-89293595D01*
X115441352Y-89252952D01*
X115450530Y-89252295D01*
X115458619Y-89247904D01*
X115484830Y-89249842D01*
X115511043Y-89247967D01*
X115519120Y-89252377D01*
X115528298Y-89253056D01*
X115549297Y-89268854D01*
X115572367Y-89281451D01*
X115578258Y-89290643D01*
X115584131Y-89295061D01*
X115594656Y-89316226D01*
X115600971Y-89326078D01*
X115621474Y-89381454D01*
X115623145Y-89405631D01*
X115629103Y-89429123D01*
X115625594Y-89441071D01*
X115626292Y-89451158D01*
X115618428Y-89465476D01*
X115613493Y-89482284D01*
X115613855Y-89482441D01*
X115612587Y-89485369D01*
X115611927Y-89487620D01*
X115610759Y-89489594D01*
X115610754Y-89489607D01*
X115564902Y-89647426D01*
X115564901Y-89647432D01*
X115562000Y-89684298D01*
X115562000Y-90115701D01*
X115564901Y-90152567D01*
X115564902Y-90152573D01*
X115610754Y-90310393D01*
X115610755Y-90310396D01*
X115610756Y-90310398D01*
X115622239Y-90329815D01*
X115694417Y-90451862D01*
X115694423Y-90451870D01*
X115810629Y-90568076D01*
X115810633Y-90568079D01*
X115810635Y-90568081D01*
X115952102Y-90651744D01*
X115993724Y-90663836D01*
X116109926Y-90697597D01*
X116109929Y-90697597D01*
X116109931Y-90697598D01*
X116146806Y-90700500D01*
X116146814Y-90700500D01*
X117303186Y-90700500D01*
X117303194Y-90700500D01*
X117340069Y-90697598D01*
X117340071Y-90697597D01*
X117340073Y-90697597D01*
X117389179Y-90683330D01*
X117497898Y-90651744D01*
X117606396Y-90587579D01*
X117639895Y-90567768D01*
X117693700Y-90553048D01*
X117693508Y-90551097D01*
X117699570Y-90550500D01*
X117794738Y-90531569D01*
X117825243Y-90525501D01*
X117902712Y-90493411D01*
X117972180Y-90485943D01*
X118034659Y-90517218D01*
X118037845Y-90520292D01*
X118085629Y-90568076D01*
X118085633Y-90568079D01*
X118085635Y-90568081D01*
X118227102Y-90651744D01*
X118268724Y-90663836D01*
X118384926Y-90697597D01*
X118384929Y-90697597D01*
X118384931Y-90697598D01*
X118421806Y-90700500D01*
X118729192Y-90700500D01*
X118796231Y-90720185D01*
X118816873Y-90736819D01*
X119085325Y-91005272D01*
X119085332Y-91005278D01*
X119158123Y-91053915D01*
X119158124Y-91053915D01*
X119191867Y-91076461D01*
X119191875Y-91076466D01*
X119197616Y-91078844D01*
X119310256Y-91125501D01*
X119310260Y-91125501D01*
X119310261Y-91125502D01*
X119435928Y-91150500D01*
X119435931Y-91150500D01*
X119995065Y-91150500D01*
X120062104Y-91170185D01*
X120063909Y-91171366D01*
X120120821Y-91209394D01*
X120120823Y-91209395D01*
X120120827Y-91209397D01*
X120220111Y-91250521D01*
X120266503Y-91269737D01*
X120421153Y-91300499D01*
X120421156Y-91300500D01*
X120421158Y-91300500D01*
X120578844Y-91300500D01*
X120578845Y-91300499D01*
X120733497Y-91269737D01*
X120879179Y-91209394D01*
X121010289Y-91121789D01*
X121055617Y-91076461D01*
X121121788Y-91010291D01*
X121121789Y-91010289D01*
X121209394Y-90879179D01*
X121269737Y-90733497D01*
X121300500Y-90578842D01*
X121300500Y-90421158D01*
X121300500Y-90421155D01*
X121300499Y-90421153D01*
X121285699Y-90346748D01*
X121269737Y-90266503D01*
X121254847Y-90230554D01*
X121209397Y-90120827D01*
X121209390Y-90120814D01*
X121121789Y-89989711D01*
X121121786Y-89989707D01*
X121006319Y-89874240D01*
X120972834Y-89812917D01*
X120970000Y-89786559D01*
X120970000Y-88054999D01*
X120946693Y-88055000D01*
X120946674Y-88055001D01*
X120847392Y-88065144D01*
X120686518Y-88118452D01*
X120686507Y-88118457D01*
X120542271Y-88207424D01*
X120542267Y-88207427D01*
X120422426Y-88327268D01*
X120364857Y-88420601D01*
X120312908Y-88467325D01*
X120243946Y-88478546D01*
X120179864Y-88450702D01*
X120141009Y-88392633D01*
X120139716Y-88322775D01*
X120140207Y-88321031D01*
X120160098Y-88252569D01*
X120163000Y-88215694D01*
X120163000Y-87784306D01*
X120160098Y-87747431D01*
X120114244Y-87589602D01*
X120030581Y-87448135D01*
X120030579Y-87448133D01*
X120030576Y-87448129D01*
X119914370Y-87331923D01*
X119914362Y-87331917D01*
X119809352Y-87269815D01*
X119772898Y-87248256D01*
X119772897Y-87248255D01*
X119772896Y-87248255D01*
X119772893Y-87248254D01*
X119615073Y-87202402D01*
X119615067Y-87202401D01*
X119578201Y-87199500D01*
X119578194Y-87199500D01*
X118421806Y-87199500D01*
X118421798Y-87199500D01*
X118419368Y-87199596D01*
X118419321Y-87198418D01*
X118355362Y-87184894D01*
X118326475Y-87163399D01*
X117981398Y-86818322D01*
X120270001Y-86818322D01*
X120280144Y-86917607D01*
X120333452Y-87078481D01*
X120333457Y-87078492D01*
X120422424Y-87222728D01*
X120422427Y-87222732D01*
X120542267Y-87342572D01*
X120542271Y-87342575D01*
X120686507Y-87431542D01*
X120686518Y-87431547D01*
X120847393Y-87484855D01*
X120946683Y-87494999D01*
X120970000Y-87494998D01*
X120970000Y-86770000D01*
X120270001Y-86770000D01*
X120270001Y-86818322D01*
X117981398Y-86818322D01*
X117575256Y-86412180D01*
X117541771Y-86350857D01*
X117546755Y-86281165D01*
X117588627Y-86225232D01*
X117598158Y-86221677D01*
X120270000Y-86221677D01*
X120270000Y-86270000D01*
X120970000Y-86270000D01*
X120970000Y-85544999D01*
X120946693Y-85545000D01*
X120946674Y-85545001D01*
X120847392Y-85555144D01*
X120686518Y-85608452D01*
X120686507Y-85608457D01*
X120542271Y-85697424D01*
X120542267Y-85697427D01*
X120422427Y-85817267D01*
X120422424Y-85817271D01*
X120333457Y-85961507D01*
X120333452Y-85961518D01*
X120280144Y-86122393D01*
X120270000Y-86221677D01*
X117598158Y-86221677D01*
X117654091Y-86200815D01*
X117662937Y-86200499D01*
X119500002Y-86200499D01*
X119500008Y-86200499D01*
X119602797Y-86189999D01*
X119769334Y-86134814D01*
X119918656Y-86042712D01*
X120042712Y-85918656D01*
X120134814Y-85769334D01*
X120189999Y-85602797D01*
X120200500Y-85500009D01*
X120200499Y-84788804D01*
X120220183Y-84721766D01*
X120272987Y-84676011D01*
X120342146Y-84666067D01*
X120405702Y-84695092D01*
X120421769Y-84711899D01*
X120422429Y-84712734D01*
X120542267Y-84832572D01*
X120542271Y-84832575D01*
X120686507Y-84921542D01*
X120686518Y-84921547D01*
X120847393Y-84974855D01*
X120946683Y-84984999D01*
X120970000Y-84984998D01*
X120970000Y-84260000D01*
X120270001Y-84260000D01*
X120270001Y-84287599D01*
X120250316Y-84354638D01*
X120197512Y-84400393D01*
X120128354Y-84410337D01*
X120064798Y-84381312D01*
X120047903Y-84361449D01*
X120047193Y-84362011D01*
X120042711Y-84356343D01*
X119918657Y-84232289D01*
X119918656Y-84232288D01*
X119769334Y-84140186D01*
X119602797Y-84085001D01*
X119602795Y-84085000D01*
X119500016Y-84074500D01*
X119500009Y-84074500D01*
X119286229Y-84074500D01*
X119264983Y-84068261D01*
X119242895Y-84066682D01*
X119232111Y-84058609D01*
X119219190Y-84054815D01*
X119204690Y-84038081D01*
X119186962Y-84024810D01*
X119182254Y-84012189D01*
X119173435Y-84002011D01*
X119170283Y-83980093D01*
X119162545Y-83959346D01*
X119165407Y-83946185D01*
X119163491Y-83932853D01*
X119172690Y-83912709D01*
X119177397Y-83891073D01*
X119190665Y-83873347D01*
X119192516Y-83869297D01*
X119198548Y-83862819D01*
X119274548Y-83786819D01*
X119335871Y-83753334D01*
X119362229Y-83750500D01*
X120209138Y-83750500D01*
X120241491Y-83760000D01*
X121096000Y-83760000D01*
X121163039Y-83779685D01*
X121208794Y-83832489D01*
X121220000Y-83884000D01*
X121220000Y-84010000D01*
X121346000Y-84010000D01*
X121413039Y-84029685D01*
X121458794Y-84082489D01*
X121470000Y-84134000D01*
X121470000Y-84984999D01*
X121493308Y-84984999D01*
X121493322Y-84984998D01*
X121592607Y-84974855D01*
X121753481Y-84921547D01*
X121753492Y-84921542D01*
X121852286Y-84860605D01*
X121919678Y-84842164D01*
X121986342Y-84863086D01*
X122031111Y-84916728D01*
X122039000Y-84941951D01*
X122048340Y-84988907D01*
X122048343Y-84988917D01*
X122104913Y-85125490D01*
X122104914Y-85125491D01*
X122104916Y-85125495D01*
X122117544Y-85144394D01*
X122187048Y-85248416D01*
X122258775Y-85320142D01*
X122263062Y-85325499D01*
X122266745Y-85334477D01*
X122280808Y-85355524D01*
X122290607Y-85379181D01*
X122315479Y-85416405D01*
X122336356Y-85483082D01*
X122317871Y-85550462D01*
X122265892Y-85597152D01*
X122251382Y-85603000D01*
X122236309Y-85607994D01*
X122236294Y-85608001D01*
X122091959Y-85697029D01*
X122091953Y-85697033D01*
X122082324Y-85706663D01*
X122021000Y-85740146D01*
X121951308Y-85735159D01*
X121906965Y-85706660D01*
X121897732Y-85697427D01*
X121897728Y-85697424D01*
X121753492Y-85608457D01*
X121753481Y-85608452D01*
X121592606Y-85555144D01*
X121493322Y-85545000D01*
X121470000Y-85545000D01*
X121470000Y-87494999D01*
X121493308Y-87494999D01*
X121493322Y-87494998D01*
X121592607Y-87484855D01*
X121753481Y-87431547D01*
X121753492Y-87431542D01*
X121897731Y-87342573D01*
X121906959Y-87333345D01*
X121914907Y-87329003D01*
X121920336Y-87321753D01*
X121945090Y-87312519D01*
X121968279Y-87299856D01*
X121977313Y-87300501D01*
X121985800Y-87297336D01*
X122011617Y-87302952D01*
X122037971Y-87304835D01*
X122047028Y-87310655D01*
X122054073Y-87312188D01*
X122082327Y-87333339D01*
X122083181Y-87334193D01*
X122116666Y-87395516D01*
X122119500Y-87421874D01*
X122119500Y-88128125D01*
X122099815Y-88195164D01*
X122083181Y-88215806D01*
X122082327Y-88216660D01*
X122021004Y-88250145D01*
X121951312Y-88245161D01*
X121906965Y-88216660D01*
X121897732Y-88207427D01*
X121897728Y-88207424D01*
X121753492Y-88118457D01*
X121753481Y-88118452D01*
X121592606Y-88065144D01*
X121493322Y-88055000D01*
X121470000Y-88055000D01*
X121470000Y-90004999D01*
X121493308Y-90004999D01*
X121493322Y-90004998D01*
X121592607Y-89994855D01*
X121753481Y-89941547D01*
X121753492Y-89941542D01*
X121897731Y-89852573D01*
X121906959Y-89843345D01*
X121907609Y-89842989D01*
X121907973Y-89842342D01*
X121938244Y-89826258D01*
X121968279Y-89809856D01*
X121969018Y-89809908D01*
X121969675Y-89809560D01*
X122003844Y-89812396D01*
X122037971Y-89814835D01*
X122038811Y-89815300D01*
X122039305Y-89815341D01*
X122041690Y-89816893D01*
X122070087Y-89832609D01*
X122076556Y-89837568D01*
X122091956Y-89852968D01*
X122115955Y-89867771D01*
X122120941Y-89871593D01*
X122137995Y-89894926D01*
X122157321Y-89916412D01*
X122158955Y-89923603D01*
X122162170Y-89928002D01*
X122162965Y-89941248D01*
X122169500Y-89970004D01*
X122169500Y-90683330D01*
X122169499Y-90683348D01*
X122169499Y-90849054D01*
X122169498Y-90849054D01*
X122177568Y-90879172D01*
X122210423Y-91001785D01*
X122210424Y-91001787D01*
X122210423Y-91001787D01*
X122215333Y-91010290D01*
X122215334Y-91010291D01*
X122289477Y-91138712D01*
X122289481Y-91138717D01*
X122408349Y-91257585D01*
X122408355Y-91257590D01*
X122938584Y-91787819D01*
X122972069Y-91849142D01*
X122967085Y-91918834D01*
X122925213Y-91974767D01*
X122859749Y-91999184D01*
X122850903Y-91999500D01*
X108624500Y-91999500D01*
X108557461Y-91979815D01*
X108511706Y-91927011D01*
X108500500Y-91875500D01*
X108500500Y-90587579D01*
X108520185Y-90520540D01*
X108572989Y-90474785D01*
X108642147Y-90464841D01*
X108671953Y-90473018D01*
X108813310Y-90531570D01*
X108813318Y-90531572D01*
X109006504Y-90569999D01*
X109006508Y-90570000D01*
X109155000Y-90570000D01*
X109155000Y-89870000D01*
X109655000Y-89870000D01*
X109655000Y-90570000D01*
X109803492Y-90570000D01*
X109803495Y-90569999D01*
X109996681Y-90531572D01*
X109996693Y-90531569D01*
X110178671Y-90456192D01*
X110178684Y-90456185D01*
X110342462Y-90346751D01*
X110342466Y-90346748D01*
X110481748Y-90207466D01*
X110481751Y-90207462D01*
X110591185Y-90043684D01*
X110591192Y-90043671D01*
X110666569Y-89861692D01*
X110666569Y-89861690D01*
X110674862Y-89820000D01*
X109871988Y-89820000D01*
X109889205Y-89810060D01*
X109945060Y-89754205D01*
X109984556Y-89685796D01*
X110005000Y-89609496D01*
X110005000Y-89530504D01*
X109984556Y-89454204D01*
X109945060Y-89385795D01*
X109889205Y-89329940D01*
X109871988Y-89320000D01*
X110674862Y-89320000D01*
X110666569Y-89278309D01*
X110666569Y-89278307D01*
X110591192Y-89096328D01*
X110591185Y-89096315D01*
X110481751Y-88932537D01*
X110481748Y-88932533D01*
X110342466Y-88793251D01*
X110342462Y-88793248D01*
X110178684Y-88683814D01*
X110178671Y-88683807D01*
X109996693Y-88608430D01*
X109996681Y-88608427D01*
X109803495Y-88570000D01*
X109655000Y-88570000D01*
X109655000Y-89270000D01*
X109155000Y-89270000D01*
X109155000Y-88570000D01*
X109006504Y-88570000D01*
X108813318Y-88608427D01*
X108813306Y-88608430D01*
X108671952Y-88666981D01*
X108602483Y-88674450D01*
X108540004Y-88643175D01*
X108504352Y-88583086D01*
X108500500Y-88552420D01*
X108500500Y-81947579D01*
X108520185Y-81880540D01*
X108572989Y-81834785D01*
X108642147Y-81824841D01*
X108671953Y-81833018D01*
X108813310Y-81891570D01*
X108813318Y-81891572D01*
X109006504Y-81929999D01*
X109006508Y-81930000D01*
X109155000Y-81930000D01*
X109155000Y-81230000D01*
X109655000Y-81230000D01*
X109655000Y-81930000D01*
X109803492Y-81930000D01*
X109803495Y-81929999D01*
X109996681Y-81891572D01*
X109996693Y-81891569D01*
X110178671Y-81816192D01*
X110178684Y-81816185D01*
X110342462Y-81706751D01*
X110342466Y-81706748D01*
X110481748Y-81567466D01*
X110481751Y-81567462D01*
X110591185Y-81403684D01*
X110591192Y-81403671D01*
X110666569Y-81221692D01*
X110666569Y-81221690D01*
X110674862Y-81180000D01*
X109871988Y-81180000D01*
X109889205Y-81170060D01*
X109945060Y-81114205D01*
X109984556Y-81045796D01*
X110005000Y-80969496D01*
X110005000Y-80890504D01*
X109984556Y-80814204D01*
X109945060Y-80745795D01*
X109889205Y-80689940D01*
X109871988Y-80680000D01*
X110674862Y-80680000D01*
X110666569Y-80638309D01*
X110666569Y-80638307D01*
X110591192Y-80456328D01*
X110591185Y-80456315D01*
X110481751Y-80292537D01*
X110481748Y-80292533D01*
X110342466Y-80153251D01*
X110342462Y-80153248D01*
X110178684Y-80043814D01*
X110178671Y-80043807D01*
X109996693Y-79968430D01*
X109996681Y-79968427D01*
X109803495Y-79930000D01*
X109655000Y-79930000D01*
X109655000Y-80630000D01*
X109155000Y-80630000D01*
X109155000Y-79930000D01*
X109006504Y-79930000D01*
X108813318Y-79968427D01*
X108813306Y-79968430D01*
X108671952Y-80026981D01*
X108602483Y-80034450D01*
X108540004Y-80003175D01*
X108504352Y-79943086D01*
X108500500Y-79912420D01*
X108500500Y-78624500D01*
X108520185Y-78557461D01*
X108572989Y-78511706D01*
X108624500Y-78500500D01*
X137697810Y-78500500D01*
X137704469Y-78502455D01*
G37*
%TD.AperFunction*%
%TA.AperFunction,Conductor*%
G36*
X144994818Y-88810185D02*
G01*
X145028097Y-88841615D01*
X145084892Y-88919788D01*
X145235213Y-89070109D01*
X145407182Y-89195050D01*
X145415946Y-89199516D01*
X145466742Y-89247491D01*
X145483536Y-89315312D01*
X145460998Y-89381447D01*
X145415946Y-89420484D01*
X145407182Y-89424949D01*
X145235213Y-89549890D01*
X145084890Y-89700213D01*
X144959951Y-89872179D01*
X144863444Y-90061585D01*
X144797753Y-90263760D01*
X144778846Y-90383136D01*
X144764500Y-90473713D01*
X144764500Y-90686287D01*
X144768074Y-90708853D01*
X144786591Y-90825767D01*
X144797754Y-90896243D01*
X144857084Y-91078842D01*
X144863444Y-91098414D01*
X144959951Y-91287820D01*
X145084890Y-91459786D01*
X145235213Y-91610109D01*
X145407179Y-91735048D01*
X145407181Y-91735049D01*
X145407184Y-91735051D01*
X145457992Y-91760939D01*
X145465992Y-91765015D01*
X145516788Y-91812990D01*
X145533583Y-91880810D01*
X145511046Y-91946945D01*
X145456331Y-91990397D01*
X145409697Y-91999500D01*
X133302190Y-91999500D01*
X133235151Y-91979815D01*
X133189396Y-91927011D01*
X133179452Y-91857853D01*
X133208477Y-91794297D01*
X133254738Y-91760939D01*
X133379172Y-91709397D01*
X133379172Y-91709396D01*
X133379179Y-91709394D01*
X133510289Y-91621789D01*
X133621789Y-91510289D01*
X133709394Y-91379179D01*
X133769737Y-91233497D01*
X133800500Y-91078842D01*
X133800500Y-91019809D01*
X133820185Y-90952770D01*
X133872989Y-90907015D01*
X133942147Y-90897071D01*
X134005703Y-90926096D01*
X134012181Y-90932128D01*
X134585328Y-91505275D01*
X134666599Y-91559578D01*
X134666598Y-91559578D01*
X134685574Y-91572256D01*
X134691873Y-91576465D01*
X134810256Y-91625501D01*
X134810260Y-91625501D01*
X134810261Y-91625502D01*
X134935928Y-91650500D01*
X134935931Y-91650500D01*
X140064071Y-91650500D01*
X140148615Y-91633682D01*
X140189744Y-91625501D01*
X140308127Y-91576465D01*
X140333402Y-91559577D01*
X140414669Y-91505277D01*
X141430277Y-90489669D01*
X141501466Y-90383126D01*
X141530438Y-90313181D01*
X141532531Y-90308128D01*
X141532531Y-90308127D01*
X141535951Y-90299871D01*
X141550501Y-90264744D01*
X141575500Y-90139069D01*
X141575500Y-89893035D01*
X141584144Y-89863596D01*
X141590666Y-89833612D01*
X141594422Y-89828593D01*
X141595185Y-89825996D01*
X141611815Y-89805357D01*
X141617692Y-89799480D01*
X141625170Y-89792001D01*
X141686490Y-89758516D01*
X141756182Y-89763498D01*
X141800534Y-89792000D01*
X141832419Y-89823885D01*
X141975422Y-89912091D01*
X141975427Y-89912093D01*
X142134916Y-89964942D01*
X142233356Y-89974999D01*
X142750000Y-89974999D01*
X142766636Y-89974999D01*
X142766652Y-89974998D01*
X142865083Y-89964943D01*
X143024572Y-89912093D01*
X143024577Y-89912091D01*
X143167580Y-89823885D01*
X143286385Y-89705080D01*
X143374591Y-89562077D01*
X143374593Y-89562072D01*
X143427442Y-89402583D01*
X143437499Y-89304150D01*
X143437500Y-89304137D01*
X143437500Y-89250000D01*
X142750000Y-89250000D01*
X142750000Y-89974999D01*
X142233356Y-89974999D01*
X142250000Y-89974998D01*
X142250000Y-89124000D01*
X142269685Y-89056961D01*
X142322489Y-89011206D01*
X142374000Y-89000000D01*
X142500000Y-89000000D01*
X142500000Y-88914500D01*
X142519685Y-88847461D01*
X142572489Y-88801706D01*
X142624000Y-88790500D01*
X144927779Y-88790500D01*
X144994818Y-88810185D01*
G37*
%TD.AperFunction*%
%TA.AperFunction,Conductor*%
G36*
X123900147Y-84545121D02*
G01*
X123948669Y-84575095D01*
X124068846Y-84695272D01*
X124068853Y-84695278D01*
X124175384Y-84766459D01*
X124175388Y-84766461D01*
X124175395Y-84766466D01*
X124219967Y-84784928D01*
X124219968Y-84784928D01*
X124219969Y-84784929D01*
X124280187Y-84809872D01*
X124293777Y-84815501D01*
X124293781Y-84815501D01*
X124293782Y-84815502D01*
X124419449Y-84840500D01*
X124419452Y-84840500D01*
X124510293Y-84840500D01*
X124574443Y-84858383D01*
X124690394Y-84928478D01*
X124852804Y-84979086D01*
X124923384Y-84985500D01*
X124923387Y-84985500D01*
X125436613Y-84985500D01*
X125436616Y-84985500D01*
X125507196Y-84979086D01*
X125669606Y-84928478D01*
X125815185Y-84840472D01*
X125917673Y-84737983D01*
X125978994Y-84704499D01*
X126048685Y-84709483D01*
X126093034Y-84737984D01*
X126195122Y-84840072D01*
X126340604Y-84928019D01*
X126340603Y-84928019D01*
X126502894Y-84978590D01*
X126502893Y-84978590D01*
X126573427Y-84984999D01*
X126661284Y-84984999D01*
X126728323Y-85004683D01*
X126774079Y-85057486D01*
X126784023Y-85126645D01*
X126775847Y-85156450D01*
X126730263Y-85266503D01*
X126730261Y-85266510D01*
X126699500Y-85421153D01*
X126698903Y-85427218D01*
X126697566Y-85427086D01*
X126679815Y-85487539D01*
X126627011Y-85533294D01*
X126576199Y-85544347D01*
X126576201Y-85544372D01*
X126576058Y-85544378D01*
X126575500Y-85544500D01*
X126573384Y-85544500D01*
X126554145Y-85546248D01*
X126502807Y-85550913D01*
X126340393Y-85601522D01*
X126194811Y-85689530D01*
X126194810Y-85689531D01*
X126092327Y-85792015D01*
X126031004Y-85825500D01*
X125961312Y-85820516D01*
X125916965Y-85792015D01*
X125814877Y-85689927D01*
X125669395Y-85601980D01*
X125669396Y-85601980D01*
X125507105Y-85551409D01*
X125507106Y-85551409D01*
X125436572Y-85545000D01*
X125430000Y-85545000D01*
X125430000Y-87494999D01*
X125436581Y-87494999D01*
X125507102Y-87488591D01*
X125507107Y-87488590D01*
X125669396Y-87438018D01*
X125814877Y-87350072D01*
X125814878Y-87350071D01*
X125916963Y-87247985D01*
X125978286Y-87214499D01*
X126047977Y-87219483D01*
X126092326Y-87247984D01*
X126194811Y-87350469D01*
X126194813Y-87350470D01*
X126194815Y-87350472D01*
X126340394Y-87438478D01*
X126502804Y-87489086D01*
X126573384Y-87495500D01*
X126573387Y-87495500D01*
X127086613Y-87495500D01*
X127086616Y-87495500D01*
X127157196Y-87489086D01*
X127319606Y-87438478D01*
X127465185Y-87350472D01*
X127585472Y-87230185D01*
X127590046Y-87222617D01*
X127610307Y-87204061D01*
X127628097Y-87183117D01*
X127637285Y-87179353D01*
X127641571Y-87175429D01*
X127660056Y-87168139D01*
X127665936Y-87166349D01*
X127770744Y-87145501D01*
X127871395Y-87103809D01*
X127877164Y-87102054D01*
X127879289Y-87102033D01*
X127889081Y-87099063D01*
X127928457Y-87091230D01*
X128033997Y-87070237D01*
X128048048Y-87064416D01*
X128117516Y-87056948D01*
X128179995Y-87088223D01*
X128215648Y-87148311D01*
X128219500Y-87178978D01*
X128219500Y-88098125D01*
X128199815Y-88165164D01*
X128183182Y-88185806D01*
X128072029Y-88296959D01*
X127983001Y-88441294D01*
X127982997Y-88441303D01*
X127940946Y-88568204D01*
X127901173Y-88625648D01*
X127836657Y-88652471D01*
X127767881Y-88640156D01*
X127716681Y-88592612D01*
X127704856Y-88566094D01*
X127673478Y-88465394D01*
X127585472Y-88319815D01*
X127585470Y-88319813D01*
X127585469Y-88319811D01*
X127465188Y-88199530D01*
X127463062Y-88198245D01*
X127319606Y-88111522D01*
X127157196Y-88060914D01*
X127157194Y-88060913D01*
X127157192Y-88060913D01*
X127107778Y-88056423D01*
X127086616Y-88054500D01*
X126573384Y-88054500D01*
X126554145Y-88056248D01*
X126502807Y-88060913D01*
X126340393Y-88111522D01*
X126194811Y-88199530D01*
X126194810Y-88199531D01*
X126092681Y-88301661D01*
X126031358Y-88335146D01*
X125961666Y-88330162D01*
X125917319Y-88301661D01*
X125815188Y-88199530D01*
X125813062Y-88198245D01*
X125669606Y-88111522D01*
X125507196Y-88060914D01*
X125507194Y-88060913D01*
X125507192Y-88060913D01*
X125457778Y-88056423D01*
X125436616Y-88054500D01*
X124923384Y-88054500D01*
X124904145Y-88056248D01*
X124852807Y-88060913D01*
X124690393Y-88111522D01*
X124544811Y-88199530D01*
X124424530Y-88319811D01*
X124336522Y-88465393D01*
X124285913Y-88627807D01*
X124279500Y-88698386D01*
X124279500Y-89361613D01*
X124285913Y-89432192D01*
X124285913Y-89432194D01*
X124285914Y-89432196D01*
X124303800Y-89489594D01*
X124336523Y-89594610D01*
X124338574Y-89599165D01*
X124349500Y-89650059D01*
X124349500Y-89995064D01*
X124329815Y-90062103D01*
X124328603Y-90063954D01*
X124290608Y-90120817D01*
X124290602Y-90120828D01*
X124230264Y-90266498D01*
X124230261Y-90266510D01*
X124199500Y-90421153D01*
X124199500Y-90421158D01*
X124199500Y-90578842D01*
X124199500Y-90578844D01*
X124199499Y-90578844D01*
X124224059Y-90702308D01*
X124217832Y-90771900D01*
X124174969Y-90827077D01*
X124109080Y-90850322D01*
X124102442Y-90850500D01*
X123751097Y-90850500D01*
X123684058Y-90830815D01*
X123663416Y-90814181D01*
X123406819Y-90557584D01*
X123373334Y-90496261D01*
X123370500Y-90469903D01*
X123370500Y-89970004D01*
X123390185Y-89902965D01*
X123429403Y-89864465D01*
X123448044Y-89852968D01*
X123567968Y-89733044D01*
X123657003Y-89588697D01*
X123710349Y-89427708D01*
X123720500Y-89328345D01*
X123720499Y-88731656D01*
X123717434Y-88701655D01*
X123710349Y-88632292D01*
X123710348Y-88632289D01*
X123690697Y-88572987D01*
X123657003Y-88471303D01*
X123656999Y-88471297D01*
X123656998Y-88471294D01*
X123567970Y-88326959D01*
X123567969Y-88326958D01*
X123567968Y-88326956D01*
X123456818Y-88215806D01*
X123423334Y-88154483D01*
X123420500Y-88128125D01*
X123420500Y-87421874D01*
X123440185Y-87354835D01*
X123456819Y-87334193D01*
X123510952Y-87280060D01*
X123567968Y-87223044D01*
X123657003Y-87078697D01*
X123710349Y-86917708D01*
X123717104Y-86851582D01*
X124280001Y-86851582D01*
X124286408Y-86922102D01*
X124286409Y-86922107D01*
X124336981Y-87084396D01*
X124424927Y-87229877D01*
X124545122Y-87350072D01*
X124690604Y-87438019D01*
X124690603Y-87438019D01*
X124852894Y-87488590D01*
X124852893Y-87488590D01*
X124923408Y-87494998D01*
X124923426Y-87494999D01*
X124929999Y-87494998D01*
X124930000Y-87494998D01*
X124930000Y-86770000D01*
X124280001Y-86770000D01*
X124280001Y-86851582D01*
X123717104Y-86851582D01*
X123720500Y-86818345D01*
X123720499Y-86507067D01*
X123720499Y-86221662D01*
X123720499Y-86221656D01*
X123718338Y-86200498D01*
X123718105Y-86198215D01*
X123717105Y-86188427D01*
X124280000Y-86188427D01*
X124280000Y-86270000D01*
X124930000Y-86270000D01*
X124930000Y-85545000D01*
X124929999Y-85544999D01*
X124923436Y-85545000D01*
X124923417Y-85545001D01*
X124852897Y-85551408D01*
X124852892Y-85551409D01*
X124690603Y-85601981D01*
X124545122Y-85689927D01*
X124424927Y-85810122D01*
X124336980Y-85955604D01*
X124286409Y-86117893D01*
X124280000Y-86188427D01*
X123717105Y-86188427D01*
X123715241Y-86170185D01*
X123710349Y-86122292D01*
X123657003Y-85961303D01*
X123656999Y-85961297D01*
X123656998Y-85961294D01*
X123567970Y-85816959D01*
X123567967Y-85816955D01*
X123529226Y-85778214D01*
X123495741Y-85716891D01*
X123500725Y-85647199D01*
X123529224Y-85602853D01*
X123621789Y-85510289D01*
X123709394Y-85379179D01*
X123769737Y-85233497D01*
X123800500Y-85078842D01*
X123800500Y-84921158D01*
X123800500Y-84921155D01*
X123800499Y-84921153D01*
X123796411Y-84900600D01*
X123769737Y-84766503D01*
X123746426Y-84710226D01*
X123738958Y-84640760D01*
X123770233Y-84578281D01*
X123830321Y-84542628D01*
X123900147Y-84545121D01*
G37*
%TD.AperFunction*%
%TA.AperFunction,Conductor*%
G36*
X130058334Y-87219838D02*
G01*
X130102681Y-87248339D01*
X130204811Y-87350469D01*
X130204813Y-87350470D01*
X130204815Y-87350472D01*
X130350394Y-87438478D01*
X130512804Y-87489086D01*
X130583384Y-87495500D01*
X130583387Y-87495500D01*
X131094902Y-87495500D01*
X131161941Y-87515185D01*
X131182583Y-87531819D01*
X131967031Y-88316267D01*
X131965949Y-88317348D01*
X132001758Y-88366382D01*
X132005918Y-88436127D01*
X132003458Y-88445226D01*
X131955914Y-88597804D01*
X131949628Y-88666981D01*
X131949500Y-88668386D01*
X131949500Y-89331614D01*
X131952468Y-89364279D01*
X131938931Y-89432825D01*
X131890484Y-89483170D01*
X131828977Y-89499500D01*
X131721155Y-89499500D01*
X131566510Y-89530261D01*
X131566503Y-89530263D01*
X131526443Y-89546856D01*
X131456974Y-89554323D01*
X131394495Y-89523048D01*
X131358843Y-89462958D01*
X131360890Y-89404751D01*
X131358439Y-89404227D01*
X131359855Y-89397608D01*
X131369999Y-89298322D01*
X131370000Y-89298309D01*
X131370000Y-89250000D01*
X130670000Y-89250000D01*
X130670000Y-89974999D01*
X130693308Y-89974999D01*
X130693322Y-89974998D01*
X130792607Y-89964855D01*
X130866506Y-89940368D01*
X130870915Y-89940216D01*
X130874707Y-89937961D01*
X130905516Y-89939026D01*
X130936334Y-89937966D01*
X130940125Y-89940222D01*
X130944535Y-89940375D01*
X130969882Y-89957931D01*
X130996376Y-89973698D01*
X130998345Y-89977645D01*
X131001973Y-89980158D01*
X131013802Y-90008625D01*
X131027569Y-90036218D01*
X131027568Y-90041753D01*
X131028784Y-90044679D01*
X131027565Y-90072313D01*
X131027565Y-90079952D01*
X131027357Y-90081111D01*
X130999500Y-90221158D01*
X130999500Y-90236526D01*
X130997555Y-90247378D01*
X130986676Y-90269172D01*
X130979815Y-90292539D01*
X130971352Y-90299871D01*
X130966351Y-90309892D01*
X130945416Y-90322345D01*
X130927011Y-90338294D01*
X130913760Y-90341176D01*
X130906303Y-90345613D01*
X130895141Y-90345227D01*
X130875500Y-90349500D01*
X129809120Y-90349500D01*
X129742081Y-90329815D01*
X129696326Y-90277011D01*
X129685120Y-90225500D01*
X129685120Y-90086535D01*
X129672805Y-90024625D01*
X129679032Y-89955033D01*
X129721895Y-89899856D01*
X129787785Y-89876611D01*
X129855782Y-89892679D01*
X129859520Y-89894895D01*
X129886511Y-89911544D01*
X129886518Y-89911547D01*
X130047393Y-89964855D01*
X130146683Y-89974999D01*
X130170000Y-89974998D01*
X130170000Y-88750000D01*
X130670000Y-88750000D01*
X131369999Y-88750000D01*
X131369999Y-88701692D01*
X131369998Y-88701677D01*
X131359855Y-88602392D01*
X131306547Y-88441518D01*
X131306542Y-88441507D01*
X131217575Y-88297271D01*
X131217572Y-88297267D01*
X131097732Y-88177427D01*
X131097728Y-88177424D01*
X130953492Y-88088457D01*
X130953481Y-88088452D01*
X130792606Y-88035144D01*
X130693322Y-88025000D01*
X130670000Y-88025000D01*
X130670000Y-88750000D01*
X130170000Y-88750000D01*
X130170000Y-88024999D01*
X130146693Y-88025000D01*
X130146674Y-88025001D01*
X130047392Y-88035144D01*
X129886518Y-88088452D01*
X129886507Y-88088457D01*
X129742271Y-88177424D01*
X129742264Y-88177430D01*
X129733028Y-88186665D01*
X129725085Y-88191001D01*
X129719663Y-88198245D01*
X129694900Y-88207480D01*
X129671703Y-88220146D01*
X129662676Y-88219499D01*
X129654199Y-88222662D01*
X129628375Y-88217044D01*
X129602011Y-88215157D01*
X129592961Y-88209340D01*
X129585926Y-88207810D01*
X129557672Y-88186659D01*
X129556819Y-88185806D01*
X129523334Y-88124483D01*
X129520500Y-88098125D01*
X129520500Y-87579297D01*
X129540185Y-87512258D01*
X129592989Y-87466503D01*
X129607598Y-87460915D01*
X129679606Y-87438478D01*
X129825185Y-87350472D01*
X129875801Y-87299856D01*
X129927319Y-87248339D01*
X129988642Y-87214854D01*
X130058334Y-87219838D01*
G37*
%TD.AperFunction*%
%TA.AperFunction,Conductor*%
G36*
X136424044Y-88770185D02*
G01*
X136429223Y-88775000D01*
X137992270Y-88775000D01*
X138059309Y-88794685D01*
X138079951Y-88811319D01*
X138145615Y-88876983D01*
X138441589Y-89172956D01*
X138441591Y-89172959D01*
X138532018Y-89263386D01*
X138563412Y-89316471D01*
X138575443Y-89357882D01*
X138575444Y-89357885D01*
X138654282Y-89491194D01*
X138654289Y-89491203D01*
X138763796Y-89600710D01*
X138763800Y-89600713D01*
X138763802Y-89600715D01*
X138897113Y-89679555D01*
X139045844Y-89722765D01*
X139080595Y-89725500D01*
X139118188Y-89725499D01*
X139142381Y-89727882D01*
X139256079Y-89750499D01*
X139256082Y-89750499D01*
X139403918Y-89750499D01*
X139403918Y-89750498D01*
X139517621Y-89727881D01*
X139541812Y-89725499D01*
X139579394Y-89725499D01*
X139579404Y-89725499D01*
X139614156Y-89722765D01*
X139762887Y-89679555D01*
X139896198Y-89600715D01*
X139896202Y-89600710D01*
X139902364Y-89595932D01*
X139903417Y-89597290D01*
X139911230Y-89593023D01*
X139924390Y-89580120D01*
X139941255Y-89576624D01*
X139956373Y-89568367D01*
X139974758Y-89569679D01*
X139992805Y-89565939D01*
X140008883Y-89572116D01*
X140026065Y-89573343D01*
X140040821Y-89584387D01*
X140058026Y-89590997D01*
X140075595Y-89610411D01*
X140082004Y-89615208D01*
X140082737Y-89616198D01*
X140085674Y-89620202D01*
X140138219Y-89705391D01*
X140175465Y-89742637D01*
X140181071Y-89750281D01*
X140189862Y-89774578D01*
X140202245Y-89797255D01*
X140201555Y-89806894D01*
X140204844Y-89815982D01*
X140199104Y-89841173D01*
X140197261Y-89866947D01*
X140191018Y-89876660D01*
X140189322Y-89884106D01*
X140180970Y-89892295D01*
X140168760Y-89911294D01*
X139766873Y-90313181D01*
X139705550Y-90346666D01*
X139679192Y-90349500D01*
X135320808Y-90349500D01*
X135253769Y-90329815D01*
X135233127Y-90313181D01*
X135186819Y-90266873D01*
X135153334Y-90205550D01*
X135150500Y-90179192D01*
X135150500Y-89866519D01*
X135170185Y-89799480D01*
X135186814Y-89778842D01*
X135255472Y-89710185D01*
X135343478Y-89564606D01*
X135394086Y-89402196D01*
X135400500Y-89331616D01*
X135400500Y-89225001D01*
X136437358Y-89225001D01*
X136475906Y-89357681D01*
X136475907Y-89357684D01*
X136554682Y-89490885D01*
X136554688Y-89490894D01*
X136664105Y-89600311D01*
X136664114Y-89600317D01*
X136797315Y-89679092D01*
X136797318Y-89679093D01*
X136945915Y-89722265D01*
X136945927Y-89722267D01*
X136980646Y-89724999D01*
X137455000Y-89724999D01*
X137479342Y-89724999D01*
X137479363Y-89724998D01*
X137514078Y-89722266D01*
X137662681Y-89679093D01*
X137662684Y-89679092D01*
X137795885Y-89600317D01*
X137795894Y-89600311D01*
X137905311Y-89490894D01*
X137905317Y-89490885D01*
X137984092Y-89357684D01*
X137984093Y-89357681D01*
X138022641Y-89225001D01*
X138022640Y-89225000D01*
X137455000Y-89225000D01*
X137455000Y-89724999D01*
X136980646Y-89724999D01*
X137005000Y-89724998D01*
X137005000Y-89225000D01*
X136437360Y-89225000D01*
X136437358Y-89225001D01*
X135400500Y-89225001D01*
X135400500Y-88874500D01*
X135420185Y-88807461D01*
X135472989Y-88761706D01*
X135524500Y-88750500D01*
X136357005Y-88750500D01*
X136424044Y-88770185D01*
G37*
%TD.AperFunction*%
%TA.AperFunction,Conductor*%
G36*
X116918039Y-88019685D02*
G01*
X116963794Y-88072489D01*
X116975000Y-88124000D01*
X116975000Y-88826000D01*
X116955315Y-88893039D01*
X116902511Y-88938794D01*
X116851000Y-88950000D01*
X116599000Y-88950000D01*
X116531961Y-88930315D01*
X116486206Y-88877511D01*
X116475000Y-88826000D01*
X116475000Y-88124000D01*
X116494685Y-88056961D01*
X116547489Y-88011206D01*
X116599000Y-88000000D01*
X116851000Y-88000000D01*
X116918039Y-88019685D01*
G37*
%TD.AperFunction*%
%TA.AperFunction,Conductor*%
G36*
X146942539Y-78520185D02*
G01*
X146988294Y-78572989D01*
X146999500Y-78624500D01*
X146999500Y-78946000D01*
X146979815Y-79013039D01*
X146927011Y-79058794D01*
X146875500Y-79070000D01*
X146365000Y-79070000D01*
X146365000Y-79986988D01*
X146307993Y-79954075D01*
X146180826Y-79920000D01*
X146049174Y-79920000D01*
X145922007Y-79954075D01*
X145865000Y-79986988D01*
X145865000Y-79070000D01*
X145217155Y-79070000D01*
X145157627Y-79076401D01*
X145157620Y-79076403D01*
X145022913Y-79126645D01*
X145022906Y-79126649D01*
X144907812Y-79212809D01*
X144907809Y-79212812D01*
X144821649Y-79327906D01*
X144821645Y-79327913D01*
X144771403Y-79462620D01*
X144771401Y-79462627D01*
X144765000Y-79522155D01*
X144765000Y-80170000D01*
X145681988Y-80170000D01*
X145649075Y-80227007D01*
X145615000Y-80354174D01*
X145615000Y-80485826D01*
X145649075Y-80612993D01*
X145681988Y-80670000D01*
X144764999Y-80670000D01*
X144750059Y-80684940D01*
X144688736Y-80718424D01*
X144619044Y-80713439D01*
X144563111Y-80671567D01*
X144559276Y-80666148D01*
X144549562Y-80651610D01*
X144505277Y-80585331D01*
X144505275Y-80585329D01*
X144505273Y-80585326D01*
X144505272Y-80585325D01*
X144317014Y-80397068D01*
X144283529Y-80335745D01*
X144283105Y-80333714D01*
X144269737Y-80266503D01*
X144245599Y-80208230D01*
X144209397Y-80120827D01*
X144209390Y-80120814D01*
X144121789Y-79989711D01*
X144121786Y-79989707D01*
X144010292Y-79878213D01*
X144010288Y-79878210D01*
X143879185Y-79790609D01*
X143879172Y-79790602D01*
X143733501Y-79730264D01*
X143733489Y-79730261D01*
X143578845Y-79699500D01*
X143578842Y-79699500D01*
X143421158Y-79699500D01*
X143421155Y-79699500D01*
X143266510Y-79730261D01*
X143266498Y-79730264D01*
X143120827Y-79790602D01*
X143120814Y-79790609D01*
X142989711Y-79878210D01*
X142989707Y-79878213D01*
X142878213Y-79989707D01*
X142878210Y-79989711D01*
X142790609Y-80120814D01*
X142790602Y-80120827D01*
X142730264Y-80266498D01*
X142730261Y-80266510D01*
X142699500Y-80421153D01*
X142699500Y-80578846D01*
X142730261Y-80733489D01*
X142730264Y-80733501D01*
X142790602Y-80879172D01*
X142790609Y-80879185D01*
X142878210Y-81010288D01*
X142878213Y-81010292D01*
X142989707Y-81121786D01*
X142989711Y-81121789D01*
X143120814Y-81209390D01*
X143120827Y-81209397D01*
X143218853Y-81250000D01*
X143258695Y-81266503D01*
X143272131Y-81272068D01*
X143271114Y-81274522D01*
X143319930Y-81306510D01*
X143348390Y-81370321D01*
X143349500Y-81386878D01*
X143349500Y-83066148D01*
X143329815Y-83133187D01*
X143277011Y-83178942D01*
X143207853Y-83188886D01*
X143160403Y-83171687D01*
X143024577Y-83087908D01*
X143024572Y-83087906D01*
X142865083Y-83035057D01*
X142766650Y-83025000D01*
X142750000Y-83025000D01*
X142750000Y-84974999D01*
X142766636Y-84974999D01*
X142766652Y-84974998D01*
X142865083Y-84964943D01*
X143024572Y-84912093D01*
X143024583Y-84912088D01*
X143160403Y-84828313D01*
X143163078Y-84827581D01*
X143165020Y-84825601D01*
X143196573Y-84818415D01*
X143227795Y-84809872D01*
X143230441Y-84810702D01*
X143233145Y-84810087D01*
X143263575Y-84821101D01*
X143294459Y-84830794D01*
X143296235Y-84832922D01*
X143298844Y-84833867D01*
X143318495Y-84859594D01*
X143339228Y-84884436D01*
X143340085Y-84887860D01*
X143341256Y-84889392D01*
X143343494Y-84901465D01*
X143349092Y-84923805D01*
X143349500Y-84928824D01*
X143349500Y-85064069D01*
X143366693Y-85150500D01*
X143374499Y-85189744D01*
X143421047Y-85302122D01*
X143423535Y-85308127D01*
X143471005Y-85379172D01*
X143494726Y-85414673D01*
X144085328Y-86005275D01*
X144085331Y-86005277D01*
X144145391Y-86045407D01*
X144191873Y-86076465D01*
X144310256Y-86125501D01*
X144310260Y-86125501D01*
X144310261Y-86125502D01*
X144435928Y-86150500D01*
X144435931Y-86150500D01*
X144855382Y-86150500D01*
X144922421Y-86170185D01*
X144956099Y-86204591D01*
X144957085Y-86203875D01*
X145084890Y-86379786D01*
X145235213Y-86530109D01*
X145407182Y-86655050D01*
X145415946Y-86659516D01*
X145466742Y-86707491D01*
X145483536Y-86775312D01*
X145460998Y-86841447D01*
X145415946Y-86880484D01*
X145407182Y-86884949D01*
X145235213Y-87009890D01*
X145084892Y-87160211D01*
X145028097Y-87238385D01*
X144972767Y-87281051D01*
X144927779Y-87289500D01*
X143456490Y-87289500D01*
X143389451Y-87269815D01*
X143343696Y-87217011D01*
X143333752Y-87147853D01*
X143350952Y-87100402D01*
X143374590Y-87062079D01*
X143374593Y-87062072D01*
X143427442Y-86902583D01*
X143437499Y-86804150D01*
X143437500Y-86804137D01*
X143437500Y-86750000D01*
X142624000Y-86750000D01*
X142556961Y-86730315D01*
X142511206Y-86677511D01*
X142500000Y-86626000D01*
X142500000Y-86500000D01*
X142374000Y-86500000D01*
X142306961Y-86480315D01*
X142261206Y-86427511D01*
X142250000Y-86376000D01*
X142250000Y-86250000D01*
X142750000Y-86250000D01*
X143437499Y-86250000D01*
X143437499Y-86195864D01*
X143437498Y-86195847D01*
X143427443Y-86097416D01*
X143374593Y-85937927D01*
X143374591Y-85937922D01*
X143286385Y-85794919D01*
X143167580Y-85676114D01*
X143024577Y-85587908D01*
X143024572Y-85587906D01*
X142865083Y-85535057D01*
X142766650Y-85525000D01*
X142750000Y-85525000D01*
X142750000Y-86250000D01*
X142250000Y-86250000D01*
X142250000Y-85524999D01*
X142233356Y-85525000D01*
X142134915Y-85535057D01*
X141975427Y-85587906D01*
X141975422Y-85587908D01*
X141832419Y-85676114D01*
X141800533Y-85708000D01*
X141739209Y-85741485D01*
X141669518Y-85736499D01*
X141625173Y-85708000D01*
X141592892Y-85675719D01*
X141592887Y-85675716D01*
X141449795Y-85587455D01*
X141449789Y-85587452D01*
X141449787Y-85587451D01*
X141290185Y-85534564D01*
X141290183Y-85534563D01*
X141191681Y-85524500D01*
X141191674Y-85524500D01*
X140658326Y-85524500D01*
X140658318Y-85524500D01*
X140559816Y-85534563D01*
X140559815Y-85534564D01*
X140500319Y-85554279D01*
X140400215Y-85587450D01*
X140400204Y-85587455D01*
X140257112Y-85675716D01*
X140257108Y-85675719D01*
X140138219Y-85794608D01*
X140133738Y-85800276D01*
X140132316Y-85799151D01*
X140128868Y-85806703D01*
X140107566Y-85820392D01*
X140088741Y-85837324D01*
X140077106Y-85839967D01*
X140070090Y-85844477D01*
X140035155Y-85849500D01*
X140004935Y-85849500D01*
X139937896Y-85829815D01*
X139936090Y-85828633D01*
X139879179Y-85790606D01*
X139879172Y-85790602D01*
X139733501Y-85730264D01*
X139733491Y-85730261D01*
X139595777Y-85702868D01*
X139533866Y-85670483D01*
X139499292Y-85609767D01*
X139503032Y-85539998D01*
X139543899Y-85483326D01*
X139544219Y-85483078D01*
X139569036Y-85464036D01*
X139659279Y-85346429D01*
X139716009Y-85209472D01*
X139730500Y-85099401D01*
X139730499Y-84900600D01*
X139729410Y-84892331D01*
X139725101Y-84859594D01*
X139716009Y-84790528D01*
X139716008Y-84790525D01*
X139713905Y-84782674D01*
X139717207Y-84781789D01*
X139711392Y-84728075D01*
X139714501Y-84717485D01*
X139713905Y-84717326D01*
X139716008Y-84709475D01*
X139716008Y-84709474D01*
X139716009Y-84709472D01*
X139730500Y-84599401D01*
X139730499Y-84400600D01*
X139716009Y-84290528D01*
X139716008Y-84290525D01*
X139713905Y-84282674D01*
X139717207Y-84281789D01*
X139711392Y-84228075D01*
X139714501Y-84217485D01*
X139713905Y-84217326D01*
X139716008Y-84209475D01*
X139716008Y-84209474D01*
X139716009Y-84209472D01*
X139730500Y-84099401D01*
X139730499Y-83900600D01*
X139716009Y-83790528D01*
X139716008Y-83790525D01*
X139713905Y-83782674D01*
X139717207Y-83781789D01*
X139715668Y-83767574D01*
X139710024Y-83737960D01*
X139711726Y-83731161D01*
X139711392Y-83728075D01*
X139714444Y-83717470D01*
X139713905Y-83717326D01*
X139716008Y-83709474D01*
X139716007Y-83709474D01*
X139716009Y-83709472D01*
X139725230Y-83639423D01*
X139753496Y-83575529D01*
X139811820Y-83537057D01*
X139881684Y-83536225D01*
X139935848Y-83567926D01*
X139952447Y-83584525D01*
X139961742Y-83601547D01*
X139975099Y-83615613D01*
X139978142Y-83631580D01*
X139985932Y-83645845D01*
X139988056Y-83683595D01*
X139988181Y-83684247D01*
X139988109Y-83684537D01*
X139988125Y-83684806D01*
X139987001Y-83695809D01*
X139987000Y-83695832D01*
X139987000Y-84304181D01*
X139997063Y-84402683D01*
X140049950Y-84562284D01*
X140049955Y-84562295D01*
X140138216Y-84705387D01*
X140138219Y-84705391D01*
X140257108Y-84824280D01*
X140257112Y-84824283D01*
X140400204Y-84912544D01*
X140400207Y-84912545D01*
X140400213Y-84912549D01*
X140559815Y-84965436D01*
X140658326Y-84975500D01*
X140658331Y-84975500D01*
X141191669Y-84975500D01*
X141191674Y-84975500D01*
X141290185Y-84965436D01*
X141449787Y-84912549D01*
X141592891Y-84824281D01*
X141625172Y-84792000D01*
X141686495Y-84758515D01*
X141756187Y-84763499D01*
X141800534Y-84792000D01*
X141832419Y-84823885D01*
X141975422Y-84912091D01*
X141975427Y-84912093D01*
X142134916Y-84964942D01*
X142233356Y-84974999D01*
X142250000Y-84974998D01*
X142250000Y-83024999D01*
X142233356Y-83025000D01*
X142134915Y-83035057D01*
X141975427Y-83087906D01*
X141975422Y-83087908D01*
X141832419Y-83176114D01*
X141800533Y-83208000D01*
X141800408Y-83208067D01*
X141800340Y-83208193D01*
X141769751Y-83224807D01*
X141739209Y-83241485D01*
X141739066Y-83241474D01*
X141738943Y-83241542D01*
X141704268Y-83238985D01*
X141669518Y-83236499D01*
X141669357Y-83236410D01*
X141669263Y-83236404D01*
X141668802Y-83236107D01*
X141638323Y-83219421D01*
X141631345Y-83214173D01*
X141592891Y-83175719D01*
X141522382Y-83132228D01*
X141517816Y-83128794D01*
X141510774Y-83119343D01*
X141489244Y-83098582D01*
X141443070Y-83029477D01*
X141430277Y-83010331D01*
X141317012Y-82897066D01*
X141283529Y-82835746D01*
X141283106Y-82833715D01*
X141269737Y-82766503D01*
X141223401Y-82654636D01*
X141209397Y-82620827D01*
X141209390Y-82620814D01*
X141121789Y-82489711D01*
X141121786Y-82489707D01*
X141010292Y-82378213D01*
X141010288Y-82378210D01*
X140879185Y-82290609D01*
X140879172Y-82290602D01*
X140733501Y-82230264D01*
X140733489Y-82230261D01*
X140578845Y-82199500D01*
X140578842Y-82199500D01*
X140421158Y-82199500D01*
X140421155Y-82199500D01*
X140266510Y-82230261D01*
X140266498Y-82230264D01*
X140120827Y-82290602D01*
X140120814Y-82290609D01*
X139989711Y-82378210D01*
X139989706Y-82378214D01*
X139935849Y-82432071D01*
X139924676Y-82438171D01*
X139916457Y-82447891D01*
X139894595Y-82454596D01*
X139874526Y-82465555D01*
X139861829Y-82464646D01*
X139849659Y-82468380D01*
X139827640Y-82462201D01*
X139804834Y-82460570D01*
X139794644Y-82452942D01*
X139782388Y-82449503D01*
X139767207Y-82432403D01*
X139748901Y-82418699D01*
X139743355Y-82405535D01*
X139736002Y-82397252D01*
X139727106Y-82366963D01*
X139725652Y-82363510D01*
X139725424Y-82362053D01*
X139716009Y-82290528D01*
X139713205Y-82283760D01*
X139710921Y-82269121D01*
X139713616Y-82248625D01*
X139711392Y-82228075D01*
X139714501Y-82217485D01*
X139713905Y-82217326D01*
X139716008Y-82209475D01*
X139716008Y-82209474D01*
X139716009Y-82209472D01*
X139730500Y-82099401D01*
X139730499Y-81900600D01*
X139730499Y-81900598D01*
X139730499Y-81900596D01*
X139716011Y-81790536D01*
X139716009Y-81790529D01*
X139716009Y-81790528D01*
X139659279Y-81653571D01*
X139569036Y-81535964D01*
X139451429Y-81445721D01*
X139451425Y-81445719D01*
X139314472Y-81388991D01*
X139314470Y-81388990D01*
X139204410Y-81374501D01*
X139204407Y-81374500D01*
X139204401Y-81374500D01*
X139204394Y-81374500D01*
X138629499Y-81374500D01*
X138562460Y-81354815D01*
X138516705Y-81302011D01*
X138505499Y-81250500D01*
X138505499Y-80675596D01*
X138491011Y-80565536D01*
X138491009Y-80565531D01*
X138491009Y-80565528D01*
X138434279Y-80428571D01*
X138385019Y-80364375D01*
X138359827Y-80299209D01*
X138373865Y-80230764D01*
X138414507Y-80185789D01*
X138468555Y-80149674D01*
X138510289Y-80121789D01*
X138621789Y-80010289D01*
X138709394Y-79879179D01*
X138715191Y-79865185D01*
X138742398Y-79799500D01*
X138769737Y-79733497D01*
X138800500Y-79578842D01*
X138800500Y-79421158D01*
X138800500Y-79421155D01*
X138800499Y-79421153D01*
X138791957Y-79378210D01*
X138769737Y-79266503D01*
X138769735Y-79266498D01*
X138709397Y-79120827D01*
X138709390Y-79120814D01*
X138621789Y-78989711D01*
X138621786Y-78989707D01*
X138510292Y-78878213D01*
X138510288Y-78878210D01*
X138379185Y-78790609D01*
X138379172Y-78790602D01*
X138254738Y-78739061D01*
X138200334Y-78695221D01*
X138178269Y-78628926D01*
X138195548Y-78561227D01*
X138246685Y-78513616D01*
X138302190Y-78500500D01*
X146875500Y-78500500D01*
X146942539Y-78520185D01*
G37*
%TD.AperFunction*%
%TA.AperFunction,Conductor*%
G36*
X134005703Y-85925384D02*
G01*
X134012181Y-85931416D01*
X134218181Y-86137416D01*
X134232537Y-86163707D01*
X134249043Y-86188717D01*
X134250184Y-86196026D01*
X134251666Y-86198739D01*
X134254000Y-86220446D01*
X134254491Y-86223589D01*
X134254500Y-86224356D01*
X134254501Y-86324400D01*
X134255841Y-86334582D01*
X134255931Y-86341952D01*
X134248404Y-86368787D01*
X134244109Y-86396319D01*
X134239100Y-86401961D01*
X134237063Y-86409225D01*
X134219622Y-86431141D01*
X133957582Y-86693182D01*
X133896262Y-86726666D01*
X133869903Y-86729500D01*
X133772787Y-86729500D01*
X133705748Y-86709815D01*
X133659993Y-86657011D01*
X133650049Y-86587853D01*
X133669685Y-86536609D01*
X133709390Y-86477185D01*
X133709390Y-86477184D01*
X133709394Y-86477179D01*
X133769737Y-86331497D01*
X133800500Y-86176842D01*
X133800500Y-86019158D01*
X133800500Y-86019097D01*
X133820185Y-85952058D01*
X133872989Y-85906303D01*
X133942147Y-85896359D01*
X134005703Y-85925384D01*
G37*
%TD.AperFunction*%
%TA.AperFunction,Conductor*%
G36*
X113193834Y-83770343D02*
G01*
X113249767Y-83812215D01*
X113274184Y-83877679D01*
X113274500Y-83886525D01*
X113274500Y-84197868D01*
X113274501Y-84197878D01*
X113278679Y-84236745D01*
X113278679Y-84263250D01*
X113274500Y-84302122D01*
X113274500Y-84697869D01*
X113274501Y-84697880D01*
X113277289Y-84723822D01*
X113277291Y-84723827D01*
X113280909Y-84757483D01*
X113331204Y-84892331D01*
X113347526Y-84914134D01*
X113356176Y-84925690D01*
X113380592Y-84991155D01*
X113365740Y-85059428D01*
X113356176Y-85074310D01*
X113336713Y-85100310D01*
X113288890Y-85136109D01*
X113275000Y-85150000D01*
X113275000Y-85197832D01*
X113278931Y-85234399D01*
X113278931Y-85260905D01*
X113274500Y-85302122D01*
X113274500Y-85697869D01*
X113274501Y-85697880D01*
X113277289Y-85723822D01*
X113277291Y-85723827D01*
X113280909Y-85757483D01*
X113331204Y-85892331D01*
X113347526Y-85914134D01*
X113356176Y-85925690D01*
X113380592Y-85991155D01*
X113365740Y-86059428D01*
X113356176Y-86074310D01*
X113336713Y-86100310D01*
X113288890Y-86136109D01*
X113275000Y-86150000D01*
X113275000Y-86197832D01*
X113278931Y-86234399D01*
X113278931Y-86260905D01*
X113274500Y-86302122D01*
X113274500Y-86555192D01*
X113254815Y-86622231D01*
X113202011Y-86667986D01*
X113132853Y-86677930D01*
X113069297Y-86648905D01*
X113062819Y-86642873D01*
X111907678Y-85487732D01*
X111874193Y-85426409D01*
X111871359Y-85400051D01*
X111871359Y-85041667D01*
X111891044Y-84974628D01*
X111907678Y-84953986D01*
X112480352Y-84381312D01*
X113062821Y-83798842D01*
X113124142Y-83765359D01*
X113193834Y-83770343D01*
G37*
%TD.AperFunction*%
%TA.AperFunction,Conductor*%
G36*
X137649283Y-81931677D02*
G01*
X137651925Y-81931392D01*
X137662514Y-81934501D01*
X137662674Y-81933905D01*
X137670524Y-81936008D01*
X137670526Y-81936008D01*
X137670528Y-81936009D01*
X137780599Y-81950500D01*
X137805498Y-81950499D01*
X137872536Y-81970181D01*
X137918293Y-82022984D01*
X137929500Y-82074495D01*
X137929500Y-82099402D01*
X137943989Y-82209468D01*
X137946094Y-82217322D01*
X137942814Y-82218200D01*
X137948581Y-82272073D01*
X137945517Y-82282522D01*
X137946095Y-82282677D01*
X137943990Y-82290529D01*
X137929500Y-82400598D01*
X137929500Y-82599403D01*
X137943989Y-82709468D01*
X137946094Y-82717322D01*
X137942814Y-82718200D01*
X137948581Y-82772073D01*
X137945517Y-82782522D01*
X137946095Y-82782677D01*
X137943990Y-82790529D01*
X137929500Y-82900598D01*
X137929500Y-83099403D01*
X137943989Y-83209468D01*
X137946094Y-83217322D01*
X137942814Y-83218200D01*
X137948581Y-83272073D01*
X137945517Y-83282522D01*
X137946095Y-83282677D01*
X137943990Y-83290529D01*
X137929500Y-83400598D01*
X137929500Y-83599403D01*
X137943989Y-83709468D01*
X137946094Y-83717322D01*
X137942814Y-83718200D01*
X137948581Y-83772073D01*
X137945517Y-83782522D01*
X137946095Y-83782677D01*
X137943990Y-83790529D01*
X137929500Y-83900598D01*
X137929500Y-84099403D01*
X137943989Y-84209468D01*
X137946094Y-84217322D01*
X137942814Y-84218200D01*
X137948581Y-84272073D01*
X137945517Y-84282522D01*
X137946095Y-84282677D01*
X137943990Y-84290529D01*
X137929500Y-84400598D01*
X137929500Y-84599403D01*
X137943989Y-84709468D01*
X137946094Y-84717322D01*
X137943268Y-84718079D01*
X137949678Y-84764775D01*
X137947646Y-84781702D01*
X137943991Y-84790528D01*
X137929500Y-84900599D01*
X137929500Y-84932917D01*
X137928617Y-84940275D01*
X137917651Y-84965851D01*
X137909815Y-84992539D01*
X137904077Y-84997510D01*
X137901085Y-85004491D01*
X137878033Y-85020077D01*
X137857011Y-85038294D01*
X137848286Y-85040192D01*
X137843205Y-85043628D01*
X137831204Y-85043908D01*
X137805504Y-85049500D01*
X137780597Y-85049500D01*
X137670531Y-85063989D01*
X137662678Y-85066094D01*
X137661802Y-85062824D01*
X137607853Y-85068567D01*
X137597477Y-85065518D01*
X137597323Y-85066095D01*
X137589470Y-85063990D01*
X137479401Y-85049500D01*
X137280596Y-85049500D01*
X137170531Y-85063989D01*
X137162678Y-85066094D01*
X137161802Y-85062824D01*
X137107853Y-85068567D01*
X137097477Y-85065518D01*
X137097323Y-85066095D01*
X137089470Y-85063990D01*
X136979401Y-85049500D01*
X136780596Y-85049500D01*
X136670531Y-85063989D01*
X136662678Y-85066094D01*
X136661802Y-85062824D01*
X136607853Y-85068567D01*
X136597477Y-85065518D01*
X136597323Y-85066095D01*
X136589470Y-85063990D01*
X136479401Y-85049500D01*
X136280596Y-85049500D01*
X136170531Y-85063989D01*
X136162678Y-85066094D01*
X136161802Y-85062824D01*
X136107853Y-85068567D01*
X136097477Y-85065518D01*
X136097323Y-85066095D01*
X136089470Y-85063990D01*
X135979401Y-85049500D01*
X135780596Y-85049500D01*
X135670531Y-85063989D01*
X135662678Y-85066094D01*
X135661802Y-85062824D01*
X135607853Y-85068567D01*
X135597477Y-85065518D01*
X135597323Y-85066095D01*
X135589470Y-85063990D01*
X135479401Y-85049500D01*
X135280596Y-85049500D01*
X135170531Y-85063989D01*
X135162678Y-85066094D01*
X135161924Y-85063281D01*
X135115224Y-85069678D01*
X135098297Y-85067646D01*
X135089472Y-85063991D01*
X134979401Y-85049500D01*
X134947082Y-85049500D01*
X134939724Y-85048617D01*
X134914147Y-85037651D01*
X134887460Y-85029815D01*
X134882488Y-85024077D01*
X134875508Y-85021085D01*
X134859921Y-84998033D01*
X134841705Y-84977011D01*
X134839807Y-84968286D01*
X134836371Y-84963205D01*
X134836090Y-84951202D01*
X134830499Y-84925500D01*
X134830499Y-84900597D01*
X134821544Y-84832575D01*
X134816009Y-84790528D01*
X134816008Y-84790525D01*
X134813905Y-84782674D01*
X134817207Y-84781789D01*
X134811392Y-84728075D01*
X134814501Y-84717485D01*
X134813905Y-84717326D01*
X134816008Y-84709475D01*
X134816008Y-84709474D01*
X134816009Y-84709472D01*
X134830500Y-84599401D01*
X134830499Y-84400600D01*
X134816009Y-84290528D01*
X134816008Y-84290525D01*
X134813905Y-84282674D01*
X134817207Y-84281789D01*
X134811392Y-84228075D01*
X134814501Y-84217485D01*
X134813905Y-84217326D01*
X134816008Y-84209475D01*
X134816008Y-84209474D01*
X134816009Y-84209472D01*
X134830500Y-84099401D01*
X134830499Y-83900600D01*
X134816009Y-83790528D01*
X134816008Y-83790525D01*
X134813905Y-83782674D01*
X134817207Y-83781789D01*
X134811392Y-83728075D01*
X134814501Y-83717485D01*
X134813905Y-83717326D01*
X134816008Y-83709475D01*
X134816008Y-83709474D01*
X134816009Y-83709472D01*
X134830500Y-83599401D01*
X134830499Y-83400600D01*
X134830499Y-83400598D01*
X134830499Y-83400596D01*
X134816011Y-83290536D01*
X134813906Y-83282682D01*
X134817007Y-83281850D01*
X134811128Y-83227382D01*
X134814147Y-83217389D01*
X134813418Y-83217194D01*
X134815521Y-83209342D01*
X134826626Y-83125000D01*
X134798506Y-83125000D01*
X134794835Y-83123922D01*
X134791107Y-83124779D01*
X134761574Y-83114155D01*
X134731467Y-83105315D01*
X134727917Y-83102048D01*
X134725361Y-83101129D01*
X134700115Y-83076466D01*
X134699348Y-83075466D01*
X134674167Y-83010292D01*
X134688219Y-82941850D01*
X134699348Y-82924534D01*
X134700115Y-82923534D01*
X134721055Y-82908236D01*
X134737044Y-82891870D01*
X134746404Y-82889718D01*
X134756534Y-82882319D01*
X134798506Y-82875000D01*
X134826626Y-82875000D01*
X134815521Y-82790659D01*
X134813418Y-82782807D01*
X134817041Y-82781835D01*
X134810919Y-82729884D01*
X134814495Y-82717484D01*
X134813905Y-82717326D01*
X134816008Y-82709475D01*
X134816008Y-82709474D01*
X134816009Y-82709472D01*
X134830500Y-82599401D01*
X134830499Y-82400600D01*
X134830058Y-82397252D01*
X134821267Y-82330469D01*
X134816009Y-82290528D01*
X134816008Y-82290525D01*
X134813905Y-82282674D01*
X134816757Y-82281909D01*
X134810321Y-82235225D01*
X134812352Y-82218299D01*
X134816009Y-82209472D01*
X134830500Y-82099401D01*
X134830499Y-82067083D01*
X134831383Y-82059724D01*
X134842347Y-82034149D01*
X134850185Y-82007460D01*
X134855922Y-82002488D01*
X134858916Y-81995507D01*
X134881968Y-81979919D01*
X134902989Y-81961705D01*
X134911712Y-81959807D01*
X134916796Y-81956370D01*
X134928802Y-81956089D01*
X134954500Y-81950499D01*
X134979402Y-81950499D01*
X135008382Y-81946683D01*
X135089472Y-81936009D01*
X135089475Y-81936007D01*
X135097326Y-81933905D01*
X135098210Y-81937207D01*
X135151925Y-81931392D01*
X135162514Y-81934501D01*
X135162674Y-81933905D01*
X135170524Y-81936008D01*
X135170526Y-81936008D01*
X135170528Y-81936009D01*
X135280599Y-81950500D01*
X135479400Y-81950499D01*
X135479401Y-81950499D01*
X135496087Y-81948302D01*
X135589472Y-81936009D01*
X135589475Y-81936007D01*
X135597326Y-81933905D01*
X135598210Y-81937207D01*
X135651925Y-81931392D01*
X135662514Y-81934501D01*
X135662674Y-81933905D01*
X135670524Y-81936008D01*
X135670526Y-81936008D01*
X135670528Y-81936009D01*
X135780599Y-81950500D01*
X135979400Y-81950499D01*
X135979401Y-81950499D01*
X135996087Y-81948302D01*
X136089472Y-81936009D01*
X136089475Y-81936007D01*
X136097326Y-81933905D01*
X136098210Y-81937207D01*
X136151925Y-81931392D01*
X136162514Y-81934501D01*
X136162674Y-81933905D01*
X136170524Y-81936008D01*
X136170526Y-81936008D01*
X136170528Y-81936009D01*
X136280599Y-81950500D01*
X136479400Y-81950499D01*
X136479401Y-81950499D01*
X136496087Y-81948302D01*
X136589472Y-81936009D01*
X136589475Y-81936007D01*
X136597326Y-81933905D01*
X136598210Y-81937207D01*
X136651925Y-81931392D01*
X136662514Y-81934501D01*
X136662674Y-81933905D01*
X136670524Y-81936008D01*
X136670526Y-81936008D01*
X136670528Y-81936009D01*
X136780599Y-81950500D01*
X136979400Y-81950499D01*
X136979401Y-81950499D01*
X136996087Y-81948302D01*
X137089472Y-81936009D01*
X137089475Y-81936007D01*
X137097326Y-81933905D01*
X137098210Y-81937207D01*
X137151925Y-81931392D01*
X137162514Y-81934501D01*
X137162674Y-81933905D01*
X137170524Y-81936008D01*
X137170526Y-81936008D01*
X137170528Y-81936009D01*
X137280599Y-81950500D01*
X137479400Y-81950499D01*
X137479401Y-81950499D01*
X137496087Y-81948302D01*
X137589472Y-81936009D01*
X137589475Y-81936007D01*
X137597326Y-81933905D01*
X137598210Y-81937207D01*
X137613047Y-81935601D01*
X137643348Y-81930158D01*
X137649283Y-81931677D01*
G37*
%TD.AperFunction*%
%TA.AperFunction,Conductor*%
G36*
X115930203Y-81610582D02*
G01*
X115954540Y-81639200D01*
X115957289Y-81643657D01*
X116040411Y-81726779D01*
X116073896Y-81788102D01*
X116068912Y-81857794D01*
X116040411Y-81902141D01*
X115829371Y-82113182D01*
X115802440Y-82127888D01*
X115776627Y-82144477D01*
X115770427Y-82145368D01*
X115768051Y-82146666D01*
X115741692Y-82149500D01*
X115633231Y-82149500D01*
X115566192Y-82129815D01*
X115558920Y-82124767D01*
X115467331Y-82056204D01*
X115467328Y-82056202D01*
X115332482Y-82005908D01*
X115332483Y-82005908D01*
X115272883Y-81999501D01*
X115272881Y-81999500D01*
X115272873Y-81999500D01*
X115272865Y-81999500D01*
X113727129Y-81999500D01*
X113727123Y-81999501D01*
X113667516Y-82005908D01*
X113630942Y-82019550D01*
X113561250Y-82024534D01*
X113499929Y-81991049D01*
X113470561Y-81961681D01*
X113437076Y-81900358D01*
X113442060Y-81830666D01*
X113483932Y-81774733D01*
X113549396Y-81750316D01*
X113558242Y-81750000D01*
X115725000Y-81750000D01*
X115725000Y-81704295D01*
X115744685Y-81637256D01*
X115797489Y-81591501D01*
X115866647Y-81581557D01*
X115930203Y-81610582D01*
G37*
%TD.AperFunction*%
%TD*%
M02*
