%TF.GenerationSoftware,KiCad,Pcbnew,9.0.7*%
%TF.CreationDate,2026-03-06T12:03:16+05:30*%
%TF.ProjectId,usb to uart,75736220-746f-4207-9561-72742e6b6963,rev?*%
%TF.SameCoordinates,Original*%
%TF.FileFunction,Legend,Top*%
%TF.FilePolarity,Positive*%
%FSLAX46Y46*%
G04 Gerber Fmt 4.6, Leading zero omitted, Abs format (unit mm)*
G04 Created by KiCad (PCBNEW 9.0.7) date 2026-03-06 12:03:16*
%MOMM*%
%LPD*%
G01*
G04 APERTURE LIST*
%ADD10C,0.150000*%
%ADD11C,0.120000*%
G04 APERTURE END LIST*
D10*
X125838333Y-85544819D02*
X125505000Y-85068628D01*
X125266905Y-85544819D02*
X125266905Y-84544819D01*
X125266905Y-84544819D02*
X125647857Y-84544819D01*
X125647857Y-84544819D02*
X125743095Y-84592438D01*
X125743095Y-84592438D02*
X125790714Y-84640057D01*
X125790714Y-84640057D02*
X125838333Y-84735295D01*
X125838333Y-84735295D02*
X125838333Y-84878152D01*
X125838333Y-84878152D02*
X125790714Y-84973390D01*
X125790714Y-84973390D02*
X125743095Y-85021009D01*
X125743095Y-85021009D02*
X125647857Y-85068628D01*
X125647857Y-85068628D02*
X125266905Y-85068628D01*
X126171667Y-84544819D02*
X126790714Y-84544819D01*
X126790714Y-84544819D02*
X126457381Y-84925771D01*
X126457381Y-84925771D02*
X126600238Y-84925771D01*
X126600238Y-84925771D02*
X126695476Y-84973390D01*
X126695476Y-84973390D02*
X126743095Y-85021009D01*
X126743095Y-85021009D02*
X126790714Y-85116247D01*
X126790714Y-85116247D02*
X126790714Y-85354342D01*
X126790714Y-85354342D02*
X126743095Y-85449580D01*
X126743095Y-85449580D02*
X126695476Y-85497200D01*
X126695476Y-85497200D02*
X126600238Y-85544819D01*
X126600238Y-85544819D02*
X126314524Y-85544819D01*
X126314524Y-85544819D02*
X126219286Y-85497200D01*
X126219286Y-85497200D02*
X126171667Y-85449580D01*
X125838333Y-88054819D02*
X125505000Y-87578628D01*
X125266905Y-88054819D02*
X125266905Y-87054819D01*
X125266905Y-87054819D02*
X125647857Y-87054819D01*
X125647857Y-87054819D02*
X125743095Y-87102438D01*
X125743095Y-87102438D02*
X125790714Y-87150057D01*
X125790714Y-87150057D02*
X125838333Y-87245295D01*
X125838333Y-87245295D02*
X125838333Y-87388152D01*
X125838333Y-87388152D02*
X125790714Y-87483390D01*
X125790714Y-87483390D02*
X125743095Y-87531009D01*
X125743095Y-87531009D02*
X125647857Y-87578628D01*
X125647857Y-87578628D02*
X125266905Y-87578628D01*
X126695476Y-87388152D02*
X126695476Y-88054819D01*
X126457381Y-87007200D02*
X126219286Y-87721485D01*
X126219286Y-87721485D02*
X126838333Y-87721485D01*
X121888333Y-80429580D02*
X121840714Y-80477200D01*
X121840714Y-80477200D02*
X121697857Y-80524819D01*
X121697857Y-80524819D02*
X121602619Y-80524819D01*
X121602619Y-80524819D02*
X121459762Y-80477200D01*
X121459762Y-80477200D02*
X121364524Y-80381961D01*
X121364524Y-80381961D02*
X121316905Y-80286723D01*
X121316905Y-80286723D02*
X121269286Y-80096247D01*
X121269286Y-80096247D02*
X121269286Y-79953390D01*
X121269286Y-79953390D02*
X121316905Y-79762914D01*
X121316905Y-79762914D02*
X121364524Y-79667676D01*
X121364524Y-79667676D02*
X121459762Y-79572438D01*
X121459762Y-79572438D02*
X121602619Y-79524819D01*
X121602619Y-79524819D02*
X121697857Y-79524819D01*
X121697857Y-79524819D02*
X121840714Y-79572438D01*
X121840714Y-79572438D02*
X121888333Y-79620057D01*
X122840714Y-80524819D02*
X122269286Y-80524819D01*
X122555000Y-80524819D02*
X122555000Y-79524819D01*
X122555000Y-79524819D02*
X122459762Y-79667676D01*
X122459762Y-79667676D02*
X122364524Y-79762914D01*
X122364524Y-79762914D02*
X122269286Y-79810533D01*
X135618095Y-79154819D02*
X135618095Y-79964342D01*
X135618095Y-79964342D02*
X135665714Y-80059580D01*
X135665714Y-80059580D02*
X135713333Y-80107200D01*
X135713333Y-80107200D02*
X135808571Y-80154819D01*
X135808571Y-80154819D02*
X135999047Y-80154819D01*
X135999047Y-80154819D02*
X136094285Y-80107200D01*
X136094285Y-80107200D02*
X136141904Y-80059580D01*
X136141904Y-80059580D02*
X136189523Y-79964342D01*
X136189523Y-79964342D02*
X136189523Y-79154819D01*
X137189523Y-80154819D02*
X136618095Y-80154819D01*
X136903809Y-80154819D02*
X136903809Y-79154819D01*
X136903809Y-79154819D02*
X136808571Y-79297676D01*
X136808571Y-79297676D02*
X136713333Y-79392914D01*
X136713333Y-79392914D02*
X136618095Y-79440533D01*
X125838333Y-83034819D02*
X125505000Y-82558628D01*
X125266905Y-83034819D02*
X125266905Y-82034819D01*
X125266905Y-82034819D02*
X125647857Y-82034819D01*
X125647857Y-82034819D02*
X125743095Y-82082438D01*
X125743095Y-82082438D02*
X125790714Y-82130057D01*
X125790714Y-82130057D02*
X125838333Y-82225295D01*
X125838333Y-82225295D02*
X125838333Y-82368152D01*
X125838333Y-82368152D02*
X125790714Y-82463390D01*
X125790714Y-82463390D02*
X125743095Y-82511009D01*
X125743095Y-82511009D02*
X125647857Y-82558628D01*
X125647857Y-82558628D02*
X125266905Y-82558628D01*
X126219286Y-82130057D02*
X126266905Y-82082438D01*
X126266905Y-82082438D02*
X126362143Y-82034819D01*
X126362143Y-82034819D02*
X126600238Y-82034819D01*
X126600238Y-82034819D02*
X126695476Y-82082438D01*
X126695476Y-82082438D02*
X126743095Y-82130057D01*
X126743095Y-82130057D02*
X126790714Y-82225295D01*
X126790714Y-82225295D02*
X126790714Y-82320533D01*
X126790714Y-82320533D02*
X126743095Y-82463390D01*
X126743095Y-82463390D02*
X126171667Y-83034819D01*
X126171667Y-83034819D02*
X126790714Y-83034819D01*
X121828333Y-85449580D02*
X121780714Y-85497200D01*
X121780714Y-85497200D02*
X121637857Y-85544819D01*
X121637857Y-85544819D02*
X121542619Y-85544819D01*
X121542619Y-85544819D02*
X121399762Y-85497200D01*
X121399762Y-85497200D02*
X121304524Y-85401961D01*
X121304524Y-85401961D02*
X121256905Y-85306723D01*
X121256905Y-85306723D02*
X121209286Y-85116247D01*
X121209286Y-85116247D02*
X121209286Y-84973390D01*
X121209286Y-84973390D02*
X121256905Y-84782914D01*
X121256905Y-84782914D02*
X121304524Y-84687676D01*
X121304524Y-84687676D02*
X121399762Y-84592438D01*
X121399762Y-84592438D02*
X121542619Y-84544819D01*
X121542619Y-84544819D02*
X121637857Y-84544819D01*
X121637857Y-84544819D02*
X121780714Y-84592438D01*
X121780714Y-84592438D02*
X121828333Y-84640057D01*
X122685476Y-84878152D02*
X122685476Y-85544819D01*
X122447381Y-84497200D02*
X122209286Y-85211485D01*
X122209286Y-85211485D02*
X122828333Y-85211485D01*
X121828333Y-82939580D02*
X121780714Y-82987200D01*
X121780714Y-82987200D02*
X121637857Y-83034819D01*
X121637857Y-83034819D02*
X121542619Y-83034819D01*
X121542619Y-83034819D02*
X121399762Y-82987200D01*
X121399762Y-82987200D02*
X121304524Y-82891961D01*
X121304524Y-82891961D02*
X121256905Y-82796723D01*
X121256905Y-82796723D02*
X121209286Y-82606247D01*
X121209286Y-82606247D02*
X121209286Y-82463390D01*
X121209286Y-82463390D02*
X121256905Y-82272914D01*
X121256905Y-82272914D02*
X121304524Y-82177676D01*
X121304524Y-82177676D02*
X121399762Y-82082438D01*
X121399762Y-82082438D02*
X121542619Y-82034819D01*
X121542619Y-82034819D02*
X121637857Y-82034819D01*
X121637857Y-82034819D02*
X121780714Y-82082438D01*
X121780714Y-82082438D02*
X121828333Y-82130057D01*
X122161667Y-82034819D02*
X122780714Y-82034819D01*
X122780714Y-82034819D02*
X122447381Y-82415771D01*
X122447381Y-82415771D02*
X122590238Y-82415771D01*
X122590238Y-82415771D02*
X122685476Y-82463390D01*
X122685476Y-82463390D02*
X122733095Y-82511009D01*
X122733095Y-82511009D02*
X122780714Y-82606247D01*
X122780714Y-82606247D02*
X122780714Y-82844342D01*
X122780714Y-82844342D02*
X122733095Y-82939580D01*
X122733095Y-82939580D02*
X122685476Y-82987200D01*
X122685476Y-82987200D02*
X122590238Y-83034819D01*
X122590238Y-83034819D02*
X122304524Y-83034819D01*
X122304524Y-83034819D02*
X122209286Y-82987200D01*
X122209286Y-82987200D02*
X122161667Y-82939580D01*
X119954405Y-87004819D02*
X119954405Y-86004819D01*
X119954405Y-86004819D02*
X120192500Y-86004819D01*
X120192500Y-86004819D02*
X120335357Y-86052438D01*
X120335357Y-86052438D02*
X120430595Y-86147676D01*
X120430595Y-86147676D02*
X120478214Y-86242914D01*
X120478214Y-86242914D02*
X120525833Y-86433390D01*
X120525833Y-86433390D02*
X120525833Y-86576247D01*
X120525833Y-86576247D02*
X120478214Y-86766723D01*
X120478214Y-86766723D02*
X120430595Y-86861961D01*
X120430595Y-86861961D02*
X120335357Y-86957200D01*
X120335357Y-86957200D02*
X120192500Y-87004819D01*
X120192500Y-87004819D02*
X119954405Y-87004819D01*
X121478214Y-87004819D02*
X120906786Y-87004819D01*
X121192500Y-87004819D02*
X121192500Y-86004819D01*
X121192500Y-86004819D02*
X121097262Y-86147676D01*
X121097262Y-86147676D02*
X121002024Y-86242914D01*
X121002024Y-86242914D02*
X120906786Y-86290533D01*
X121022319Y-81583333D02*
X121736604Y-81583333D01*
X121736604Y-81583333D02*
X121879461Y-81630952D01*
X121879461Y-81630952D02*
X121974700Y-81726190D01*
X121974700Y-81726190D02*
X122022319Y-81869047D01*
X122022319Y-81869047D02*
X122022319Y-81964285D01*
X122022319Y-80583333D02*
X122022319Y-81154761D01*
X122022319Y-80869047D02*
X121022319Y-80869047D01*
X121022319Y-80869047D02*
X121165176Y-80964285D01*
X121165176Y-80964285D02*
X121260414Y-81059523D01*
X121260414Y-81059523D02*
X121308033Y-81154761D01*
X129848333Y-83034819D02*
X129515000Y-82558628D01*
X129276905Y-83034819D02*
X129276905Y-82034819D01*
X129276905Y-82034819D02*
X129657857Y-82034819D01*
X129657857Y-82034819D02*
X129753095Y-82082438D01*
X129753095Y-82082438D02*
X129800714Y-82130057D01*
X129800714Y-82130057D02*
X129848333Y-82225295D01*
X129848333Y-82225295D02*
X129848333Y-82368152D01*
X129848333Y-82368152D02*
X129800714Y-82463390D01*
X129800714Y-82463390D02*
X129753095Y-82511009D01*
X129753095Y-82511009D02*
X129657857Y-82558628D01*
X129657857Y-82558628D02*
X129276905Y-82558628D01*
X130181667Y-82034819D02*
X130848333Y-82034819D01*
X130848333Y-82034819D02*
X130419762Y-83034819D01*
X140974405Y-91454819D02*
X140974405Y-90454819D01*
X140974405Y-90454819D02*
X141212500Y-90454819D01*
X141212500Y-90454819D02*
X141355357Y-90502438D01*
X141355357Y-90502438D02*
X141450595Y-90597676D01*
X141450595Y-90597676D02*
X141498214Y-90692914D01*
X141498214Y-90692914D02*
X141545833Y-90883390D01*
X141545833Y-90883390D02*
X141545833Y-91026247D01*
X141545833Y-91026247D02*
X141498214Y-91216723D01*
X141498214Y-91216723D02*
X141450595Y-91311961D01*
X141450595Y-91311961D02*
X141355357Y-91407200D01*
X141355357Y-91407200D02*
X141212500Y-91454819D01*
X141212500Y-91454819D02*
X140974405Y-91454819D01*
X141879167Y-90454819D02*
X142498214Y-90454819D01*
X142498214Y-90454819D02*
X142164881Y-90835771D01*
X142164881Y-90835771D02*
X142307738Y-90835771D01*
X142307738Y-90835771D02*
X142402976Y-90883390D01*
X142402976Y-90883390D02*
X142450595Y-90931009D01*
X142450595Y-90931009D02*
X142498214Y-91026247D01*
X142498214Y-91026247D02*
X142498214Y-91264342D01*
X142498214Y-91264342D02*
X142450595Y-91359580D01*
X142450595Y-91359580D02*
X142402976Y-91407200D01*
X142402976Y-91407200D02*
X142307738Y-91454819D01*
X142307738Y-91454819D02*
X142022024Y-91454819D01*
X142022024Y-91454819D02*
X141926786Y-91407200D01*
X141926786Y-91407200D02*
X141879167Y-91359580D01*
X129848333Y-80524819D02*
X129515000Y-80048628D01*
X129276905Y-80524819D02*
X129276905Y-79524819D01*
X129276905Y-79524819D02*
X129657857Y-79524819D01*
X129657857Y-79524819D02*
X129753095Y-79572438D01*
X129753095Y-79572438D02*
X129800714Y-79620057D01*
X129800714Y-79620057D02*
X129848333Y-79715295D01*
X129848333Y-79715295D02*
X129848333Y-79858152D01*
X129848333Y-79858152D02*
X129800714Y-79953390D01*
X129800714Y-79953390D02*
X129753095Y-80001009D01*
X129753095Y-80001009D02*
X129657857Y-80048628D01*
X129657857Y-80048628D02*
X129276905Y-80048628D01*
X130705476Y-79524819D02*
X130515000Y-79524819D01*
X130515000Y-79524819D02*
X130419762Y-79572438D01*
X130419762Y-79572438D02*
X130372143Y-79620057D01*
X130372143Y-79620057D02*
X130276905Y-79762914D01*
X130276905Y-79762914D02*
X130229286Y-79953390D01*
X130229286Y-79953390D02*
X130229286Y-80334342D01*
X130229286Y-80334342D02*
X130276905Y-80429580D01*
X130276905Y-80429580D02*
X130324524Y-80477200D01*
X130324524Y-80477200D02*
X130419762Y-80524819D01*
X130419762Y-80524819D02*
X130610238Y-80524819D01*
X130610238Y-80524819D02*
X130705476Y-80477200D01*
X130705476Y-80477200D02*
X130753095Y-80429580D01*
X130753095Y-80429580D02*
X130800714Y-80334342D01*
X130800714Y-80334342D02*
X130800714Y-80096247D01*
X130800714Y-80096247D02*
X130753095Y-80001009D01*
X130753095Y-80001009D02*
X130705476Y-79953390D01*
X130705476Y-79953390D02*
X130610238Y-79905771D01*
X130610238Y-79905771D02*
X130419762Y-79905771D01*
X130419762Y-79905771D02*
X130324524Y-79953390D01*
X130324524Y-79953390D02*
X130276905Y-80001009D01*
X130276905Y-80001009D02*
X130229286Y-80096247D01*
X129478333Y-87929580D02*
X129430714Y-87977200D01*
X129430714Y-87977200D02*
X129287857Y-88024819D01*
X129287857Y-88024819D02*
X129192619Y-88024819D01*
X129192619Y-88024819D02*
X129049762Y-87977200D01*
X129049762Y-87977200D02*
X128954524Y-87881961D01*
X128954524Y-87881961D02*
X128906905Y-87786723D01*
X128906905Y-87786723D02*
X128859286Y-87596247D01*
X128859286Y-87596247D02*
X128859286Y-87453390D01*
X128859286Y-87453390D02*
X128906905Y-87262914D01*
X128906905Y-87262914D02*
X128954524Y-87167676D01*
X128954524Y-87167676D02*
X129049762Y-87072438D01*
X129049762Y-87072438D02*
X129192619Y-87024819D01*
X129192619Y-87024819D02*
X129287857Y-87024819D01*
X129287857Y-87024819D02*
X129430714Y-87072438D01*
X129430714Y-87072438D02*
X129478333Y-87120057D01*
X130335476Y-87024819D02*
X130145000Y-87024819D01*
X130145000Y-87024819D02*
X130049762Y-87072438D01*
X130049762Y-87072438D02*
X130002143Y-87120057D01*
X130002143Y-87120057D02*
X129906905Y-87262914D01*
X129906905Y-87262914D02*
X129859286Y-87453390D01*
X129859286Y-87453390D02*
X129859286Y-87834342D01*
X129859286Y-87834342D02*
X129906905Y-87929580D01*
X129906905Y-87929580D02*
X129954524Y-87977200D01*
X129954524Y-87977200D02*
X130049762Y-88024819D01*
X130049762Y-88024819D02*
X130240238Y-88024819D01*
X130240238Y-88024819D02*
X130335476Y-87977200D01*
X130335476Y-87977200D02*
X130383095Y-87929580D01*
X130383095Y-87929580D02*
X130430714Y-87834342D01*
X130430714Y-87834342D02*
X130430714Y-87596247D01*
X130430714Y-87596247D02*
X130383095Y-87501009D01*
X130383095Y-87501009D02*
X130335476Y-87453390D01*
X130335476Y-87453390D02*
X130240238Y-87405771D01*
X130240238Y-87405771D02*
X130049762Y-87405771D01*
X130049762Y-87405771D02*
X129954524Y-87453390D01*
X129954524Y-87453390D02*
X129906905Y-87501009D01*
X129906905Y-87501009D02*
X129859286Y-87596247D01*
X129372142Y-85544819D02*
X129038809Y-85068628D01*
X128800714Y-85544819D02*
X128800714Y-84544819D01*
X128800714Y-84544819D02*
X129181666Y-84544819D01*
X129181666Y-84544819D02*
X129276904Y-84592438D01*
X129276904Y-84592438D02*
X129324523Y-84640057D01*
X129324523Y-84640057D02*
X129372142Y-84735295D01*
X129372142Y-84735295D02*
X129372142Y-84878152D01*
X129372142Y-84878152D02*
X129324523Y-84973390D01*
X129324523Y-84973390D02*
X129276904Y-85021009D01*
X129276904Y-85021009D02*
X129181666Y-85068628D01*
X129181666Y-85068628D02*
X128800714Y-85068628D01*
X130324523Y-85544819D02*
X129753095Y-85544819D01*
X130038809Y-85544819D02*
X130038809Y-84544819D01*
X130038809Y-84544819D02*
X129943571Y-84687676D01*
X129943571Y-84687676D02*
X129848333Y-84782914D01*
X129848333Y-84782914D02*
X129753095Y-84830533D01*
X130943571Y-84544819D02*
X131038809Y-84544819D01*
X131038809Y-84544819D02*
X131134047Y-84592438D01*
X131134047Y-84592438D02*
X131181666Y-84640057D01*
X131181666Y-84640057D02*
X131229285Y-84735295D01*
X131229285Y-84735295D02*
X131276904Y-84925771D01*
X131276904Y-84925771D02*
X131276904Y-85163866D01*
X131276904Y-85163866D02*
X131229285Y-85354342D01*
X131229285Y-85354342D02*
X131181666Y-85449580D01*
X131181666Y-85449580D02*
X131134047Y-85497200D01*
X131134047Y-85497200D02*
X131038809Y-85544819D01*
X131038809Y-85544819D02*
X130943571Y-85544819D01*
X130943571Y-85544819D02*
X130848333Y-85497200D01*
X130848333Y-85497200D02*
X130800714Y-85449580D01*
X130800714Y-85449580D02*
X130753095Y-85354342D01*
X130753095Y-85354342D02*
X130705476Y-85163866D01*
X130705476Y-85163866D02*
X130705476Y-84925771D01*
X130705476Y-84925771D02*
X130753095Y-84735295D01*
X130753095Y-84735295D02*
X130800714Y-84640057D01*
X130800714Y-84640057D02*
X130848333Y-84592438D01*
X130848333Y-84592438D02*
X130943571Y-84544819D01*
X125838333Y-80524819D02*
X125505000Y-80048628D01*
X125266905Y-80524819D02*
X125266905Y-79524819D01*
X125266905Y-79524819D02*
X125647857Y-79524819D01*
X125647857Y-79524819D02*
X125743095Y-79572438D01*
X125743095Y-79572438D02*
X125790714Y-79620057D01*
X125790714Y-79620057D02*
X125838333Y-79715295D01*
X125838333Y-79715295D02*
X125838333Y-79858152D01*
X125838333Y-79858152D02*
X125790714Y-79953390D01*
X125790714Y-79953390D02*
X125743095Y-80001009D01*
X125743095Y-80001009D02*
X125647857Y-80048628D01*
X125647857Y-80048628D02*
X125266905Y-80048628D01*
X126790714Y-80524819D02*
X126219286Y-80524819D01*
X126505000Y-80524819D02*
X126505000Y-79524819D01*
X126505000Y-79524819D02*
X126409762Y-79667676D01*
X126409762Y-79667676D02*
X126314524Y-79762914D01*
X126314524Y-79762914D02*
X126219286Y-79810533D01*
X121828333Y-87959580D02*
X121780714Y-88007200D01*
X121780714Y-88007200D02*
X121637857Y-88054819D01*
X121637857Y-88054819D02*
X121542619Y-88054819D01*
X121542619Y-88054819D02*
X121399762Y-88007200D01*
X121399762Y-88007200D02*
X121304524Y-87911961D01*
X121304524Y-87911961D02*
X121256905Y-87816723D01*
X121256905Y-87816723D02*
X121209286Y-87626247D01*
X121209286Y-87626247D02*
X121209286Y-87483390D01*
X121209286Y-87483390D02*
X121256905Y-87292914D01*
X121256905Y-87292914D02*
X121304524Y-87197676D01*
X121304524Y-87197676D02*
X121399762Y-87102438D01*
X121399762Y-87102438D02*
X121542619Y-87054819D01*
X121542619Y-87054819D02*
X121637857Y-87054819D01*
X121637857Y-87054819D02*
X121780714Y-87102438D01*
X121780714Y-87102438D02*
X121828333Y-87150057D01*
X122733095Y-87054819D02*
X122256905Y-87054819D01*
X122256905Y-87054819D02*
X122209286Y-87531009D01*
X122209286Y-87531009D02*
X122256905Y-87483390D01*
X122256905Y-87483390D02*
X122352143Y-87435771D01*
X122352143Y-87435771D02*
X122590238Y-87435771D01*
X122590238Y-87435771D02*
X122685476Y-87483390D01*
X122685476Y-87483390D02*
X122733095Y-87531009D01*
X122733095Y-87531009D02*
X122780714Y-87626247D01*
X122780714Y-87626247D02*
X122780714Y-87864342D01*
X122780714Y-87864342D02*
X122733095Y-87959580D01*
X122733095Y-87959580D02*
X122685476Y-88007200D01*
X122685476Y-88007200D02*
X122590238Y-88054819D01*
X122590238Y-88054819D02*
X122352143Y-88054819D01*
X122352143Y-88054819D02*
X122256905Y-88007200D01*
X122256905Y-88007200D02*
X122209286Y-87959580D01*
X150166666Y-77604819D02*
X150166666Y-78319104D01*
X150166666Y-78319104D02*
X150119047Y-78461961D01*
X150119047Y-78461961D02*
X150023809Y-78557200D01*
X150023809Y-78557200D02*
X149880952Y-78604819D01*
X149880952Y-78604819D02*
X149785714Y-78604819D01*
X150595238Y-77700057D02*
X150642857Y-77652438D01*
X150642857Y-77652438D02*
X150738095Y-77604819D01*
X150738095Y-77604819D02*
X150976190Y-77604819D01*
X150976190Y-77604819D02*
X151071428Y-77652438D01*
X151071428Y-77652438D02*
X151119047Y-77700057D01*
X151119047Y-77700057D02*
X151166666Y-77795295D01*
X151166666Y-77795295D02*
X151166666Y-77890533D01*
X151166666Y-77890533D02*
X151119047Y-78033390D01*
X151119047Y-78033390D02*
X150547619Y-78604819D01*
X150547619Y-78604819D02*
X151166666Y-78604819D01*
X138261905Y-84454819D02*
X138261905Y-83454819D01*
X138261905Y-83454819D02*
X138500000Y-83454819D01*
X138500000Y-83454819D02*
X138642857Y-83502438D01*
X138642857Y-83502438D02*
X138738095Y-83597676D01*
X138738095Y-83597676D02*
X138785714Y-83692914D01*
X138785714Y-83692914D02*
X138833333Y-83883390D01*
X138833333Y-83883390D02*
X138833333Y-84026247D01*
X138833333Y-84026247D02*
X138785714Y-84216723D01*
X138785714Y-84216723D02*
X138738095Y-84311961D01*
X138738095Y-84311961D02*
X138642857Y-84407200D01*
X138642857Y-84407200D02*
X138500000Y-84454819D01*
X138500000Y-84454819D02*
X138261905Y-84454819D01*
X139690476Y-83788152D02*
X139690476Y-84454819D01*
X139452381Y-83407200D02*
X139214286Y-84121485D01*
X139214286Y-84121485D02*
X139833333Y-84121485D01*
X120581009Y-83333333D02*
X120581009Y-83666666D01*
X121104819Y-83666666D02*
X120104819Y-83666666D01*
X120104819Y-83666666D02*
X120104819Y-83190476D01*
X121104819Y-82285714D02*
X121104819Y-82857142D01*
X121104819Y-82571428D02*
X120104819Y-82571428D01*
X120104819Y-82571428D02*
X120247676Y-82666666D01*
X120247676Y-82666666D02*
X120342914Y-82761904D01*
X120342914Y-82761904D02*
X120390533Y-82857142D01*
D11*
%TO.C,D2*%
X136670000Y-88150000D02*
X136670000Y-89850000D01*
X136670000Y-88150000D02*
X139330000Y-88150000D01*
X136670000Y-89850000D02*
X139330000Y-89850000D01*
%TO.C,R3*%
X125767742Y-85997500D02*
X126242258Y-85997500D01*
X125767742Y-87042500D02*
X126242258Y-87042500D01*
%TO.C,R4*%
X125767742Y-88507500D02*
X126242258Y-88507500D01*
X125767742Y-89552500D02*
X126242258Y-89552500D01*
%TO.C,D5*%
X140227500Y-85765000D02*
X140227500Y-87235000D01*
X140227500Y-87235000D02*
X142512500Y-87235000D01*
X142512500Y-85765000D02*
X140227500Y-85765000D01*
%TO.C,C1*%
X121914420Y-80990000D02*
X122195580Y-80990000D01*
X121914420Y-82010000D02*
X122195580Y-82010000D01*
%TO.C,U1*%
X133770000Y-80890000D02*
X134495000Y-80890000D01*
X133770000Y-81615000D02*
X133770000Y-80890000D01*
X133770000Y-86110000D02*
X133770000Y-85385000D01*
X134495000Y-86110000D02*
X133770000Y-86110000D01*
X138265000Y-80890000D02*
X138990000Y-80890000D01*
X138990000Y-80890000D02*
X138990000Y-81615000D01*
X138990000Y-85385000D02*
X138990000Y-86110000D01*
X138990000Y-86110000D02*
X138265000Y-86110000D01*
X133270000Y-82000000D02*
X132940000Y-82240000D01*
X132940000Y-81760000D01*
X133270000Y-82000000D01*
G36*
X133270000Y-82000000D02*
G01*
X132940000Y-82240000D01*
X132940000Y-81760000D01*
X133270000Y-82000000D01*
G37*
%TO.C,R5*%
X133437742Y-88477500D02*
X133912258Y-88477500D01*
X133437742Y-89522500D02*
X133912258Y-89522500D01*
%TO.C,R2*%
X125767742Y-83487500D02*
X126242258Y-83487500D01*
X125767742Y-84532500D02*
X126242258Y-84532500D01*
%TO.C,C4*%
X121854420Y-86010000D02*
X122135580Y-86010000D01*
X121854420Y-87030000D02*
X122135580Y-87030000D01*
%TO.C,C3*%
X121854420Y-83500000D02*
X122135580Y-83500000D01*
X121854420Y-84520000D02*
X122135580Y-84520000D01*
%TO.C,D1*%
X116952500Y-87390000D02*
X118772500Y-87390000D01*
X116952500Y-87440000D02*
X116952500Y-87390000D01*
X116952500Y-90510000D02*
X116952500Y-90460000D01*
X118772500Y-87390000D02*
X118772500Y-87440000D01*
X118772500Y-90460000D02*
X118772500Y-90510000D01*
X118772500Y-90510000D02*
X116952500Y-90510000D01*
X116412500Y-87440000D02*
X116172500Y-87110000D01*
X116652500Y-87110000D01*
X116412500Y-87440000D01*
G36*
X116412500Y-87440000D02*
G01*
X116172500Y-87110000D01*
X116652500Y-87110000D01*
X116412500Y-87440000D01*
G37*
%TO.C,J1*%
X106555000Y-80550000D02*
X106555000Y-89950000D01*
X108455000Y-80550000D02*
X106555000Y-80550000D01*
X108455000Y-89950000D02*
X106555000Y-89950000D01*
X112355000Y-80550000D02*
X110355000Y-80550000D01*
X112355000Y-89950000D02*
X110355000Y-89950000D01*
%TO.C,R7*%
X129777742Y-83487500D02*
X130252258Y-83487500D01*
X129777742Y-84532500D02*
X130252258Y-84532500D01*
%TO.C,D3*%
X140227500Y-88265000D02*
X140227500Y-89735000D01*
X140227500Y-89735000D02*
X142512500Y-89735000D01*
X142512500Y-88265000D02*
X140227500Y-88265000D01*
%TO.C,R6*%
X129777742Y-80977500D02*
X130252258Y-80977500D01*
X129777742Y-82022500D02*
X130252258Y-82022500D01*
%TO.C,C6*%
X129504420Y-88490000D02*
X129785580Y-88490000D01*
X129504420Y-89510000D02*
X129785580Y-89510000D01*
%TO.C,R10*%
X129777742Y-85997500D02*
X130252258Y-85997500D01*
X129777742Y-87042500D02*
X130252258Y-87042500D01*
%TO.C,R1*%
X125767742Y-80977500D02*
X126242258Y-80977500D01*
X125767742Y-82022500D02*
X126242258Y-82022500D01*
%TO.C,C5*%
X121854420Y-88520000D02*
X122135580Y-88520000D01*
X121854420Y-89540000D02*
X122135580Y-89540000D01*
%TO.C,J2*%
X144845000Y-79150000D02*
X146115000Y-79150000D01*
X144845000Y-80420000D02*
X144845000Y-79150000D01*
X147192358Y-82530000D02*
X147505000Y-82530000D01*
X147192358Y-83390000D02*
X147505000Y-83390000D01*
X147192358Y-85070000D02*
X147505000Y-85070000D01*
X147192358Y-85930000D02*
X147505000Y-85930000D01*
X147192358Y-87610000D02*
X147505000Y-87610000D01*
X147192358Y-88470000D02*
X147505000Y-88470000D01*
X147192358Y-90150000D02*
X147505000Y-90150000D01*
X147192358Y-91010000D02*
X147505000Y-91010000D01*
X147275000Y-79990000D02*
X147505000Y-79990000D01*
X147275000Y-80850000D02*
X147505000Y-80850000D01*
X147505000Y-81690000D02*
X150265000Y-81690000D01*
X147505000Y-84230000D02*
X150265000Y-84230000D01*
X147505000Y-86770000D02*
X150265000Y-86770000D01*
X147505000Y-89310000D02*
X150265000Y-89310000D01*
X150265000Y-82530000D02*
X156265000Y-82530000D01*
X150265000Y-85070000D02*
X156265000Y-85070000D01*
X150265000Y-87610000D02*
X156265000Y-87610000D01*
X150265000Y-90150000D02*
X156265000Y-90150000D01*
X156265000Y-82530000D02*
X156265000Y-83390000D01*
X156265000Y-83390000D02*
X150265000Y-83390000D01*
X156265000Y-85070000D02*
X156265000Y-85930000D01*
X156265000Y-85930000D02*
X150265000Y-85930000D01*
X156265000Y-87610000D02*
X156265000Y-88470000D01*
X156265000Y-88470000D02*
X150265000Y-88470000D01*
X156265000Y-90150000D02*
X156265000Y-91010000D01*
X156265000Y-91010000D02*
X150265000Y-91010000D01*
X147505000Y-79040000D02*
X150265000Y-79040000D01*
X150265000Y-91960000D01*
X147505000Y-91960000D01*
X147505000Y-79040000D01*
X150265000Y-79990000D02*
X156265000Y-79990000D01*
X156265000Y-80850000D01*
X150265000Y-80850000D01*
X150265000Y-79990000D01*
G36*
X150265000Y-79990000D02*
G01*
X156265000Y-79990000D01*
X156265000Y-80850000D01*
X150265000Y-80850000D01*
X150265000Y-79990000D01*
G37*
%TO.C,D4*%
X140227500Y-83265000D02*
X140227500Y-84735000D01*
X140227500Y-84735000D02*
X142512500Y-84735000D01*
X142512500Y-83265000D02*
X140227500Y-83265000D01*
%TO.C,F1*%
X116290000Y-81613748D02*
X116290000Y-84386252D01*
X119710000Y-81613748D02*
X119710000Y-84386252D01*
%TD*%
M02*
