%TF.GenerationSoftware,KiCad,Pcbnew,9.0.7*%
%TF.CreationDate,2026-03-06T14:26:26+05:30*%
%TF.ProjectId,usb to uart,75736220-746f-4207-9561-72742e6b6963,rev?*%
%TF.SameCoordinates,Original*%
%TF.FileFunction,Legend,Bot*%
%TF.FilePolarity,Positive*%
%FSLAX46Y46*%
G04 Gerber Fmt 4.6, Leading zero omitted, Abs format (unit mm)*
G04 Created by KiCad (PCBNEW 9.0.7) date 2026-03-06 14:26:26*
%MOMM*%
%LPD*%
G01*
G04 APERTURE LIST*
%ADD10C,0.000000*%
G04 APERTURE END LIST*
D10*
%TO.C,REF\u002A\u002A*%
G36*
X121929339Y-91792414D02*
G01*
X118433777Y-91792414D01*
X118433777Y-90941218D01*
X121929339Y-90941218D01*
X121929339Y-91792414D01*
G37*
G36*
X120909894Y-89210495D02*
G01*
X120915855Y-89210949D01*
X120921729Y-89211695D01*
X120927508Y-89212727D01*
X120933187Y-89214038D01*
X120938756Y-89215620D01*
X120944210Y-89217465D01*
X120949540Y-89219567D01*
X120954739Y-89221917D01*
X120959800Y-89224509D01*
X120964715Y-89227336D01*
X120969477Y-89230389D01*
X120974079Y-89233661D01*
X120978513Y-89237146D01*
X120982772Y-89240835D01*
X120986848Y-89244721D01*
X120990735Y-89248798D01*
X120994424Y-89253057D01*
X120997908Y-89257491D01*
X121001181Y-89262093D01*
X121004234Y-89266855D01*
X121007060Y-89271770D01*
X121009652Y-89276831D01*
X121012003Y-89282030D01*
X121014105Y-89287360D01*
X121015950Y-89292813D01*
X121017532Y-89298383D01*
X121018842Y-89304061D01*
X121019875Y-89309841D01*
X121020621Y-89315715D01*
X121021074Y-89321675D01*
X121021227Y-89327715D01*
X121021074Y-89333755D01*
X121020621Y-89339715D01*
X121019875Y-89345589D01*
X121018842Y-89351368D01*
X121017532Y-89357046D01*
X121015950Y-89362616D01*
X121014105Y-89368069D01*
X121012003Y-89373399D01*
X121009652Y-89378597D01*
X121007060Y-89383658D01*
X121004234Y-89388573D01*
X121001181Y-89393334D01*
X120997908Y-89397936D01*
X120994424Y-89402369D01*
X120990735Y-89406628D01*
X120986848Y-89410703D01*
X120982772Y-89414589D01*
X120978513Y-89418278D01*
X120974079Y-89421762D01*
X120969477Y-89425034D01*
X120964715Y-89428087D01*
X120959800Y-89430913D01*
X120954739Y-89433504D01*
X120949540Y-89435855D01*
X120944210Y-89437956D01*
X120938756Y-89439801D01*
X120933187Y-89441383D01*
X120927508Y-89442693D01*
X120921729Y-89443725D01*
X120915855Y-89444471D01*
X120909894Y-89444925D01*
X120903855Y-89445077D01*
X120897815Y-89444925D01*
X120891855Y-89444471D01*
X120885981Y-89443725D01*
X120880201Y-89442693D01*
X120874523Y-89441383D01*
X120868953Y-89439801D01*
X120863500Y-89437956D01*
X120858170Y-89435855D01*
X120852970Y-89433504D01*
X120847910Y-89430913D01*
X120842994Y-89428087D01*
X120838232Y-89425034D01*
X120833630Y-89421762D01*
X120829196Y-89418278D01*
X120824937Y-89414589D01*
X120820861Y-89410703D01*
X120816975Y-89406628D01*
X120813285Y-89402369D01*
X120809801Y-89397936D01*
X120806528Y-89393334D01*
X120803475Y-89388572D01*
X120800649Y-89383658D01*
X120798057Y-89378597D01*
X120795706Y-89373399D01*
X120793605Y-89368069D01*
X120791759Y-89362616D01*
X120790178Y-89357046D01*
X120788867Y-89351368D01*
X120787835Y-89345589D01*
X120787088Y-89339715D01*
X120786635Y-89333755D01*
X120786482Y-89327715D01*
X120786635Y-89321676D01*
X120787088Y-89315715D01*
X120787835Y-89309841D01*
X120788867Y-89304062D01*
X120790178Y-89298383D01*
X120791759Y-89292814D01*
X120793605Y-89287360D01*
X120795706Y-89282030D01*
X120798057Y-89276831D01*
X120800649Y-89271770D01*
X120803475Y-89266855D01*
X120806528Y-89262093D01*
X120809801Y-89257491D01*
X120813285Y-89253057D01*
X120816975Y-89248798D01*
X120820861Y-89244722D01*
X120824937Y-89240835D01*
X120829196Y-89237146D01*
X120833630Y-89233661D01*
X120838232Y-89230389D01*
X120842994Y-89227336D01*
X120847910Y-89224510D01*
X120852970Y-89221917D01*
X120858170Y-89219567D01*
X120863500Y-89217465D01*
X120868953Y-89215620D01*
X120874523Y-89214038D01*
X120880201Y-89212727D01*
X120885981Y-89211695D01*
X120891855Y-89210949D01*
X120897815Y-89210495D01*
X120903855Y-89210343D01*
X120909894Y-89210495D01*
G37*
G36*
X122320808Y-85927235D02*
G01*
X121397785Y-86867430D01*
X121416999Y-86867430D01*
X121416999Y-87288117D01*
X121142209Y-87288117D01*
X120995478Y-88862478D01*
X122080875Y-90005587D01*
X122008868Y-90073925D01*
X121246551Y-89269773D01*
X121247664Y-89276862D01*
X121248634Y-89283998D01*
X121249459Y-89291180D01*
X121250138Y-89298405D01*
X121250669Y-89305672D01*
X121251050Y-89312981D01*
X121251280Y-89320329D01*
X121251357Y-89327715D01*
X121250905Y-89345598D01*
X121249563Y-89363246D01*
X121247353Y-89380637D01*
X121244297Y-89397750D01*
X121240417Y-89414562D01*
X121235734Y-89431052D01*
X121230271Y-89447198D01*
X121224049Y-89462979D01*
X121217090Y-89478371D01*
X121209416Y-89493355D01*
X121201049Y-89507907D01*
X121192010Y-89522005D01*
X121182322Y-89535629D01*
X121172006Y-89548756D01*
X121161084Y-89561365D01*
X121149578Y-89573433D01*
X121137510Y-89584938D01*
X121124902Y-89595860D01*
X121111774Y-89606176D01*
X121098150Y-89615864D01*
X121084052Y-89624902D01*
X121069500Y-89633269D01*
X121054516Y-89640942D01*
X121039124Y-89647901D01*
X121023344Y-89654123D01*
X121007198Y-89659586D01*
X120990708Y-89664268D01*
X120973896Y-89668148D01*
X120956784Y-89671204D01*
X120939393Y-89673413D01*
X120921746Y-89674755D01*
X120903864Y-89675207D01*
X120879092Y-89674338D01*
X120854788Y-89671769D01*
X120831012Y-89667559D01*
X120807821Y-89661766D01*
X120785276Y-89654449D01*
X120763433Y-89645666D01*
X120742352Y-89635475D01*
X120722091Y-89623936D01*
X120702709Y-89611106D01*
X120684264Y-89597045D01*
X120666814Y-89581810D01*
X120650419Y-89565460D01*
X120635136Y-89548054D01*
X120621024Y-89529649D01*
X120608143Y-89510305D01*
X120596549Y-89490080D01*
X119746771Y-89490080D01*
X119746771Y-89671608D01*
X119523196Y-89671608D01*
X119523196Y-89489617D01*
X119520746Y-89489211D01*
X119518305Y-89488684D01*
X119515879Y-89488039D01*
X119513471Y-89487282D01*
X119511085Y-89486415D01*
X119508726Y-89485442D01*
X119506396Y-89484366D01*
X119504101Y-89483192D01*
X119499629Y-89480563D01*
X119495342Y-89477582D01*
X119491272Y-89474280D01*
X119487450Y-89470687D01*
X119483909Y-89466830D01*
X119480680Y-89462739D01*
X119477795Y-89458445D01*
X119476492Y-89456230D01*
X119475287Y-89453975D01*
X119474184Y-89451684D01*
X119473188Y-89449360D01*
X119472301Y-89447007D01*
X119471528Y-89444628D01*
X119470874Y-89442228D01*
X119470341Y-89439809D01*
X119469934Y-89437377D01*
X119469658Y-89434933D01*
X119421921Y-88880073D01*
X118237530Y-90086503D01*
X118166728Y-90016928D01*
X119395348Y-88766662D01*
X119533250Y-88766662D01*
X119585100Y-89369440D01*
X120558826Y-89369440D01*
X120558252Y-89364297D01*
X120557752Y-89359133D01*
X120557327Y-89353946D01*
X120556978Y-89348740D01*
X120556706Y-89343512D01*
X120556510Y-89338265D01*
X120556392Y-89333000D01*
X120556352Y-89327715D01*
X120723131Y-89327715D01*
X120723366Y-89337015D01*
X120724064Y-89346193D01*
X120725213Y-89355237D01*
X120726802Y-89364136D01*
X120728820Y-89372880D01*
X120731255Y-89381456D01*
X120734096Y-89389853D01*
X120737332Y-89398060D01*
X120740951Y-89406065D01*
X120744942Y-89413857D01*
X120749293Y-89421425D01*
X120753994Y-89428758D01*
X120759032Y-89435844D01*
X120764397Y-89442671D01*
X120770077Y-89449228D01*
X120776061Y-89455505D01*
X120782337Y-89461489D01*
X120788895Y-89467169D01*
X120795722Y-89472534D01*
X120802807Y-89477573D01*
X120810140Y-89482274D01*
X120817708Y-89486626D01*
X120825500Y-89490617D01*
X120833506Y-89494236D01*
X120841713Y-89497472D01*
X120850110Y-89500313D01*
X120858686Y-89502749D01*
X120867430Y-89504767D01*
X120876330Y-89506356D01*
X120885375Y-89507506D01*
X120894554Y-89508204D01*
X120903854Y-89508439D01*
X120913154Y-89508204D01*
X120922332Y-89507506D01*
X120931376Y-89506356D01*
X120940276Y-89504767D01*
X120949019Y-89502749D01*
X120957595Y-89500313D01*
X120965992Y-89497472D01*
X120974199Y-89494236D01*
X120982204Y-89490617D01*
X120989997Y-89486626D01*
X120997565Y-89482274D01*
X121004897Y-89477573D01*
X121011983Y-89472534D01*
X121018810Y-89467169D01*
X121025368Y-89461489D01*
X121031644Y-89455505D01*
X121037628Y-89449228D01*
X121043309Y-89442671D01*
X121048674Y-89435844D01*
X121053712Y-89428758D01*
X121058413Y-89421425D01*
X121062765Y-89413857D01*
X121066756Y-89406065D01*
X121070375Y-89398060D01*
X121073611Y-89389853D01*
X121076453Y-89381456D01*
X121078888Y-89372880D01*
X121080906Y-89364136D01*
X121082496Y-89355237D01*
X121083645Y-89346193D01*
X121084343Y-89337015D01*
X121084578Y-89327715D01*
X121084343Y-89318415D01*
X121083645Y-89309236D01*
X121082496Y-89300191D01*
X121080906Y-89291291D01*
X121078888Y-89282547D01*
X121076453Y-89273971D01*
X121073611Y-89265574D01*
X121070375Y-89257366D01*
X121066756Y-89249361D01*
X121062765Y-89241568D01*
X121058413Y-89234000D01*
X121053712Y-89226668D01*
X121048674Y-89219582D01*
X121043309Y-89212755D01*
X121037628Y-89206198D01*
X121031644Y-89199922D01*
X121025368Y-89193938D01*
X121018810Y-89188258D01*
X121011983Y-89182893D01*
X121004897Y-89177854D01*
X120997565Y-89173154D01*
X120989997Y-89168802D01*
X120982204Y-89164812D01*
X120974199Y-89161193D01*
X120965992Y-89157957D01*
X120957595Y-89155116D01*
X120949019Y-89152681D01*
X120940276Y-89150663D01*
X120931376Y-89149074D01*
X120922332Y-89147924D01*
X120913154Y-89147226D01*
X120903854Y-89146991D01*
X120894554Y-89147226D01*
X120885375Y-89147924D01*
X120876331Y-89149074D01*
X120867430Y-89150663D01*
X120858687Y-89152681D01*
X120850110Y-89155116D01*
X120841713Y-89157957D01*
X120833506Y-89161193D01*
X120825500Y-89164812D01*
X120817708Y-89168802D01*
X120810140Y-89173154D01*
X120802807Y-89177854D01*
X120795722Y-89182893D01*
X120788895Y-89188258D01*
X120782337Y-89193938D01*
X120776061Y-89199922D01*
X120770077Y-89206198D01*
X120764397Y-89212755D01*
X120759032Y-89219582D01*
X120753994Y-89226668D01*
X120749293Y-89234000D01*
X120744942Y-89241568D01*
X120740951Y-89249361D01*
X120737332Y-89257366D01*
X120734096Y-89265574D01*
X120731255Y-89273971D01*
X120728820Y-89282547D01*
X120726802Y-89291291D01*
X120725213Y-89300191D01*
X120724064Y-89309236D01*
X120723366Y-89318415D01*
X120723131Y-89327715D01*
X120556352Y-89327715D01*
X120556742Y-89311109D01*
X120557900Y-89294704D01*
X120559808Y-89278517D01*
X120562449Y-89262567D01*
X120565806Y-89246869D01*
X120569860Y-89231442D01*
X120574595Y-89216304D01*
X120579994Y-89201471D01*
X120586038Y-89186961D01*
X120592710Y-89172792D01*
X120599993Y-89158980D01*
X120607869Y-89145545D01*
X120616321Y-89132502D01*
X120625332Y-89119870D01*
X120634883Y-89107665D01*
X120644958Y-89095906D01*
X120655539Y-89084610D01*
X120666609Y-89073794D01*
X120678150Y-89063476D01*
X120690144Y-89053673D01*
X120702574Y-89044402D01*
X120715424Y-89035682D01*
X120728674Y-89027529D01*
X120742308Y-89019961D01*
X120756309Y-89012996D01*
X120770658Y-89006651D01*
X120785339Y-89000943D01*
X120800334Y-88995890D01*
X120815626Y-88991509D01*
X120831196Y-88987818D01*
X120847029Y-88984835D01*
X120863105Y-88982576D01*
X120873059Y-88875790D01*
X120162239Y-88125971D01*
X119533250Y-88766662D01*
X119395348Y-88766662D01*
X119410811Y-88750928D01*
X119288783Y-87332325D01*
X119409876Y-87332325D01*
X119522161Y-88637617D01*
X120093077Y-88056637D01*
X120230306Y-88056637D01*
X120885124Y-88746273D01*
X121021016Y-87288117D01*
X121007613Y-87288117D01*
X121007613Y-87264852D01*
X120230306Y-88056637D01*
X120093077Y-88056637D01*
X120094826Y-88054857D01*
X119409876Y-87332325D01*
X119288783Y-87332325D01*
X119276698Y-87191838D01*
X118093162Y-85943362D01*
X118093162Y-85805871D01*
X119263497Y-87038432D01*
X119233091Y-86684957D01*
X119354186Y-86684957D01*
X119396654Y-87178667D01*
X120162862Y-87985615D01*
X120616074Y-87524430D01*
X119977112Y-87524430D01*
X119977112Y-87283130D01*
X120716103Y-87283130D01*
X120716103Y-87422632D01*
X120954902Y-87179632D01*
X121152303Y-87179632D01*
X121311411Y-87179632D01*
X121311411Y-86975935D01*
X121291272Y-86975935D01*
X121158707Y-87110962D01*
X121152303Y-87179632D01*
X120954902Y-87179632D01*
X121007613Y-87125993D01*
X121007613Y-86867451D01*
X121060217Y-86867451D01*
X121077218Y-86684957D01*
X119354186Y-86684957D01*
X119233091Y-86684957D01*
X119232661Y-86679960D01*
X119087318Y-86679960D01*
X119087318Y-86559310D01*
X119215197Y-86559310D01*
X119670490Y-86559310D01*
X121072483Y-86559310D01*
X121066864Y-86547341D01*
X121060344Y-86535769D01*
X121052951Y-86524589D01*
X121044715Y-86513794D01*
X121035665Y-86503377D01*
X121025829Y-86493332D01*
X121015238Y-86483652D01*
X121003921Y-86474330D01*
X120991906Y-86465360D01*
X120979224Y-86456736D01*
X120965903Y-86448451D01*
X120951973Y-86440498D01*
X120922400Y-86425564D01*
X120890741Y-86411880D01*
X120857229Y-86399394D01*
X120822098Y-86388055D01*
X120785583Y-86377809D01*
X120747916Y-86368604D01*
X120709332Y-86360387D01*
X120670064Y-86353107D01*
X120630348Y-86346710D01*
X120590426Y-86341146D01*
X120590426Y-86453752D01*
X119997240Y-86453752D01*
X119997240Y-86333102D01*
X119997240Y-86328457D01*
X119957367Y-86331714D01*
X119916719Y-86335631D01*
X119875545Y-86340258D01*
X119834095Y-86345644D01*
X119792615Y-86351842D01*
X119751356Y-86358900D01*
X119710564Y-86366870D01*
X119670490Y-86375802D01*
X119670490Y-86559310D01*
X119215197Y-86559310D01*
X119215200Y-86559300D01*
X119344192Y-86559300D01*
X119464319Y-86559300D01*
X119464319Y-86449519D01*
X119454255Y-86455142D01*
X119444485Y-86460921D01*
X119435019Y-86466857D01*
X119425867Y-86472953D01*
X119417039Y-86479210D01*
X119408546Y-86485631D01*
X119400396Y-86492218D01*
X119392601Y-86498973D01*
X119385171Y-86505897D01*
X119378114Y-86512994D01*
X119371441Y-86520265D01*
X119365163Y-86527711D01*
X119359289Y-86535336D01*
X119353829Y-86543141D01*
X119348793Y-86551129D01*
X119344192Y-86559300D01*
X119215200Y-86559300D01*
X119216056Y-86556716D01*
X119216985Y-86554017D01*
X119217986Y-86551215D01*
X119219060Y-86548314D01*
X119220211Y-86545315D01*
X119221441Y-86542222D01*
X119222751Y-86539038D01*
X119224145Y-86535763D01*
X119232643Y-86517663D01*
X119242168Y-86500207D01*
X119252687Y-86483386D01*
X119264165Y-86467187D01*
X119276569Y-86451599D01*
X119289864Y-86436612D01*
X119304016Y-86422214D01*
X119318991Y-86408392D01*
X119334755Y-86395137D01*
X119351274Y-86382436D01*
X119360683Y-86375802D01*
X119368514Y-86370279D01*
X119386440Y-86358654D01*
X119405019Y-86347549D01*
X119424216Y-86336954D01*
X119443997Y-86326857D01*
X119464329Y-86317246D01*
X119464329Y-86277784D01*
X120117870Y-86277784D01*
X120117870Y-86333102D01*
X120469756Y-86333102D01*
X120469756Y-86277784D01*
X120117870Y-86277784D01*
X119464329Y-86277784D01*
X119464329Y-86237507D01*
X119670490Y-86237507D01*
X119670490Y-86249843D01*
X119711029Y-86241106D01*
X119751982Y-86233370D01*
X119793185Y-86226580D01*
X119834476Y-86220682D01*
X119875690Y-86215622D01*
X119916664Y-86211345D01*
X119957235Y-86207796D01*
X119997240Y-86204921D01*
X119997240Y-86157144D01*
X120590426Y-86157144D01*
X120590426Y-86218295D01*
X120670683Y-86229867D01*
X120710604Y-86236957D01*
X120750157Y-86244986D01*
X120789173Y-86254006D01*
X120827483Y-86264072D01*
X120864918Y-86275236D01*
X120901310Y-86287550D01*
X120936488Y-86301068D01*
X120970283Y-86315842D01*
X121002527Y-86331926D01*
X121033051Y-86349371D01*
X121061685Y-86368232D01*
X121088260Y-86388561D01*
X121112607Y-86410411D01*
X121134557Y-86433834D01*
X121140267Y-86426964D01*
X121146344Y-86420424D01*
X121152772Y-86414229D01*
X121159535Y-86408395D01*
X121166617Y-86402938D01*
X121174003Y-86397874D01*
X121181678Y-86393217D01*
X121189625Y-86388984D01*
X121197830Y-86385190D01*
X121206275Y-86381852D01*
X121214946Y-86378984D01*
X121223828Y-86376602D01*
X121232903Y-86374723D01*
X121242157Y-86373361D01*
X121251575Y-86372532D01*
X121261139Y-86372253D01*
X121269418Y-86372462D01*
X121277588Y-86373083D01*
X121285639Y-86374106D01*
X121293561Y-86375521D01*
X121301344Y-86377317D01*
X121308978Y-86379484D01*
X121316452Y-86382013D01*
X121323758Y-86384894D01*
X121330884Y-86388115D01*
X121337820Y-86391667D01*
X121344557Y-86395541D01*
X121351083Y-86399725D01*
X121357390Y-86404210D01*
X121363467Y-86408985D01*
X121369304Y-86414041D01*
X121374891Y-86419368D01*
X121380217Y-86424954D01*
X121385273Y-86430791D01*
X121390049Y-86436868D01*
X121394534Y-86443175D01*
X121398718Y-86449702D01*
X121402591Y-86456439D01*
X121406144Y-86463375D01*
X121409365Y-86470501D01*
X121412245Y-86477806D01*
X121414774Y-86485281D01*
X121416942Y-86492915D01*
X121418738Y-86500698D01*
X121420153Y-86508620D01*
X121421176Y-86516671D01*
X121421797Y-86524841D01*
X121422006Y-86533119D01*
X121421797Y-86541397D01*
X121421176Y-86549566D01*
X121420153Y-86557616D01*
X121418738Y-86565538D01*
X121416942Y-86573320D01*
X121414774Y-86580954D01*
X121412245Y-86588428D01*
X121409365Y-86595733D01*
X121406144Y-86602859D01*
X121402591Y-86609795D01*
X121398718Y-86616532D01*
X121394534Y-86623059D01*
X121390049Y-86629366D01*
X121385273Y-86635443D01*
X121380217Y-86641280D01*
X121374891Y-86646867D01*
X121369304Y-86652194D01*
X121363467Y-86657250D01*
X121357390Y-86662026D01*
X121351083Y-86666511D01*
X121344557Y-86670695D01*
X121337820Y-86674569D01*
X121330884Y-86678122D01*
X121323758Y-86681343D01*
X121316452Y-86684224D01*
X121308978Y-86686753D01*
X121301344Y-86688921D01*
X121293561Y-86690717D01*
X121285639Y-86692132D01*
X121277588Y-86693155D01*
X121269418Y-86693777D01*
X121261139Y-86693986D01*
X121257004Y-86693934D01*
X121252895Y-86693778D01*
X121248812Y-86693521D01*
X121244758Y-86693162D01*
X121240732Y-86692704D01*
X121236738Y-86692147D01*
X121232775Y-86691493D01*
X121228845Y-86690743D01*
X121224950Y-86689899D01*
X121221091Y-86688961D01*
X121217268Y-86687930D01*
X121213484Y-86686809D01*
X121209739Y-86685598D01*
X121206034Y-86684298D01*
X121202372Y-86682911D01*
X121198753Y-86681438D01*
X121181410Y-86867440D01*
X121261702Y-86867440D01*
X122320808Y-85789674D01*
X122320808Y-85927235D01*
G37*
%TD*%
M02*
