%TF.GenerationSoftware,KiCad,Pcbnew,9.0.7*%
%TF.CreationDate,2026-03-06T12:03:16+05:30*%
%TF.ProjectId,usb to uart,75736220-746f-4207-9561-72742e6b6963,rev?*%
%TF.SameCoordinates,Original*%
%TF.FileFunction,Copper,L2,Bot*%
%TF.FilePolarity,Positive*%
%FSLAX46Y46*%
G04 Gerber Fmt 4.6, Leading zero omitted, Abs format (unit mm)*
G04 Created by KiCad (PCBNEW 9.0.7) date 2026-03-06 12:03:16*
%MOMM*%
%LPD*%
G01*
G04 APERTURE LIST*
%TA.AperFunction,HeatsinkPad*%
%ADD10O,2.100000X1.000000*%
%TD*%
%TA.AperFunction,HeatsinkPad*%
%ADD11O,1.600000X1.000000*%
%TD*%
%TA.AperFunction,ComponentPad*%
%ADD12R,1.700000X1.700000*%
%TD*%
%TA.AperFunction,ComponentPad*%
%ADD13C,1.700000*%
%TD*%
%TA.AperFunction,ViaPad*%
%ADD14C,0.600000*%
%TD*%
%TA.AperFunction,Conductor*%
%ADD15C,0.300000*%
%TD*%
G04 APERTURE END LIST*
D10*
%TO.P,J1,S1,SHIELD*%
%TO.N,GND*%
X113585000Y-80930000D03*
D11*
X109405000Y-80930000D03*
D10*
X113585000Y-89570000D03*
D11*
X109405000Y-89570000D03*
%TD*%
D12*
%TO.P,J2,1,Pin_1*%
%TO.N,GND*%
X146115000Y-80420000D03*
D13*
%TO.P,J2,2,Pin_2*%
%TO.N,/UART_TX*%
X146115000Y-82960000D03*
%TO.P,J2,3,Pin_3*%
%TO.N,/UART_RX*%
X146115000Y-85500000D03*
%TO.P,J2,4,Pin_4*%
%TO.N,/VBUS*%
X146115000Y-88040000D03*
%TO.P,J2,5,Pin_5*%
%TO.N,unconnected-(J2-Pin_5-Pad5)*%
X146115000Y-90580000D03*
%TD*%
D14*
%TO.N,GND*%
X135000000Y-82500000D03*
X136000000Y-82500000D03*
X136000000Y-83500000D03*
X136380000Y-83500000D03*
X136380000Y-83500000D03*
X136380000Y-83500000D03*
X137500000Y-83000000D03*
X136380000Y-83500000D03*
X137000000Y-84500000D03*
X137000000Y-82500000D03*
X135500000Y-84500000D03*
X137000000Y-83500000D03*
X136380000Y-83500000D03*
X136380000Y-83500000D03*
X136000000Y-82500000D03*
X137500000Y-84000000D03*
X136380000Y-83500000D03*
X135500000Y-83000000D03*
X136380000Y-83500000D03*
X136500000Y-84000000D03*
X135500000Y-82500000D03*
X136380000Y-83500000D03*
X135500000Y-84000000D03*
X136380000Y-83500000D03*
X136000000Y-84000000D03*
X135500000Y-82500000D03*
X136380000Y-83500000D03*
X136380000Y-83500000D03*
X137000000Y-82500000D03*
X135000000Y-84000000D03*
X136380000Y-83500000D03*
X135000000Y-84500000D03*
X136380000Y-83500000D03*
X137500000Y-84500000D03*
X136380000Y-83500000D03*
X136380000Y-83500000D03*
X136380000Y-83500000D03*
X136380000Y-83500000D03*
X136380000Y-83500000D03*
X137500000Y-83500000D03*
X137000000Y-83000000D03*
X136380000Y-83500000D03*
X137000000Y-84000000D03*
X136380000Y-83500000D03*
X135500000Y-83000000D03*
X136380000Y-83500000D03*
X136380000Y-83500000D03*
X135500000Y-83500000D03*
X136000000Y-83000000D03*
X136500000Y-83000000D03*
X136380000Y-83500000D03*
X136380000Y-83500000D03*
X136380000Y-83500000D03*
X136380000Y-83500000D03*
X136000000Y-83500000D03*
X136000000Y-84000000D03*
X136500000Y-84500000D03*
X136000000Y-84500000D03*
X136380000Y-83500000D03*
X136380000Y-83500000D03*
X136380000Y-83500000D03*
X137500000Y-84000000D03*
X136380000Y-83500000D03*
X135000000Y-83500000D03*
X136500000Y-84500000D03*
X136500000Y-82500000D03*
X136500000Y-83000000D03*
X136380000Y-83500000D03*
X136380000Y-83500000D03*
X137500000Y-83000000D03*
X135000000Y-82500000D03*
X137500000Y-82500000D03*
X136000000Y-82500000D03*
X136380000Y-83500000D03*
X136380000Y-83500000D03*
X136380000Y-83500000D03*
X135000000Y-83000000D03*
X137000000Y-83500000D03*
X136380000Y-83500000D03*
X136380000Y-83500000D03*
X136380000Y-83500000D03*
X136380000Y-83500000D03*
X135500000Y-84500000D03*
X136380000Y-83500000D03*
%TO.N,Net-(U1-~{RST})*%
X135500000Y-87000000D03*
X129250000Y-90250000D03*
%TO.N,Net-(D4-K)*%
X140500000Y-83000000D03*
X132000000Y-81500000D03*
%TO.N,Net-(D5-K)*%
X139500000Y-86500000D03*
X132000000Y-82500000D03*
%TO.N,Net-(J1-CC2)*%
X116000000Y-87000000D03*
X124030331Y-84750000D03*
%TO.N,/UART_TX*%
X133500000Y-80000000D03*
%TO.N,/USB_DP*%
X133000000Y-85500000D03*
X127800500Y-86300500D03*
%TO.N,/USB_DM*%
X132000000Y-91000000D03*
X132000000Y-86500000D03*
%TD*%
D15*
%TO.N,Net-(U1-~{RST})*%
X135151000Y-91849000D02*
X130849000Y-91849000D01*
X130849000Y-91849000D02*
X129250000Y-90250000D01*
X135500000Y-87000000D02*
X135500000Y-91500000D01*
X135500000Y-91500000D02*
X135151000Y-91849000D01*
%TO.N,Net-(D4-K)*%
X139000000Y-81500000D02*
X140500000Y-83000000D01*
X132000000Y-81500000D02*
X139000000Y-81500000D01*
%TO.N,Net-(D5-K)*%
X136000000Y-86500000D02*
X139500000Y-86500000D01*
X132000000Y-82500000D02*
X136000000Y-86500000D01*
%TO.N,Net-(J1-CC2)*%
X124030331Y-84969669D02*
X124000000Y-85000000D01*
X120500000Y-87500000D02*
X120000000Y-87000000D01*
X124030331Y-84750000D02*
X124030331Y-84969669D01*
X123500000Y-87500000D02*
X120500000Y-87500000D01*
X124000000Y-87000000D02*
X123500000Y-87500000D01*
X120000000Y-87000000D02*
X116000000Y-87000000D01*
X124030331Y-84750000D02*
X124000000Y-84719669D01*
X124000000Y-85000000D02*
X124000000Y-87000000D01*
%TO.N,/UART_TX*%
X133500000Y-80000000D02*
X141000000Y-80000000D01*
X141000000Y-80000000D02*
X143960000Y-82960000D01*
X146115000Y-82960000D02*
X143960000Y-82960000D01*
%TO.N,/USB_DP*%
X131000000Y-85000000D02*
X131500000Y-85500000D01*
X131500000Y-85500000D02*
X133000000Y-85500000D01*
X127800500Y-86300500D02*
X129101000Y-85000000D01*
X129101000Y-85000000D02*
X131000000Y-85000000D01*
%TO.N,/USB_DM*%
X132000000Y-86500000D02*
X132000000Y-91000000D01*
%TD*%
%TA.AperFunction,Conductor*%
%TO.N,GND*%
G36*
X146942539Y-78520185D02*
G01*
X146988294Y-78572989D01*
X146999500Y-78624500D01*
X146999500Y-78946000D01*
X146979815Y-79013039D01*
X146927011Y-79058794D01*
X146875500Y-79070000D01*
X146365000Y-79070000D01*
X146365000Y-79986988D01*
X146307993Y-79954075D01*
X146180826Y-79920000D01*
X146049174Y-79920000D01*
X145922007Y-79954075D01*
X145865000Y-79986988D01*
X145865000Y-79070000D01*
X145217155Y-79070000D01*
X145157627Y-79076401D01*
X145157620Y-79076403D01*
X145022913Y-79126645D01*
X145022906Y-79126649D01*
X144907812Y-79212809D01*
X144907809Y-79212812D01*
X144821649Y-79327906D01*
X144821645Y-79327913D01*
X144771403Y-79462620D01*
X144771401Y-79462627D01*
X144765000Y-79522155D01*
X144765000Y-80170000D01*
X145681988Y-80170000D01*
X145649075Y-80227007D01*
X145615000Y-80354174D01*
X145615000Y-80485826D01*
X145649075Y-80612993D01*
X145681988Y-80670000D01*
X144765000Y-80670000D01*
X144765000Y-81317844D01*
X144771401Y-81377372D01*
X144771403Y-81377379D01*
X144821645Y-81512086D01*
X144821649Y-81512093D01*
X144907809Y-81627187D01*
X144907812Y-81627190D01*
X145022906Y-81713350D01*
X145022913Y-81713354D01*
X145154470Y-81762422D01*
X145210404Y-81804293D01*
X145234821Y-81869758D01*
X145219969Y-81938031D01*
X145198819Y-81966285D01*
X145084889Y-82080215D01*
X144957085Y-82256125D01*
X144955740Y-82255148D01*
X144909295Y-82297166D01*
X144855382Y-82309500D01*
X144280807Y-82309500D01*
X144213768Y-82289815D01*
X144193126Y-82273181D01*
X141526479Y-79606532D01*
X141414673Y-79494726D01*
X141414669Y-79494723D01*
X141308127Y-79423535D01*
X141189744Y-79374499D01*
X141189738Y-79374497D01*
X141064071Y-79349500D01*
X141064069Y-79349500D01*
X134004935Y-79349500D01*
X133937896Y-79329815D01*
X133936090Y-79328633D01*
X133879179Y-79290606D01*
X133879172Y-79290602D01*
X133733501Y-79230264D01*
X133733489Y-79230261D01*
X133578845Y-79199500D01*
X133578842Y-79199500D01*
X133421158Y-79199500D01*
X133421155Y-79199500D01*
X133266510Y-79230261D01*
X133266498Y-79230264D01*
X133120827Y-79290602D01*
X133120814Y-79290609D01*
X132989711Y-79378210D01*
X132989707Y-79378213D01*
X132878213Y-79489707D01*
X132878210Y-79489711D01*
X132790609Y-79620814D01*
X132790602Y-79620827D01*
X132730264Y-79766498D01*
X132730261Y-79766510D01*
X132699500Y-79921153D01*
X132699500Y-80078846D01*
X132730261Y-80233489D01*
X132730264Y-80233501D01*
X132790602Y-80379172D01*
X132790609Y-80379185D01*
X132878210Y-80510288D01*
X132878213Y-80510292D01*
X132989708Y-80621787D01*
X132990621Y-80622397D01*
X132990991Y-80622839D01*
X132994419Y-80625653D01*
X132993885Y-80626303D01*
X133035427Y-80676010D01*
X133044134Y-80745334D01*
X133013980Y-80808362D01*
X132954537Y-80845082D01*
X132921731Y-80849500D01*
X132504935Y-80849500D01*
X132437896Y-80829815D01*
X132436090Y-80828633D01*
X132379179Y-80790606D01*
X132379172Y-80790602D01*
X132233501Y-80730264D01*
X132233489Y-80730261D01*
X132078845Y-80699500D01*
X132078842Y-80699500D01*
X131921158Y-80699500D01*
X131921155Y-80699500D01*
X131766510Y-80730261D01*
X131766498Y-80730264D01*
X131620827Y-80790602D01*
X131620814Y-80790609D01*
X131489711Y-80878210D01*
X131489707Y-80878213D01*
X131378213Y-80989707D01*
X131378210Y-80989711D01*
X131290609Y-81120814D01*
X131290602Y-81120827D01*
X131230264Y-81266498D01*
X131230261Y-81266510D01*
X131199500Y-81421153D01*
X131199500Y-81578846D01*
X131230261Y-81733489D01*
X131230264Y-81733501D01*
X131290602Y-81879172D01*
X131290609Y-81879185D01*
X131325304Y-81931109D01*
X131346182Y-81997786D01*
X131327698Y-82065167D01*
X131325304Y-82068891D01*
X131290609Y-82120814D01*
X131290602Y-82120827D01*
X131230264Y-82266498D01*
X131230261Y-82266510D01*
X131199500Y-82421153D01*
X131199500Y-82578846D01*
X131230261Y-82733489D01*
X131230264Y-82733501D01*
X131290602Y-82879172D01*
X131290609Y-82879185D01*
X131378210Y-83010288D01*
X131378213Y-83010292D01*
X131489707Y-83121786D01*
X131489711Y-83121789D01*
X131620814Y-83209390D01*
X131620827Y-83209397D01*
X131708230Y-83245599D01*
X131766503Y-83269737D01*
X131833580Y-83283079D01*
X131895490Y-83315463D01*
X131897069Y-83317015D01*
X133067873Y-84487819D01*
X133101358Y-84549142D01*
X133096374Y-84618834D01*
X133054502Y-84674767D01*
X132989038Y-84699184D01*
X132980192Y-84699500D01*
X132921155Y-84699500D01*
X132766510Y-84730261D01*
X132766498Y-84730264D01*
X132620827Y-84790602D01*
X132620820Y-84790606D01*
X132591928Y-84809911D01*
X132563955Y-84828602D01*
X132497279Y-84849480D01*
X132495065Y-84849500D01*
X131820808Y-84849500D01*
X131753769Y-84829815D01*
X131733127Y-84813181D01*
X131414674Y-84494727D01*
X131414673Y-84494726D01*
X131377503Y-84469890D01*
X131308127Y-84423535D01*
X131189744Y-84374499D01*
X131189738Y-84374497D01*
X131064071Y-84349500D01*
X131064069Y-84349500D01*
X129036931Y-84349500D01*
X129036929Y-84349500D01*
X128911261Y-84374497D01*
X128911255Y-84374499D01*
X128866101Y-84393203D01*
X128866100Y-84393203D01*
X128792876Y-84423532D01*
X128686326Y-84494726D01*
X127697568Y-85483484D01*
X127636245Y-85516969D01*
X127634079Y-85517420D01*
X127567008Y-85530761D01*
X127566998Y-85530764D01*
X127421327Y-85591102D01*
X127421314Y-85591109D01*
X127290211Y-85678710D01*
X127290207Y-85678713D01*
X127178713Y-85790207D01*
X127178710Y-85790211D01*
X127091109Y-85921314D01*
X127091102Y-85921327D01*
X127030764Y-86066998D01*
X127030761Y-86067010D01*
X127000000Y-86221653D01*
X127000000Y-86379346D01*
X127030761Y-86533989D01*
X127030764Y-86534001D01*
X127091102Y-86679672D01*
X127091109Y-86679685D01*
X127178710Y-86810788D01*
X127178713Y-86810792D01*
X127290207Y-86922286D01*
X127290211Y-86922289D01*
X127421314Y-87009890D01*
X127421327Y-87009897D01*
X127552112Y-87064069D01*
X127567003Y-87070237D01*
X127721653Y-87100999D01*
X127721656Y-87101000D01*
X127721658Y-87101000D01*
X127879344Y-87101000D01*
X127879345Y-87100999D01*
X128033997Y-87070237D01*
X128178718Y-87010292D01*
X128179672Y-87009897D01*
X128179672Y-87009896D01*
X128179679Y-87009894D01*
X128310789Y-86922289D01*
X128422289Y-86810789D01*
X128509894Y-86679679D01*
X128570237Y-86533997D01*
X128583579Y-86466916D01*
X128615963Y-86405009D01*
X128617457Y-86403487D01*
X129334127Y-85686819D01*
X129395450Y-85653334D01*
X129421808Y-85650500D01*
X130679192Y-85650500D01*
X130746231Y-85670185D01*
X130766873Y-85686819D01*
X131085325Y-86005272D01*
X131085332Y-86005278D01*
X131177137Y-86066620D01*
X131177226Y-86066678D01*
X131177712Y-86067003D01*
X131191873Y-86076465D01*
X131192684Y-86076801D01*
X131198113Y-86080356D01*
X131217328Y-86102919D01*
X131238476Y-86123692D01*
X131239732Y-86129227D01*
X131243413Y-86133550D01*
X131247379Y-86162925D01*
X131253939Y-86191829D01*
X131252261Y-86199075D01*
X131252763Y-86202792D01*
X131250060Y-86208577D01*
X131244743Y-86231542D01*
X131230264Y-86266498D01*
X131230261Y-86266510D01*
X131199500Y-86421153D01*
X131199500Y-86578846D01*
X131230261Y-86733489D01*
X131230264Y-86733501D01*
X131290602Y-86879172D01*
X131290606Y-86879179D01*
X131328602Y-86936044D01*
X131349480Y-87002721D01*
X131349500Y-87004935D01*
X131349500Y-90495064D01*
X131329815Y-90562103D01*
X131328603Y-90563954D01*
X131290608Y-90620817D01*
X131290602Y-90620828D01*
X131230264Y-90766498D01*
X131230261Y-90766510D01*
X131199500Y-90921153D01*
X131199500Y-90980192D01*
X131179815Y-91047231D01*
X131127011Y-91092986D01*
X131057853Y-91102930D01*
X130994297Y-91073905D01*
X130987819Y-91067873D01*
X130067015Y-90147069D01*
X130033530Y-90085746D01*
X130033093Y-90083652D01*
X130019737Y-90016503D01*
X129959959Y-89872184D01*
X129959397Y-89870827D01*
X129959390Y-89870814D01*
X129871789Y-89739711D01*
X129871786Y-89739707D01*
X129760292Y-89628213D01*
X129760288Y-89628210D01*
X129629185Y-89540609D01*
X129629172Y-89540602D01*
X129483501Y-89480264D01*
X129483489Y-89480261D01*
X129328845Y-89449500D01*
X129328842Y-89449500D01*
X129171158Y-89449500D01*
X129171155Y-89449500D01*
X129016510Y-89480261D01*
X129016498Y-89480264D01*
X128870827Y-89540602D01*
X128870814Y-89540609D01*
X128739711Y-89628210D01*
X128739707Y-89628213D01*
X128628213Y-89739707D01*
X128628210Y-89739711D01*
X128540609Y-89870814D01*
X128540602Y-89870827D01*
X128480264Y-90016498D01*
X128480261Y-90016510D01*
X128449500Y-90171153D01*
X128449500Y-90328846D01*
X128480261Y-90483489D01*
X128480264Y-90483501D01*
X128540602Y-90629172D01*
X128540609Y-90629185D01*
X128628210Y-90760288D01*
X128628213Y-90760292D01*
X128739707Y-90871786D01*
X128739711Y-90871789D01*
X128870814Y-90959390D01*
X128870827Y-90959397D01*
X128921032Y-90980192D01*
X129016503Y-91019737D01*
X129083580Y-91033079D01*
X129145490Y-91065463D01*
X129147069Y-91067015D01*
X129867873Y-91787819D01*
X129901358Y-91849142D01*
X129896374Y-91918834D01*
X129854502Y-91974767D01*
X129789038Y-91999184D01*
X129780192Y-91999500D01*
X108624500Y-91999500D01*
X108557461Y-91979815D01*
X108511706Y-91927011D01*
X108500500Y-91875500D01*
X108500500Y-90587579D01*
X108520185Y-90520540D01*
X108572989Y-90474785D01*
X108642147Y-90464841D01*
X108671953Y-90473018D01*
X108813310Y-90531570D01*
X108813318Y-90531572D01*
X109006504Y-90569999D01*
X109006508Y-90570000D01*
X109155000Y-90570000D01*
X109155000Y-89870000D01*
X109655000Y-89870000D01*
X109655000Y-90570000D01*
X109803492Y-90570000D01*
X109803495Y-90569999D01*
X109996681Y-90531572D01*
X109996693Y-90531569D01*
X110178671Y-90456192D01*
X110178684Y-90456185D01*
X110342462Y-90346751D01*
X110342466Y-90346748D01*
X110481748Y-90207466D01*
X110481751Y-90207462D01*
X110591185Y-90043684D01*
X110591192Y-90043671D01*
X110666569Y-89861692D01*
X110666569Y-89861690D01*
X110674862Y-89820000D01*
X109871988Y-89820000D01*
X109889205Y-89810060D01*
X109945060Y-89754205D01*
X109984556Y-89685796D01*
X110005000Y-89609496D01*
X110005000Y-89530504D01*
X109984556Y-89454204D01*
X109945060Y-89385795D01*
X109889205Y-89329940D01*
X109871988Y-89320000D01*
X110674862Y-89320000D01*
X112065138Y-89320000D01*
X112868012Y-89320000D01*
X112850795Y-89329940D01*
X112794940Y-89385795D01*
X112755444Y-89454204D01*
X112735000Y-89530504D01*
X112735000Y-89609496D01*
X112755444Y-89685796D01*
X112794940Y-89754205D01*
X112850795Y-89810060D01*
X112868012Y-89820000D01*
X112065138Y-89820000D01*
X112073430Y-89861690D01*
X112073430Y-89861692D01*
X112148807Y-90043671D01*
X112148814Y-90043684D01*
X112258248Y-90207462D01*
X112258251Y-90207466D01*
X112397533Y-90346748D01*
X112397537Y-90346751D01*
X112561315Y-90456185D01*
X112561328Y-90456192D01*
X112743306Y-90531569D01*
X112743318Y-90531572D01*
X112936504Y-90569999D01*
X112936508Y-90570000D01*
X113335000Y-90570000D01*
X113335000Y-89870000D01*
X113835000Y-89870000D01*
X113835000Y-90570000D01*
X114233492Y-90570000D01*
X114233495Y-90569999D01*
X114426681Y-90531572D01*
X114426693Y-90531569D01*
X114608671Y-90456192D01*
X114608684Y-90456185D01*
X114772462Y-90346751D01*
X114772466Y-90346748D01*
X114911748Y-90207466D01*
X114911751Y-90207462D01*
X115021185Y-90043684D01*
X115021192Y-90043671D01*
X115096569Y-89861692D01*
X115096569Y-89861690D01*
X115104862Y-89820000D01*
X114301988Y-89820000D01*
X114319205Y-89810060D01*
X114375060Y-89754205D01*
X114414556Y-89685796D01*
X114435000Y-89609496D01*
X114435000Y-89530504D01*
X114414556Y-89454204D01*
X114375060Y-89385795D01*
X114319205Y-89329940D01*
X114301988Y-89320000D01*
X115104862Y-89320000D01*
X115096569Y-89278309D01*
X115096569Y-89278307D01*
X115021192Y-89096328D01*
X115021185Y-89096315D01*
X114911751Y-88932537D01*
X114911748Y-88932533D01*
X114772466Y-88793251D01*
X114772462Y-88793248D01*
X114608684Y-88683814D01*
X114608671Y-88683807D01*
X114426693Y-88608430D01*
X114426681Y-88608427D01*
X114233495Y-88570000D01*
X113835000Y-88570000D01*
X113835000Y-89270000D01*
X113335000Y-89270000D01*
X113335000Y-88714463D01*
X113354685Y-88647424D01*
X113397000Y-88607076D01*
X113408365Y-88600515D01*
X113515515Y-88493365D01*
X113516372Y-88491879D01*
X113536721Y-88456637D01*
X113591279Y-88362138D01*
X113591281Y-88362135D01*
X113630500Y-88215766D01*
X113630500Y-88064234D01*
X113591281Y-87917865D01*
X113515515Y-87786635D01*
X113408365Y-87679485D01*
X113342750Y-87641602D01*
X113277136Y-87603719D01*
X113203950Y-87584109D01*
X113130766Y-87564500D01*
X112979234Y-87564500D01*
X112832863Y-87603719D01*
X112701635Y-87679485D01*
X112701632Y-87679487D01*
X112594487Y-87786632D01*
X112594485Y-87786635D01*
X112518719Y-87917863D01*
X112479500Y-88064234D01*
X112479500Y-88215765D01*
X112518719Y-88362136D01*
X112556602Y-88427750D01*
X112594485Y-88493365D01*
X112594487Y-88493367D01*
X112599432Y-88499811D01*
X112596612Y-88501974D01*
X112622302Y-88549020D01*
X112617318Y-88618712D01*
X112575446Y-88674645D01*
X112566379Y-88680416D01*
X112566387Y-88680427D01*
X112397536Y-88793248D01*
X112258251Y-88932533D01*
X112258248Y-88932537D01*
X112148814Y-89096315D01*
X112148807Y-89096328D01*
X112073430Y-89278307D01*
X112073430Y-89278309D01*
X112065138Y-89320000D01*
X110674862Y-89320000D01*
X110666569Y-89278309D01*
X110666569Y-89278307D01*
X110591192Y-89096328D01*
X110591185Y-89096315D01*
X110481751Y-88932537D01*
X110481748Y-88932533D01*
X110342466Y-88793251D01*
X110342462Y-88793248D01*
X110178684Y-88683814D01*
X110178671Y-88683807D01*
X109996693Y-88608430D01*
X109996681Y-88608427D01*
X109803495Y-88570000D01*
X109655000Y-88570000D01*
X109655000Y-89270000D01*
X109155000Y-89270000D01*
X109155000Y-88570000D01*
X109006504Y-88570000D01*
X108813318Y-88608427D01*
X108813306Y-88608430D01*
X108671952Y-88666981D01*
X108602483Y-88674450D01*
X108540004Y-88643175D01*
X108504352Y-88583086D01*
X108500500Y-88552420D01*
X108500500Y-86921153D01*
X115199500Y-86921153D01*
X115199500Y-87078846D01*
X115230261Y-87233489D01*
X115230264Y-87233501D01*
X115290602Y-87379172D01*
X115290609Y-87379185D01*
X115378210Y-87510288D01*
X115378213Y-87510292D01*
X115489707Y-87621786D01*
X115489711Y-87621789D01*
X115620814Y-87709390D01*
X115620827Y-87709397D01*
X115766498Y-87769735D01*
X115766503Y-87769737D01*
X115921153Y-87800499D01*
X115921156Y-87800500D01*
X115921158Y-87800500D01*
X116078844Y-87800500D01*
X116078845Y-87800499D01*
X116233497Y-87769737D01*
X116379179Y-87709394D01*
X116436044Y-87671397D01*
X116502721Y-87650520D01*
X116504935Y-87650500D01*
X119679192Y-87650500D01*
X119746231Y-87670185D01*
X119766873Y-87686819D01*
X120085325Y-88005272D01*
X120085332Y-88005278D01*
X120173568Y-88064235D01*
X120173569Y-88064235D01*
X120191873Y-88076465D01*
X120310256Y-88125501D01*
X120310260Y-88125501D01*
X120310261Y-88125502D01*
X120435928Y-88150500D01*
X120435931Y-88150500D01*
X123564071Y-88150500D01*
X123648615Y-88133682D01*
X123689744Y-88125501D01*
X123808127Y-88076465D01*
X123826431Y-88064235D01*
X123826432Y-88064235D01*
X123892459Y-88020116D01*
X123914669Y-88005277D01*
X124505277Y-87414669D01*
X124576465Y-87308127D01*
X124607378Y-87233497D01*
X124625501Y-87189744D01*
X124633682Y-87148615D01*
X124650500Y-87064071D01*
X124650500Y-85300329D01*
X124670185Y-85233290D01*
X124671398Y-85231438D01*
X124739721Y-85129185D01*
X124739721Y-85129184D01*
X124739725Y-85129179D01*
X124800068Y-84983497D01*
X124830831Y-84828842D01*
X124830831Y-84671158D01*
X124830831Y-84671155D01*
X124830830Y-84671153D01*
X124800069Y-84516510D01*
X124800068Y-84516503D01*
X124791048Y-84494726D01*
X124739728Y-84370827D01*
X124739721Y-84370814D01*
X124652120Y-84239711D01*
X124652117Y-84239707D01*
X124540623Y-84128213D01*
X124540619Y-84128210D01*
X124409516Y-84040609D01*
X124409503Y-84040602D01*
X124263832Y-83980264D01*
X124263820Y-83980261D01*
X124109176Y-83949500D01*
X124109173Y-83949500D01*
X123951489Y-83949500D01*
X123951486Y-83949500D01*
X123796841Y-83980261D01*
X123796829Y-83980264D01*
X123651158Y-84040602D01*
X123651145Y-84040609D01*
X123520042Y-84128210D01*
X123520038Y-84128213D01*
X123408544Y-84239707D01*
X123408541Y-84239711D01*
X123320940Y-84370814D01*
X123320933Y-84370827D01*
X123260595Y-84516498D01*
X123260592Y-84516510D01*
X123229831Y-84671153D01*
X123229831Y-84828846D01*
X123260592Y-84983489D01*
X123260595Y-84983501D01*
X123320934Y-85129174D01*
X123320936Y-85129177D01*
X123320937Y-85129179D01*
X123328600Y-85140648D01*
X123349480Y-85207323D01*
X123349500Y-85209540D01*
X123349500Y-86679192D01*
X123340855Y-86708632D01*
X123334332Y-86738619D01*
X123330577Y-86743634D01*
X123329815Y-86746231D01*
X123313181Y-86766873D01*
X123266873Y-86813181D01*
X123205550Y-86846666D01*
X123179192Y-86849500D01*
X120820808Y-86849500D01*
X120753769Y-86829815D01*
X120733127Y-86813181D01*
X120414674Y-86494727D01*
X120414673Y-86494726D01*
X120414669Y-86494723D01*
X120308127Y-86423535D01*
X120302388Y-86421158D01*
X120189744Y-86374499D01*
X120189738Y-86374497D01*
X120064071Y-86349500D01*
X120064069Y-86349500D01*
X116504935Y-86349500D01*
X116437896Y-86329815D01*
X116436090Y-86328633D01*
X116379179Y-86290606D01*
X116379172Y-86290602D01*
X116233501Y-86230264D01*
X116233489Y-86230261D01*
X116078845Y-86199500D01*
X116078842Y-86199500D01*
X115921158Y-86199500D01*
X115921155Y-86199500D01*
X115766510Y-86230261D01*
X115766498Y-86230264D01*
X115620827Y-86290602D01*
X115620814Y-86290609D01*
X115489711Y-86378210D01*
X115489707Y-86378213D01*
X115378213Y-86489707D01*
X115378210Y-86489711D01*
X115290609Y-86620814D01*
X115290602Y-86620827D01*
X115230264Y-86766498D01*
X115230261Y-86766510D01*
X115199500Y-86921153D01*
X108500500Y-86921153D01*
X108500500Y-81947579D01*
X108520185Y-81880540D01*
X108572989Y-81834785D01*
X108642147Y-81824841D01*
X108671953Y-81833018D01*
X108813310Y-81891570D01*
X108813318Y-81891572D01*
X109006504Y-81929999D01*
X109006508Y-81930000D01*
X109155000Y-81930000D01*
X109155000Y-81230000D01*
X109655000Y-81230000D01*
X109655000Y-81930000D01*
X109803492Y-81930000D01*
X109803495Y-81929999D01*
X109996681Y-81891572D01*
X109996693Y-81891569D01*
X110178671Y-81816192D01*
X110178684Y-81816185D01*
X110342462Y-81706751D01*
X110342466Y-81706748D01*
X110481748Y-81567466D01*
X110481751Y-81567462D01*
X110591185Y-81403684D01*
X110591192Y-81403671D01*
X110666569Y-81221692D01*
X110666569Y-81221690D01*
X110674862Y-81180000D01*
X109871988Y-81180000D01*
X109889205Y-81170060D01*
X109945060Y-81114205D01*
X109984556Y-81045796D01*
X110005000Y-80969496D01*
X110005000Y-80890504D01*
X109984556Y-80814204D01*
X109945060Y-80745795D01*
X109889205Y-80689940D01*
X109871988Y-80680000D01*
X110674862Y-80680000D01*
X112065138Y-80680000D01*
X112868012Y-80680000D01*
X112850795Y-80689940D01*
X112794940Y-80745795D01*
X112755444Y-80814204D01*
X112735000Y-80890504D01*
X112735000Y-80969496D01*
X112755444Y-81045796D01*
X112794940Y-81114205D01*
X112850795Y-81170060D01*
X112868012Y-81180000D01*
X112065138Y-81180000D01*
X112073430Y-81221690D01*
X112073430Y-81221692D01*
X112148807Y-81403671D01*
X112148814Y-81403684D01*
X112258248Y-81567462D01*
X112258251Y-81567466D01*
X112397533Y-81706748D01*
X112397537Y-81706751D01*
X112566387Y-81819574D01*
X112565430Y-81821005D01*
X112609425Y-81864211D01*
X112624895Y-81932346D01*
X112601072Y-81998029D01*
X112599309Y-82000094D01*
X112599432Y-82000189D01*
X112594485Y-82006635D01*
X112518719Y-82137863D01*
X112479500Y-82284234D01*
X112479500Y-82435765D01*
X112518719Y-82582136D01*
X112541050Y-82620814D01*
X112594485Y-82713365D01*
X112701635Y-82820515D01*
X112832865Y-82896281D01*
X112979234Y-82935500D01*
X112979236Y-82935500D01*
X113130764Y-82935500D01*
X113130766Y-82935500D01*
X113277135Y-82896281D01*
X113408365Y-82820515D01*
X113515515Y-82713365D01*
X113591281Y-82582135D01*
X113630500Y-82435766D01*
X113630500Y-82284234D01*
X113591281Y-82137865D01*
X113515515Y-82006635D01*
X113408365Y-81899485D01*
X113396998Y-81892922D01*
X113348783Y-81842354D01*
X113335000Y-81785536D01*
X113335000Y-81230000D01*
X113835000Y-81230000D01*
X113835000Y-81930000D01*
X114233492Y-81930000D01*
X114233495Y-81929999D01*
X114426681Y-81891572D01*
X114426693Y-81891569D01*
X114608671Y-81816192D01*
X114608684Y-81816185D01*
X114772462Y-81706751D01*
X114772466Y-81706748D01*
X114911748Y-81567466D01*
X114911751Y-81567462D01*
X115021185Y-81403684D01*
X115021192Y-81403671D01*
X115096569Y-81221692D01*
X115096569Y-81221690D01*
X115104862Y-81180000D01*
X114301988Y-81180000D01*
X114319205Y-81170060D01*
X114375060Y-81114205D01*
X114414556Y-81045796D01*
X114435000Y-80969496D01*
X114435000Y-80890504D01*
X114414556Y-80814204D01*
X114375060Y-80745795D01*
X114319205Y-80689940D01*
X114301988Y-80680000D01*
X115104862Y-80680000D01*
X115096569Y-80638309D01*
X115096569Y-80638307D01*
X115021192Y-80456328D01*
X115021185Y-80456315D01*
X114911751Y-80292537D01*
X114911748Y-80292533D01*
X114772466Y-80153251D01*
X114772462Y-80153248D01*
X114608684Y-80043814D01*
X114608671Y-80043807D01*
X114426693Y-79968430D01*
X114426681Y-79968427D01*
X114233495Y-79930000D01*
X113835000Y-79930000D01*
X113835000Y-80630000D01*
X113335000Y-80630000D01*
X113335000Y-79930000D01*
X112936504Y-79930000D01*
X112743318Y-79968427D01*
X112743306Y-79968430D01*
X112561328Y-80043807D01*
X112561315Y-80043814D01*
X112397537Y-80153248D01*
X112397533Y-80153251D01*
X112258251Y-80292533D01*
X112258248Y-80292537D01*
X112148814Y-80456315D01*
X112148807Y-80456328D01*
X112073430Y-80638307D01*
X112073430Y-80638309D01*
X112065138Y-80680000D01*
X110674862Y-80680000D01*
X110666569Y-80638309D01*
X110666569Y-80638307D01*
X110591192Y-80456328D01*
X110591185Y-80456315D01*
X110481751Y-80292537D01*
X110481748Y-80292533D01*
X110342466Y-80153251D01*
X110342462Y-80153248D01*
X110178684Y-80043814D01*
X110178671Y-80043807D01*
X109996693Y-79968430D01*
X109996681Y-79968427D01*
X109803495Y-79930000D01*
X109655000Y-79930000D01*
X109655000Y-80630000D01*
X109155000Y-80630000D01*
X109155000Y-79930000D01*
X109006504Y-79930000D01*
X108813318Y-79968427D01*
X108813306Y-79968430D01*
X108671952Y-80026981D01*
X108602483Y-80034450D01*
X108540004Y-80003175D01*
X108504352Y-79943086D01*
X108500500Y-79912420D01*
X108500500Y-78624500D01*
X108520185Y-78557461D01*
X108572989Y-78511706D01*
X108624500Y-78500500D01*
X146875500Y-78500500D01*
X146942539Y-78520185D01*
G37*
%TD.AperFunction*%
%TA.AperFunction,Conductor*%
G36*
X140746231Y-80670185D02*
G01*
X140766873Y-80686819D01*
X143454724Y-83374669D01*
X143545331Y-83465276D01*
X143545332Y-83465277D01*
X143651866Y-83536461D01*
X143651872Y-83536464D01*
X143651873Y-83536465D01*
X143770256Y-83585501D01*
X143770260Y-83585501D01*
X143770261Y-83585502D01*
X143895928Y-83610500D01*
X143895931Y-83610500D01*
X144855382Y-83610500D01*
X144922421Y-83630185D01*
X144956099Y-83664591D01*
X144957085Y-83663875D01*
X145084890Y-83839786D01*
X145235213Y-83990109D01*
X145407182Y-84115050D01*
X145415946Y-84119516D01*
X145466742Y-84167491D01*
X145483536Y-84235312D01*
X145460998Y-84301447D01*
X145415946Y-84340484D01*
X145407182Y-84344949D01*
X145235213Y-84469890D01*
X145084890Y-84620213D01*
X144959951Y-84792179D01*
X144863444Y-84981585D01*
X144797753Y-85183760D01*
X144764500Y-85393713D01*
X144764500Y-85606287D01*
X144797754Y-85816243D01*
X144860803Y-86010288D01*
X144863444Y-86018414D01*
X144959951Y-86207820D01*
X145084890Y-86379786D01*
X145235213Y-86530109D01*
X145407182Y-86655050D01*
X145415946Y-86659516D01*
X145466742Y-86707491D01*
X145483536Y-86775312D01*
X145460998Y-86841447D01*
X145415946Y-86880484D01*
X145407182Y-86884949D01*
X145235213Y-87009890D01*
X145084890Y-87160213D01*
X144959951Y-87332179D01*
X144863444Y-87521585D01*
X144797753Y-87723760D01*
X144787795Y-87786635D01*
X144764500Y-87933713D01*
X144764500Y-88146287D01*
X144797754Y-88356243D01*
X144860391Y-88549020D01*
X144863444Y-88558414D01*
X144959951Y-88747820D01*
X145084890Y-88919786D01*
X145235213Y-89070109D01*
X145407182Y-89195050D01*
X145415946Y-89199516D01*
X145466742Y-89247491D01*
X145483536Y-89315312D01*
X145460998Y-89381447D01*
X145415946Y-89420484D01*
X145407182Y-89424949D01*
X145235213Y-89549890D01*
X145084890Y-89700213D01*
X144959951Y-89872179D01*
X144863444Y-90061585D01*
X144797753Y-90263760D01*
X144784609Y-90346748D01*
X144764500Y-90473713D01*
X144764500Y-90686287D01*
X144797754Y-90896243D01*
X144857084Y-91078842D01*
X144863444Y-91098414D01*
X144959951Y-91287820D01*
X145084890Y-91459786D01*
X145235213Y-91610109D01*
X145407179Y-91735048D01*
X145407181Y-91735049D01*
X145407184Y-91735051D01*
X145465992Y-91765015D01*
X145516788Y-91812990D01*
X145533583Y-91880810D01*
X145511046Y-91946945D01*
X145456331Y-91990397D01*
X145409697Y-91999500D01*
X136180582Y-91999500D01*
X136113543Y-91979815D01*
X136067788Y-91927011D01*
X136057844Y-91857853D01*
X136066991Y-91825771D01*
X136071389Y-91815722D01*
X136076466Y-91808126D01*
X136106734Y-91735051D01*
X136125501Y-91689744D01*
X136141343Y-91610104D01*
X136150500Y-91564071D01*
X136150500Y-87504935D01*
X136170185Y-87437896D01*
X136171366Y-87436090D01*
X136209394Y-87379179D01*
X136269737Y-87233497D01*
X136269737Y-87233496D01*
X136272068Y-87227869D01*
X136274522Y-87228885D01*
X136306510Y-87180070D01*
X136370321Y-87151610D01*
X136386878Y-87150500D01*
X138995065Y-87150500D01*
X139062104Y-87170185D01*
X139063909Y-87171366D01*
X139120821Y-87209394D01*
X139120823Y-87209395D01*
X139120827Y-87209397D01*
X139266498Y-87269735D01*
X139266503Y-87269737D01*
X139421153Y-87300499D01*
X139421156Y-87300500D01*
X139421158Y-87300500D01*
X139578844Y-87300500D01*
X139578845Y-87300499D01*
X139733497Y-87269737D01*
X139879179Y-87209394D01*
X140010289Y-87121789D01*
X140121789Y-87010289D01*
X140209394Y-86879179D01*
X140269737Y-86733497D01*
X140300500Y-86578842D01*
X140300500Y-86421158D01*
X140300500Y-86421155D01*
X140300499Y-86421153D01*
X140292272Y-86379792D01*
X140269737Y-86266503D01*
X140255256Y-86231542D01*
X140209397Y-86120827D01*
X140209390Y-86120814D01*
X140121789Y-85989711D01*
X140121786Y-85989707D01*
X140010292Y-85878213D01*
X140010288Y-85878210D01*
X139879185Y-85790609D01*
X139879172Y-85790602D01*
X139733501Y-85730264D01*
X139733489Y-85730261D01*
X139578845Y-85699500D01*
X139578842Y-85699500D01*
X139421158Y-85699500D01*
X139421155Y-85699500D01*
X139266510Y-85730261D01*
X139266498Y-85730264D01*
X139120827Y-85790602D01*
X139120820Y-85790606D01*
X139091928Y-85809911D01*
X139063955Y-85828602D01*
X138997279Y-85849480D01*
X138995065Y-85849500D01*
X136320808Y-85849500D01*
X136253769Y-85829815D01*
X136233127Y-85813181D01*
X132817015Y-82397069D01*
X132807952Y-82380472D01*
X132794819Y-82366861D01*
X132784414Y-82337365D01*
X132783530Y-82335746D01*
X132783089Y-82333630D01*
X132776139Y-82298688D01*
X132782368Y-82229098D01*
X132825232Y-82173921D01*
X132891122Y-82150678D01*
X132897757Y-82150500D01*
X138679192Y-82150500D01*
X138746231Y-82170185D01*
X138766873Y-82186819D01*
X139682984Y-83102930D01*
X139716469Y-83164253D01*
X139716920Y-83166420D01*
X139730261Y-83233489D01*
X139730264Y-83233501D01*
X139790602Y-83379172D01*
X139790609Y-83379185D01*
X139878210Y-83510288D01*
X139878213Y-83510292D01*
X139989707Y-83621786D01*
X139989711Y-83621789D01*
X140120814Y-83709390D01*
X140120827Y-83709397D01*
X140266498Y-83769735D01*
X140266503Y-83769737D01*
X140421153Y-83800499D01*
X140421156Y-83800500D01*
X140421158Y-83800500D01*
X140578844Y-83800500D01*
X140578845Y-83800499D01*
X140733497Y-83769737D01*
X140879179Y-83709394D01*
X141010289Y-83621789D01*
X141121789Y-83510289D01*
X141209394Y-83379179D01*
X141269737Y-83233497D01*
X141300500Y-83078842D01*
X141300500Y-82921158D01*
X141300500Y-82921155D01*
X141300499Y-82921153D01*
X141292148Y-82879172D01*
X141269737Y-82766503D01*
X141247727Y-82713365D01*
X141209397Y-82620827D01*
X141209390Y-82620814D01*
X141121789Y-82489711D01*
X141121786Y-82489707D01*
X141010292Y-82378213D01*
X141010288Y-82378210D01*
X140879185Y-82290609D01*
X140879172Y-82290602D01*
X140733501Y-82230264D01*
X140733489Y-82230261D01*
X140666420Y-82216920D01*
X140604509Y-82184535D01*
X140602930Y-82182984D01*
X139414674Y-80994727D01*
X139414673Y-80994726D01*
X139407167Y-80989711D01*
X139308127Y-80923535D01*
X139308128Y-80923535D01*
X139308123Y-80923532D01*
X139224900Y-80889061D01*
X139170496Y-80845220D01*
X139148431Y-80778926D01*
X139165710Y-80711227D01*
X139216847Y-80663616D01*
X139272352Y-80650500D01*
X140679192Y-80650500D01*
X140746231Y-80670185D01*
G37*
%TD.AperFunction*%
%TD*%
M02*
