%TF.GenerationSoftware,KiCad,Pcbnew,9.0.7*%
%TF.CreationDate,2026-03-06T12:03:16+05:30*%
%TF.ProjectId,usb to uart,75736220-746f-4207-9561-72742e6b6963,rev?*%
%TF.SameCoordinates,Original*%
%TF.FileFunction,Paste,Top*%
%TF.FilePolarity,Positive*%
%FSLAX46Y46*%
G04 Gerber Fmt 4.6, Leading zero omitted, Abs format (unit mm)*
G04 Created by KiCad (PCBNEW 9.0.7) date 2026-03-06 12:03:16*
%MOMM*%
%LPD*%
G01*
G04 APERTURE LIST*
G04 Aperture macros list*
%AMRoundRect*
0 Rectangle with rounded corners*
0 $1 Rounding radius*
0 $2 $3 $4 $5 $6 $7 $8 $9 X,Y pos of 4 corners*
0 Add a 4 corners polygon primitive as box body*
4,1,4,$2,$3,$4,$5,$6,$7,$8,$9,$2,$3,0*
0 Add four circle primitives for the rounded corners*
1,1,$1+$1,$2,$3*
1,1,$1+$1,$4,$5*
1,1,$1+$1,$6,$7*
1,1,$1+$1,$8,$9*
0 Add four rect primitives between the rounded corners*
20,1,$1+$1,$2,$3,$4,$5,0*
20,1,$1+$1,$4,$5,$6,$7,0*
20,1,$1+$1,$6,$7,$8,$9,0*
20,1,$1+$1,$8,$9,$2,$3,0*%
G04 Aperture macros list end*
%ADD10RoundRect,0.112500X-0.187500X-0.112500X0.187500X-0.112500X0.187500X0.112500X-0.187500X0.112500X0*%
%ADD11RoundRect,0.200000X-0.200000X-0.275000X0.200000X-0.275000X0.200000X0.275000X-0.200000X0.275000X0*%
%ADD12RoundRect,0.218750X-0.218750X-0.256250X0.218750X-0.256250X0.218750X0.256250X-0.218750X0.256250X0*%
%ADD13RoundRect,0.225000X-0.225000X-0.250000X0.225000X-0.250000X0.225000X0.250000X-0.225000X0.250000X0*%
%ADD14RoundRect,0.225000X-0.225000X-0.225000X0.225000X-0.225000X0.225000X0.225000X-0.225000X0.225000X0*%
%ADD15RoundRect,0.062500X-0.337500X-0.062500X0.337500X-0.062500X0.337500X0.062500X-0.337500X0.062500X0*%
%ADD16RoundRect,0.062500X-0.062500X-0.337500X0.062500X-0.337500X0.062500X0.337500X-0.062500X0.337500X0*%
%ADD17RoundRect,0.150000X-0.512500X-0.150000X0.512500X-0.150000X0.512500X0.150000X-0.512500X0.150000X0*%
%ADD18R,1.450000X0.600000*%
%ADD19R,1.450000X0.300000*%
%ADD20RoundRect,0.250000X-1.450000X0.312500X-1.450000X-0.312500X1.450000X-0.312500X1.450000X0.312500X0*%
G04 APERTURE END LIST*
D10*
%TO.C,D2*%
X137230000Y-89000000D03*
X139330000Y-89000000D03*
%TD*%
D11*
%TO.C,R3*%
X125180000Y-86520000D03*
X126830000Y-86520000D03*
%TD*%
%TO.C,R4*%
X125180000Y-89030000D03*
X126830000Y-89030000D03*
%TD*%
D12*
%TO.C,D5*%
X140925000Y-86500000D03*
X142500000Y-86500000D03*
%TD*%
D13*
%TO.C,C1*%
X121280000Y-81500000D03*
X122830000Y-81500000D03*
%TD*%
D14*
%TO.C,U1*%
X135260000Y-82380000D03*
X135260000Y-83500000D03*
X135260000Y-84620000D03*
X136380000Y-82380000D03*
X136380000Y-83500000D03*
X136380000Y-84620000D03*
X137500000Y-82380000D03*
X137500000Y-83500000D03*
X137500000Y-84620000D03*
D15*
X133930000Y-82000000D03*
X133930000Y-82500000D03*
X133930000Y-83000000D03*
X133930000Y-83500000D03*
X133930000Y-84000000D03*
X133930000Y-84500000D03*
X133930000Y-85000000D03*
D16*
X134880000Y-85950000D03*
X135380000Y-85950000D03*
X135880000Y-85950000D03*
X136380000Y-85950000D03*
X136880000Y-85950000D03*
X137380000Y-85950000D03*
X137880000Y-85950000D03*
D15*
X138830000Y-85000000D03*
X138830000Y-84500000D03*
X138830000Y-84000000D03*
X138830000Y-83500000D03*
X138830000Y-83000000D03*
X138830000Y-82500000D03*
X138830000Y-82000000D03*
D16*
X137880000Y-81050000D03*
X137380000Y-81050000D03*
X136880000Y-81050000D03*
X136380000Y-81050000D03*
X135880000Y-81050000D03*
X135380000Y-81050000D03*
X134880000Y-81050000D03*
%TD*%
D11*
%TO.C,R5*%
X132850000Y-89000000D03*
X134500000Y-89000000D03*
%TD*%
%TO.C,R2*%
X125180000Y-84010000D03*
X126830000Y-84010000D03*
%TD*%
D13*
%TO.C,C4*%
X121220000Y-86520000D03*
X122770000Y-86520000D03*
%TD*%
%TO.C,C3*%
X121220000Y-84010000D03*
X122770000Y-84010000D03*
%TD*%
D17*
%TO.C,D1*%
X116725000Y-88000000D03*
X116725000Y-88950000D03*
X116725000Y-89900000D03*
X119000000Y-89900000D03*
X119000000Y-88950000D03*
X119000000Y-88000000D03*
%TD*%
D18*
%TO.C,J1*%
X114500000Y-82000000D03*
X114500000Y-82800000D03*
D19*
X114500000Y-84000000D03*
X114500000Y-85000000D03*
X114500000Y-85500000D03*
X114500000Y-86500000D03*
D18*
X114500000Y-87700000D03*
X114500000Y-88500000D03*
X114500000Y-88500000D03*
X114500000Y-87700000D03*
D19*
X114500000Y-87000000D03*
X114500000Y-86000000D03*
X114500000Y-84500000D03*
X114500000Y-83500000D03*
D18*
X114500000Y-82800000D03*
X114500000Y-82000000D03*
%TD*%
D11*
%TO.C,R7*%
X129190000Y-84010000D03*
X130840000Y-84010000D03*
%TD*%
D12*
%TO.C,D3*%
X140925000Y-89000000D03*
X142500000Y-89000000D03*
%TD*%
D11*
%TO.C,R6*%
X129190000Y-81500000D03*
X130840000Y-81500000D03*
%TD*%
D13*
%TO.C,C6*%
X128870000Y-89000000D03*
X130420000Y-89000000D03*
%TD*%
D11*
%TO.C,R10*%
X129190000Y-86520000D03*
X130840000Y-86520000D03*
%TD*%
%TO.C,R1*%
X125180000Y-81500000D03*
X126830000Y-81500000D03*
%TD*%
D13*
%TO.C,C5*%
X121220000Y-89030000D03*
X122770000Y-89030000D03*
%TD*%
D12*
%TO.C,D4*%
X140925000Y-84000000D03*
X142500000Y-84000000D03*
%TD*%
D20*
%TO.C,F1*%
X118000000Y-80862500D03*
X118000000Y-85137500D03*
%TD*%
M02*
