%TF.GenerationSoftware,KiCad,Pcbnew,9.0.7*%
%TF.CreationDate,2026-03-06T12:03:16+05:30*%
%TF.ProjectId,usb to uart,75736220-746f-4207-9561-72742e6b6963,rev?*%
%TF.SameCoordinates,Original*%
%TF.FileFunction,Copper,L1,Top*%
%TF.FilePolarity,Positive*%
%FSLAX46Y46*%
G04 Gerber Fmt 4.6, Leading zero omitted, Abs format (unit mm)*
G04 Created by KiCad (PCBNEW 9.0.7) date 2026-03-06 12:03:16*
%MOMM*%
%LPD*%
G01*
G04 APERTURE LIST*
G04 Aperture macros list*
%AMRoundRect*
0 Rectangle with rounded corners*
0 $1 Rounding radius*
0 $2 $3 $4 $5 $6 $7 $8 $9 X,Y pos of 4 corners*
0 Add a 4 corners polygon primitive as box body*
4,1,4,$2,$3,$4,$5,$6,$7,$8,$9,$2,$3,0*
0 Add four circle primitives for the rounded corners*
1,1,$1+$1,$2,$3*
1,1,$1+$1,$4,$5*
1,1,$1+$1,$6,$7*
1,1,$1+$1,$8,$9*
0 Add four rect primitives between the rounded corners*
20,1,$1+$1,$2,$3,$4,$5,0*
20,1,$1+$1,$4,$5,$6,$7,0*
20,1,$1+$1,$6,$7,$8,$9,0*
20,1,$1+$1,$8,$9,$2,$3,0*%
G04 Aperture macros list end*
%TA.AperFunction,SMDPad,CuDef*%
%ADD10RoundRect,0.112500X-0.187500X-0.112500X0.187500X-0.112500X0.187500X0.112500X-0.187500X0.112500X0*%
%TD*%
%TA.AperFunction,SMDPad,CuDef*%
%ADD11RoundRect,0.200000X-0.200000X-0.275000X0.200000X-0.275000X0.200000X0.275000X-0.200000X0.275000X0*%
%TD*%
%TA.AperFunction,SMDPad,CuDef*%
%ADD12RoundRect,0.218750X-0.218750X-0.256250X0.218750X-0.256250X0.218750X0.256250X-0.218750X0.256250X0*%
%TD*%
%TA.AperFunction,SMDPad,CuDef*%
%ADD13RoundRect,0.225000X-0.225000X-0.250000X0.225000X-0.250000X0.225000X0.250000X-0.225000X0.250000X0*%
%TD*%
%TA.AperFunction,SMDPad,CuDef*%
%ADD14RoundRect,0.062500X-0.337500X-0.062500X0.337500X-0.062500X0.337500X0.062500X-0.337500X0.062500X0*%
%TD*%
%TA.AperFunction,SMDPad,CuDef*%
%ADD15RoundRect,0.062500X-0.062500X-0.337500X0.062500X-0.337500X0.062500X0.337500X-0.062500X0.337500X0*%
%TD*%
%TA.AperFunction,HeatsinkPad*%
%ADD16R,3.350000X3.350000*%
%TD*%
%TA.AperFunction,SMDPad,CuDef*%
%ADD17RoundRect,0.150000X-0.512500X-0.150000X0.512500X-0.150000X0.512500X0.150000X-0.512500X0.150000X0*%
%TD*%
%TA.AperFunction,SMDPad,CuDef*%
%ADD18R,1.450000X0.600000*%
%TD*%
%TA.AperFunction,SMDPad,CuDef*%
%ADD19R,1.450000X0.300000*%
%TD*%
%TA.AperFunction,HeatsinkPad*%
%ADD20O,2.100000X1.000000*%
%TD*%
%TA.AperFunction,HeatsinkPad*%
%ADD21O,1.600000X1.000000*%
%TD*%
%TA.AperFunction,ComponentPad*%
%ADD22R,1.700000X1.700000*%
%TD*%
%TA.AperFunction,ComponentPad*%
%ADD23C,1.700000*%
%TD*%
%TA.AperFunction,SMDPad,CuDef*%
%ADD24RoundRect,0.250000X-1.450000X0.312500X-1.450000X-0.312500X1.450000X-0.312500X1.450000X0.312500X0*%
%TD*%
%TA.AperFunction,ViaPad*%
%ADD25C,0.600000*%
%TD*%
%TA.AperFunction,Conductor*%
%ADD26C,0.200000*%
%TD*%
%TA.AperFunction,Conductor*%
%ADD27C,0.500000*%
%TD*%
%TA.AperFunction,Conductor*%
%ADD28C,0.300000*%
%TD*%
G04 APERTURE END LIST*
D10*
%TO.P,D2,1,A1*%
%TO.N,GND*%
X137230000Y-89000000D03*
%TO.P,D2,2,A2*%
%TO.N,/VBUS*%
X139330000Y-89000000D03*
%TD*%
D11*
%TO.P,R3,1*%
%TO.N,GND*%
X125180000Y-86520000D03*
%TO.P,R3,2*%
%TO.N,/USB_DP*%
X126830000Y-86520000D03*
%TD*%
%TO.P,R4,1*%
%TO.N,Net-(D1-I{slash}O2-Pad3)*%
X125180000Y-89030000D03*
%TO.P,R4,2*%
%TO.N,/USB_DM*%
X126830000Y-89030000D03*
%TD*%
D12*
%TO.P,D5,1,K*%
%TO.N,Net-(D5-K)*%
X140925000Y-86500000D03*
%TO.P,D5,2,A*%
%TO.N,GND*%
X142500000Y-86500000D03*
%TD*%
D13*
%TO.P,C1,1*%
%TO.N,/VBUS*%
X121280000Y-81500000D03*
%TO.P,C1,2*%
%TO.N,GND*%
X122830000Y-81500000D03*
%TD*%
D14*
%TO.P,U1,1,~{DCD}*%
%TO.N,unconnected-(U1-~{DCD}-Pad1)*%
X133930000Y-82000000D03*
%TO.P,U1,2,~{RI}/CLK*%
%TO.N,unconnected-(U1-~{RI}{slash}CLK-Pad2)*%
X133930000Y-82500000D03*
%TO.P,U1,3,GND*%
%TO.N,GND*%
X133930000Y-83000000D03*
%TO.P,U1,4,D+*%
%TO.N,/USB_DM*%
X133930000Y-83500000D03*
%TO.P,U1,5,D-*%
%TO.N,/USB_DP*%
X133930000Y-84000000D03*
%TO.P,U1,6,VDD*%
%TO.N,Net-(U1-VDD)*%
X133930000Y-84500000D03*
%TO.P,U1,7,VREGIN*%
%TO.N,/VBUS*%
X133930000Y-85000000D03*
D15*
%TO.P,U1,8,VBUS*%
X134880000Y-85950000D03*
%TO.P,U1,9,~{RST}*%
%TO.N,Net-(U1-~{RST})*%
X135380000Y-85950000D03*
%TO.P,U1,10,NC*%
%TO.N,unconnected-(U1-NC-Pad10)*%
X135880000Y-85950000D03*
%TO.P,U1,11,~{SUSPEND}*%
%TO.N,unconnected-(U1-~{SUSPEND}-Pad11)*%
X136380000Y-85950000D03*
%TO.P,U1,12,SUSPEND*%
%TO.N,unconnected-(U1-SUSPEND-Pad12)*%
X136880000Y-85950000D03*
%TO.P,U1,13,CHREN*%
%TO.N,unconnected-(U1-CHREN-Pad13)*%
X137380000Y-85950000D03*
%TO.P,U1,14,CHR1*%
%TO.N,unconnected-(U1-CHR1-Pad14)*%
X137880000Y-85950000D03*
D14*
%TO.P,U1,15,CHR0*%
%TO.N,unconnected-(U1-CHR0-Pad15)*%
X138830000Y-85000000D03*
%TO.P,U1,16,~{WAKEUP}/GPIO.3*%
%TO.N,unconnected-(U1-~{WAKEUP}{slash}GPIO.3-Pad16)*%
X138830000Y-84500000D03*
%TO.P,U1,17,RS485/GPIO.2*%
%TO.N,unconnected-(U1-RS485{slash}GPIO.2-Pad17)*%
X138830000Y-84000000D03*
%TO.P,U1,18,~{RXT}/GPIO.1*%
%TO.N,unconnected-(U1-~{RXT}{slash}GPIO.1-Pad18)*%
X138830000Y-83500000D03*
%TO.P,U1,19,~{TXT}/GPIO.0*%
%TO.N,unconnected-(U1-~{TXT}{slash}GPIO.0-Pad19)*%
X138830000Y-83000000D03*
%TO.P,U1,20,GPIO.6*%
%TO.N,unconnected-(U1-GPIO.6-Pad20)*%
X138830000Y-82500000D03*
%TO.P,U1,21,GPIO.5*%
%TO.N,unconnected-(U1-GPIO.5-Pad21)*%
X138830000Y-82000000D03*
D15*
%TO.P,U1,22,GPIO.4*%
%TO.N,unconnected-(U1-GPIO.4-Pad22)*%
X137880000Y-81050000D03*
%TO.P,U1,23,~{CTS}*%
%TO.N,unconnected-(U1-~{CTS}-Pad23)*%
X137380000Y-81050000D03*
%TO.P,U1,24,~{RTS}*%
%TO.N,unconnected-(U1-~{RTS}-Pad24)*%
X136880000Y-81050000D03*
%TO.P,U1,25,RXD*%
%TO.N,/UART_RX*%
X136380000Y-81050000D03*
%TO.P,U1,26,TXD*%
%TO.N,/UART_TX*%
X135880000Y-81050000D03*
%TO.P,U1,27,~{DSR}*%
%TO.N,unconnected-(U1-~{DSR}-Pad27)*%
X135380000Y-81050000D03*
%TO.P,U1,28,~{DTR}*%
%TO.N,unconnected-(U1-~{DTR}-Pad28)*%
X134880000Y-81050000D03*
D16*
%TO.P,U1,29,GND*%
%TO.N,GND*%
X136380000Y-83500000D03*
%TD*%
D11*
%TO.P,R5,1*%
%TO.N,/VBUS*%
X132850000Y-89000000D03*
%TO.P,R5,2*%
%TO.N,Net-(D3-K)*%
X134500000Y-89000000D03*
%TD*%
%TO.P,R2,1*%
%TO.N,Net-(J1-CC2)*%
X125180000Y-84010000D03*
%TO.P,R2,2*%
%TO.N,GND*%
X126830000Y-84010000D03*
%TD*%
D13*
%TO.P,C4,1*%
%TO.N,GND*%
X121220000Y-86520000D03*
%TO.P,C4,2*%
%TO.N,Net-(U1-VDD)*%
X122770000Y-86520000D03*
%TD*%
%TO.P,C3,1*%
%TO.N,GND*%
X121220000Y-84010000D03*
%TO.P,C3,2*%
%TO.N,/VBUS*%
X122770000Y-84010000D03*
%TD*%
D17*
%TO.P,D1,1,I/O1*%
%TO.N,GND*%
X116725000Y-88000000D03*
%TO.P,D1,2,GND*%
X116725000Y-88950000D03*
%TO.P,D1,3,I/O2*%
%TO.N,Net-(D1-I{slash}O2-Pad3)*%
X116725000Y-89900000D03*
%TO.P,D1,4,I/O2*%
X119000000Y-89900000D03*
%TO.P,D1,5,VBUS*%
%TO.N,unconnected-(D1-VBUS-Pad5)*%
X119000000Y-88950000D03*
%TO.P,D1,6,I/O1*%
%TO.N,unconnected-(D1-I{slash}O1-Pad6)*%
X119000000Y-88000000D03*
%TD*%
D18*
%TO.P,J1,A1,GND*%
%TO.N,GND*%
X114500000Y-82000000D03*
%TO.P,J1,A4,VBUS*%
%TO.N,Net-(F1-Pad1)*%
X114500000Y-82800000D03*
D19*
%TO.P,J1,A5,CC1*%
%TO.N,Net-(J1-CC1)*%
X114500000Y-84000000D03*
%TO.P,J1,A6,D+*%
%TO.N,GND*%
X114500000Y-85000000D03*
%TO.P,J1,A7,D-*%
%TO.N,Net-(D1-I{slash}O2-Pad3)*%
X114500000Y-85500000D03*
%TO.P,J1,A8,SBU1*%
%TO.N,unconnected-(J1-SBU1-PadA8)*%
X114500000Y-86500000D03*
D18*
%TO.P,J1,A9,VBUS*%
%TO.N,Net-(F1-Pad1)*%
X114500000Y-87700000D03*
%TO.P,J1,A12,GND*%
%TO.N,GND*%
X114500000Y-88500000D03*
%TO.P,J1,B1,GND*%
X114500000Y-88500000D03*
%TO.P,J1,B4,VBUS*%
%TO.N,Net-(F1-Pad1)*%
X114500000Y-87700000D03*
D19*
%TO.P,J1,B5,CC2*%
%TO.N,Net-(J1-CC2)*%
X114500000Y-87000000D03*
%TO.P,J1,B6,D+*%
%TO.N,GND*%
X114500000Y-86000000D03*
%TO.P,J1,B7,D-*%
%TO.N,Net-(D1-I{slash}O2-Pad3)*%
X114500000Y-84500000D03*
%TO.P,J1,B8,SBU2*%
%TO.N,unconnected-(J1-SBU2-PadB8)*%
X114500000Y-83500000D03*
D18*
%TO.P,J1,B9,VBUS*%
%TO.N,Net-(F1-Pad1)*%
X114500000Y-82800000D03*
%TO.P,J1,B12,GND*%
%TO.N,GND*%
X114500000Y-82000000D03*
D20*
%TO.P,J1,S1,SHIELD*%
X113585000Y-80930000D03*
D21*
X109405000Y-80930000D03*
D20*
X113585000Y-89570000D03*
D21*
X109405000Y-89570000D03*
%TD*%
D11*
%TO.P,R7,1*%
%TO.N,/UART_RX*%
X129190000Y-84010000D03*
%TO.P,R7,2*%
%TO.N,Net-(D5-K)*%
X130840000Y-84010000D03*
%TD*%
D12*
%TO.P,D3,1,K*%
%TO.N,Net-(D3-K)*%
X140925000Y-89000000D03*
%TO.P,D3,2,A*%
%TO.N,GND*%
X142500000Y-89000000D03*
%TD*%
D11*
%TO.P,R6,1*%
%TO.N,/UART_TX*%
X129190000Y-81500000D03*
%TO.P,R6,2*%
%TO.N,Net-(D4-K)*%
X130840000Y-81500000D03*
%TD*%
D13*
%TO.P,C6,1*%
%TO.N,Net-(U1-~{RST})*%
X128870000Y-89000000D03*
%TO.P,C6,2*%
%TO.N,GND*%
X130420000Y-89000000D03*
%TD*%
D11*
%TO.P,R10,1*%
%TO.N,Net-(U1-~{RST})*%
X129190000Y-86520000D03*
%TO.P,R10,2*%
%TO.N,/VBUS*%
X130840000Y-86520000D03*
%TD*%
%TO.P,R1,1*%
%TO.N,Net-(J1-CC1)*%
X125180000Y-81500000D03*
%TO.P,R1,2*%
%TO.N,GND*%
X126830000Y-81500000D03*
%TD*%
D13*
%TO.P,C5,1*%
%TO.N,GND*%
X121220000Y-89030000D03*
%TO.P,C5,2*%
%TO.N,Net-(U1-VDD)*%
X122770000Y-89030000D03*
%TD*%
D22*
%TO.P,J2,1,Pin_1*%
%TO.N,GND*%
X146115000Y-80420000D03*
D23*
%TO.P,J2,2,Pin_2*%
%TO.N,/UART_TX*%
X146115000Y-82960000D03*
%TO.P,J2,3,Pin_3*%
%TO.N,/UART_RX*%
X146115000Y-85500000D03*
%TO.P,J2,4,Pin_4*%
%TO.N,/VBUS*%
X146115000Y-88040000D03*
%TO.P,J2,5,Pin_5*%
%TO.N,unconnected-(J2-Pin_5-Pad5)*%
X146115000Y-90580000D03*
%TD*%
D12*
%TO.P,D4,1,K*%
%TO.N,Net-(D4-K)*%
X140925000Y-84000000D03*
%TO.P,D4,2,A*%
%TO.N,GND*%
X142500000Y-84000000D03*
%TD*%
D24*
%TO.P,F1,1*%
%TO.N,Net-(F1-Pad1)*%
X118000000Y-80862500D03*
%TO.P,F1,2*%
%TO.N,/VBUS*%
X118000000Y-85137500D03*
%TD*%
D25*
%TO.N,GND*%
X135000000Y-82500000D03*
X136000000Y-82500000D03*
X136000000Y-83500000D03*
X136380000Y-83500000D03*
X136380000Y-83500000D03*
X136380000Y-83500000D03*
X137500000Y-83000000D03*
X136380000Y-83500000D03*
X137000000Y-84500000D03*
X137000000Y-82500000D03*
X135500000Y-84500000D03*
X137000000Y-83500000D03*
X136380000Y-83500000D03*
X136380000Y-83500000D03*
X136000000Y-82500000D03*
X137500000Y-84000000D03*
X136380000Y-83500000D03*
X135500000Y-83000000D03*
X136380000Y-83500000D03*
X136500000Y-84000000D03*
X135500000Y-82500000D03*
X136380000Y-83500000D03*
X135500000Y-84000000D03*
X136380000Y-83500000D03*
X136000000Y-84000000D03*
X135500000Y-82500000D03*
X136380000Y-83500000D03*
X136380000Y-83500000D03*
X137000000Y-82500000D03*
X135000000Y-84000000D03*
X136380000Y-83500000D03*
X135000000Y-84500000D03*
X136380000Y-83500000D03*
X137500000Y-84500000D03*
X136380000Y-83500000D03*
X136380000Y-83500000D03*
X136380000Y-83500000D03*
X136380000Y-83500000D03*
X136380000Y-83500000D03*
X137500000Y-83500000D03*
X137000000Y-83000000D03*
X136380000Y-83500000D03*
X137000000Y-84000000D03*
X136380000Y-83500000D03*
X135500000Y-83000000D03*
X136380000Y-83500000D03*
X136380000Y-83500000D03*
X135500000Y-83500000D03*
X136000000Y-83000000D03*
X136500000Y-83000000D03*
X136380000Y-83500000D03*
X136380000Y-83500000D03*
X136380000Y-83500000D03*
X136380000Y-83500000D03*
X136000000Y-83500000D03*
X136000000Y-84000000D03*
X136500000Y-84500000D03*
X136000000Y-84500000D03*
X136380000Y-83500000D03*
X136380000Y-83500000D03*
X136380000Y-83500000D03*
X137500000Y-84000000D03*
X136380000Y-83500000D03*
X135000000Y-83500000D03*
X136500000Y-84500000D03*
X136500000Y-82500000D03*
X136500000Y-83000000D03*
X136380000Y-83500000D03*
X136380000Y-83500000D03*
X137500000Y-83000000D03*
X135000000Y-82500000D03*
X137500000Y-82500000D03*
X136000000Y-82500000D03*
X136380000Y-83500000D03*
X136380000Y-83500000D03*
X136380000Y-83500000D03*
X135000000Y-83000000D03*
X137000000Y-83500000D03*
X136380000Y-83500000D03*
X136380000Y-83500000D03*
X136380000Y-83500000D03*
X136380000Y-83500000D03*
X135500000Y-84500000D03*
X136380000Y-83500000D03*
%TO.N,Net-(U1-~{RST})*%
X135500000Y-87000000D03*
X129250000Y-90250000D03*
%TO.N,Net-(D4-K)*%
X140500000Y-83000000D03*
X132000000Y-81500000D03*
%TO.N,Net-(D5-K)*%
X139500000Y-86500000D03*
X132000000Y-82500000D03*
%TO.N,Net-(J1-CC2)*%
X116000000Y-87000000D03*
X124030331Y-84750000D03*
%TO.N,/UART_TX*%
X133500000Y-80000000D03*
%TO.N,/USB_DP*%
X133000000Y-85500000D03*
X127800500Y-86300500D03*
%TO.N,/USB_DM*%
X132000000Y-91000000D03*
X132000000Y-86500000D03*
%TD*%
D26*
%TO.N,/VBUS*%
X134880000Y-86620000D02*
X134880000Y-85950000D01*
D27*
X123500000Y-85500000D02*
X129820000Y-85500000D01*
D26*
X134880000Y-85950000D02*
X133930000Y-85000000D01*
D27*
X134000000Y-88000000D02*
X133330000Y-87330000D01*
D26*
X133330000Y-87330000D02*
X134170000Y-87330000D01*
D27*
X122770000Y-84770000D02*
X123500000Y-85500000D01*
X134000000Y-88000000D02*
X138330000Y-88000000D01*
X119000000Y-83000000D02*
X121500000Y-83000000D01*
X129820000Y-85500000D02*
X130840000Y-86520000D01*
X122770000Y-84010000D02*
X122770000Y-84770000D01*
X121500000Y-83000000D02*
X121280000Y-82780000D01*
X123000000Y-83780000D02*
X122770000Y-84010000D01*
D26*
X132830000Y-87830000D02*
X132830000Y-89000000D01*
D27*
X118000000Y-84000000D02*
X119000000Y-83000000D01*
X138370000Y-88040000D02*
X146115000Y-88040000D01*
D26*
X130840000Y-86510000D02*
X130830000Y-86500000D01*
X134170000Y-87330000D02*
X134880000Y-86620000D01*
X131020000Y-86520000D02*
X132330000Y-87830000D01*
X130840000Y-86520000D02*
X131020000Y-86520000D01*
D27*
X138330000Y-88000000D02*
X138370000Y-88040000D01*
X121500000Y-83000000D02*
X122500000Y-83000000D01*
D26*
X132830000Y-87830000D02*
X133330000Y-87330000D01*
D27*
X121280000Y-82780000D02*
X121280000Y-81500000D01*
X122500000Y-83000000D02*
X123000000Y-83500000D01*
D26*
X132330000Y-87830000D02*
X132830000Y-87830000D01*
X130840000Y-86520000D02*
X130840000Y-86510000D01*
D27*
X123000000Y-83500000D02*
X123000000Y-83780000D01*
X118000000Y-85137500D02*
X118000000Y-84000000D01*
X138330000Y-88000000D02*
X139330000Y-89000000D01*
D28*
%TO.N,Net-(U1-VDD)*%
X122770000Y-86520000D02*
X122770000Y-89030000D01*
%TO.N,Net-(U1-~{RST})*%
X128870000Y-86840000D02*
X129190000Y-86520000D01*
X129250000Y-89380000D02*
X128870000Y-89000000D01*
X135380000Y-85950000D02*
X135380000Y-86880000D01*
X129250000Y-90250000D02*
X129250000Y-89380000D01*
X128870000Y-89000000D02*
X128870000Y-86840000D01*
X135380000Y-86880000D02*
X135500000Y-87000000D01*
%TO.N,Net-(D1-I{slash}O2-Pad3)*%
X117986500Y-87743370D02*
X117986500Y-89548999D01*
X124310000Y-89900000D02*
X125180000Y-89030000D01*
X117986500Y-89548999D02*
X118337501Y-89900000D01*
X119000000Y-89900000D02*
X124310000Y-89900000D01*
X114500000Y-85500000D02*
X112500000Y-85500000D01*
X114500000Y-85500000D02*
X115743130Y-85500000D01*
X112000000Y-85000000D02*
X112500000Y-84500000D01*
X117635499Y-89900000D02*
X117986500Y-89548999D01*
X112500000Y-84500000D02*
X114500000Y-84500000D01*
X115743130Y-85500000D02*
X117986500Y-87743370D01*
X116725000Y-89900000D02*
X117635499Y-89900000D01*
X112500000Y-85500000D02*
X112000000Y-85000000D01*
X118337501Y-89900000D02*
X119000000Y-89900000D01*
%TO.N,Net-(D3-K)*%
X140925000Y-90075000D02*
X140000000Y-91000000D01*
X140000000Y-91000000D02*
X135000000Y-91000000D01*
X134500000Y-90500000D02*
X134500000Y-89000000D01*
X135000000Y-91000000D02*
X134500000Y-90500000D01*
X140925000Y-89000000D02*
X140925000Y-90075000D01*
%TO.N,Net-(D4-K)*%
X140925000Y-84000000D02*
X140925000Y-83425000D01*
X140925000Y-83425000D02*
X140500000Y-83000000D01*
X130840000Y-81500000D02*
X132000000Y-81500000D01*
%TO.N,Net-(D5-K)*%
X140925000Y-86500000D02*
X139500000Y-86500000D01*
X130840000Y-83660000D02*
X132000000Y-82500000D01*
X130840000Y-84010000D02*
X130840000Y-83660000D01*
%TO.N,Net-(F1-Pad1)*%
X114500000Y-82800000D02*
X116062500Y-82800000D01*
X113700000Y-82800000D02*
X114500000Y-82800000D01*
X113355719Y-87414000D02*
X112914000Y-87414000D01*
X112855718Y-83086000D02*
X113414000Y-83086000D01*
X112914000Y-87414000D02*
X111220859Y-85720859D01*
X113414000Y-83086000D02*
X113700000Y-82800000D01*
X114500000Y-87700000D02*
X113641719Y-87700000D01*
X111220859Y-84720859D02*
X112855718Y-83086000D01*
X116062500Y-82800000D02*
X118000000Y-80862500D01*
X111220859Y-85720859D02*
X111220859Y-84720859D01*
X113641719Y-87700000D02*
X113355719Y-87414000D01*
%TO.N,Net-(J1-CC1)*%
X120051000Y-80051000D02*
X120102000Y-80000000D01*
X120102000Y-80000000D02*
X123680000Y-80000000D01*
X117000000Y-84000000D02*
X119224000Y-81776000D01*
X123680000Y-80000000D02*
X125180000Y-81500000D01*
X120051000Y-81449000D02*
X120051000Y-80051000D01*
X114500000Y-84000000D02*
X117000000Y-84000000D01*
X119724000Y-81776000D02*
X120051000Y-81449000D01*
X119224000Y-81776000D02*
X119724000Y-81776000D01*
%TO.N,Net-(J1-CC2)*%
X125180000Y-83180000D02*
X125180000Y-84010000D01*
X114500000Y-87000000D02*
X116000000Y-87000000D01*
X124500000Y-83000000D02*
X125000000Y-83000000D01*
X124030331Y-84750000D02*
X124030331Y-83469669D01*
X125000000Y-83000000D02*
X125180000Y-83180000D01*
X124030331Y-83469669D02*
X124500000Y-83000000D01*
%TO.N,/UART_TX*%
X129190000Y-79810000D02*
X129500000Y-79500000D01*
X135500000Y-79500000D02*
X135880000Y-79880000D01*
X135880000Y-79880000D02*
X135880000Y-81050000D01*
X129190000Y-81500000D02*
X129190000Y-79810000D01*
X132500000Y-79500000D02*
X133000000Y-80000000D01*
X132500000Y-79500000D02*
X135500000Y-79500000D01*
X133000000Y-80000000D02*
X133500000Y-80000000D01*
X129500000Y-79500000D02*
X132500000Y-79500000D01*
%TO.N,/UART_RX*%
X144500000Y-85500000D02*
X146115000Y-85500000D01*
X137500000Y-79000000D02*
X142000000Y-79000000D01*
X128000000Y-79500000D02*
X128849000Y-78651000D01*
X136380000Y-81050000D02*
X136380000Y-80120000D01*
X129010000Y-84010000D02*
X128000000Y-83000000D01*
X129190000Y-84010000D02*
X129010000Y-84010000D01*
X128000000Y-83000000D02*
X128000000Y-79500000D01*
X142000000Y-79000000D02*
X144000000Y-81000000D01*
X144000000Y-81000000D02*
X144000000Y-85000000D01*
X128849000Y-78651000D02*
X137151000Y-78651000D01*
X137151000Y-78651000D02*
X137500000Y-79000000D01*
X136380000Y-80120000D02*
X137500000Y-79000000D01*
X144000000Y-85000000D02*
X144500000Y-85500000D01*
%TO.N,/USB_DP*%
X126830000Y-86520000D02*
X127581000Y-86520000D01*
X133000000Y-84443490D02*
X133443490Y-84000000D01*
X133000000Y-84443490D02*
X133000000Y-85500000D01*
X133443490Y-84000000D02*
X133930000Y-84000000D01*
X127581000Y-86520000D02*
X127800500Y-86300500D01*
%TO.N,/USB_DM*%
X132500000Y-83500000D02*
X133930000Y-83500000D01*
X132000000Y-86500000D02*
X132000000Y-84000000D01*
X128800000Y-91000000D02*
X126830000Y-89030000D01*
X132000000Y-91000000D02*
X128800000Y-91000000D01*
X132000000Y-84000000D02*
X132500000Y-83500000D01*
%TD*%
%TA.AperFunction,Conductor*%
%TO.N,GND*%
G36*
X127847231Y-78520185D02*
G01*
X127892986Y-78572989D01*
X127902930Y-78642147D01*
X127873905Y-78705703D01*
X127867873Y-78712181D01*
X127494727Y-79085325D01*
X127494721Y-79085332D01*
X127447319Y-79156275D01*
X127447320Y-79156276D01*
X127423534Y-79191874D01*
X127374499Y-79310255D01*
X127374497Y-79310261D01*
X127349500Y-79435928D01*
X127349500Y-80422841D01*
X127329815Y-80489880D01*
X127277011Y-80535635D01*
X127207853Y-80545579D01*
X127188610Y-80541227D01*
X127157101Y-80531408D01*
X127086572Y-80525000D01*
X127080000Y-80525000D01*
X127080000Y-82474999D01*
X127086581Y-82474999D01*
X127157102Y-82468591D01*
X127157104Y-82468591D01*
X127188608Y-82458774D01*
X127258468Y-82457622D01*
X127317861Y-82494422D01*
X127347930Y-82557490D01*
X127349500Y-82577159D01*
X127349500Y-82932841D01*
X127329815Y-82999880D01*
X127277011Y-83045635D01*
X127207853Y-83055579D01*
X127188610Y-83051227D01*
X127157101Y-83041408D01*
X127086572Y-83035000D01*
X127080000Y-83035000D01*
X127080000Y-83760000D01*
X127757133Y-83760000D01*
X127758651Y-83759171D01*
X127770264Y-83760000D01*
X127781361Y-83760000D01*
X127781361Y-83760792D01*
X127828344Y-83764146D01*
X127872707Y-83792653D01*
X128253181Y-84173127D01*
X128286666Y-84234450D01*
X128289500Y-84260808D01*
X128289500Y-84341613D01*
X128295913Y-84412192D01*
X128295913Y-84412194D01*
X128295914Y-84412196D01*
X128346522Y-84574606D01*
X128346523Y-84574607D01*
X128348754Y-84581767D01*
X128347563Y-84582138D01*
X128356088Y-84643818D01*
X128326716Y-84707214D01*
X128267732Y-84744666D01*
X128233448Y-84749500D01*
X127785999Y-84749500D01*
X127718960Y-84729815D01*
X127673205Y-84677011D01*
X127663261Y-84607853D01*
X127670893Y-84581593D01*
X127670787Y-84581560D01*
X127672517Y-84576007D01*
X127672924Y-84574608D01*
X127673019Y-84574396D01*
X127723590Y-84412106D01*
X127730000Y-84341572D01*
X127730000Y-84260000D01*
X126954000Y-84260000D01*
X126886961Y-84240315D01*
X126841206Y-84187511D01*
X126830000Y-84136000D01*
X126830000Y-84010000D01*
X126704000Y-84010000D01*
X126636961Y-83990315D01*
X126591206Y-83937511D01*
X126580000Y-83886000D01*
X126580000Y-83035000D01*
X126579999Y-83034999D01*
X126573436Y-83035000D01*
X126573417Y-83035001D01*
X126502897Y-83041408D01*
X126502892Y-83041409D01*
X126340603Y-83091981D01*
X126195124Y-83179926D01*
X126093034Y-83282016D01*
X126085086Y-83286355D01*
X126079662Y-83293602D01*
X126054904Y-83302835D01*
X126031711Y-83315500D01*
X126022680Y-83314854D01*
X126014198Y-83318018D01*
X125988377Y-83312401D01*
X125962019Y-83310516D01*
X125952965Y-83304697D01*
X125945925Y-83303166D01*
X125917671Y-83282014D01*
X125866818Y-83231160D01*
X125833334Y-83169837D01*
X125830500Y-83143480D01*
X125830500Y-83115928D01*
X125805502Y-82990261D01*
X125805501Y-82990260D01*
X125805501Y-82990256D01*
X125756465Y-82871873D01*
X125722149Y-82820515D01*
X125722149Y-82820514D01*
X125685274Y-82765327D01*
X125562148Y-82642201D01*
X125528663Y-82580878D01*
X125533647Y-82511186D01*
X125575519Y-82455253D01*
X125612935Y-82436137D01*
X125669606Y-82418478D01*
X125815185Y-82330472D01*
X125917673Y-82227983D01*
X125978994Y-82194499D01*
X126048685Y-82199483D01*
X126093034Y-82227984D01*
X126195122Y-82330072D01*
X126340604Y-82418019D01*
X126340603Y-82418019D01*
X126502894Y-82468590D01*
X126502893Y-82468590D01*
X126573408Y-82474998D01*
X126573426Y-82474999D01*
X126579999Y-82474998D01*
X126580000Y-82474998D01*
X126580000Y-80525000D01*
X126579999Y-80524999D01*
X126573436Y-80525000D01*
X126573417Y-80525001D01*
X126502897Y-80531408D01*
X126502892Y-80531409D01*
X126340603Y-80581981D01*
X126195122Y-80669927D01*
X126195121Y-80669928D01*
X126093035Y-80772015D01*
X126031712Y-80805500D01*
X125962020Y-80800516D01*
X125917673Y-80772015D01*
X125815188Y-80669530D01*
X125812814Y-80668095D01*
X125669606Y-80581522D01*
X125507196Y-80530914D01*
X125507194Y-80530913D01*
X125507192Y-80530913D01*
X125457778Y-80526423D01*
X125436616Y-80524500D01*
X125436613Y-80524500D01*
X125175808Y-80524500D01*
X125108769Y-80504815D01*
X125088127Y-80488181D01*
X124094674Y-79494727D01*
X124094673Y-79494726D01*
X124046633Y-79462627D01*
X123988127Y-79423535D01*
X123869744Y-79374499D01*
X123869738Y-79374497D01*
X123744071Y-79349500D01*
X123744069Y-79349500D01*
X120037931Y-79349500D01*
X120037929Y-79349500D01*
X119912261Y-79374497D01*
X119912255Y-79374499D01*
X119793874Y-79423534D01*
X119687326Y-79494726D01*
X119545724Y-79636328D01*
X119473520Y-79744391D01*
X119419908Y-79789196D01*
X119370418Y-79799500D01*
X116499998Y-79799500D01*
X116499981Y-79799501D01*
X116397203Y-79810000D01*
X116397200Y-79810001D01*
X116230668Y-79865185D01*
X116230663Y-79865187D01*
X116081342Y-79957289D01*
X115957289Y-80081342D01*
X115865187Y-80230663D01*
X115865186Y-80230666D01*
X115810001Y-80397203D01*
X115810001Y-80397204D01*
X115810000Y-80397204D01*
X115799500Y-80499983D01*
X115799500Y-81225001D01*
X115799502Y-81225024D01*
X115802315Y-81252564D01*
X115789544Y-81321256D01*
X115741663Y-81372140D01*
X115673873Y-81389059D01*
X115607697Y-81366642D01*
X115589019Y-81348522D01*
X115588460Y-81349082D01*
X115582187Y-81342809D01*
X115467093Y-81256649D01*
X115467086Y-81256645D01*
X115332379Y-81206403D01*
X115332372Y-81206401D01*
X115272844Y-81200000D01*
X115179924Y-81200000D01*
X115112885Y-81180315D01*
X115112531Y-81180000D01*
X114301988Y-81180000D01*
X114319205Y-81170060D01*
X114375060Y-81114205D01*
X114414556Y-81045796D01*
X114435000Y-80969496D01*
X114435000Y-80890504D01*
X114414556Y-80814204D01*
X114375060Y-80745795D01*
X114319205Y-80689940D01*
X114301988Y-80680000D01*
X115104862Y-80680000D01*
X115096569Y-80638309D01*
X115096569Y-80638307D01*
X115021192Y-80456328D01*
X115021185Y-80456315D01*
X114911751Y-80292537D01*
X114911748Y-80292533D01*
X114772466Y-80153251D01*
X114772462Y-80153248D01*
X114608684Y-80043814D01*
X114608671Y-80043807D01*
X114426693Y-79968430D01*
X114426681Y-79968427D01*
X114233495Y-79930000D01*
X113835000Y-79930000D01*
X113835000Y-80630000D01*
X113335000Y-80630000D01*
X113335000Y-79930000D01*
X112936504Y-79930000D01*
X112743318Y-79968427D01*
X112743306Y-79968430D01*
X112561328Y-80043807D01*
X112561315Y-80043814D01*
X112397537Y-80153248D01*
X112397533Y-80153251D01*
X112258251Y-80292533D01*
X112258248Y-80292537D01*
X112148814Y-80456315D01*
X112148807Y-80456328D01*
X112073430Y-80638307D01*
X112073430Y-80638309D01*
X112065138Y-80680000D01*
X112868012Y-80680000D01*
X112850795Y-80689940D01*
X112794940Y-80745795D01*
X112755444Y-80814204D01*
X112735000Y-80890504D01*
X112735000Y-80969496D01*
X112755444Y-81045796D01*
X112794940Y-81114205D01*
X112850795Y-81170060D01*
X112868012Y-81180000D01*
X112065138Y-81180000D01*
X112073430Y-81221690D01*
X112073430Y-81221692D01*
X112148807Y-81403671D01*
X112148814Y-81403684D01*
X112258248Y-81567462D01*
X112258251Y-81567466D01*
X112397533Y-81706748D01*
X112397537Y-81706751D01*
X112566387Y-81819574D01*
X112565430Y-81821005D01*
X112609425Y-81864211D01*
X112624895Y-81932346D01*
X112601072Y-81998029D01*
X112599309Y-82000094D01*
X112599432Y-82000189D01*
X112594485Y-82006635D01*
X112518719Y-82137863D01*
X112479500Y-82284234D01*
X112479500Y-82435768D01*
X112483716Y-82451503D01*
X112482051Y-82521353D01*
X112445012Y-82576071D01*
X112445356Y-82576415D01*
X112443575Y-82578195D01*
X112442886Y-82579214D01*
X112442609Y-82579442D01*
X112441046Y-82580724D01*
X110715583Y-84306187D01*
X110660256Y-84388992D01*
X110644394Y-84412730D01*
X110595358Y-84531114D01*
X110595356Y-84531120D01*
X110570359Y-84656787D01*
X110570359Y-85784930D01*
X110592154Y-85894495D01*
X110592154Y-85894496D01*
X110595356Y-85910595D01*
X110595360Y-85910608D01*
X110644391Y-86028982D01*
X110644394Y-86028986D01*
X110708882Y-86125501D01*
X110715585Y-86135532D01*
X112463700Y-87883647D01*
X112497185Y-87944970D01*
X112495794Y-88003420D01*
X112479500Y-88064232D01*
X112479500Y-88064234D01*
X112479500Y-88215766D01*
X112480500Y-88219499D01*
X112518719Y-88362136D01*
X112556602Y-88427750D01*
X112594485Y-88493365D01*
X112594488Y-88493368D01*
X112599432Y-88499811D01*
X112596612Y-88501974D01*
X112622302Y-88549020D01*
X112617318Y-88618712D01*
X112575446Y-88674645D01*
X112566379Y-88680416D01*
X112566387Y-88680427D01*
X112397536Y-88793248D01*
X112258251Y-88932533D01*
X112258248Y-88932537D01*
X112148814Y-89096315D01*
X112148807Y-89096328D01*
X112073430Y-89278307D01*
X112073430Y-89278309D01*
X112065138Y-89320000D01*
X112868012Y-89320000D01*
X112850795Y-89329940D01*
X112794940Y-89385795D01*
X112755444Y-89454204D01*
X112735000Y-89530504D01*
X112735000Y-89609496D01*
X112755444Y-89685796D01*
X112794940Y-89754205D01*
X112850795Y-89810060D01*
X112868012Y-89820000D01*
X112065138Y-89820000D01*
X112073430Y-89861690D01*
X112073430Y-89861692D01*
X112148807Y-90043671D01*
X112148814Y-90043684D01*
X112258248Y-90207462D01*
X112258251Y-90207466D01*
X112397533Y-90346748D01*
X112397537Y-90346751D01*
X112561315Y-90456185D01*
X112561328Y-90456192D01*
X112743306Y-90531569D01*
X112743318Y-90531572D01*
X112936504Y-90569999D01*
X112936508Y-90570000D01*
X113335000Y-90570000D01*
X113335000Y-89870000D01*
X113835000Y-89870000D01*
X113835000Y-90570000D01*
X114233492Y-90570000D01*
X114233495Y-90569999D01*
X114426681Y-90531572D01*
X114426693Y-90531569D01*
X114608671Y-90456192D01*
X114608684Y-90456185D01*
X114772462Y-90346751D01*
X114772466Y-90346748D01*
X114911748Y-90207466D01*
X114911751Y-90207462D01*
X115021185Y-90043684D01*
X115021192Y-90043671D01*
X115096569Y-89861692D01*
X115096569Y-89861690D01*
X115104862Y-89820000D01*
X114301988Y-89820000D01*
X114319205Y-89810060D01*
X114375060Y-89754205D01*
X114414556Y-89685796D01*
X114435000Y-89609496D01*
X114435000Y-89530504D01*
X114414556Y-89454204D01*
X114375060Y-89385795D01*
X114319205Y-89329940D01*
X114250796Y-89290444D01*
X114250000Y-89290230D01*
X114250000Y-88750000D01*
X113558242Y-88750000D01*
X113491203Y-88730315D01*
X113445448Y-88677511D01*
X113435504Y-88608353D01*
X113464529Y-88544797D01*
X113470545Y-88538334D01*
X113499930Y-88508949D01*
X113561249Y-88475466D01*
X113630941Y-88480449D01*
X113630942Y-88480450D01*
X113661296Y-88491771D01*
X113667517Y-88494091D01*
X113727127Y-88500500D01*
X114626001Y-88500499D01*
X114693039Y-88520183D01*
X114738794Y-88572987D01*
X114750000Y-88624499D01*
X114750000Y-89320000D01*
X115121265Y-89320000D01*
X115141818Y-89306000D01*
X115179924Y-89300000D01*
X115272828Y-89300000D01*
X115272844Y-89299999D01*
X115332372Y-89293598D01*
X115332383Y-89293595D01*
X115441352Y-89252952D01*
X115450530Y-89252295D01*
X115458619Y-89247904D01*
X115484830Y-89249842D01*
X115511043Y-89247967D01*
X115519120Y-89252377D01*
X115528298Y-89253056D01*
X115549297Y-89268854D01*
X115572367Y-89281451D01*
X115578258Y-89290643D01*
X115584131Y-89295061D01*
X115594656Y-89316226D01*
X115600971Y-89326078D01*
X115621474Y-89381454D01*
X115623145Y-89405631D01*
X115629103Y-89429123D01*
X115625594Y-89441071D01*
X115626292Y-89451158D01*
X115618428Y-89465476D01*
X115613493Y-89482284D01*
X115613855Y-89482441D01*
X115612587Y-89485369D01*
X115611927Y-89487620D01*
X115610759Y-89489594D01*
X115610754Y-89489607D01*
X115564902Y-89647426D01*
X115564901Y-89647432D01*
X115562000Y-89684298D01*
X115562000Y-90115701D01*
X115564901Y-90152567D01*
X115564902Y-90152573D01*
X115610754Y-90310393D01*
X115610755Y-90310396D01*
X115694417Y-90451862D01*
X115694423Y-90451870D01*
X115810629Y-90568076D01*
X115810633Y-90568079D01*
X115810635Y-90568081D01*
X115952102Y-90651744D01*
X115993724Y-90663836D01*
X116109926Y-90697597D01*
X116109929Y-90697597D01*
X116109931Y-90697598D01*
X116146806Y-90700500D01*
X116146814Y-90700500D01*
X117303186Y-90700500D01*
X117303194Y-90700500D01*
X117340069Y-90697598D01*
X117340071Y-90697597D01*
X117340073Y-90697597D01*
X117381691Y-90685505D01*
X117497898Y-90651744D01*
X117606396Y-90587579D01*
X117639895Y-90567768D01*
X117693700Y-90553048D01*
X117693508Y-90551097D01*
X117699570Y-90550500D01*
X117794738Y-90531569D01*
X117825243Y-90525501D01*
X117902712Y-90493411D01*
X117972180Y-90485943D01*
X118034659Y-90517218D01*
X118037845Y-90520292D01*
X118085629Y-90568076D01*
X118085633Y-90568079D01*
X118085635Y-90568081D01*
X118227102Y-90651744D01*
X118268724Y-90663836D01*
X118384926Y-90697597D01*
X118384929Y-90697597D01*
X118384931Y-90697598D01*
X118421806Y-90700500D01*
X118421814Y-90700500D01*
X119578186Y-90700500D01*
X119578194Y-90700500D01*
X119615069Y-90697598D01*
X119615071Y-90697597D01*
X119615073Y-90697597D01*
X119656691Y-90685505D01*
X119772898Y-90651744D01*
X119881396Y-90587579D01*
X119914895Y-90567768D01*
X119978016Y-90550500D01*
X124374071Y-90550500D01*
X124469239Y-90531569D01*
X124499744Y-90525501D01*
X124618127Y-90476465D01*
X124654944Y-90451865D01*
X124724669Y-90405277D01*
X125088127Y-90041819D01*
X125149450Y-90008334D01*
X125175808Y-90005500D01*
X125436613Y-90005500D01*
X125436616Y-90005500D01*
X125507196Y-89999086D01*
X125669606Y-89948478D01*
X125815185Y-89860472D01*
X125865597Y-89810060D01*
X125917319Y-89758339D01*
X125978642Y-89724854D01*
X126048334Y-89729838D01*
X126092681Y-89758339D01*
X126194811Y-89860469D01*
X126194813Y-89860470D01*
X126194815Y-89860472D01*
X126340394Y-89948478D01*
X126502804Y-89999086D01*
X126573384Y-90005500D01*
X126834192Y-90005500D01*
X126901231Y-90025185D01*
X126921873Y-90041819D01*
X128385325Y-91505272D01*
X128385326Y-91505273D01*
X128385329Y-91505275D01*
X128385331Y-91505277D01*
X128491873Y-91576465D01*
X128610256Y-91625501D01*
X128610260Y-91625501D01*
X128610261Y-91625502D01*
X128735928Y-91650500D01*
X128735931Y-91650500D01*
X131495065Y-91650500D01*
X131507572Y-91653443D01*
X131516847Y-91652428D01*
X131535949Y-91660120D01*
X131550356Y-91663510D01*
X131557409Y-91667023D01*
X131620821Y-91709394D01*
X131749238Y-91762585D01*
X131753101Y-91764510D01*
X131775678Y-91785449D01*
X131799666Y-91804779D01*
X131801070Y-91808999D01*
X131804330Y-91812022D01*
X131812003Y-91841846D01*
X131821731Y-91871074D01*
X131820631Y-91875382D01*
X131821739Y-91879688D01*
X131812069Y-91908928D01*
X131804452Y-91938773D01*
X131801197Y-91941802D01*
X131799802Y-91946024D01*
X131775856Y-91965396D01*
X131753315Y-91986384D01*
X131748512Y-91987518D01*
X131745483Y-91989970D01*
X131731803Y-91991467D01*
X131697810Y-91999500D01*
X108624500Y-91999500D01*
X108557461Y-91979815D01*
X108511706Y-91927011D01*
X108500500Y-91875500D01*
X108500500Y-90587579D01*
X108520185Y-90520540D01*
X108572989Y-90474785D01*
X108642147Y-90464841D01*
X108671953Y-90473018D01*
X108813310Y-90531570D01*
X108813318Y-90531572D01*
X109006504Y-90569999D01*
X109006508Y-90570000D01*
X109155000Y-90570000D01*
X109155000Y-89870000D01*
X109655000Y-89870000D01*
X109655000Y-90570000D01*
X109803492Y-90570000D01*
X109803495Y-90569999D01*
X109996681Y-90531572D01*
X109996693Y-90531569D01*
X110178671Y-90456192D01*
X110178684Y-90456185D01*
X110342462Y-90346751D01*
X110342466Y-90346748D01*
X110481748Y-90207466D01*
X110481751Y-90207462D01*
X110591185Y-90043684D01*
X110591192Y-90043671D01*
X110666569Y-89861692D01*
X110666569Y-89861690D01*
X110674862Y-89820000D01*
X109871988Y-89820000D01*
X109889205Y-89810060D01*
X109945060Y-89754205D01*
X109984556Y-89685796D01*
X110005000Y-89609496D01*
X110005000Y-89530504D01*
X109984556Y-89454204D01*
X109945060Y-89385795D01*
X109889205Y-89329940D01*
X109871988Y-89320000D01*
X110674862Y-89320000D01*
X110666569Y-89278309D01*
X110666569Y-89278307D01*
X110591192Y-89096328D01*
X110591185Y-89096315D01*
X110481751Y-88932537D01*
X110481748Y-88932533D01*
X110342466Y-88793251D01*
X110342462Y-88793248D01*
X110178684Y-88683814D01*
X110178671Y-88683807D01*
X109996693Y-88608430D01*
X109996681Y-88608427D01*
X109803495Y-88570000D01*
X109655000Y-88570000D01*
X109655000Y-89270000D01*
X109155000Y-89270000D01*
X109155000Y-88570000D01*
X109006504Y-88570000D01*
X108813318Y-88608427D01*
X108813306Y-88608430D01*
X108671952Y-88666981D01*
X108602483Y-88674450D01*
X108540004Y-88643175D01*
X108504352Y-88583086D01*
X108500500Y-88552420D01*
X108500500Y-81947579D01*
X108520185Y-81880540D01*
X108572989Y-81834785D01*
X108642147Y-81824841D01*
X108671953Y-81833018D01*
X108813310Y-81891570D01*
X108813318Y-81891572D01*
X109006504Y-81929999D01*
X109006508Y-81930000D01*
X109155000Y-81930000D01*
X109155000Y-81230000D01*
X109655000Y-81230000D01*
X109655000Y-81930000D01*
X109803492Y-81930000D01*
X109803495Y-81929999D01*
X109996681Y-81891572D01*
X109996693Y-81891569D01*
X110178671Y-81816192D01*
X110178684Y-81816185D01*
X110342462Y-81706751D01*
X110342466Y-81706748D01*
X110481748Y-81567466D01*
X110481751Y-81567462D01*
X110591185Y-81403684D01*
X110591192Y-81403671D01*
X110666569Y-81221692D01*
X110666569Y-81221690D01*
X110674862Y-81180000D01*
X109871988Y-81180000D01*
X109889205Y-81170060D01*
X109945060Y-81114205D01*
X109984556Y-81045796D01*
X110005000Y-80969496D01*
X110005000Y-80890504D01*
X109984556Y-80814204D01*
X109945060Y-80745795D01*
X109889205Y-80689940D01*
X109871988Y-80680000D01*
X110674862Y-80680000D01*
X110666569Y-80638309D01*
X110666569Y-80638307D01*
X110591192Y-80456328D01*
X110591185Y-80456315D01*
X110481751Y-80292537D01*
X110481748Y-80292533D01*
X110342466Y-80153251D01*
X110342462Y-80153248D01*
X110178684Y-80043814D01*
X110178671Y-80043807D01*
X109996693Y-79968430D01*
X109996681Y-79968427D01*
X109803495Y-79930000D01*
X109655000Y-79930000D01*
X109655000Y-80630000D01*
X109155000Y-80630000D01*
X109155000Y-79930000D01*
X109006504Y-79930000D01*
X108813318Y-79968427D01*
X108813306Y-79968430D01*
X108671952Y-80026981D01*
X108602483Y-80034450D01*
X108540004Y-80003175D01*
X108504352Y-79943086D01*
X108500500Y-79912420D01*
X108500500Y-78624500D01*
X108520185Y-78557461D01*
X108572989Y-78511706D01*
X108624500Y-78500500D01*
X127780192Y-78500500D01*
X127847231Y-78520185D01*
G37*
%TD.AperFunction*%
%TA.AperFunction,Conductor*%
G36*
X130058334Y-87219838D02*
G01*
X130102681Y-87248339D01*
X130204811Y-87350469D01*
X130204813Y-87350470D01*
X130204815Y-87350472D01*
X130350394Y-87438478D01*
X130512804Y-87489086D01*
X130583384Y-87495500D01*
X130583387Y-87495500D01*
X131094902Y-87495500D01*
X131161941Y-87515185D01*
X131182583Y-87531819D01*
X131967031Y-88316267D01*
X131965949Y-88317348D01*
X132001758Y-88366382D01*
X132005918Y-88436127D01*
X132003458Y-88445226D01*
X131955914Y-88597804D01*
X131949628Y-88666981D01*
X131949500Y-88668386D01*
X131949500Y-89331613D01*
X131955913Y-89402192D01*
X131955913Y-89402194D01*
X131955914Y-89402196D01*
X132006522Y-89564606D01*
X132090022Y-89702732D01*
X132094530Y-89710188D01*
X132214811Y-89830469D01*
X132214813Y-89830470D01*
X132214815Y-89830472D01*
X132360394Y-89918478D01*
X132522804Y-89969086D01*
X132593384Y-89975500D01*
X132593387Y-89975500D01*
X133106613Y-89975500D01*
X133106616Y-89975500D01*
X133177196Y-89969086D01*
X133339606Y-89918478D01*
X133485185Y-89830472D01*
X133587320Y-89728336D01*
X133595265Y-89723998D01*
X133600690Y-89716752D01*
X133625446Y-89707518D01*
X133648641Y-89694853D01*
X133657671Y-89695498D01*
X133666154Y-89692335D01*
X133691974Y-89697951D01*
X133718333Y-89699837D01*
X133727386Y-89705655D01*
X133734427Y-89707187D01*
X133762681Y-89728338D01*
X133813181Y-89778838D01*
X133846666Y-89840161D01*
X133849500Y-89866519D01*
X133849500Y-90564070D01*
X133862452Y-90629179D01*
X133862452Y-90629181D01*
X133866940Y-90651745D01*
X133874499Y-90689744D01*
X133923535Y-90808127D01*
X133994723Y-90914669D01*
X133994726Y-90914673D01*
X134585326Y-91505273D01*
X134585329Y-91505275D01*
X134585331Y-91505277D01*
X134691873Y-91576465D01*
X134810256Y-91625501D01*
X134810260Y-91625501D01*
X134810261Y-91625502D01*
X134935928Y-91650500D01*
X134935931Y-91650500D01*
X140064071Y-91650500D01*
X140148615Y-91633682D01*
X140189744Y-91625501D01*
X140308127Y-91576465D01*
X140414669Y-91505277D01*
X141430277Y-90489669D01*
X141501466Y-90383126D01*
X141524954Y-90326420D01*
X141531649Y-90310257D01*
X141531649Y-90310256D01*
X141539790Y-90290602D01*
X141550501Y-90264744D01*
X141575500Y-90139069D01*
X141575500Y-89893035D01*
X141584144Y-89863596D01*
X141590666Y-89833612D01*
X141594422Y-89828593D01*
X141595185Y-89825996D01*
X141611815Y-89805357D01*
X141617692Y-89799480D01*
X141625170Y-89792001D01*
X141686490Y-89758516D01*
X141756182Y-89763498D01*
X141800534Y-89792000D01*
X141832419Y-89823885D01*
X141975422Y-89912091D01*
X141975427Y-89912093D01*
X142134916Y-89964942D01*
X142233356Y-89974999D01*
X142750000Y-89974999D01*
X142766636Y-89974999D01*
X142766652Y-89974998D01*
X142865083Y-89964943D01*
X143024572Y-89912093D01*
X143024577Y-89912091D01*
X143167580Y-89823885D01*
X143286385Y-89705080D01*
X143374591Y-89562077D01*
X143374593Y-89562072D01*
X143427442Y-89402583D01*
X143437499Y-89304150D01*
X143437500Y-89304137D01*
X143437500Y-89250000D01*
X142750000Y-89250000D01*
X142750000Y-89974999D01*
X142233356Y-89974999D01*
X142250000Y-89974998D01*
X142250000Y-89124000D01*
X142269685Y-89056961D01*
X142322489Y-89011206D01*
X142374000Y-89000000D01*
X142500000Y-89000000D01*
X142500000Y-88914500D01*
X142519685Y-88847461D01*
X142572489Y-88801706D01*
X142624000Y-88790500D01*
X144927779Y-88790500D01*
X144994818Y-88810185D01*
X145028097Y-88841615D01*
X145084892Y-88919788D01*
X145235213Y-89070109D01*
X145407182Y-89195050D01*
X145415946Y-89199516D01*
X145466742Y-89247491D01*
X145483536Y-89315312D01*
X145460998Y-89381447D01*
X145415946Y-89420484D01*
X145407182Y-89424949D01*
X145235213Y-89549890D01*
X145084890Y-89700213D01*
X144959951Y-89872179D01*
X144863444Y-90061585D01*
X144797753Y-90263760D01*
X144775339Y-90405277D01*
X144764500Y-90473713D01*
X144764500Y-90686287D01*
X144797754Y-90896243D01*
X144857084Y-91078842D01*
X144863444Y-91098414D01*
X144959951Y-91287820D01*
X145084890Y-91459786D01*
X145235213Y-91610109D01*
X145407179Y-91735048D01*
X145407181Y-91735049D01*
X145407184Y-91735051D01*
X145457992Y-91760939D01*
X145465992Y-91765015D01*
X145516788Y-91812990D01*
X145533583Y-91880810D01*
X145511046Y-91946945D01*
X145456331Y-91990397D01*
X145409697Y-91999500D01*
X132302190Y-91999500D01*
X132235151Y-91979815D01*
X132189396Y-91927011D01*
X132179452Y-91857853D01*
X132208477Y-91794297D01*
X132254738Y-91760939D01*
X132379172Y-91709397D01*
X132379172Y-91709396D01*
X132379179Y-91709394D01*
X132510289Y-91621789D01*
X132621789Y-91510289D01*
X132709394Y-91379179D01*
X132769737Y-91233497D01*
X132800500Y-91078842D01*
X132800500Y-90921158D01*
X132800500Y-90921155D01*
X132800499Y-90921153D01*
X132795543Y-90896239D01*
X132769737Y-90766503D01*
X132742398Y-90700500D01*
X132709397Y-90620827D01*
X132709390Y-90620814D01*
X132621789Y-90489711D01*
X132621786Y-90489707D01*
X132510292Y-90378213D01*
X132510288Y-90378210D01*
X132379185Y-90290609D01*
X132379172Y-90290602D01*
X132233501Y-90230264D01*
X132233489Y-90230261D01*
X132078845Y-90199500D01*
X132078842Y-90199500D01*
X131921158Y-90199500D01*
X131921155Y-90199500D01*
X131766510Y-90230261D01*
X131766498Y-90230264D01*
X131620827Y-90290602D01*
X131620820Y-90290606D01*
X131604958Y-90301205D01*
X131563955Y-90328602D01*
X131497279Y-90349480D01*
X131495065Y-90349500D01*
X130174500Y-90349500D01*
X130171493Y-90348617D01*
X130168449Y-90349352D01*
X130138188Y-90338837D01*
X130107461Y-90329815D01*
X130105410Y-90327448D01*
X130102450Y-90326420D01*
X130082670Y-90301205D01*
X130061706Y-90277011D01*
X130060679Y-90273171D01*
X130059326Y-90271446D01*
X130057047Y-90259582D01*
X130051047Y-90237137D01*
X130050500Y-90231333D01*
X130050500Y-90171158D01*
X130039718Y-90116958D01*
X130039123Y-90110636D01*
X130044615Y-90082323D01*
X130047186Y-90053599D01*
X130051187Y-90048447D01*
X130052430Y-90042045D01*
X130072356Y-90021196D01*
X130090049Y-89998422D01*
X130096199Y-89996252D01*
X130100707Y-89991536D01*
X130128744Y-89984770D01*
X130155938Y-89975177D01*
X130162572Y-89974999D01*
X130670000Y-89974999D01*
X130693308Y-89974999D01*
X130693322Y-89974998D01*
X130792607Y-89964855D01*
X130953481Y-89911547D01*
X130953492Y-89911542D01*
X131097728Y-89822575D01*
X131097732Y-89822572D01*
X131217572Y-89702732D01*
X131217575Y-89702728D01*
X131306542Y-89558492D01*
X131306547Y-89558481D01*
X131359855Y-89397606D01*
X131369999Y-89298322D01*
X131370000Y-89298309D01*
X131370000Y-89250000D01*
X130670000Y-89250000D01*
X130670000Y-89974999D01*
X130162572Y-89974999D01*
X130170000Y-89974998D01*
X130170000Y-88750000D01*
X130670000Y-88750000D01*
X131369999Y-88750000D01*
X131369999Y-88701692D01*
X131369998Y-88701677D01*
X131359855Y-88602392D01*
X131306547Y-88441518D01*
X131306542Y-88441507D01*
X131217575Y-88297271D01*
X131217572Y-88297267D01*
X131097732Y-88177427D01*
X131097728Y-88177424D01*
X130953492Y-88088457D01*
X130953481Y-88088452D01*
X130792606Y-88035144D01*
X130693322Y-88025000D01*
X130670000Y-88025000D01*
X130670000Y-88750000D01*
X130170000Y-88750000D01*
X130170000Y-88024999D01*
X130146693Y-88025000D01*
X130146674Y-88025001D01*
X130047392Y-88035144D01*
X129886518Y-88088452D01*
X129886507Y-88088457D01*
X129742271Y-88177424D01*
X129742264Y-88177430D01*
X129733028Y-88186665D01*
X129725085Y-88191001D01*
X129719663Y-88198245D01*
X129694900Y-88207480D01*
X129671703Y-88220146D01*
X129662676Y-88219499D01*
X129654199Y-88222662D01*
X129628375Y-88217044D01*
X129602011Y-88215157D01*
X129592961Y-88209340D01*
X129585926Y-88207810D01*
X129557672Y-88186659D01*
X129556819Y-88185806D01*
X129523334Y-88124483D01*
X129520500Y-88098125D01*
X129520500Y-87579297D01*
X129540185Y-87512258D01*
X129592989Y-87466503D01*
X129607598Y-87460915D01*
X129679606Y-87438478D01*
X129825185Y-87350472D01*
X129875801Y-87299856D01*
X129927319Y-87248339D01*
X129988642Y-87214854D01*
X130058334Y-87219838D01*
G37*
%TD.AperFunction*%
%TA.AperFunction,Conductor*%
G36*
X136424044Y-88770185D02*
G01*
X136429223Y-88775000D01*
X137992270Y-88775000D01*
X138059309Y-88794685D01*
X138079951Y-88811319D01*
X138532017Y-89263384D01*
X138563412Y-89316469D01*
X138575445Y-89357887D01*
X138603681Y-89405631D01*
X138654282Y-89491194D01*
X138654289Y-89491203D01*
X138763796Y-89600710D01*
X138763800Y-89600713D01*
X138763802Y-89600715D01*
X138897113Y-89679555D01*
X139045844Y-89722765D01*
X139080595Y-89725500D01*
X139118184Y-89725499D01*
X139142377Y-89727882D01*
X139256080Y-89750500D01*
X139256083Y-89750500D01*
X139403919Y-89750500D01*
X139403919Y-89750499D01*
X139517627Y-89727881D01*
X139541818Y-89725499D01*
X139579394Y-89725499D01*
X139579404Y-89725499D01*
X139614156Y-89722765D01*
X139762887Y-89679555D01*
X139896198Y-89600715D01*
X139896202Y-89600710D01*
X139902364Y-89595932D01*
X139903417Y-89597290D01*
X139911230Y-89593023D01*
X139924390Y-89580120D01*
X139941255Y-89576624D01*
X139956373Y-89568367D01*
X139974758Y-89569679D01*
X139992805Y-89565939D01*
X140008883Y-89572116D01*
X140026065Y-89573343D01*
X140040821Y-89584387D01*
X140058026Y-89590997D01*
X140075595Y-89610411D01*
X140082004Y-89615208D01*
X140082737Y-89616198D01*
X140085674Y-89620202D01*
X140138219Y-89705391D01*
X140175465Y-89742637D01*
X140181071Y-89750281D01*
X140189862Y-89774578D01*
X140202245Y-89797255D01*
X140201555Y-89806894D01*
X140204844Y-89815982D01*
X140199104Y-89841173D01*
X140197261Y-89866947D01*
X140191018Y-89876660D01*
X140189322Y-89884106D01*
X140180970Y-89892295D01*
X140168760Y-89911294D01*
X139766873Y-90313181D01*
X139705550Y-90346666D01*
X139679192Y-90349500D01*
X135320808Y-90349500D01*
X135253769Y-90329815D01*
X135233127Y-90313181D01*
X135186819Y-90266873D01*
X135153334Y-90205550D01*
X135150500Y-90179192D01*
X135150500Y-89866519D01*
X135170185Y-89799480D01*
X135186814Y-89778842D01*
X135255472Y-89710185D01*
X135343478Y-89564606D01*
X135394086Y-89402196D01*
X135400500Y-89331616D01*
X135400500Y-89225001D01*
X136437358Y-89225001D01*
X136475906Y-89357681D01*
X136475907Y-89357684D01*
X136554682Y-89490885D01*
X136554688Y-89490894D01*
X136664105Y-89600311D01*
X136664114Y-89600317D01*
X136797315Y-89679092D01*
X136797318Y-89679093D01*
X136945915Y-89722265D01*
X136945927Y-89722267D01*
X136980646Y-89724999D01*
X137455000Y-89724999D01*
X137479342Y-89724999D01*
X137479363Y-89724998D01*
X137514078Y-89722266D01*
X137662681Y-89679093D01*
X137662684Y-89679092D01*
X137795885Y-89600317D01*
X137795894Y-89600311D01*
X137905311Y-89490894D01*
X137905317Y-89490885D01*
X137984092Y-89357684D01*
X137984093Y-89357681D01*
X138022641Y-89225001D01*
X138022640Y-89225000D01*
X137455000Y-89225000D01*
X137455000Y-89724999D01*
X136980646Y-89724999D01*
X137005000Y-89724998D01*
X137005000Y-89225000D01*
X136437360Y-89225000D01*
X136437358Y-89225001D01*
X135400500Y-89225001D01*
X135400500Y-88874500D01*
X135420185Y-88807461D01*
X135472989Y-88761706D01*
X135524500Y-88750500D01*
X136357005Y-88750500D01*
X136424044Y-88770185D01*
G37*
%TD.AperFunction*%
%TA.AperFunction,Conductor*%
G36*
X124275547Y-86270000D02*
G01*
X125056000Y-86270000D01*
X125123039Y-86289685D01*
X125168794Y-86342489D01*
X125180000Y-86394000D01*
X125180000Y-86520000D01*
X125306000Y-86520000D01*
X125373039Y-86539685D01*
X125418794Y-86592489D01*
X125430000Y-86644000D01*
X125430000Y-87494999D01*
X125436581Y-87494999D01*
X125507102Y-87488591D01*
X125507107Y-87488590D01*
X125669396Y-87438018D01*
X125814877Y-87350072D01*
X125814878Y-87350071D01*
X125916963Y-87247985D01*
X125978286Y-87214499D01*
X126047977Y-87219483D01*
X126092326Y-87247984D01*
X126194811Y-87350469D01*
X126194813Y-87350470D01*
X126194815Y-87350472D01*
X126340394Y-87438478D01*
X126502804Y-87489086D01*
X126573384Y-87495500D01*
X126573387Y-87495500D01*
X127086613Y-87495500D01*
X127086616Y-87495500D01*
X127157196Y-87489086D01*
X127319606Y-87438478D01*
X127465185Y-87350472D01*
X127585472Y-87230185D01*
X127590046Y-87222617D01*
X127610307Y-87204061D01*
X127628097Y-87183117D01*
X127637285Y-87179353D01*
X127641571Y-87175429D01*
X127660056Y-87168139D01*
X127665936Y-87166349D01*
X127770744Y-87145501D01*
X127871395Y-87103809D01*
X127877164Y-87102054D01*
X127879289Y-87102033D01*
X127889081Y-87099063D01*
X127928457Y-87091230D01*
X128033997Y-87070237D01*
X128048048Y-87064416D01*
X128117516Y-87056948D01*
X128179995Y-87088223D01*
X128215648Y-87148311D01*
X128219500Y-87178978D01*
X128219500Y-88098125D01*
X128199815Y-88165164D01*
X128183182Y-88185806D01*
X128072029Y-88296959D01*
X127983001Y-88441294D01*
X127982997Y-88441303D01*
X127940946Y-88568204D01*
X127901173Y-88625648D01*
X127836657Y-88652471D01*
X127767881Y-88640156D01*
X127716681Y-88592612D01*
X127704856Y-88566094D01*
X127673478Y-88465394D01*
X127585472Y-88319815D01*
X127585470Y-88319813D01*
X127585469Y-88319811D01*
X127465188Y-88199530D01*
X127463062Y-88198245D01*
X127319606Y-88111522D01*
X127157196Y-88060914D01*
X127157194Y-88060913D01*
X127157192Y-88060913D01*
X127107778Y-88056423D01*
X127086616Y-88054500D01*
X126573384Y-88054500D01*
X126554145Y-88056248D01*
X126502807Y-88060913D01*
X126340393Y-88111522D01*
X126194811Y-88199530D01*
X126194810Y-88199531D01*
X126092681Y-88301661D01*
X126031358Y-88335146D01*
X125961666Y-88330162D01*
X125917319Y-88301661D01*
X125815188Y-88199530D01*
X125813062Y-88198245D01*
X125669606Y-88111522D01*
X125507196Y-88060914D01*
X125507194Y-88060913D01*
X125507192Y-88060913D01*
X125457778Y-88056423D01*
X125436616Y-88054500D01*
X124923384Y-88054500D01*
X124904145Y-88056248D01*
X124852807Y-88060913D01*
X124690393Y-88111522D01*
X124544811Y-88199530D01*
X124424530Y-88319811D01*
X124336522Y-88465393D01*
X124285913Y-88627807D01*
X124279500Y-88698386D01*
X124279500Y-88959192D01*
X124270855Y-88988632D01*
X124264332Y-89018619D01*
X124260577Y-89023634D01*
X124259815Y-89026231D01*
X124243181Y-89046873D01*
X124076873Y-89213181D01*
X124015550Y-89246666D01*
X123989192Y-89249500D01*
X123844500Y-89249500D01*
X123777461Y-89229815D01*
X123731706Y-89177011D01*
X123720500Y-89125500D01*
X123720499Y-88731662D01*
X123720498Y-88731644D01*
X123710349Y-88632292D01*
X123710348Y-88632289D01*
X123690697Y-88572987D01*
X123657003Y-88471303D01*
X123656999Y-88471297D01*
X123656998Y-88471294D01*
X123567970Y-88326959D01*
X123567969Y-88326958D01*
X123567968Y-88326956D01*
X123456818Y-88215806D01*
X123423334Y-88154483D01*
X123420500Y-88128125D01*
X123420500Y-87421874D01*
X123440185Y-87354835D01*
X123456819Y-87334193D01*
X123510952Y-87280060D01*
X123567968Y-87223044D01*
X123657003Y-87078697D01*
X123710349Y-86917708D01*
X123717104Y-86851582D01*
X124280001Y-86851582D01*
X124286408Y-86922102D01*
X124286409Y-86922107D01*
X124336981Y-87084396D01*
X124424927Y-87229877D01*
X124545122Y-87350072D01*
X124690604Y-87438019D01*
X124690603Y-87438019D01*
X124852894Y-87488590D01*
X124852893Y-87488590D01*
X124923408Y-87494998D01*
X124923426Y-87494999D01*
X124929999Y-87494998D01*
X124930000Y-87494998D01*
X124930000Y-86770000D01*
X124280001Y-86770000D01*
X124280001Y-86851582D01*
X123717104Y-86851582D01*
X123720500Y-86818345D01*
X123720499Y-86374499D01*
X123740183Y-86307461D01*
X123792987Y-86261706D01*
X123844499Y-86250500D01*
X124209138Y-86250500D01*
X124275547Y-86270000D01*
G37*
%TD.AperFunction*%
%TA.AperFunction,Conductor*%
G36*
X120241491Y-83760000D02*
G01*
X121096000Y-83760000D01*
X121163039Y-83779685D01*
X121208794Y-83832489D01*
X121220000Y-83884000D01*
X121220000Y-84010000D01*
X121346000Y-84010000D01*
X121413039Y-84029685D01*
X121458794Y-84082489D01*
X121470000Y-84134000D01*
X121470000Y-84984999D01*
X121493308Y-84984999D01*
X121493322Y-84984998D01*
X121592607Y-84974855D01*
X121753481Y-84921547D01*
X121753492Y-84921542D01*
X121852286Y-84860605D01*
X121919678Y-84842164D01*
X121986342Y-84863086D01*
X122031111Y-84916728D01*
X122039000Y-84941951D01*
X122048340Y-84988907D01*
X122048343Y-84988917D01*
X122104913Y-85125490D01*
X122104914Y-85125491D01*
X122104916Y-85125495D01*
X122117543Y-85144392D01*
X122117544Y-85144395D01*
X122187046Y-85248414D01*
X122187052Y-85248421D01*
X122327238Y-85388607D01*
X122360723Y-85449930D01*
X122355739Y-85519622D01*
X122313867Y-85575555D01*
X122278562Y-85593993D01*
X122252002Y-85602795D01*
X122236303Y-85607997D01*
X122236294Y-85608001D01*
X122091959Y-85697029D01*
X122091953Y-85697033D01*
X122082324Y-85706663D01*
X122021000Y-85740146D01*
X121951308Y-85735159D01*
X121906965Y-85706660D01*
X121897732Y-85697427D01*
X121897728Y-85697424D01*
X121753492Y-85608457D01*
X121753481Y-85608452D01*
X121592606Y-85555144D01*
X121493322Y-85545000D01*
X121470000Y-85545000D01*
X121470000Y-87494999D01*
X121493308Y-87494999D01*
X121493322Y-87494998D01*
X121592607Y-87484855D01*
X121753481Y-87431547D01*
X121753492Y-87431542D01*
X121897731Y-87342573D01*
X121906959Y-87333345D01*
X121914907Y-87329003D01*
X121920336Y-87321753D01*
X121945090Y-87312519D01*
X121968279Y-87299856D01*
X121977313Y-87300501D01*
X121985800Y-87297336D01*
X122011617Y-87302952D01*
X122037971Y-87304835D01*
X122047028Y-87310655D01*
X122054073Y-87312188D01*
X122082327Y-87333339D01*
X122083181Y-87334193D01*
X122116666Y-87395516D01*
X122119500Y-87421874D01*
X122119500Y-88128125D01*
X122099815Y-88195164D01*
X122083181Y-88215806D01*
X122082327Y-88216660D01*
X122021004Y-88250145D01*
X121951312Y-88245161D01*
X121906965Y-88216660D01*
X121897732Y-88207427D01*
X121897728Y-88207424D01*
X121753492Y-88118457D01*
X121753481Y-88118452D01*
X121592606Y-88065144D01*
X121493322Y-88055000D01*
X121470000Y-88055000D01*
X121470000Y-88906000D01*
X121450315Y-88973039D01*
X121397511Y-89018794D01*
X121346000Y-89030000D01*
X121094000Y-89030000D01*
X121026961Y-89010315D01*
X120981206Y-88957511D01*
X120970000Y-88906000D01*
X120970000Y-88054999D01*
X120946693Y-88055000D01*
X120946674Y-88055001D01*
X120847392Y-88065144D01*
X120686518Y-88118452D01*
X120686507Y-88118457D01*
X120542271Y-88207424D01*
X120542267Y-88207427D01*
X120422426Y-88327268D01*
X120364857Y-88420601D01*
X120312908Y-88467325D01*
X120243946Y-88478546D01*
X120179864Y-88450702D01*
X120141009Y-88392633D01*
X120139716Y-88322775D01*
X120140207Y-88321031D01*
X120160098Y-88252569D01*
X120163000Y-88215694D01*
X120163000Y-87784306D01*
X120160098Y-87747431D01*
X120114244Y-87589602D01*
X120030581Y-87448135D01*
X120030579Y-87448133D01*
X120030576Y-87448129D01*
X119914370Y-87331923D01*
X119914362Y-87331917D01*
X119809352Y-87269815D01*
X119772898Y-87248256D01*
X119772897Y-87248255D01*
X119772896Y-87248255D01*
X119772893Y-87248254D01*
X119615073Y-87202402D01*
X119615067Y-87202401D01*
X119578201Y-87199500D01*
X119578194Y-87199500D01*
X118421806Y-87199500D01*
X118421798Y-87199500D01*
X118419368Y-87199596D01*
X118419321Y-87198418D01*
X118355362Y-87184894D01*
X118326475Y-87163399D01*
X117981398Y-86818322D01*
X120270001Y-86818322D01*
X120280144Y-86917607D01*
X120333452Y-87078481D01*
X120333457Y-87078492D01*
X120422424Y-87222728D01*
X120422427Y-87222732D01*
X120542267Y-87342572D01*
X120542271Y-87342575D01*
X120686507Y-87431542D01*
X120686518Y-87431547D01*
X120847393Y-87484855D01*
X120946683Y-87494999D01*
X120970000Y-87494998D01*
X120970000Y-86770000D01*
X120270001Y-86770000D01*
X120270001Y-86818322D01*
X117981398Y-86818322D01*
X117575256Y-86412180D01*
X117541771Y-86350857D01*
X117546755Y-86281165D01*
X117588627Y-86225232D01*
X117598158Y-86221677D01*
X120270000Y-86221677D01*
X120270000Y-86270000D01*
X120970000Y-86270000D01*
X120970000Y-85544999D01*
X120946693Y-85545000D01*
X120946674Y-85545001D01*
X120847392Y-85555144D01*
X120686518Y-85608452D01*
X120686507Y-85608457D01*
X120542271Y-85697424D01*
X120542267Y-85697427D01*
X120422427Y-85817267D01*
X120422424Y-85817271D01*
X120333457Y-85961507D01*
X120333452Y-85961518D01*
X120280144Y-86122393D01*
X120270000Y-86221677D01*
X117598158Y-86221677D01*
X117654091Y-86200815D01*
X117662937Y-86200499D01*
X119500002Y-86200499D01*
X119500008Y-86200499D01*
X119602797Y-86189999D01*
X119769334Y-86134814D01*
X119918656Y-86042712D01*
X120042712Y-85918656D01*
X120134814Y-85769334D01*
X120189999Y-85602797D01*
X120200500Y-85500009D01*
X120200499Y-84788804D01*
X120220183Y-84721766D01*
X120272987Y-84676011D01*
X120342146Y-84666067D01*
X120405702Y-84695092D01*
X120421769Y-84711899D01*
X120422429Y-84712734D01*
X120542267Y-84832572D01*
X120542271Y-84832575D01*
X120686507Y-84921542D01*
X120686518Y-84921547D01*
X120847393Y-84974855D01*
X120946683Y-84984999D01*
X120970000Y-84984998D01*
X120970000Y-84260000D01*
X120270001Y-84260000D01*
X120270001Y-84287599D01*
X120250316Y-84354638D01*
X120197512Y-84400393D01*
X120128354Y-84410337D01*
X120064798Y-84381312D01*
X120047903Y-84361449D01*
X120047193Y-84362011D01*
X120042711Y-84356343D01*
X119918657Y-84232289D01*
X119918656Y-84232288D01*
X119769334Y-84140186D01*
X119602797Y-84085001D01*
X119602795Y-84085000D01*
X119500016Y-84074500D01*
X119500009Y-84074500D01*
X119286229Y-84074500D01*
X119264983Y-84068261D01*
X119242895Y-84066682D01*
X119232111Y-84058609D01*
X119219190Y-84054815D01*
X119204690Y-84038081D01*
X119186962Y-84024810D01*
X119182254Y-84012189D01*
X119173435Y-84002011D01*
X119170283Y-83980093D01*
X119162545Y-83959346D01*
X119165407Y-83946185D01*
X119163491Y-83932853D01*
X119172690Y-83912709D01*
X119177397Y-83891073D01*
X119190665Y-83873347D01*
X119192516Y-83869297D01*
X119198548Y-83862819D01*
X119274548Y-83786819D01*
X119335871Y-83753334D01*
X119362229Y-83750500D01*
X120209138Y-83750500D01*
X120241491Y-83760000D01*
G37*
%TD.AperFunction*%
%TA.AperFunction,Conductor*%
G36*
X116918039Y-88019685D02*
G01*
X116963794Y-88072489D01*
X116975000Y-88124000D01*
X116975000Y-88826000D01*
X116955315Y-88893039D01*
X116902511Y-88938794D01*
X116851000Y-88950000D01*
X116599000Y-88950000D01*
X116531961Y-88930315D01*
X116486206Y-88877511D01*
X116475000Y-88826000D01*
X116475000Y-88124000D01*
X116494685Y-88056961D01*
X116547489Y-88011206D01*
X116599000Y-88000000D01*
X116851000Y-88000000D01*
X116918039Y-88019685D01*
G37*
%TD.AperFunction*%
%TA.AperFunction,Conductor*%
G36*
X141746231Y-79670185D02*
G01*
X141766873Y-79686819D01*
X143313181Y-81233126D01*
X143346666Y-81294449D01*
X143349500Y-81320807D01*
X143349500Y-83066148D01*
X143329815Y-83133187D01*
X143277011Y-83178942D01*
X143207853Y-83188886D01*
X143160403Y-83171687D01*
X143024577Y-83087908D01*
X143024572Y-83087906D01*
X142865083Y-83035057D01*
X142766650Y-83025000D01*
X142750000Y-83025000D01*
X142750000Y-84974999D01*
X142766636Y-84974999D01*
X142766652Y-84974998D01*
X142865083Y-84964943D01*
X143024572Y-84912093D01*
X143024583Y-84912088D01*
X143160403Y-84828313D01*
X143163078Y-84827581D01*
X143165020Y-84825601D01*
X143196573Y-84818415D01*
X143227795Y-84809872D01*
X143230441Y-84810702D01*
X143233145Y-84810087D01*
X143263575Y-84821101D01*
X143294459Y-84830794D01*
X143296235Y-84832922D01*
X143298844Y-84833867D01*
X143318495Y-84859594D01*
X143339228Y-84884436D01*
X143340085Y-84887860D01*
X143341256Y-84889392D01*
X143343494Y-84901465D01*
X143349092Y-84923805D01*
X143349500Y-84928824D01*
X143349500Y-85064069D01*
X143366693Y-85150500D01*
X143374499Y-85189744D01*
X143423535Y-85308127D01*
X143494723Y-85414669D01*
X143494726Y-85414673D01*
X144085328Y-86005275D01*
X144167865Y-86060424D01*
X144167864Y-86060424D01*
X144191871Y-86076464D01*
X144191872Y-86076464D01*
X144191873Y-86076465D01*
X144310256Y-86125501D01*
X144310260Y-86125501D01*
X144310261Y-86125502D01*
X144435928Y-86150500D01*
X144435931Y-86150500D01*
X144564069Y-86150500D01*
X144855382Y-86150500D01*
X144922421Y-86170185D01*
X144956099Y-86204591D01*
X144957085Y-86203875D01*
X145084890Y-86379786D01*
X145235213Y-86530109D01*
X145407182Y-86655050D01*
X145415946Y-86659516D01*
X145466742Y-86707491D01*
X145483536Y-86775312D01*
X145460998Y-86841447D01*
X145415946Y-86880484D01*
X145407182Y-86884949D01*
X145235213Y-87009890D01*
X145084892Y-87160211D01*
X145028097Y-87238385D01*
X144972767Y-87281051D01*
X144927779Y-87289500D01*
X143456490Y-87289500D01*
X143389451Y-87269815D01*
X143343696Y-87217011D01*
X143333752Y-87147853D01*
X143350952Y-87100402D01*
X143374590Y-87062079D01*
X143374593Y-87062072D01*
X143427442Y-86902583D01*
X143437499Y-86804150D01*
X143437500Y-86804137D01*
X143437500Y-86750000D01*
X142624000Y-86750000D01*
X142556961Y-86730315D01*
X142511206Y-86677511D01*
X142500000Y-86626000D01*
X142500000Y-86500000D01*
X142374000Y-86500000D01*
X142306961Y-86480315D01*
X142261206Y-86427511D01*
X142250000Y-86376000D01*
X142250000Y-86250000D01*
X142750000Y-86250000D01*
X143437499Y-86250000D01*
X143437499Y-86195864D01*
X143437498Y-86195847D01*
X143427443Y-86097416D01*
X143374593Y-85937927D01*
X143374591Y-85937922D01*
X143286385Y-85794919D01*
X143167580Y-85676114D01*
X143024577Y-85587908D01*
X143024572Y-85587906D01*
X142865083Y-85535057D01*
X142766650Y-85525000D01*
X142750000Y-85525000D01*
X142750000Y-86250000D01*
X142250000Y-86250000D01*
X142250000Y-85524999D01*
X142233356Y-85525000D01*
X142134915Y-85535057D01*
X141975427Y-85587906D01*
X141975422Y-85587908D01*
X141832419Y-85676114D01*
X141800533Y-85708000D01*
X141739209Y-85741485D01*
X141669518Y-85736499D01*
X141625173Y-85708000D01*
X141592892Y-85675719D01*
X141592887Y-85675716D01*
X141449795Y-85587455D01*
X141449789Y-85587452D01*
X141449787Y-85587451D01*
X141290185Y-85534564D01*
X141290183Y-85534563D01*
X141191681Y-85524500D01*
X141191674Y-85524500D01*
X140658326Y-85524500D01*
X140658318Y-85524500D01*
X140559816Y-85534563D01*
X140559815Y-85534564D01*
X140526046Y-85545754D01*
X140400215Y-85587450D01*
X140400204Y-85587455D01*
X140257112Y-85675716D01*
X140257108Y-85675719D01*
X140138219Y-85794608D01*
X140133738Y-85800276D01*
X140132316Y-85799151D01*
X140128868Y-85806703D01*
X140107566Y-85820392D01*
X140088741Y-85837324D01*
X140077106Y-85839967D01*
X140070090Y-85844477D01*
X140035155Y-85849500D01*
X140004935Y-85849500D01*
X139937896Y-85829815D01*
X139936090Y-85828633D01*
X139879179Y-85790606D01*
X139879172Y-85790602D01*
X139733501Y-85730264D01*
X139733491Y-85730261D01*
X139595777Y-85702868D01*
X139533866Y-85670483D01*
X139499292Y-85609767D01*
X139503032Y-85539998D01*
X139543899Y-85483326D01*
X139544219Y-85483078D01*
X139569036Y-85464036D01*
X139659279Y-85346429D01*
X139716009Y-85209472D01*
X139730500Y-85099401D01*
X139730499Y-84900600D01*
X139716009Y-84790528D01*
X139716008Y-84790525D01*
X139713905Y-84782674D01*
X139717207Y-84781789D01*
X139711392Y-84728075D01*
X139714501Y-84717485D01*
X139713905Y-84717326D01*
X139716008Y-84709475D01*
X139716008Y-84709474D01*
X139716009Y-84709472D01*
X139730500Y-84599401D01*
X139730499Y-84400600D01*
X139716009Y-84290528D01*
X139716008Y-84290525D01*
X139713905Y-84282674D01*
X139717207Y-84281789D01*
X139711392Y-84228075D01*
X139714501Y-84217485D01*
X139713905Y-84217326D01*
X139716008Y-84209475D01*
X139716008Y-84209474D01*
X139716009Y-84209472D01*
X139730500Y-84099401D01*
X139730499Y-83900600D01*
X139716009Y-83790528D01*
X139716008Y-83790525D01*
X139713905Y-83782674D01*
X139717207Y-83781789D01*
X139715668Y-83767574D01*
X139710024Y-83737960D01*
X139711726Y-83731161D01*
X139711392Y-83728075D01*
X139714444Y-83717470D01*
X139713905Y-83717326D01*
X139716008Y-83709474D01*
X139716007Y-83709474D01*
X139716009Y-83709472D01*
X139725230Y-83639423D01*
X139753496Y-83575529D01*
X139811820Y-83537057D01*
X139881684Y-83536225D01*
X139935848Y-83567926D01*
X139952447Y-83584525D01*
X139961742Y-83601547D01*
X139975099Y-83615613D01*
X139978142Y-83631580D01*
X139985932Y-83645845D01*
X139988056Y-83683595D01*
X139988181Y-83684247D01*
X139988109Y-83684537D01*
X139988125Y-83684806D01*
X139987001Y-83695809D01*
X139987000Y-83695832D01*
X139987000Y-84304181D01*
X139997063Y-84402683D01*
X140049950Y-84562284D01*
X140049955Y-84562295D01*
X140138216Y-84705387D01*
X140138219Y-84705391D01*
X140257108Y-84824280D01*
X140257112Y-84824283D01*
X140400204Y-84912544D01*
X140400207Y-84912545D01*
X140400213Y-84912549D01*
X140559815Y-84965436D01*
X140658326Y-84975500D01*
X140658331Y-84975500D01*
X141191669Y-84975500D01*
X141191674Y-84975500D01*
X141290185Y-84965436D01*
X141449787Y-84912549D01*
X141592891Y-84824281D01*
X141625172Y-84792000D01*
X141686495Y-84758515D01*
X141756187Y-84763499D01*
X141800534Y-84792000D01*
X141832419Y-84823885D01*
X141975422Y-84912091D01*
X141975427Y-84912093D01*
X142134916Y-84964942D01*
X142233356Y-84974999D01*
X142250000Y-84974998D01*
X142250000Y-83024999D01*
X142233356Y-83025000D01*
X142134915Y-83035057D01*
X141975427Y-83087906D01*
X141975422Y-83087908D01*
X141832419Y-83176114D01*
X141800533Y-83208000D01*
X141800408Y-83208067D01*
X141800340Y-83208193D01*
X141769751Y-83224807D01*
X141739209Y-83241485D01*
X141739066Y-83241474D01*
X141738943Y-83241542D01*
X141704268Y-83238985D01*
X141669518Y-83236499D01*
X141669357Y-83236410D01*
X141669263Y-83236404D01*
X141668802Y-83236107D01*
X141638323Y-83219421D01*
X141631345Y-83214173D01*
X141592891Y-83175719D01*
X141522382Y-83132228D01*
X141517816Y-83128794D01*
X141510774Y-83119343D01*
X141489244Y-83098582D01*
X141440078Y-83025000D01*
X141430277Y-83010331D01*
X141317012Y-82897066D01*
X141283529Y-82835746D01*
X141283106Y-82833715D01*
X141269737Y-82766503D01*
X141233572Y-82679192D01*
X141209397Y-82620827D01*
X141209390Y-82620814D01*
X141121789Y-82489711D01*
X141121786Y-82489707D01*
X141010292Y-82378213D01*
X141010288Y-82378210D01*
X140879185Y-82290609D01*
X140879172Y-82290602D01*
X140733501Y-82230264D01*
X140733489Y-82230261D01*
X140578845Y-82199500D01*
X140578842Y-82199500D01*
X140421158Y-82199500D01*
X140421155Y-82199500D01*
X140266510Y-82230261D01*
X140266498Y-82230264D01*
X140120827Y-82290602D01*
X140120814Y-82290609D01*
X139989711Y-82378210D01*
X139989706Y-82378214D01*
X139935849Y-82432071D01*
X139924676Y-82438171D01*
X139916457Y-82447891D01*
X139894595Y-82454596D01*
X139874526Y-82465555D01*
X139861829Y-82464646D01*
X139849659Y-82468380D01*
X139827640Y-82462201D01*
X139804834Y-82460570D01*
X139794644Y-82452942D01*
X139782388Y-82449503D01*
X139767207Y-82432403D01*
X139748901Y-82418699D01*
X139743355Y-82405535D01*
X139736002Y-82397252D01*
X139727106Y-82366963D01*
X139725652Y-82363510D01*
X139725424Y-82362053D01*
X139716009Y-82290528D01*
X139713205Y-82283760D01*
X139710921Y-82269121D01*
X139713616Y-82248625D01*
X139711392Y-82228075D01*
X139714501Y-82217485D01*
X139713905Y-82217326D01*
X139716008Y-82209475D01*
X139716008Y-82209474D01*
X139716009Y-82209472D01*
X139730500Y-82099401D01*
X139730499Y-81900600D01*
X139730499Y-81900598D01*
X139730499Y-81900596D01*
X139716011Y-81790536D01*
X139716009Y-81790529D01*
X139716009Y-81790528D01*
X139659279Y-81653571D01*
X139569036Y-81535964D01*
X139451429Y-81445721D01*
X139451425Y-81445719D01*
X139314472Y-81388991D01*
X139314470Y-81388990D01*
X139204410Y-81374501D01*
X139204407Y-81374500D01*
X139204401Y-81374500D01*
X139204394Y-81374500D01*
X138629499Y-81374500D01*
X138562460Y-81354815D01*
X138516705Y-81302011D01*
X138505499Y-81250500D01*
X138505499Y-80675596D01*
X138491011Y-80565536D01*
X138491009Y-80565531D01*
X138491009Y-80565528D01*
X138434279Y-80428571D01*
X138344036Y-80310964D01*
X138226429Y-80220721D01*
X138226425Y-80220719D01*
X138089472Y-80163991D01*
X138089470Y-80163990D01*
X137979401Y-80149500D01*
X137780596Y-80149500D01*
X137670531Y-80163989D01*
X137662678Y-80166094D01*
X137661835Y-80162949D01*
X137609850Y-80168913D01*
X137595748Y-80166590D01*
X137589472Y-80163991D01*
X137542056Y-80157748D01*
X137540085Y-80157424D01*
X137510328Y-80143093D01*
X137480152Y-80129744D01*
X137479008Y-80128010D01*
X137477135Y-80127108D01*
X137459849Y-80098963D01*
X137441681Y-80071420D01*
X137441656Y-80069342D01*
X137440568Y-80067571D01*
X137441242Y-80034552D01*
X137440850Y-80001555D01*
X137441955Y-79999666D01*
X137441995Y-79997715D01*
X137450551Y-79984980D01*
X137472551Y-79947393D01*
X137733126Y-79686819D01*
X137794449Y-79653334D01*
X137820807Y-79650500D01*
X141679192Y-79650500D01*
X141746231Y-79670185D01*
G37*
%TD.AperFunction*%
%TA.AperFunction,Conductor*%
G36*
X137649283Y-81931677D02*
G01*
X137651925Y-81931392D01*
X137662514Y-81934501D01*
X137662674Y-81933905D01*
X137670524Y-81936008D01*
X137670526Y-81936008D01*
X137670528Y-81936009D01*
X137780599Y-81950500D01*
X137805498Y-81950499D01*
X137872536Y-81970181D01*
X137918293Y-82022984D01*
X137929500Y-82074495D01*
X137929500Y-82099402D01*
X137943989Y-82209468D01*
X137946094Y-82217322D01*
X137942814Y-82218200D01*
X137948581Y-82272073D01*
X137945517Y-82282522D01*
X137946095Y-82282677D01*
X137943990Y-82290529D01*
X137929500Y-82400598D01*
X137929500Y-82599403D01*
X137943989Y-82709468D01*
X137946094Y-82717322D01*
X137942814Y-82718200D01*
X137948581Y-82772073D01*
X137945517Y-82782522D01*
X137946095Y-82782677D01*
X137943990Y-82790529D01*
X137929500Y-82900598D01*
X137929500Y-83099403D01*
X137943989Y-83209468D01*
X137946094Y-83217322D01*
X137942814Y-83218200D01*
X137948581Y-83272073D01*
X137945517Y-83282522D01*
X137946095Y-83282677D01*
X137943990Y-83290529D01*
X137929500Y-83400598D01*
X137929500Y-83599403D01*
X137943989Y-83709468D01*
X137946094Y-83717322D01*
X137942814Y-83718200D01*
X137948581Y-83772073D01*
X137945517Y-83782522D01*
X137946095Y-83782677D01*
X137943990Y-83790529D01*
X137929500Y-83900598D01*
X137929500Y-84099403D01*
X137943989Y-84209468D01*
X137946094Y-84217322D01*
X137942814Y-84218200D01*
X137948581Y-84272073D01*
X137945517Y-84282522D01*
X137946095Y-84282677D01*
X137943990Y-84290529D01*
X137929500Y-84400598D01*
X137929500Y-84599403D01*
X137943989Y-84709468D01*
X137946094Y-84717322D01*
X137943268Y-84718079D01*
X137949678Y-84764775D01*
X137947646Y-84781702D01*
X137943991Y-84790528D01*
X137929500Y-84900599D01*
X137929500Y-84932917D01*
X137928617Y-84940275D01*
X137917651Y-84965851D01*
X137909815Y-84992539D01*
X137904077Y-84997510D01*
X137901085Y-85004491D01*
X137878033Y-85020077D01*
X137857011Y-85038294D01*
X137848286Y-85040192D01*
X137843205Y-85043628D01*
X137831204Y-85043908D01*
X137805504Y-85049500D01*
X137780597Y-85049500D01*
X137670531Y-85063989D01*
X137662678Y-85066094D01*
X137661802Y-85062824D01*
X137607853Y-85068567D01*
X137597477Y-85065518D01*
X137597323Y-85066095D01*
X137589470Y-85063990D01*
X137479401Y-85049500D01*
X137280596Y-85049500D01*
X137170531Y-85063989D01*
X137162678Y-85066094D01*
X137161802Y-85062824D01*
X137107853Y-85068567D01*
X137097477Y-85065518D01*
X137097323Y-85066095D01*
X137089470Y-85063990D01*
X136979401Y-85049500D01*
X136780596Y-85049500D01*
X136670531Y-85063989D01*
X136662678Y-85066094D01*
X136661802Y-85062824D01*
X136607853Y-85068567D01*
X136597477Y-85065518D01*
X136597323Y-85066095D01*
X136589470Y-85063990D01*
X136479401Y-85049500D01*
X136280596Y-85049500D01*
X136170531Y-85063989D01*
X136162678Y-85066094D01*
X136161802Y-85062824D01*
X136107853Y-85068567D01*
X136097477Y-85065518D01*
X136097323Y-85066095D01*
X136089470Y-85063990D01*
X135979401Y-85049500D01*
X135780596Y-85049500D01*
X135670531Y-85063989D01*
X135662678Y-85066094D01*
X135661802Y-85062824D01*
X135607853Y-85068567D01*
X135597477Y-85065518D01*
X135597323Y-85066095D01*
X135589470Y-85063990D01*
X135479401Y-85049500D01*
X135280596Y-85049500D01*
X135170531Y-85063989D01*
X135162678Y-85066094D01*
X135161924Y-85063281D01*
X135115224Y-85069678D01*
X135098297Y-85067646D01*
X135089472Y-85063991D01*
X134979401Y-85049500D01*
X134947082Y-85049500D01*
X134939724Y-85048617D01*
X134914147Y-85037651D01*
X134887460Y-85029815D01*
X134882488Y-85024077D01*
X134875508Y-85021085D01*
X134859921Y-84998033D01*
X134841705Y-84977011D01*
X134839807Y-84968286D01*
X134836371Y-84963205D01*
X134836090Y-84951202D01*
X134830499Y-84925500D01*
X134830499Y-84900597D01*
X134821544Y-84832575D01*
X134816009Y-84790528D01*
X134816008Y-84790525D01*
X134813905Y-84782674D01*
X134817207Y-84781789D01*
X134811392Y-84728075D01*
X134814501Y-84717485D01*
X134813905Y-84717326D01*
X134816008Y-84709475D01*
X134816008Y-84709474D01*
X134816009Y-84709472D01*
X134830500Y-84599401D01*
X134830499Y-84400600D01*
X134816009Y-84290528D01*
X134816008Y-84290525D01*
X134813905Y-84282674D01*
X134817207Y-84281789D01*
X134811392Y-84228075D01*
X134814501Y-84217485D01*
X134813905Y-84217326D01*
X134816008Y-84209475D01*
X134816008Y-84209474D01*
X134816009Y-84209472D01*
X134830500Y-84099401D01*
X134830499Y-83900600D01*
X134816009Y-83790528D01*
X134816008Y-83790525D01*
X134813905Y-83782674D01*
X134817207Y-83781789D01*
X134811392Y-83728075D01*
X134814501Y-83717485D01*
X134813905Y-83717326D01*
X134816008Y-83709475D01*
X134816008Y-83709474D01*
X134816009Y-83709472D01*
X134830500Y-83599401D01*
X134830499Y-83400600D01*
X134830499Y-83400598D01*
X134830499Y-83400596D01*
X134816011Y-83290536D01*
X134813906Y-83282682D01*
X134817007Y-83281850D01*
X134811128Y-83227382D01*
X134814147Y-83217389D01*
X134813418Y-83217194D01*
X134815521Y-83209342D01*
X134826626Y-83125000D01*
X134798506Y-83125000D01*
X134794835Y-83123922D01*
X134791107Y-83124779D01*
X134761574Y-83114155D01*
X134731467Y-83105315D01*
X134727917Y-83102048D01*
X134725361Y-83101129D01*
X134700115Y-83076466D01*
X134699348Y-83075466D01*
X134674167Y-83010292D01*
X134688219Y-82941850D01*
X134699348Y-82924534D01*
X134700115Y-82923534D01*
X134721055Y-82908236D01*
X134737044Y-82891870D01*
X134746404Y-82889718D01*
X134756534Y-82882319D01*
X134798506Y-82875000D01*
X134826626Y-82875000D01*
X134815521Y-82790659D01*
X134813418Y-82782807D01*
X134817041Y-82781835D01*
X134810919Y-82729884D01*
X134814495Y-82717484D01*
X134813905Y-82717326D01*
X134816008Y-82709475D01*
X134816008Y-82709474D01*
X134816009Y-82709472D01*
X134830500Y-82599401D01*
X134830499Y-82400600D01*
X134830058Y-82397252D01*
X134821267Y-82330469D01*
X134816009Y-82290528D01*
X134816008Y-82290525D01*
X134813905Y-82282674D01*
X134816757Y-82281909D01*
X134810321Y-82235225D01*
X134812352Y-82218299D01*
X134816009Y-82209472D01*
X134830500Y-82099401D01*
X134830499Y-82067083D01*
X134831383Y-82059724D01*
X134842347Y-82034149D01*
X134850185Y-82007460D01*
X134855922Y-82002488D01*
X134858916Y-81995507D01*
X134881968Y-81979919D01*
X134902989Y-81961705D01*
X134911712Y-81959807D01*
X134916796Y-81956370D01*
X134928802Y-81956089D01*
X134954500Y-81950499D01*
X134979402Y-81950499D01*
X135008382Y-81946683D01*
X135089472Y-81936009D01*
X135089475Y-81936007D01*
X135097326Y-81933905D01*
X135098210Y-81937207D01*
X135151925Y-81931392D01*
X135162514Y-81934501D01*
X135162674Y-81933905D01*
X135170524Y-81936008D01*
X135170526Y-81936008D01*
X135170528Y-81936009D01*
X135280599Y-81950500D01*
X135479400Y-81950499D01*
X135479401Y-81950499D01*
X135496087Y-81948302D01*
X135589472Y-81936009D01*
X135589475Y-81936007D01*
X135597326Y-81933905D01*
X135598210Y-81937207D01*
X135651925Y-81931392D01*
X135662514Y-81934501D01*
X135662674Y-81933905D01*
X135670524Y-81936008D01*
X135670526Y-81936008D01*
X135670528Y-81936009D01*
X135780599Y-81950500D01*
X135979400Y-81950499D01*
X135979401Y-81950499D01*
X135996087Y-81948302D01*
X136089472Y-81936009D01*
X136089475Y-81936007D01*
X136097326Y-81933905D01*
X136098210Y-81937207D01*
X136151925Y-81931392D01*
X136162514Y-81934501D01*
X136162674Y-81933905D01*
X136170524Y-81936008D01*
X136170526Y-81936008D01*
X136170528Y-81936009D01*
X136280599Y-81950500D01*
X136479400Y-81950499D01*
X136479401Y-81950499D01*
X136496087Y-81948302D01*
X136589472Y-81936009D01*
X136589475Y-81936007D01*
X136597326Y-81933905D01*
X136598210Y-81937207D01*
X136651925Y-81931392D01*
X136662514Y-81934501D01*
X136662674Y-81933905D01*
X136670524Y-81936008D01*
X136670526Y-81936008D01*
X136670528Y-81936009D01*
X136780599Y-81950500D01*
X136979400Y-81950499D01*
X136979401Y-81950499D01*
X136996087Y-81948302D01*
X137089472Y-81936009D01*
X137089475Y-81936007D01*
X137097326Y-81933905D01*
X137098210Y-81937207D01*
X137151925Y-81931392D01*
X137162514Y-81934501D01*
X137162674Y-81933905D01*
X137170524Y-81936008D01*
X137170526Y-81936008D01*
X137170528Y-81936009D01*
X137280599Y-81950500D01*
X137479400Y-81950499D01*
X137479401Y-81950499D01*
X137496087Y-81948302D01*
X137589472Y-81936009D01*
X137589475Y-81936007D01*
X137597326Y-81933905D01*
X137598210Y-81937207D01*
X137613047Y-81935601D01*
X137643348Y-81930158D01*
X137649283Y-81931677D01*
G37*
%TD.AperFunction*%
%TA.AperFunction,Conductor*%
G36*
X123938359Y-81194152D02*
G01*
X123982707Y-81222653D01*
X124243181Y-81483127D01*
X124276666Y-81544450D01*
X124279500Y-81570808D01*
X124279500Y-81831616D01*
X124279788Y-81834785D01*
X124285913Y-81902192D01*
X124285913Y-81902194D01*
X124285914Y-81902196D01*
X124336522Y-82064606D01*
X124409479Y-82185291D01*
X124427315Y-82252844D01*
X124405798Y-82319318D01*
X124351757Y-82363606D01*
X124327558Y-82371056D01*
X124310265Y-82374496D01*
X124310255Y-82374499D01*
X124191870Y-82423535D01*
X124085331Y-82494722D01*
X124085324Y-82494728D01*
X123658391Y-82921661D01*
X123597068Y-82955146D01*
X123527376Y-82950162D01*
X123483029Y-82921661D01*
X123212276Y-82650908D01*
X123178791Y-82589585D01*
X123183775Y-82519893D01*
X123225647Y-82463960D01*
X123260954Y-82445521D01*
X123363479Y-82411548D01*
X123363492Y-82411542D01*
X123507728Y-82322575D01*
X123507732Y-82322572D01*
X123627572Y-82202732D01*
X123627575Y-82202728D01*
X123716542Y-82058492D01*
X123716547Y-82058481D01*
X123769855Y-81897606D01*
X123779999Y-81798322D01*
X123780000Y-81798309D01*
X123780000Y-81750000D01*
X122954000Y-81750000D01*
X122886961Y-81730315D01*
X122841206Y-81677511D01*
X122830000Y-81626000D01*
X122830000Y-81374000D01*
X122849685Y-81306961D01*
X122902489Y-81261206D01*
X122954000Y-81250000D01*
X123779997Y-81250000D01*
X123807344Y-81222653D01*
X123868667Y-81189168D01*
X123938359Y-81194152D01*
G37*
%TD.AperFunction*%
%TA.AperFunction,Conductor*%
G36*
X115930203Y-81610582D02*
G01*
X115954540Y-81639200D01*
X115957289Y-81643657D01*
X116040411Y-81726779D01*
X116073896Y-81788102D01*
X116068912Y-81857794D01*
X116040411Y-81902141D01*
X115829371Y-82113182D01*
X115802440Y-82127888D01*
X115776627Y-82144477D01*
X115770427Y-82145368D01*
X115768051Y-82146666D01*
X115741692Y-82149500D01*
X115633231Y-82149500D01*
X115566192Y-82129815D01*
X115558920Y-82124767D01*
X115467331Y-82056204D01*
X115467328Y-82056202D01*
X115332482Y-82005908D01*
X115332483Y-82005908D01*
X115272883Y-81999501D01*
X115272881Y-81999500D01*
X115272873Y-81999500D01*
X115272865Y-81999500D01*
X113727129Y-81999500D01*
X113727123Y-81999501D01*
X113667516Y-82005908D01*
X113630942Y-82019550D01*
X113561250Y-82024534D01*
X113499929Y-81991049D01*
X113470561Y-81961681D01*
X113437076Y-81900358D01*
X113442060Y-81830666D01*
X113483932Y-81774733D01*
X113549396Y-81750316D01*
X113558242Y-81750000D01*
X115725000Y-81750000D01*
X115725000Y-81704295D01*
X115744685Y-81637256D01*
X115797489Y-81591501D01*
X115866647Y-81581557D01*
X115930203Y-81610582D01*
G37*
%TD.AperFunction*%
%TA.AperFunction,Conductor*%
G36*
X146942539Y-78520185D02*
G01*
X146988294Y-78572989D01*
X146999500Y-78624500D01*
X146999500Y-78946000D01*
X146979815Y-79013039D01*
X146927011Y-79058794D01*
X146875500Y-79070000D01*
X146365000Y-79070000D01*
X146365000Y-79986988D01*
X146307993Y-79954075D01*
X146180826Y-79920000D01*
X146049174Y-79920000D01*
X145922007Y-79954075D01*
X145865000Y-79986988D01*
X145865000Y-79070000D01*
X145217155Y-79070000D01*
X145157627Y-79076401D01*
X145157620Y-79076403D01*
X145022913Y-79126645D01*
X145022906Y-79126649D01*
X144907812Y-79212809D01*
X144907809Y-79212812D01*
X144821649Y-79327906D01*
X144821645Y-79327913D01*
X144771403Y-79462620D01*
X144771401Y-79462627D01*
X144765000Y-79522155D01*
X144765000Y-80170000D01*
X145681988Y-80170000D01*
X145649075Y-80227007D01*
X145615000Y-80354174D01*
X145615000Y-80485826D01*
X145649075Y-80612993D01*
X145681988Y-80670000D01*
X144764999Y-80670000D01*
X144750059Y-80684940D01*
X144737453Y-80691822D01*
X144727891Y-80702539D01*
X144707400Y-80708232D01*
X144688736Y-80718424D01*
X144674411Y-80717399D01*
X144660572Y-80721245D01*
X144640254Y-80714956D01*
X144619044Y-80713439D01*
X144606284Y-80704441D01*
X144593826Y-80700585D01*
X144576918Y-80683732D01*
X144567493Y-80677086D01*
X144563078Y-80671839D01*
X144505276Y-80585331D01*
X144414669Y-80494724D01*
X142632127Y-78712181D01*
X142598642Y-78650858D01*
X142603626Y-78581166D01*
X142645498Y-78525233D01*
X142710962Y-78500816D01*
X142719808Y-78500500D01*
X146875500Y-78500500D01*
X146942539Y-78520185D01*
G37*
%TD.AperFunction*%
%TD*%
M02*
